<svg width="3840" height="1298" viewBox="0 0 3840 1298" fill="none" xmlns="http://www.w3.org/2000/svg">
<g clip-path="url(#clip0)">
<rect width="3840" height="1298" fill="url(#paint0_linear)"/>
<g opacity="0.5">
<path style="mix-blend-mode:screen" d="M1982.24 234.34C1979.23 221.454 1971.94 209.969 1961.57 201.753C1951.21 193.536 1938.37 189.071 1925.14 189.084C1911.92 189.097 1899.09 193.587 1888.73 201.824C1878.38 210.061 1871.12 221.56 1868.13 234.452C1862.55 235.091 1857.2 237.023 1852.5 240.096C1847.81 243.168 1843.89 247.295 1841.07 252.149C1838.24 257.003 1836.59 262.45 1836.24 268.056C1835.89 273.662 1836.85 279.272 1839.05 284.44C1841.24 289.609 1844.62 294.193 1848.9 297.827C1853.17 301.461 1858.24 304.046 1863.69 305.376C1869.15 306.705 1874.83 306.743 1880.3 305.485C1885.77 304.227 1890.87 301.71 1895.2 298.132C1904.39 303.61 1914.89 306.468 1925.59 306.397C1936.28 306.327 1946.75 303.33 1955.86 297.731C1960.18 301.429 1965.31 304.051 1970.84 305.385C1976.37 306.718 1982.13 306.724 1987.66 305.403C1993.19 304.082 1998.33 301.47 2002.66 297.782C2006.99 294.093 2010.39 289.433 2012.57 284.18C2014.76 278.927 2015.67 273.231 2015.24 267.558C2014.81 261.884 2013.04 256.393 2010.08 251.533C2007.13 246.674 2003.06 242.583 1998.22 239.595C1993.39 236.607 1987.91 234.806 1982.24 234.34Z" fill="url(#paint1_linear)"/>
<path style="mix-blend-mode:screen" d="M2704.39 134.032C2701.37 121.146 2694.09 109.661 2683.72 101.444C2673.35 93.2274 2660.51 88.7625 2647.29 88.7754C2634.07 88.7884 2621.23 93.2784 2610.88 101.515C2600.53 109.752 2593.27 121.252 2590.28 134.144C2584.7 134.782 2579.35 136.715 2574.65 139.787C2569.95 142.86 2566.04 146.987 2563.21 151.841C2560.39 156.695 2558.74 162.141 2558.39 167.747C2558.04 173.353 2559 178.963 2561.2 184.132C2563.39 189.3 2566.76 193.884 2571.04 197.518C2575.32 201.153 2580.39 203.738 2585.84 205.067C2591.3 206.397 2596.98 206.434 2602.45 205.176C2607.92 203.919 2613.02 201.401 2617.35 197.823C2626.53 203.301 2637.04 206.159 2647.73 206.089C2658.43 206.018 2668.9 203.021 2678.01 197.422C2682.33 201.12 2687.46 203.743 2692.99 205.076C2698.52 206.41 2704.28 206.416 2709.81 205.095C2715.34 203.773 2720.48 201.162 2724.81 197.473C2729.14 193.785 2732.54 189.124 2734.72 183.871C2736.91 178.619 2737.82 172.923 2737.39 167.249C2736.96 161.575 2735.19 156.085 2732.23 151.225C2729.27 146.365 2725.21 142.274 2720.37 139.286C2715.53 136.298 2710.06 134.498 2704.39 134.032Z" fill="url(#paint2_linear)"/>
<path style="mix-blend-mode:screen" d="M1246.16 169.256C1243.15 156.37 1235.86 144.885 1225.49 136.669C1215.13 128.452 1202.29 123.987 1189.06 124C1175.84 124.013 1163.01 128.503 1152.66 136.74C1142.31 144.977 1135.04 156.476 1132.05 169.368C1126.47 170.007 1121.12 171.94 1116.43 175.012C1111.73 178.084 1107.81 182.211 1104.99 187.065C1102.16 191.919 1100.51 197.366 1100.16 202.972C1099.81 208.578 1100.77 214.188 1102.97 219.356C1105.17 224.525 1108.54 229.109 1112.82 232.743C1117.1 236.377 1122.16 238.962 1127.62 240.292C1133.07 241.621 1138.76 241.659 1144.23 240.401C1149.7 239.144 1154.8 236.626 1159.12 233.048C1168.31 238.526 1178.82 241.384 1189.51 241.313C1200.2 241.243 1210.67 238.246 1219.78 232.647C1224.1 236.345 1229.24 238.967 1234.76 240.301C1240.29 241.634 1246.06 241.64 1251.59 240.319C1257.12 238.998 1262.25 236.386 1266.58 232.698C1270.91 229.009 1274.31 224.349 1276.5 219.096C1278.68 213.843 1279.6 208.147 1279.16 202.474C1278.73 196.8 1276.96 191.309 1274.01 186.449C1271.05 181.59 1266.98 177.499 1262.15 174.511C1257.31 171.523 1251.83 169.722 1246.16 169.256Z" fill="url(#paint3_linear)"/>
<path style="mix-blend-mode:screen" d="M1852.47 285.929C1850.99 279.617 1847.42 273.992 1842.35 269.967C1837.27 265.943 1830.98 263.756 1824.5 263.762C1818.02 263.768 1811.74 265.967 1806.67 270.001C1801.6 274.035 1798.04 279.667 1796.57 285.981C1793.84 286.296 1791.22 287.244 1788.92 288.749C1786.62 290.255 1784.71 292.276 1783.33 294.653C1781.94 297.031 1781.14 299.698 1780.96 302.443C1780.79 305.187 1781.26 307.934 1782.34 310.465C1783.42 312.996 1785.07 315.24 1787.16 317.02C1789.26 318.8 1791.74 320.066 1794.41 320.717C1797.08 321.369 1799.86 321.388 1802.54 320.774C1805.22 320.159 1807.72 318.928 1809.84 317.177C1814.34 319.86 1819.48 321.26 1824.72 321.225C1829.96 321.19 1835.09 319.722 1839.55 316.98C1841.67 318.793 1844.18 320.078 1846.89 320.732C1849.6 321.386 1852.42 321.39 1855.13 320.743C1857.84 320.096 1860.36 318.817 1862.48 317.009C1864.6 315.202 1866.27 312.919 1867.34 310.345C1868.41 307.771 1868.86 304.98 1868.64 302.2C1868.43 299.42 1867.56 296.73 1866.12 294.349C1864.67 291.968 1862.67 289.964 1860.3 288.5C1857.93 287.037 1855.25 286.156 1852.47 285.929Z" fill="url(#paint4_linear)"/>
<path style="mix-blend-mode:screen" d="M2785.9 146.167C2784.42 139.855 2780.85 134.23 2775.78 130.205C2770.7 126.181 2764.41 123.994 2757.93 124C2751.45 124.006 2745.17 126.205 2740.1 130.239C2735.03 134.273 2731.47 139.905 2730 146.22C2727.27 146.534 2724.65 147.482 2722.35 148.987C2720.05 150.493 2718.14 152.515 2716.76 154.892C2715.37 157.269 2714.56 159.936 2714.39 162.681C2714.22 165.426 2714.69 168.173 2715.77 170.703C2716.85 173.234 2718.5 175.478 2720.59 177.258C2722.69 179.038 2725.17 180.304 2727.84 180.956C2730.51 181.607 2733.29 181.627 2735.97 181.012C2738.65 180.398 2741.15 179.166 2743.27 177.415C2747.77 180.098 2752.91 181.498 2758.15 181.463C2763.39 181.429 2768.51 179.961 2772.98 177.218C2775.1 179.031 2777.61 180.317 2780.32 180.971C2783.03 181.625 2785.85 181.628 2788.56 180.981C2791.27 180.334 2793.79 179.055 2795.91 177.248C2798.03 175.441 2799.7 173.157 2800.77 170.583C2801.84 168.009 2802.29 165.218 2802.07 162.438C2801.86 159.658 2800.99 156.968 2799.54 154.587C2798.1 152.206 2796.1 150.202 2793.73 148.739C2791.36 147.275 2788.68 146.394 2785.9 146.167Z" fill="url(#paint5_linear)"/>
<path style="mix-blend-mode:screen" d="M1529.1 139.433C1527.62 133.121 1524.06 127.496 1518.98 123.471C1513.9 119.447 1507.61 117.26 1501.13 117.266C1494.66 117.272 1488.37 119.471 1483.3 123.505C1478.23 127.539 1474.67 133.171 1473.21 139.485C1470.48 139.8 1467.86 140.748 1465.56 142.253C1463.26 143.758 1461.34 145.78 1459.96 148.157C1458.58 150.535 1457.77 153.202 1457.6 155.946C1457.43 158.691 1457.9 161.438 1458.97 163.969C1460.05 166.499 1461.7 168.744 1463.79 170.524C1465.89 172.304 1468.37 173.57 1471.04 174.221C1473.71 174.873 1476.49 174.892 1479.17 174.278C1481.85 173.663 1484.35 172.432 1486.47 170.681C1490.97 173.364 1496.12 174.764 1501.35 174.729C1506.59 174.694 1511.72 173.226 1516.18 170.484C1518.3 172.296 1520.81 173.582 1523.52 174.236C1526.23 174.89 1529.05 174.894 1531.76 174.247C1534.47 173.6 1536.99 172.321 1539.11 170.513C1541.23 168.706 1542.9 166.422 1543.97 163.849C1545.04 161.275 1545.49 158.484 1545.28 155.704C1545.06 152.924 1544.2 150.234 1542.75 147.853C1541.3 145.472 1539.31 143.468 1536.94 142.004C1534.56 140.541 1531.88 139.66 1529.1 139.433Z" fill="url(#paint6_linear)"/>
<path style="mix-blend-mode:screen" opacity="0.74" d="M1792.16 236.259C1791.39 232.983 1789.54 230.064 1786.91 227.975C1784.27 225.885 1781.01 224.748 1777.65 224.748C1774.29 224.748 1771.03 225.885 1768.39 227.975C1765.76 230.064 1763.91 232.983 1763.14 236.259C1761.71 236.412 1760.34 236.899 1759.13 237.679C1757.93 238.459 1756.92 239.511 1756.19 240.75C1755.47 241.99 1755.04 243.382 1754.95 244.816C1754.86 246.251 1755.1 247.686 1755.66 249.009C1756.23 250.331 1757.09 251.503 1758.19 252.431C1759.28 253.359 1760.58 254.017 1761.98 254.353C1763.37 254.688 1764.83 254.691 1766.23 254.362C1767.63 254.033 1768.93 253.381 1770.03 252.458C1772.36 253.848 1775.04 254.573 1777.75 254.554C1780.47 254.535 1783.13 253.774 1785.45 252.353C1786.55 253.315 1787.86 254.003 1789.27 254.359C1790.69 254.715 1792.17 254.728 1793.59 254.399C1795.01 254.069 1796.33 253.406 1797.45 252.463C1798.56 251.521 1799.43 250.327 1800 248.979C1800.56 247.632 1800.79 246.17 1800.68 244.714C1800.56 243.259 1800.1 241.851 1799.34 240.608C1798.57 239.365 1797.52 238.323 1796.27 237.566C1795.03 236.81 1793.62 236.362 1792.16 236.259Z" fill="url(#paint7_linear)"/>
<path style="mix-blend-mode:screen" opacity="0.74" d="M2470.22 238.444C2469.45 235.169 2467.6 232.25 2464.96 230.16C2462.33 228.071 2459.07 226.934 2455.71 226.934C2452.34 226.934 2449.08 228.071 2446.45 230.16C2443.81 232.25 2441.96 235.169 2441.19 238.444C2439.77 238.598 2438.39 239.084 2437.19 239.864C2435.98 240.644 2434.98 241.696 2434.25 242.936C2433.52 244.175 2433.1 245.568 2433 247.002C2432.91 248.436 2433.16 249.872 2433.72 251.194C2434.28 252.517 2435.14 253.689 2436.24 254.617C2437.34 255.545 2438.64 256.203 2440.03 256.538C2441.43 256.873 2442.88 256.877 2444.28 256.548C2445.68 256.219 2446.98 255.566 2448.08 254.643C2450.42 256.033 2453.09 256.758 2455.81 256.74C2458.53 256.721 2461.19 255.96 2463.51 254.538C2464.6 255.501 2465.91 256.189 2467.33 256.545C2468.74 256.9 2470.22 256.914 2471.64 256.584C2473.06 256.255 2474.39 255.591 2475.5 254.649C2476.62 253.707 2477.49 252.512 2478.05 251.165C2478.61 249.817 2478.85 248.355 2478.73 246.9C2478.62 245.444 2478.16 244.037 2477.39 242.794C2476.63 241.551 2475.58 240.508 2474.33 239.752C2473.08 238.995 2471.67 238.547 2470.22 238.444Z" fill="url(#paint8_linear)"/>
<path style="mix-blend-mode:screen" opacity="0.74" d="M1872.13 163.892C1869.67 153.377 1863.73 144.005 1855.27 137.3C1846.81 130.594 1836.33 126.95 1825.54 126.961C1814.75 126.972 1804.28 130.636 1795.84 137.358C1787.39 144.08 1781.47 153.465 1779.03 163.984C1774.48 164.502 1770.12 166.076 1766.28 168.581C1762.45 171.086 1759.25 174.453 1756.94 178.413C1754.64 182.373 1753.29 186.817 1753 191.391C1752.72 195.965 1753.5 200.542 1755.3 204.759C1757.09 208.976 1759.84 212.715 1763.33 215.68C1766.83 218.644 1770.96 220.751 1775.41 221.833C1779.86 222.915 1784.5 222.942 1788.96 221.912C1793.43 220.882 1797.59 218.824 1801.11 215.901C1808.61 220.372 1817.18 222.706 1825.9 222.649C1834.62 222.592 1843.16 220.147 1850.6 215.579C1854.12 218.596 1858.31 220.735 1862.82 221.823C1867.33 222.911 1872.03 222.917 1876.54 221.839C1881.05 220.761 1885.24 218.631 1888.78 215.622C1892.31 212.613 1895.08 208.811 1896.86 204.526C1898.64 200.241 1899.39 195.594 1899.04 190.966C1898.68 186.338 1897.24 181.859 1894.83 177.894C1892.42 173.93 1889.1 170.594 1885.15 168.157C1881.2 165.72 1876.74 164.252 1872.11 163.873L1872.13 163.892Z" fill="url(#paint9_linear)"/>
<path style="mix-blend-mode:screen" opacity="0.74" d="M2960.89 226.931C2958.43 216.417 2952.49 207.044 2944.03 200.339C2935.58 193.633 2925.1 189.989 2914.31 190C2903.52 190.011 2893.05 193.675 2884.6 200.397C2876.16 207.119 2870.24 216.504 2867.8 227.023C2863.25 227.541 2858.88 229.116 2855.05 231.62C2851.21 234.125 2848.01 237.492 2845.71 241.452C2843.4 245.412 2842.05 249.856 2841.77 254.43C2841.48 259.004 2842.27 263.582 2844.06 267.798C2845.85 272.015 2848.61 275.755 2852.1 278.719C2855.59 281.683 2859.73 283.79 2864.18 284.872C2868.63 285.954 2873.27 285.981 2877.73 284.951C2882.19 283.921 2886.35 281.863 2889.88 278.94C2897.37 283.411 2905.94 285.745 2914.67 285.688C2923.39 285.631 2931.93 283.186 2939.36 278.618C2942.89 281.635 2947.08 283.774 2951.58 284.862C2956.09 285.95 2960.79 285.956 2965.31 284.878C2969.82 283.8 2974.01 281.67 2977.54 278.661C2981.07 275.652 2983.84 271.85 2985.63 267.565C2987.41 263.28 2988.16 258.633 2987.8 254.005C2987.45 249.377 2986.01 244.898 2983.59 240.934C2981.18 236.969 2977.87 233.633 2973.92 231.196C2969.97 228.759 2965.5 227.291 2960.88 226.912L2960.89 226.931Z" fill="url(#paint10_linear)"/>
<path style="mix-blend-mode:screen" opacity="0.74" d="M1426.18 230.226C1423.72 219.711 1417.78 210.339 1409.32 203.633C1400.86 196.928 1390.39 193.284 1379.6 193.295C1368.81 193.306 1358.34 196.97 1349.89 203.692C1341.45 210.414 1335.52 219.799 1333.09 230.318C1328.54 230.836 1324.17 232.41 1320.34 234.915C1316.5 237.42 1313.3 240.787 1311 244.747C1308.69 248.707 1307.34 253.151 1307.06 257.725C1306.77 262.299 1307.56 266.876 1309.35 271.093C1311.14 275.31 1313.9 279.049 1317.39 282.014C1320.88 284.978 1325.02 287.085 1329.47 288.167C1333.92 289.249 1338.56 289.276 1343.02 288.246C1347.48 287.216 1351.64 285.158 1355.17 282.235C1362.66 286.706 1371.23 289.039 1379.95 288.983C1388.68 288.926 1397.22 286.481 1404.65 281.913C1408.18 284.929 1412.36 287.069 1416.87 288.157C1421.38 289.245 1426.08 289.251 1430.6 288.173C1435.11 287.095 1439.3 284.965 1442.83 281.956C1446.36 278.947 1449.13 275.145 1450.92 270.86C1452.7 266.575 1453.44 261.928 1453.09 257.3C1452.74 252.672 1451.3 248.193 1448.88 244.228C1446.47 240.264 1443.15 236.928 1439.21 234.491C1435.26 232.054 1430.79 230.586 1426.17 230.207L1426.18 230.226Z" fill="url(#paint11_linear)"/>
<path style="mix-blend-mode:screen" opacity="0.74" d="M2144.26 165.976C2141.8 155.461 2135.86 146.089 2127.4 139.383C2118.94 132.678 2108.47 129.034 2097.68 129.045C2086.89 129.056 2076.42 132.72 2067.97 139.442C2059.53 146.164 2053.6 155.549 2051.16 166.068C2046.61 166.586 2042.25 168.16 2038.41 170.665C2034.58 173.17 2031.38 176.537 2029.08 180.497C2026.77 184.457 2025.42 188.901 2025.14 193.475C2024.85 198.049 2025.63 202.626 2027.43 206.843C2029.22 211.06 2031.97 214.799 2035.47 217.764C2038.96 220.728 2043.1 222.835 2047.54 223.917C2051.99 224.999 2056.64 225.026 2061.1 223.996C2065.56 222.966 2069.72 220.908 2073.25 217.985C2080.74 222.456 2089.31 224.789 2098.03 224.733C2106.76 224.676 2115.3 222.231 2122.73 217.663C2126.25 220.679 2130.44 222.819 2134.95 223.907C2139.46 224.995 2144.16 225.001 2148.67 223.923C2153.18 222.845 2157.38 220.715 2160.91 217.706C2164.44 214.697 2167.21 210.895 2168.99 206.61C2170.78 202.325 2171.52 197.678 2171.17 193.05C2170.82 188.422 2169.37 183.943 2166.96 179.978C2164.55 176.014 2161.23 172.678 2157.28 170.241C2153.34 167.804 2148.87 166.336 2144.25 165.957L2144.26 165.976Z" fill="url(#paint12_linear)"/>
</g>
<g opacity="0.5">
<path style="mix-blend-mode:screen" d="M310.257 249.565C313.275 236.679 320.56 225.194 330.927 216.977C341.295 208.761 354.134 204.296 367.359 204.309C380.583 204.322 393.414 208.812 403.765 217.049C414.116 225.286 421.379 236.785 424.372 249.677C429.948 250.316 435.297 252.248 439.996 255.32C444.694 258.393 448.611 262.52 451.434 267.374C454.258 272.228 455.911 277.675 456.262 283.28C456.612 288.886 455.65 294.497 453.453 299.665C451.256 304.833 447.884 309.417 443.605 313.052C439.326 316.686 434.259 319.271 428.806 320.6C423.353 321.93 417.666 321.967 412.196 320.71C406.726 319.452 401.625 316.934 397.299 313.356C388.114 318.834 377.606 321.693 366.914 321.622C356.222 321.551 345.752 318.554 336.64 312.956C332.319 316.653 327.185 319.276 321.658 320.609C316.131 321.943 310.367 321.949 304.837 320.628C299.306 319.306 294.167 316.695 289.838 313.006C285.508 309.318 282.112 304.657 279.926 299.404C277.74 294.152 276.826 288.456 277.258 282.782C277.691 277.109 279.458 271.618 282.416 266.758C285.373 261.898 289.437 257.807 294.276 254.819C299.114 251.831 304.59 250.031 310.257 249.565Z" fill="url(#paint13_linear)"/>
<path style="mix-blend-mode:screen" d="M440.029 301.151C441.508 294.84 445.076 289.214 450.155 285.19C455.233 281.165 461.522 278.978 467.999 278.984C474.477 278.99 480.762 281.189 485.832 285.223C490.903 289.257 494.461 294.89 495.928 301.204C498.658 301.519 501.276 302.466 503.576 303.972C505.876 305.477 507.793 307.499 509.175 309.876C510.556 312.253 511.365 314.92 511.536 317.665C511.707 320.41 511.236 323.157 510.16 325.688C509.084 328.218 507.433 330.463 505.338 332.242C503.243 334.022 500.762 335.288 498.093 335.94C495.423 336.592 492.638 336.611 489.96 335.996C487.281 335.382 484.783 334.15 482.664 332.4C478.164 335.083 473.017 336.482 467.78 336.448C462.543 336.413 457.415 334.945 452.952 332.203C450.835 334.015 448.32 335.301 445.611 335.955C442.903 336.609 440.079 336.613 437.369 335.966C434.66 335.319 432.141 334.039 430.02 332.232C427.898 330.425 426.234 328.141 425.163 325.567C424.092 322.994 423.644 320.203 423.856 317.423C424.069 314.643 424.935 311.952 426.385 309.571C427.835 307.19 429.826 305.187 432.198 303.723C434.569 302.26 437.253 301.379 440.029 301.151Z" fill="url(#paint14_linear)"/>
<path style="mix-blend-mode:screen" d="M763.396 154.657C764.875 148.346 768.444 142.72 773.522 138.696C778.6 134.671 784.889 132.484 791.366 132.49C797.844 132.496 804.129 134.695 809.199 138.729C814.27 142.763 817.828 148.395 819.295 154.71C822.025 155.024 824.644 155.972 826.943 157.478C829.243 158.983 831.16 161.005 832.542 163.382C833.924 165.759 834.732 168.426 834.903 171.171C835.074 173.916 834.603 176.663 833.527 179.193C832.451 181.724 830.8 183.968 828.705 185.748C826.61 187.528 824.129 188.794 821.46 189.446C818.79 190.098 816.005 190.117 813.327 189.502C810.649 188.888 808.15 187.656 806.031 185.906C801.532 188.588 796.385 189.988 791.147 189.954C785.91 189.919 780.782 188.451 776.319 185.708C774.202 187.521 771.687 188.807 768.979 189.461C766.271 190.115 763.446 190.119 760.736 189.472C758.027 188.825 755.508 187.545 753.387 185.738C751.265 183.931 749.601 181.647 748.53 179.073C747.459 176.499 747.011 173.709 747.224 170.929C747.436 168.148 748.302 165.458 749.752 163.077C751.202 160.696 753.194 158.692 755.565 157.229C757.936 155.766 760.62 154.884 763.396 154.657Z" fill="url(#paint15_linear)"/>
<path style="mix-blend-mode:screen" opacity="0.74" d="M500.334 251.483C501.102 248.208 502.953 245.289 505.588 243.199C508.222 241.11 511.484 239.973 514.846 239.973C518.207 239.973 521.47 241.11 524.104 243.199C526.738 245.289 528.589 248.208 529.357 251.483C530.785 251.637 532.157 252.123 533.363 252.903C534.569 253.683 535.576 254.735 536.302 255.975C537.029 257.214 537.455 258.607 537.547 260.041C537.64 261.475 537.395 262.911 536.832 264.233C536.27 265.556 535.406 266.728 534.31 267.656C533.213 268.584 531.915 269.242 530.518 269.577C529.122 269.913 527.667 269.916 526.269 269.587C524.871 269.258 523.57 268.606 522.469 267.682C520.132 269.072 517.461 269.797 514.742 269.779C512.024 269.76 509.363 268.999 507.045 267.577C505.948 268.54 504.638 269.228 503.223 269.584C501.808 269.939 500.329 269.953 498.908 269.623C497.487 269.294 496.164 268.63 495.05 267.688C493.936 266.746 493.061 265.551 492.499 264.204C491.938 262.856 491.704 261.394 491.819 259.939C491.933 258.483 492.392 257.076 493.158 255.833C493.923 254.59 494.973 253.547 496.221 252.791C497.469 252.035 498.879 251.586 500.334 251.483Z" fill="url(#paint16_linear)"/>
<path style="mix-blend-mode:screen" opacity="0.74" d="M420.372 179.117C422.832 168.602 428.774 159.23 437.232 152.524C445.69 145.819 456.167 142.175 466.957 142.186C477.747 142.196 488.216 145.861 496.661 152.583C505.106 159.305 511.03 168.689 513.469 179.209C518.018 179.727 522.385 181.301 526.219 183.806C530.054 186.311 533.251 189.677 535.556 193.637C537.862 197.597 539.211 202.041 539.497 206.615C539.783 211.189 538.998 215.767 537.205 219.984C535.411 224.201 532.659 227.94 529.166 230.904C525.674 233.868 521.538 235.975 517.088 237.057C512.638 238.139 507.997 238.166 503.535 237.137C499.073 236.107 494.913 234.048 491.386 231.125C483.894 235.596 475.322 237.93 466.6 237.873C457.877 237.817 449.336 235.372 441.903 230.803C438.378 233.82 434.19 235.96 429.682 237.048C425.173 238.136 420.471 238.141 415.959 237.064C411.448 235.986 407.256 233.855 403.724 230.847C400.192 227.838 397.422 224.035 395.638 219.75C393.855 215.465 393.11 210.819 393.463 206.191C393.817 201.562 395.259 197.083 397.672 193.119C400.085 189.155 403.4 185.818 407.348 183.381C411.295 180.944 415.763 179.476 420.385 179.097L420.372 179.117Z" fill="url(#paint17_linear)"/>
<path style="mix-blend-mode:screen" opacity="0.74" d="M866.317 245.451C868.777 234.936 874.719 225.564 883.177 218.858C891.636 212.153 902.112 208.509 912.902 208.52C923.692 208.53 934.162 212.195 942.606 218.917C951.051 225.639 956.975 235.023 959.414 245.543C963.964 246.061 968.33 247.635 972.165 250.14C975.999 252.645 979.197 256.011 981.502 259.971C983.807 263.931 985.156 268.375 985.443 272.949C985.729 277.523 984.944 282.101 983.15 286.318C981.357 290.535 978.604 294.274 975.111 297.238C971.619 300.202 967.483 302.309 963.033 303.391C958.584 304.473 953.943 304.5 949.481 303.471C945.019 302.441 940.858 300.382 937.332 297.459C929.84 301.93 921.268 304.264 912.545 304.207C903.822 304.151 895.282 301.706 887.848 297.137C884.323 300.154 880.136 302.294 875.627 303.382C871.118 304.47 866.416 304.475 861.905 303.398C857.393 302.32 853.201 300.189 849.669 297.181C846.138 294.172 843.367 290.369 841.584 286.084C839.8 281.799 839.055 277.153 839.409 272.525C839.762 267.896 841.204 263.417 843.617 259.453C846.03 255.489 849.346 252.152 853.293 249.715C857.241 247.278 861.708 245.81 866.331 245.431L866.317 245.451Z" fill="url(#paint18_linear)"/>
<path style="mix-blend-mode:screen" opacity="0.74" d="M148.239 181.201C150.699 170.686 156.641 161.314 165.099 154.608C173.557 147.903 184.034 144.259 194.824 144.27C205.614 144.28 216.083 147.945 224.528 154.667C232.973 161.389 238.897 170.773 241.336 181.293C245.886 181.811 250.252 183.385 254.086 185.89C257.921 188.395 261.118 191.761 263.424 195.721C265.729 199.681 267.078 204.125 267.364 208.699C267.651 213.273 266.866 217.851 265.072 222.068C263.278 226.285 260.526 230.024 257.033 232.988C253.541 235.952 249.405 238.059 244.955 239.141C240.505 240.223 235.865 240.25 231.403 239.221C226.94 238.191 222.78 236.132 219.253 233.209C211.761 237.68 203.19 240.014 194.467 239.957C185.744 239.901 177.203 237.456 169.77 232.887C166.245 235.904 162.058 238.044 157.549 239.132C153.04 240.22 148.338 240.225 143.827 239.148C139.315 238.07 135.123 235.939 131.591 232.931C128.059 229.922 125.289 226.119 123.506 221.834C121.722 217.549 120.977 212.903 121.33 208.275C121.684 203.646 123.126 199.167 125.539 195.203C127.952 191.239 131.268 187.902 135.215 185.465C139.163 183.028 143.63 181.56 148.252 181.181L148.239 181.201Z" fill="url(#paint19_linear)"/>
</g>
<g opacity="0.5">
<path style="mix-blend-mode:screen" d="M3819.02 198.819C3816 185.933 3808.72 174.448 3798.35 166.231C3787.98 158.014 3775.14 153.55 3761.92 153.563C3748.69 153.575 3735.86 158.065 3725.51 166.302C3715.16 174.539 3707.9 186.039 3704.91 198.931C3699.33 199.57 3693.98 201.502 3689.28 204.574C3684.58 207.647 3680.67 211.774 3677.84 216.628C3675.02 221.482 3673.37 226.928 3673.02 232.534C3672.67 238.14 3673.63 243.75 3675.82 248.919C3678.02 254.087 3681.39 258.671 3685.67 262.306C3689.95 265.94 3695.02 268.525 3700.47 269.854C3705.92 271.184 3711.61 271.221 3717.08 269.964C3722.55 268.706 3727.65 266.188 3731.98 262.61C3741.16 268.088 3751.67 270.946 3762.36 270.876C3773.06 270.805 3783.52 267.808 3792.64 262.209C3796.96 265.907 3802.09 268.53 3807.62 269.863C3813.15 271.197 3818.91 271.203 3824.44 269.882C3829.97 268.56 3835.11 265.949 3839.44 262.26C3843.77 258.572 3847.17 253.911 3849.35 248.658C3851.54 243.406 3852.45 237.71 3852.02 232.036C3851.59 226.363 3849.82 220.872 3846.86 216.012C3843.9 211.152 3839.84 207.061 3835 204.073C3830.16 201.085 3824.69 199.285 3819.02 198.819Z" fill="url(#paint20_linear)"/>
<path style="mix-blend-mode:screen" d="M3082.94 133.735C3079.92 120.849 3072.64 109.364 3062.27 101.147C3051.9 92.9305 3039.06 88.4656 3025.84 88.4785C3012.62 88.4915 2999.79 92.9815 2989.43 101.218C2979.08 109.455 2971.82 120.955 2968.83 133.847C2963.25 134.486 2957.9 136.418 2953.2 139.49C2948.51 142.563 2944.59 146.69 2941.76 151.544C2938.94 156.398 2937.29 161.845 2936.94 167.45C2936.59 173.056 2937.55 178.666 2939.75 183.835C2941.94 189.003 2945.32 193.587 2949.59 197.222C2953.87 200.856 2958.94 203.441 2964.39 204.77C2969.85 206.1 2975.53 206.137 2981 204.88C2986.47 203.622 2991.57 201.104 2995.9 197.526C3005.09 203.004 3015.59 205.863 3026.29 205.792C3036.98 205.721 3047.45 202.724 3056.56 197.125C3060.88 200.823 3066.01 203.446 3071.54 204.779C3077.07 206.113 3082.83 206.119 3088.36 204.798C3093.89 203.476 3099.03 200.865 3103.36 197.176C3107.69 193.488 3111.09 188.827 3113.27 183.574C3115.46 178.322 3116.37 172.626 3115.94 166.952C3115.51 161.279 3113.74 155.788 3110.78 150.928C3107.83 146.068 3103.76 141.977 3098.92 138.989C3094.08 136.001 3088.61 134.201 3082.94 133.735Z" fill="url(#paint21_linear)"/>
<path style="mix-blend-mode:screen" d="M3689.24 250.405C3687.77 244.094 3684.2 238.468 3679.12 234.444C3674.04 230.419 3667.75 228.232 3661.27 228.238C3654.8 228.244 3648.51 230.443 3643.44 234.477C3638.37 238.511 3634.81 244.143 3633.35 250.458C3630.62 250.772 3628 251.72 3625.7 253.226C3623.4 254.731 3621.48 256.753 3620.1 259.13C3618.72 261.507 3617.91 264.174 3617.74 266.919C3617.57 269.664 3618.04 272.411 3619.11 274.942C3620.19 277.472 3621.84 279.717 3623.94 281.496C3626.03 283.276 3628.51 284.542 3631.18 285.194C3633.85 285.846 3636.64 285.865 3639.31 285.25C3641.99 284.636 3644.49 283.404 3646.61 281.654C3651.11 284.336 3656.26 285.736 3661.49 285.702C3666.73 285.667 3671.86 284.199 3676.32 281.457C3678.44 283.269 3680.95 284.555 3683.66 285.209C3686.37 285.863 3689.19 285.867 3691.9 285.22C3694.61 284.573 3697.13 283.293 3699.25 281.486C3701.38 279.679 3703.04 277.395 3704.11 274.821C3705.18 272.247 3705.63 269.457 3705.42 266.677C3705.2 263.897 3704.34 261.206 3702.89 258.825C3701.44 256.444 3699.45 254.44 3697.08 252.977C3694.7 251.514 3692.02 250.632 3689.24 250.405Z" fill="url(#paint22_linear)"/>
<path style="mix-blend-mode:screen" d="M3365.88 103.911C3364.4 97.5995 3360.83 91.9741 3355.76 87.9496C3350.68 83.9251 3344.39 81.7381 3337.91 81.7442C3331.43 81.7502 3325.15 83.9491 3320.08 87.9832C3315.01 92.0172 3311.45 97.6493 3309.98 103.964C3307.25 104.278 3304.63 105.226 3302.33 106.732C3300.03 108.237 3298.12 110.259 3296.74 112.636C3295.35 115.013 3294.55 117.68 3294.37 120.425C3294.2 123.17 3294.67 125.917 3295.75 128.447C3296.83 130.978 3298.48 133.222 3300.57 135.002C3302.67 136.782 3305.15 138.048 3307.82 138.7C3310.49 139.352 3313.27 139.371 3315.95 138.756C3318.63 138.142 3321.13 136.91 3323.25 135.16C3327.75 137.842 3332.89 139.242 3338.13 139.207C3343.37 139.173 3348.5 137.705 3352.96 134.962C3355.08 136.775 3357.59 138.061 3360.3 138.715C3363.01 139.369 3365.83 139.372 3368.54 138.725C3371.25 138.078 3373.77 136.799 3375.89 134.992C3378.01 133.185 3379.68 130.901 3380.75 128.327C3381.82 125.753 3382.27 122.962 3382.05 120.182C3381.84 117.402 3380.98 114.712 3379.53 112.331C3378.08 109.95 3376.08 107.946 3373.71 106.483C3371.34 105.02 3368.66 104.138 3365.88 103.911Z" fill="url(#paint23_linear)"/>
<path style="mix-blend-mode:screen" opacity="0.74" d="M3628.94 200.737C3628.18 197.462 3626.32 194.543 3623.69 192.453C3621.06 190.364 3617.79 189.227 3614.43 189.227C3611.07 189.227 3607.81 190.364 3605.17 192.453C3602.54 194.543 3600.69 197.462 3599.92 200.737C3598.49 200.891 3597.12 201.377 3595.91 202.157C3594.71 202.937 3593.7 203.989 3592.98 205.229C3592.25 206.468 3591.82 207.861 3591.73 209.295C3591.64 210.729 3591.88 212.165 3592.45 213.487C3593.01 214.81 3593.87 215.982 3594.97 216.91C3596.06 217.838 3597.36 218.496 3598.76 218.831C3600.16 219.166 3601.61 219.17 3603.01 218.841C3604.41 218.512 3605.71 217.859 3606.81 216.936C3609.15 218.326 3611.82 219.051 3614.53 219.032C3617.25 219.014 3619.91 218.253 3622.23 216.831C3623.33 217.794 3624.64 218.482 3626.05 218.838C3627.47 219.193 3628.95 219.207 3630.37 218.877C3631.79 218.548 3633.11 217.884 3634.23 216.942C3635.34 216 3636.22 214.805 3636.78 213.458C3637.34 212.11 3637.57 210.648 3637.46 209.193C3637.34 207.737 3636.89 206.33 3636.12 205.087C3635.35 203.844 3634.3 202.801 3633.06 202.045C3631.81 201.288 3630.4 200.84 3628.94 200.737Z" fill="url(#paint24_linear)"/>
<path style="mix-blend-mode:screen" opacity="0.74" d="M3708.91 128.371C3706.45 117.856 3700.51 108.483 3692.05 101.778C3683.59 95.0726 3673.11 91.4288 3662.32 91.4395C3651.53 91.4501 3641.07 95.1146 3632.62 101.837C3624.18 108.559 3618.25 117.943 3615.81 128.463C3611.26 128.981 3606.9 130.555 3603.06 133.06C3599.23 135.565 3596.03 138.931 3593.72 142.891C3591.42 146.851 3590.07 151.295 3589.78 155.869C3589.5 160.443 3590.28 165.021 3592.08 169.238C3593.87 173.455 3596.62 177.194 3600.12 180.158C3603.61 183.122 3607.74 185.229 3612.19 186.311C3616.64 187.393 3621.28 187.42 3625.75 186.391C3630.21 185.361 3634.37 183.302 3637.89 180.379C3645.39 184.85 3653.96 187.184 3662.68 187.127C3671.4 187.071 3679.95 184.625 3687.38 180.057C3690.9 183.074 3695.09 185.214 3699.6 186.302C3704.11 187.39 3708.81 187.395 3713.32 186.317C3717.83 185.24 3722.03 183.109 3725.56 180.1C3729.09 177.092 3731.86 173.289 3733.64 169.004C3735.43 164.719 3736.17 160.073 3735.82 155.445C3735.46 150.816 3734.02 146.337 3731.61 142.373C3729.2 138.409 3725.88 135.072 3721.93 132.635C3717.99 130.198 3713.52 128.73 3708.9 128.351L3708.91 128.371Z" fill="url(#paint25_linear)"/>
<path style="mix-blend-mode:screen" opacity="0.74" d="M3262.96 194.705C3260.5 184.19 3254.56 174.817 3246.1 168.112C3237.64 161.407 3227.17 157.763 3216.38 157.773C3205.58 157.784 3195.12 161.449 3186.67 168.171C3178.23 174.893 3172.3 184.277 3169.86 194.797C3165.31 195.315 3160.95 196.889 3157.11 199.394C3153.28 201.899 3150.08 205.265 3147.78 209.225C3145.47 213.185 3144.12 217.629 3143.83 222.203C3143.55 226.777 3144.33 231.355 3146.13 235.572C3147.92 239.789 3150.67 243.528 3154.17 246.492C3157.66 249.456 3161.79 251.563 3166.24 252.645C3170.69 253.727 3175.33 253.754 3179.8 252.724C3184.26 251.695 3188.42 249.636 3191.95 246.713C3199.44 251.184 3208.01 253.518 3216.73 253.461C3225.46 253.404 3234 250.959 3241.43 246.391C3244.95 249.408 3249.14 251.548 3253.65 252.636C3258.16 253.724 3262.86 253.729 3267.37 252.651C3271.88 251.574 3276.08 249.443 3279.61 246.434C3283.14 243.426 3285.91 239.623 3287.69 235.338C3289.48 231.053 3290.22 226.407 3289.87 221.779C3289.52 217.15 3288.07 212.671 3285.66 208.707C3283.25 204.743 3279.93 201.406 3275.98 198.969C3272.04 196.532 3267.57 195.064 3262.95 194.685L3262.96 194.705Z" fill="url(#paint26_linear)"/>
</g>
</g>
<defs>
<linearGradient id="paint0_linear" x1="1745.89" y1="1.79294e-05" x2="1745.76" y2="1298" gradientUnits="userSpaceOnUse">
<stop stop-color="#AEE1F9"/>
<stop offset="0.739583" stop-color="white"/>
</linearGradient>
<linearGradient id="paint1_linear" x1="1925.76" y1="53.7506" x2="1925.76" y2="280.454" gradientUnits="userSpaceOnUse">
<stop offset="0.54" stop-color="#B3D1D1"/>
<stop offset="1"/>
</linearGradient>
<linearGradient id="paint2_linear" x1="2647.91" y1="-46.558" x2="2647.91" y2="180.145" gradientUnits="userSpaceOnUse">
<stop offset="0.54" stop-color="#B3D1D1"/>
<stop offset="1"/>
</linearGradient>
<linearGradient id="paint3_linear" x1="1189.68" y1="-11.3334" x2="1189.68" y2="215.37" gradientUnits="userSpaceOnUse">
<stop offset="0.54" stop-color="#B3D1D1"/>
<stop offset="1"/>
</linearGradient>
<linearGradient id="paint4_linear" x1="16674.7" y1="10926.2" x2="16674.7" y2="20636.4" gradientUnits="userSpaceOnUse">
<stop offset="0.54" stop-color="#B3D1D1"/>
<stop offset="1"/>
</linearGradient>
<linearGradient id="paint5_linear" x1="17608.1" y1="10786.4" x2="17608.1" y2="20496.7" gradientUnits="userSpaceOnUse">
<stop offset="0.54" stop-color="#B3D1D1"/>
<stop offset="1"/>
</linearGradient>
<linearGradient id="paint6_linear" x1="16351.3" y1="10779.7" x2="16351.3" y2="20489.9" gradientUnits="userSpaceOnUse">
<stop offset="0.54" stop-color="#B3D1D1"/>
<stop offset="1"/>
</linearGradient>
<linearGradient id="paint7_linear" x1="6246.47" y1="5445.94" x2="6246.47" y2="8068.05" gradientUnits="userSpaceOnUse">
<stop offset="0.54" stop-color="#B3D1D1"/>
<stop offset="1"/>
</linearGradient>
<linearGradient id="paint8_linear" x1="6924.54" y1="5448.13" x2="6924.54" y2="8070.23" gradientUnits="userSpaceOnUse">
<stop offset="0.54" stop-color="#B3D1D1"/>
<stop offset="1"/>
</linearGradient>
<linearGradient id="paint9_linear" x1="26839.8" y1="-8455.76" x2="26839.8" y2="18472.4" gradientUnits="userSpaceOnUse">
<stop offset="0.54" stop-color="#B3D1D1"/>
<stop offset="1"/>
</linearGradient>
<linearGradient id="paint10_linear" x1="27928.6" y1="-8392.72" x2="27928.6" y2="18535.5" gradientUnits="userSpaceOnUse">
<stop offset="0.54" stop-color="#B3D1D1"/>
<stop offset="1"/>
</linearGradient>
<linearGradient id="paint11_linear" x1="26393.9" y1="-8389.43" x2="26393.9" y2="18538.8" gradientUnits="userSpaceOnUse">
<stop offset="0.54" stop-color="#B3D1D1"/>
<stop offset="1"/>
</linearGradient>
<linearGradient id="paint12_linear" x1="27112" y1="-8453.68" x2="27112" y2="18474.5" gradientUnits="userSpaceOnUse">
<stop offset="0.54" stop-color="#B3D1D1"/>
<stop offset="1"/>
</linearGradient>
<linearGradient id="paint13_linear" x1="366.74" y1="68.9752" x2="366.74" y2="295.679" gradientUnits="userSpaceOnUse">
<stop offset="0.54" stop-color="#B3D1D1"/>
<stop offset="1"/>
</linearGradient>
<linearGradient id="paint14_linear" x1="-14382.2" y1="10941.4" x2="-14382.2" y2="20651.7" gradientUnits="userSpaceOnUse">
<stop offset="0.54" stop-color="#B3D1D1"/>
<stop offset="1"/>
</linearGradient>
<linearGradient id="paint15_linear" x1="-14058.8" y1="10794.9" x2="-14058.8" y2="20505.2" gradientUnits="userSpaceOnUse">
<stop offset="0.54" stop-color="#B3D1D1"/>
<stop offset="1"/>
</linearGradient>
<linearGradient id="paint16_linear" x1="-3953.97" y1="5461.17" x2="-3953.97" y2="8083.27" gradientUnits="userSpaceOnUse">
<stop offset="0.54" stop-color="#B3D1D1"/>
<stop offset="1"/>
</linearGradient>
<linearGradient id="paint17_linear" x1="-24547.3" y1="-8440.54" x2="-24547.3" y2="18487.7" gradientUnits="userSpaceOnUse">
<stop offset="0.54" stop-color="#B3D1D1"/>
<stop offset="1"/>
</linearGradient>
<linearGradient id="paint18_linear" x1="-24101.4" y1="-8374.2" x2="-24101.4" y2="18554" gradientUnits="userSpaceOnUse">
<stop offset="0.54" stop-color="#B3D1D1"/>
<stop offset="1"/>
</linearGradient>
<linearGradient id="paint19_linear" x1="-24819.5" y1="-8438.45" x2="-24819.5" y2="18489.7" gradientUnits="userSpaceOnUse">
<stop offset="0.54" stop-color="#B3D1D1"/>
<stop offset="1"/>
</linearGradient>
<linearGradient id="paint20_linear" x1="3762.54" y1="18.2291" x2="3762.54" y2="244.932" gradientUnits="userSpaceOnUse">
<stop offset="0.54" stop-color="#B3D1D1"/>
<stop offset="1"/>
</linearGradient>
<linearGradient id="paint21_linear" x1="3026.46" y1="-46.8549" x2="3026.46" y2="179.848" gradientUnits="userSpaceOnUse">
<stop offset="0.54" stop-color="#B3D1D1"/>
<stop offset="1"/>
</linearGradient>
<linearGradient id="paint22_linear" x1="18511.5" y1="10890.7" x2="18511.5" y2="20600.9" gradientUnits="userSpaceOnUse">
<stop offset="0.54" stop-color="#B3D1D1"/>
<stop offset="1"/>
</linearGradient>
<linearGradient id="paint23_linear" x1="18188.1" y1="10744.2" x2="18188.1" y2="20454.4" gradientUnits="userSpaceOnUse">
<stop offset="0.54" stop-color="#B3D1D1"/>
<stop offset="1"/>
</linearGradient>
<linearGradient id="paint24_linear" x1="8083.26" y1="5410.42" x2="8083.26" y2="8032.52" gradientUnits="userSpaceOnUse">
<stop offset="0.54" stop-color="#B3D1D1"/>
<stop offset="1"/>
</linearGradient>
<linearGradient id="paint25_linear" x1="28676.6" y1="-8491.28" x2="28676.6" y2="18436.9" gradientUnits="userSpaceOnUse">
<stop offset="0.54" stop-color="#B3D1D1"/>
<stop offset="1"/>
</linearGradient>
<linearGradient id="paint26_linear" x1="28230.7" y1="-8424.95" x2="28230.7" y2="18503.2" gradientUnits="userSpaceOnUse">
<stop offset="0.54" stop-color="#B3D1D1"/>
<stop offset="1"/>
</linearGradient>
<clipPath id="clip0">
<rect width="3840" height="1298" fill="white"/>
</clipPath>
</defs>
</svg>
