<svg width="2589" height="985" viewBox="0 0 2589 985" fill="none" xmlns="http://www.w3.org/2000/svg">
<rect width="2589" height="985" fill="url(#paint0_linear)"/>
<g opacity="0.5">
<path style="mix-blend-mode:screen" d="M1256.18 135.769C1254.76 129.733 1251.35 124.353 1246.49 120.504C1241.63 116.656 1235.61 114.564 1229.41 114.57C1223.21 114.576 1217.2 116.68 1212.34 120.538C1207.49 124.396 1204.09 129.783 1202.68 135.821C1200.07 136.121 1197.56 137.026 1195.36 138.465C1193.16 139.904 1191.32 141.837 1190 144.111C1188.68 146.385 1187.9 148.936 1187.74 151.562C1187.57 154.188 1188.02 156.816 1189.05 159.236C1190.08 161.657 1191.66 163.805 1193.67 165.507C1195.67 167.209 1198.05 168.42 1200.61 169.043C1203.16 169.666 1205.83 169.683 1208.39 169.094C1210.96 168.505 1213.35 167.326 1215.37 165.65C1219.68 168.216 1224.61 169.554 1229.62 169.521C1234.63 169.488 1239.54 168.084 1243.81 165.462C1245.83 167.194 1248.24 168.423 1250.83 169.047C1253.42 169.672 1256.12 169.675 1258.72 169.056C1261.31 168.437 1263.72 167.214 1265.75 165.486C1267.78 163.758 1269.37 161.575 1270.39 159.114C1271.42 156.654 1271.85 153.986 1271.64 151.328C1271.44 148.671 1270.61 146.099 1269.23 143.822C1267.84 141.546 1265.94 139.63 1263.67 138.23C1261.4 136.831 1258.83 135.987 1256.18 135.769Z" fill="url(#paint1_linear)"/>
<path style="mix-blend-mode:screen" d="M1594.68 88.7827C1593.27 82.7467 1589.85 77.3669 1584.99 73.5181C1580.13 69.6693 1574.12 67.5779 1567.92 67.584C1561.72 67.5901 1555.7 69.6932 1550.85 73.5515C1546 77.4098 1542.6 82.7963 1541.19 88.835C1538.58 89.1343 1536.07 90.0395 1533.87 91.4786C1531.67 92.9177 1529.83 94.851 1528.51 97.1247C1527.18 99.3983 1526.41 101.95 1526.24 104.575C1526.08 107.201 1526.53 109.829 1527.56 112.25C1528.59 114.671 1530.17 116.818 1532.18 118.521C1534.18 120.223 1536.56 121.434 1539.11 122.057C1541.67 122.679 1544.34 122.697 1546.9 122.108C1549.46 121.519 1551.85 120.339 1553.88 118.663C1558.19 121.229 1563.11 122.568 1568.13 122.535C1573.14 122.502 1578.05 121.098 1582.32 118.476C1584.34 120.208 1586.75 121.436 1589.34 122.061C1591.93 122.685 1594.63 122.688 1597.22 122.069C1599.82 121.45 1602.23 120.227 1604.26 118.499C1606.28 116.772 1607.88 114.589 1608.9 112.128C1609.93 109.668 1610.35 107 1610.15 104.342C1609.95 101.684 1609.12 99.1125 1607.73 96.8361C1606.35 94.5597 1604.44 92.6435 1602.17 91.2439C1599.91 89.8443 1597.34 89.0009 1594.68 88.7827Z" fill="url(#paint2_linear)"/>
<path style="mix-blend-mode:screen" d="M911.141 105.283C909.726 99.2467 906.311 93.8669 901.451 90.0181C896.592 86.1693 890.573 84.0779 884.374 84.084C878.175 84.0901 872.161 86.1932 867.309 90.0515C862.457 93.9098 859.052 99.2963 857.649 105.335C855.036 105.634 852.528 106.539 850.326 107.979C848.123 109.418 846.287 111.351 844.964 113.625C843.64 115.898 842.865 118.45 842.701 121.075C842.537 123.701 842.987 126.329 844.017 128.75C845.047 131.171 846.628 133.318 848.634 135.021C850.64 136.723 853.015 137.934 855.571 138.557C858.127 139.179 860.793 139.197 863.357 138.608C865.921 138.019 868.312 136.839 870.34 135.163C874.645 137.729 879.571 139.068 884.583 139.035C889.595 139.002 894.502 137.598 898.774 134.976C900.799 136.708 903.206 137.936 905.797 138.561C908.387 139.185 911.089 139.188 913.681 138.569C916.274 137.95 918.683 136.727 920.712 134.999C922.742 133.272 924.334 131.089 925.358 128.628C926.383 126.168 926.812 123.5 926.609 120.842C926.406 118.184 925.578 115.612 924.191 113.336C922.805 111.06 920.9 109.144 918.632 107.744C916.364 106.344 913.797 105.501 911.141 105.283Z" fill="url(#paint3_linear)"/>
<path style="mix-blend-mode:screen" d="M1195.35 159.932C1194.65 156.976 1192.98 154.341 1190.6 152.456C1188.22 150.57 1185.27 149.546 1182.24 149.549C1179.2 149.552 1176.25 150.582 1173.88 152.471C1171.5 154.361 1169.83 156.999 1169.14 159.957C1167.87 160.104 1166.64 160.548 1165.56 161.253C1164.48 161.958 1163.58 162.905 1162.94 164.019C1162.29 165.132 1161.91 166.382 1161.83 167.667C1161.75 168.953 1161.97 170.24 1162.47 171.425C1162.98 172.611 1163.75 173.662 1164.73 174.496C1165.72 175.329 1166.88 175.922 1168.13 176.228C1169.38 176.533 1170.69 176.542 1171.94 176.254C1173.2 175.966 1174.37 175.389 1175.36 174.569C1177.47 175.826 1179.88 176.482 1182.34 176.465C1184.79 176.449 1187.2 175.761 1189.29 174.477C1190.28 175.326 1191.46 175.928 1192.73 176.235C1194 176.541 1195.32 176.543 1196.59 176.24C1197.86 175.937 1199.05 175.337 1200.04 174.491C1201.03 173.644 1201.81 172.575 1202.32 171.369C1202.82 170.163 1203.03 168.856 1202.93 167.554C1202.83 166.252 1202.42 164.991 1201.74 163.876C1201.06 162.761 1200.13 161.822 1199.02 161.137C1197.91 160.451 1196.65 160.039 1195.35 159.932Z" fill="url(#paint4_linear)"/>
<path style="mix-blend-mode:screen" d="M1632.89 94.4653C1632.2 91.5089 1630.52 88.8739 1628.14 86.9888C1625.76 85.1036 1622.82 84.0792 1619.78 84.082C1616.74 84.0849 1613.8 85.1149 1611.42 87.0045C1609.04 88.8941 1607.38 91.5322 1606.69 94.49C1605.41 94.6373 1604.18 95.0813 1603.1 95.7864C1602.02 96.4916 1601.13 97.4386 1600.48 98.5521C1599.83 99.6656 1599.45 100.915 1599.37 102.201C1599.29 103.486 1599.51 104.773 1600.02 105.958C1600.52 107.144 1601.29 108.195 1602.28 109.029C1603.26 109.863 1604.42 110.456 1605.67 110.761C1606.92 111.066 1608.23 111.075 1609.49 110.787C1610.74 110.499 1611.91 109.922 1612.91 109.102C1615.01 110.359 1617.43 111.015 1619.88 110.999C1622.34 110.982 1624.74 110.295 1626.83 109.01C1627.83 109.859 1629 110.461 1630.27 110.768C1631.54 111.074 1632.87 111.076 1634.14 110.773C1635.41 110.47 1636.59 109.87 1637.58 109.024C1638.58 108.177 1639.36 107.108 1639.86 105.902C1640.36 104.697 1640.57 103.389 1640.47 102.087C1640.37 100.785 1639.97 99.5246 1639.29 98.4094C1638.61 97.2941 1637.67 96.3554 1636.56 95.67C1635.45 94.9845 1634.19 94.5717 1632.89 94.4653Z" fill="url(#paint5_linear)"/>
<path style="mix-blend-mode:screen" d="M1043.77 91.313C1043.07 88.3566 1041.4 85.7216 1039.02 83.8364C1036.64 81.9513 1033.69 80.9268 1030.65 80.9297C1027.62 80.9325 1024.67 81.9625 1022.3 83.8521C1019.92 85.7417 1018.25 88.3799 1017.56 91.3376C1016.28 91.485 1015.06 91.9289 1013.98 92.6341C1012.9 93.3393 1012 94.2863 1011.35 95.3998C1010.71 96.5133 1010.33 97.7626 1010.25 99.0483C1010.17 100.334 1010.39 101.621 1010.89 102.806C1011.4 103.991 1012.17 105.043 1013.15 105.876C1014.13 106.71 1015.3 107.303 1016.55 107.608C1017.8 107.914 1019.1 107.923 1020.36 107.635C1021.62 107.347 1022.79 106.77 1023.78 105.95C1025.89 107.207 1028.3 107.863 1030.76 107.846C1033.21 107.83 1035.62 107.142 1037.71 105.858C1038.7 106.707 1039.88 107.309 1041.15 107.615C1042.42 107.922 1043.74 107.924 1045.01 107.62C1046.28 107.317 1047.46 106.718 1048.46 105.872C1049.45 105.025 1050.23 103.955 1050.73 102.75C1051.24 101.544 1051.45 100.237 1051.35 98.9347C1051.25 97.6325 1050.84 96.3723 1050.16 95.257C1049.48 94.1418 1048.55 93.2031 1047.44 92.5176C1046.32 91.8322 1045.07 91.4194 1043.77 91.313Z" fill="url(#paint6_linear)"/>
<path style="mix-blend-mode:screen" opacity="0.74" d="M1167.08 136.667C1166.72 135.133 1165.85 133.766 1164.62 132.787C1163.38 131.808 1161.85 131.275 1160.28 131.275C1158.7 131.275 1157.17 131.808 1155.94 132.787C1154.7 133.766 1153.83 135.133 1153.47 136.667C1152.8 136.739 1152.16 136.967 1151.6 137.332C1151.03 137.698 1150.56 138.19 1150.22 138.771C1149.88 139.352 1149.68 140.004 1149.63 140.676C1149.59 141.347 1149.71 142.02 1149.97 142.639C1150.23 143.259 1150.64 143.808 1151.15 144.243C1151.67 144.677 1152.27 144.985 1152.93 145.143C1153.58 145.3 1154.27 145.301 1154.92 145.147C1155.58 144.993 1156.19 144.687 1156.7 144.255C1157.8 144.906 1159.05 145.246 1160.32 145.237C1161.6 145.228 1162.85 144.872 1163.93 144.206C1164.45 144.657 1165.06 144.979 1165.72 145.146C1166.39 145.312 1167.08 145.319 1167.75 145.164C1168.41 145.01 1169.03 144.699 1169.55 144.258C1170.08 143.816 1170.49 143.257 1170.75 142.626C1171.01 141.994 1171.12 141.31 1171.07 140.628C1171.02 139.946 1170.8 139.287 1170.44 138.705C1170.08 138.122 1169.59 137.634 1169.01 137.28C1168.42 136.925 1167.76 136.715 1167.08 136.667Z" fill="url(#paint7_linear)"/>
<path style="mix-blend-mode:screen" opacity="0.74" d="M1484.91 137.692C1484.55 136.158 1483.69 134.791 1482.45 133.812C1481.22 132.833 1479.69 132.301 1478.11 132.301C1476.54 132.301 1475.01 132.833 1473.77 133.812C1472.54 134.791 1471.67 136.158 1471.31 137.692C1470.64 137.765 1470 137.992 1469.43 138.358C1468.87 138.723 1468.39 139.216 1468.05 139.796C1467.71 140.377 1467.51 141.029 1467.47 141.701C1467.43 142.373 1467.54 143.045 1467.81 143.665C1468.07 144.284 1468.47 144.833 1468.99 145.268C1469.5 145.703 1470.11 146.011 1470.76 146.168C1471.42 146.325 1472.1 146.327 1472.76 146.172C1473.41 146.018 1474.02 145.713 1474.54 145.28C1475.63 145.931 1476.89 146.271 1478.16 146.262C1479.43 146.254 1480.68 145.897 1481.77 145.231C1482.28 145.682 1482.9 146.004 1483.56 146.171C1484.22 146.338 1484.92 146.344 1485.58 146.19C1486.25 146.035 1486.87 145.724 1487.39 145.283C1487.91 144.842 1488.32 144.282 1488.59 143.651C1488.85 143.02 1488.96 142.335 1488.91 141.653C1488.85 140.971 1488.64 140.312 1488.28 139.73C1487.92 139.148 1487.43 138.659 1486.84 138.305C1486.26 137.951 1485.6 137.741 1484.91 137.692Z" fill="url(#paint8_linear)"/>
<path style="mix-blend-mode:screen" opacity="0.74" d="M1204.56 102.768C1203.41 97.8426 1200.62 93.4524 1196.66 90.3115C1192.69 87.1706 1187.78 85.4638 1182.73 85.4688C1177.67 85.4738 1172.76 87.1902 1168.8 90.339C1164.84 93.4877 1162.07 97.8834 1160.92 102.811C1158.79 103.054 1156.74 103.791 1154.95 104.964C1153.15 106.138 1151.65 107.715 1150.57 109.569C1149.49 111.424 1148.86 113.506 1148.72 115.648C1148.59 117.791 1148.96 119.935 1149.8 121.91C1150.64 123.886 1151.93 125.637 1153.56 127.026C1155.2 128.414 1157.14 129.401 1159.23 129.908C1161.31 130.415 1163.49 130.427 1165.58 129.945C1167.67 129.463 1169.62 128.498 1171.27 127.129C1174.79 129.224 1178.8 130.317 1182.89 130.29C1186.98 130.264 1190.99 129.118 1194.47 126.978C1196.12 128.392 1198.08 129.394 1200.2 129.904C1202.31 130.413 1204.52 130.416 1206.63 129.911C1208.75 129.406 1210.71 128.408 1212.37 126.999C1214.02 125.589 1215.32 123.808 1216.16 121.801C1216.99 119.794 1217.34 117.618 1217.18 115.45C1217.01 113.282 1216.33 111.184 1215.2 109.327C1214.07 107.47 1212.52 105.907 1210.67 104.765C1208.82 103.624 1206.72 102.936 1204.56 102.759L1204.56 102.768Z" fill="url(#paint9_linear)"/>
<path style="mix-blend-mode:screen" opacity="0.74" d="M1714.92 132.297C1713.77 127.372 1710.98 122.982 1707.02 119.841C1703.05 116.7 1698.14 114.993 1693.09 114.998C1688.03 115.003 1683.12 116.72 1679.16 119.868C1675.2 123.017 1672.43 127.413 1671.28 132.34C1669.15 132.583 1667.1 133.32 1665.31 134.494C1663.51 135.667 1662.01 137.244 1660.93 139.099C1659.85 140.954 1659.22 143.035 1659.08 145.178C1658.95 147.32 1659.32 149.465 1660.16 151.44C1661 153.415 1662.29 155.167 1663.92 156.555C1665.56 157.943 1667.5 158.93 1669.59 159.437C1671.67 159.944 1673.85 159.957 1675.94 159.474C1678.03 158.992 1679.98 158.028 1681.63 156.659C1685.15 158.753 1689.16 159.846 1693.25 159.819C1697.34 159.793 1701.34 158.648 1704.83 156.508C1706.48 157.921 1708.44 158.923 1710.56 159.433C1712.67 159.942 1714.88 159.945 1716.99 159.44C1719.1 158.935 1721.07 157.937 1722.73 156.528C1724.38 155.119 1725.68 153.338 1726.52 151.33C1727.35 149.323 1727.7 147.147 1727.54 144.979C1727.37 142.811 1726.69 140.713 1725.56 138.856C1724.43 136.999 1722.88 135.436 1721.03 134.295C1719.18 133.153 1717.08 132.466 1714.92 132.288L1714.92 132.297Z" fill="url(#paint10_linear)"/>
<path style="mix-blend-mode:screen" opacity="0.74" d="M995.523 133.842C994.37 128.917 991.585 124.527 987.62 121.386C983.655 118.245 978.744 116.538 973.686 116.543C968.629 116.548 963.721 118.264 959.763 121.413C955.804 124.562 953.027 128.958 951.884 133.885C949.751 134.128 947.705 134.865 945.907 136.039C944.11 137.212 942.611 138.789 941.53 140.644C940.45 142.499 939.817 144.58 939.683 146.723C939.549 148.865 939.917 151.009 940.758 152.985C941.599 154.96 942.889 156.711 944.526 158.1C946.163 159.488 948.102 160.475 950.188 160.982C952.273 161.489 954.449 161.502 956.54 161.019C958.632 160.537 960.582 159.573 962.235 158.203C965.747 160.298 969.765 161.391 973.854 161.364C977.943 161.338 981.946 160.192 985.43 158.053C987.083 159.466 989.046 160.468 991.159 160.978C993.273 161.487 995.477 161.49 997.591 160.985C999.706 160.48 1001.67 159.482 1003.33 158.073C1004.98 156.664 1006.28 154.883 1007.12 152.875C1007.95 150.868 1008.3 148.692 1008.14 146.524C1007.97 144.356 1007.29 142.258 1006.16 140.401C1005.03 138.544 1003.48 136.981 1001.63 135.84C999.778 134.698 997.684 134.01 995.517 133.833L995.523 133.842Z" fill="url(#paint11_linear)"/>
<path style="mix-blend-mode:screen" opacity="0.74" d="M1332.12 103.744C1330.97 98.8191 1328.19 94.4289 1324.22 91.288C1320.26 88.1471 1315.35 86.4403 1310.29 86.4453C1305.23 86.4503 1300.32 88.1668 1296.36 91.3155C1292.41 94.4643 1289.63 98.86 1288.49 103.788C1286.35 104.03 1284.31 104.768 1282.51 105.941C1280.71 107.114 1279.21 108.691 1278.13 110.546C1277.05 112.401 1276.42 114.483 1276.28 116.625C1276.15 118.768 1276.52 120.912 1277.36 122.887C1278.2 124.862 1279.49 126.614 1281.13 128.002C1282.76 129.391 1284.7 130.378 1286.79 130.884C1288.87 131.391 1291.05 131.404 1293.14 130.922C1295.23 130.439 1297.18 129.475 1298.84 128.106C1302.35 130.2 1306.37 131.293 1310.46 131.267C1314.54 131.24 1318.55 130.095 1322.03 127.955C1323.68 129.368 1325.65 130.37 1327.76 130.88C1329.87 131.39 1332.08 131.392 1334.19 130.887C1336.31 130.383 1338.27 129.385 1339.93 127.975C1341.58 126.566 1342.88 124.785 1343.72 122.778C1344.55 120.771 1344.9 118.594 1344.74 116.426C1344.57 114.258 1343.9 112.16 1342.77 110.303C1341.63 108.446 1340.08 106.883 1338.23 105.742C1336.38 104.6 1334.29 103.913 1332.12 103.735L1332.12 103.744Z" fill="url(#paint12_linear)"/>
</g>
<g opacity="0.5">
<path style="mix-blend-mode:screen" d="M472.434 142.898C473.848 136.862 477.263 131.482 482.123 127.633C486.982 123.785 493.001 121.693 499.2 121.699C505.399 121.705 511.413 123.808 516.266 127.667C521.118 131.525 524.522 136.912 525.925 142.95C528.539 143.25 531.046 144.155 533.249 145.594C535.451 147.033 537.287 148.966 538.61 151.24C539.934 153.514 540.709 156.065 540.873 158.691C541.038 161.316 540.587 163.944 539.557 166.365C538.527 168.786 536.946 170.933 534.94 172.636C532.935 174.338 530.559 175.549 528.003 176.172C525.447 176.795 522.781 176.812 520.217 176.223C517.654 175.634 515.263 174.455 513.235 172.779C508.929 175.345 504.003 176.683 498.991 176.65C493.979 176.617 489.072 175.213 484.801 172.591C482.775 174.323 480.369 175.551 477.778 176.176C475.187 176.801 472.485 176.804 469.893 176.185C467.301 175.566 464.891 174.342 462.862 172.615C460.833 170.887 459.241 168.704 458.216 166.243C457.191 163.783 456.763 161.115 456.965 158.457C457.168 155.8 457.997 153.228 459.383 150.951C460.769 148.675 462.674 146.759 464.942 145.359C467.211 143.96 469.777 143.116 472.434 142.898Z" fill="url(#paint13_linear)"/>
<path style="mix-blend-mode:screen" d="M133.926 95.9136C135.34 89.8776 138.755 84.4978 143.615 80.649C148.475 76.8002 154.493 74.7088 160.692 74.7149C166.891 74.7209 172.906 76.8241 177.758 80.6824C182.61 84.5407 186.014 89.9272 187.417 95.9659C190.031 96.2651 192.538 97.1703 194.741 98.6094C196.943 100.049 198.779 101.982 200.103 104.256C201.426 106.529 202.201 109.08 202.365 111.706C202.53 114.332 202.079 116.96 201.049 119.381C200.019 121.802 198.438 123.949 196.433 125.651C194.427 127.354 192.051 128.565 189.496 129.187C186.94 129.81 184.274 129.828 181.71 129.239C179.146 128.65 176.755 127.47 174.727 125.794C170.421 128.36 165.496 129.699 160.484 129.666C155.472 129.633 150.564 128.229 146.293 125.606C144.267 127.339 141.861 128.567 139.27 129.192C136.679 129.816 133.977 129.819 131.385 129.2C128.793 128.581 126.384 127.358 124.354 125.63C122.325 123.903 120.733 121.719 119.708 119.259C118.683 116.799 118.255 114.131 118.458 111.473C118.661 108.815 119.489 106.243 120.875 103.967C122.262 101.691 124.167 99.7744 126.435 98.3748C128.703 96.9751 131.27 96.1318 133.926 95.9136Z" fill="url(#paint14_linear)"/>
<path style="mix-blend-mode:screen" d="M533.266 167.063C533.959 164.107 535.632 161.472 538.012 159.586C540.393 157.701 543.341 156.677 546.377 156.68C549.413 156.683 552.359 157.713 554.736 159.602C557.113 161.492 558.781 164.13 559.468 167.088C560.748 167.235 561.976 167.679 563.053 168.384C564.131 169.089 565.03 170.036 565.678 171.15C566.325 172.263 566.705 173.513 566.785 174.798C566.865 176.084 566.644 177.371 566.14 178.556C565.635 179.741 564.861 180.793 563.879 181.626C562.897 182.46 561.735 183.053 560.483 183.358C559.232 183.664 557.926 183.673 556.671 183.385C555.415 183.097 554.244 182.52 553.251 181.7C551.142 182.957 548.729 183.613 546.274 183.596C543.819 183.58 541.415 182.892 539.323 181.608C538.331 182.457 537.152 183.059 535.883 183.365C534.613 183.672 533.289 183.674 532.019 183.37C530.749 183.067 529.568 182.468 528.574 181.622C527.579 180.775 526.799 179.705 526.297 178.5C525.795 177.294 525.585 175.987 525.685 174.685C525.784 173.382 526.191 172.122 526.87 171.007C527.55 169.892 528.483 168.953 529.595 168.268C530.706 167.582 531.964 167.169 533.266 167.063Z" fill="url(#paint15_linear)"/>
<path style="mix-blend-mode:screen" d="M95.719 101.598C96.4122 98.6417 98.0849 96.0067 100.465 94.1216C102.846 92.2364 105.794 91.212 108.83 91.2148C111.866 91.2177 114.812 92.2477 117.189 94.1373C119.566 96.0269 121.234 98.665 121.921 101.623C123.201 101.77 124.429 102.214 125.507 102.919C126.585 103.624 127.483 104.571 128.131 105.685C128.779 106.798 129.158 108.048 129.238 109.333C129.318 110.619 129.097 111.906 128.593 113.091C128.088 114.277 127.315 115.328 126.333 116.162C125.351 116.995 124.188 117.588 122.936 117.894C121.685 118.199 120.379 118.208 119.124 117.92C117.868 117.632 116.697 117.055 115.704 116.235C113.595 117.492 111.182 118.148 108.727 118.131C106.272 118.115 103.869 117.427 101.776 116.143C100.784 116.992 99.6051 117.594 98.3357 117.901C97.0663 118.207 95.7424 118.209 94.4722 117.906C93.202 117.603 92.0214 117.003 91.027 116.157C90.0326 115.31 89.2525 114.241 88.7504 113.035C88.2483 111.829 88.0385 110.522 88.138 109.22C88.2376 107.918 88.6437 106.657 89.3232 105.542C90.0028 104.427 90.9365 103.488 92.048 102.803C93.1595 102.117 94.4174 101.705 95.719 101.598Z" fill="url(#paint16_linear)"/>
<path style="mix-blend-mode:screen" d="M684.84 98.4419C685.533 95.4855 687.206 92.8505 689.586 90.9653C691.967 89.0802 694.915 88.0557 697.951 88.0586C700.987 88.0615 703.933 89.0914 706.31 90.981C708.687 92.8706 710.355 95.5088 711.043 98.4665C712.322 98.6139 713.55 99.0578 714.628 99.763C715.706 100.468 716.604 101.415 717.252 102.529C717.9 103.642 718.279 104.891 718.359 106.177C718.439 107.463 718.218 108.75 717.714 109.935C717.21 111.12 716.436 112.172 715.454 113.005C714.472 113.839 713.309 114.432 712.057 114.737C710.806 115.043 709.501 115.052 708.245 114.764C706.99 114.476 705.819 113.899 704.825 113.079C702.716 114.336 700.303 114.991 697.848 114.975C695.393 114.959 692.99 114.271 690.897 112.987C689.905 113.836 688.726 114.438 687.457 114.744C686.187 115.051 684.863 115.052 683.593 114.749C682.323 114.446 681.142 113.847 680.148 113.001C679.154 112.154 678.374 111.084 677.871 109.879C677.369 108.673 677.16 107.366 677.259 106.064C677.359 104.761 677.765 103.501 678.444 102.386C679.124 101.271 680.058 100.332 681.169 99.6466C682.281 98.9611 683.539 98.5483 684.84 98.4419Z" fill="url(#paint17_linear)"/>
<path style="mix-blend-mode:screen" opacity="0.74" d="M561.532 143.798C561.892 142.264 562.759 140.896 563.994 139.918C565.229 138.939 566.758 138.406 568.334 138.406C569.91 138.406 571.439 138.939 572.674 139.918C573.909 140.896 574.776 142.264 575.136 143.798C575.806 143.87 576.449 144.098 577.014 144.463C577.579 144.828 578.051 145.321 578.392 145.902C578.732 146.482 578.932 147.135 578.976 147.807C579.019 148.478 578.904 149.151 578.64 149.77C578.377 150.39 577.972 150.939 577.458 151.373C576.944 151.808 576.335 152.116 575.681 152.273C575.026 152.43 574.344 152.432 573.689 152.278C573.033 152.124 572.423 151.818 571.908 151.386C570.812 152.037 569.56 152.376 568.286 152.368C567.011 152.359 565.764 152.003 564.677 151.337C564.163 151.788 563.549 152.11 562.886 152.276C562.223 152.443 561.529 152.449 560.863 152.295C560.197 152.141 559.577 151.83 559.055 151.389C558.532 150.947 558.123 150.388 557.859 149.756C557.596 149.125 557.487 148.441 557.54 147.759C557.594 147.077 557.809 146.418 558.168 145.835C558.527 145.253 559.019 144.765 559.604 144.41C560.189 144.056 560.85 143.846 561.532 143.798Z" fill="url(#paint18_linear)"/>
<path style="mix-blend-mode:screen" opacity="0.74" d="M243.696 144.821C244.056 143.287 244.924 141.92 246.158 140.941C247.393 139.962 248.923 139.43 250.498 139.43C252.074 139.43 253.603 139.962 254.838 140.941C256.073 141.92 256.94 143.287 257.3 144.821C257.97 144.893 258.613 145.121 259.178 145.487C259.743 145.852 260.215 146.345 260.556 146.925C260.897 147.506 261.096 148.158 261.14 148.83C261.183 149.502 261.068 150.174 260.804 150.794C260.541 151.413 260.136 151.962 259.622 152.397C259.108 152.832 258.499 153.14 257.845 153.297C257.19 153.454 256.508 153.455 255.853 153.301C255.198 153.147 254.587 152.842 254.072 152.409C252.976 153.06 251.724 153.4 250.45 153.391C249.176 153.382 247.928 153.026 246.842 152.36C246.327 152.811 245.713 153.133 245.05 153.3C244.387 153.467 243.693 153.473 243.027 153.319C242.361 153.164 241.741 152.853 241.219 152.412C240.696 151.971 240.287 151.411 240.023 150.78C239.76 150.149 239.651 149.464 239.704 148.782C239.758 148.1 239.973 147.441 240.332 146.859C240.691 146.277 241.183 145.788 241.768 145.434C242.353 145.08 243.014 144.87 243.696 144.821Z" fill="url(#paint19_linear)"/>
<path style="mix-blend-mode:screen" opacity="0.74" d="M524.047 109.901C525.2 104.975 527.986 100.585 531.95 97.4443C535.915 94.3034 540.826 92.5966 545.884 92.6016C550.942 92.6066 555.849 94.3231 559.808 97.4718C563.766 100.621 566.543 105.016 567.686 109.944C569.819 110.186 571.866 110.924 573.663 112.097C575.461 113.27 576.959 114.847 578.04 116.702C579.12 118.557 579.753 120.639 579.887 122.781C580.021 124.924 579.653 127.068 578.813 129.043C577.972 131.019 576.681 132.77 575.044 134.159C573.407 135.547 571.469 136.534 569.383 137.041C567.297 137.548 565.122 137.56 563.03 137.078C560.938 136.595 558.988 135.631 557.335 134.262C553.823 136.356 549.805 137.45 545.716 137.423C541.628 137.396 537.624 136.251 534.14 134.111C532.488 135.524 530.525 136.527 528.411 137.036C526.297 137.546 524.093 137.548 521.979 137.044C519.864 136.539 517.899 135.541 516.243 134.132C514.588 132.722 513.289 130.941 512.453 128.934C511.617 126.927 511.268 124.75 511.434 122.582C511.599 120.414 512.275 118.316 513.406 116.459C514.538 114.603 516.092 113.04 517.942 111.898C519.793 110.757 521.887 110.069 524.053 109.891L524.047 109.901Z" fill="url(#paint20_linear)"/>
<path style="mix-blend-mode:screen" opacity="0.74" d="M13.6879 139.428C14.8409 134.503 17.6263 130.113 21.591 126.972C25.5558 123.831 30.4666 122.124 35.5245 122.129C40.5824 122.134 45.4898 123.85 49.4483 126.999C53.4069 130.148 56.1836 134.544 57.3268 139.471C59.4596 139.714 61.5062 140.451 63.3037 141.624C65.1012 142.798 66.5999 144.375 67.6805 146.23C68.761 148.085 69.3936 150.166 69.5277 152.309C69.6619 154.451 69.2939 156.595 68.4532 158.571C67.6124 160.546 66.3221 162.297 64.685 163.686C63.0479 165.074 61.1092 166.061 59.0234 166.568C56.9376 167.075 54.7623 167.088 52.6707 166.605C50.5791 166.123 48.629 165.159 46.9758 163.789C43.4639 165.884 39.4458 166.977 35.3571 166.95C31.2683 166.924 27.2648 165.778 23.7805 163.639C22.1282 165.052 20.1652 166.054 18.0517 166.564C15.9382 167.073 13.7341 167.076 11.6194 166.571C9.50478 166.066 7.53949 165.068 5.88403 163.659C4.22856 162.249 2.92986 160.468 2.09396 158.461C1.25808 156.454 0.908699 154.278 1.07435 152.11C1.24 149.942 1.91599 147.844 3.04711 145.987C4.17825 144.13 5.73245 142.567 7.58282 141.426C9.43319 140.284 11.5273 139.596 13.6941 139.419L13.6879 139.428Z" fill="url(#paint21_linear)"/>
<path style="mix-blend-mode:screen" opacity="0.74" d="M733.086 140.973C734.239 136.048 737.025 131.657 740.989 128.517C744.954 125.376 749.865 123.669 754.923 123.674C759.981 123.679 764.888 125.395 768.847 128.544C772.805 131.693 775.582 136.088 776.725 141.016C778.858 141.259 780.905 141.996 782.702 143.169C784.5 144.343 785.998 145.92 787.079 147.775C788.159 149.629 788.792 151.711 788.926 153.854C789.06 155.996 788.692 158.14 787.852 160.116C787.011 162.091 785.721 163.842 784.083 165.231C782.446 166.619 780.508 167.606 778.422 168.113C776.336 168.62 774.161 168.633 772.069 168.15C769.977 167.668 768.027 166.703 766.374 165.334C762.862 167.429 758.844 168.522 754.755 168.495C750.667 168.469 746.663 167.323 743.179 165.183C741.527 166.597 739.564 167.599 737.45 168.109C735.337 168.618 733.133 168.621 731.018 168.116C728.903 167.611 726.938 166.613 725.282 165.204C723.627 163.794 722.328 162.013 721.492 160.006C720.656 157.999 720.307 155.823 720.473 153.655C720.638 151.487 721.314 149.389 722.446 147.532C723.577 145.675 725.131 144.112 726.981 142.97C728.832 141.829 730.926 141.141 733.092 140.964L733.086 140.973Z" fill="url(#paint22_linear)"/>
<path style="mix-blend-mode:screen" opacity="0.74" d="M396.489 110.875C397.642 105.95 400.427 101.56 404.392 98.4189C408.357 95.278 413.267 93.5712 418.325 93.5762C423.383 93.5812 428.291 95.2977 432.249 98.4464C436.208 101.595 438.984 105.991 440.128 110.918C442.26 111.161 444.307 111.898 446.104 113.072C447.902 114.245 449.401 115.822 450.481 117.677C451.562 119.532 452.194 121.613 452.329 123.756C452.463 125.898 452.095 128.043 451.254 130.018C450.413 131.993 449.123 133.745 447.486 135.133C445.849 136.522 443.91 137.509 441.824 138.015C439.738 138.522 437.563 138.535 435.471 138.052C433.38 137.57 431.43 136.606 429.777 135.237C426.265 137.331 422.247 138.424 418.158 138.398C414.069 138.371 410.066 137.226 406.581 135.086C404.929 136.499 402.966 137.501 400.852 138.011C398.739 138.521 396.535 138.523 394.42 138.018C392.306 137.513 390.34 136.516 388.685 135.106C387.029 133.697 385.731 131.916 384.895 129.909C384.059 127.901 383.709 125.725 383.875 123.557C384.041 121.389 384.717 119.291 385.848 117.434C386.979 115.577 388.533 114.014 390.384 112.873C392.234 111.731 394.328 111.044 396.495 110.866L396.489 110.875Z" fill="url(#paint23_linear)"/>
</g>
<g opacity="0.5">
<path style="mix-blend-mode:screen" d="M2117.16 119.128C2115.75 113.092 2112.33 107.713 2107.47 103.864C2102.62 100.015 2096.6 97.9236 2090.4 97.9297C2084.2 97.9358 2078.18 100.039 2073.33 103.897C2068.48 107.756 2065.08 113.142 2063.67 119.181C2061.06 119.48 2058.55 120.385 2056.35 121.824C2054.15 123.263 2052.31 125.197 2050.99 127.47C2049.66 129.744 2048.89 132.295 2048.72 134.921C2048.56 137.547 2049.01 140.175 2050.04 142.596C2051.07 145.017 2052.65 147.164 2054.66 148.866C2056.66 150.569 2059.04 151.78 2061.59 152.402C2064.15 153.025 2066.82 153.043 2069.38 152.453C2071.94 151.864 2074.34 150.685 2076.36 149.009C2080.67 151.575 2085.59 152.914 2090.61 152.881C2095.62 152.848 2100.53 151.444 2104.8 148.821C2106.82 150.553 2109.23 151.782 2111.82 152.407C2114.41 153.031 2117.11 153.034 2119.7 152.415C2122.3 151.796 2124.71 150.573 2126.74 148.845C2128.76 147.117 2130.36 144.934 2131.38 142.474C2132.41 140.013 2132.83 137.345 2132.63 134.688C2132.43 132.03 2131.6 129.458 2130.21 127.182C2128.83 124.905 2126.92 122.989 2124.66 121.59C2122.39 120.19 2119.82 119.347 2117.16 119.128Z" fill="url(#paint24_linear)"/>
<path style="mix-blend-mode:screen" d="M2455.67 72.144C2454.26 66.1081 2450.84 60.7283 2445.98 56.8795C2441.12 53.0307 2435.1 50.9393 2428.91 50.9453C2422.71 50.9514 2416.69 53.0546 2411.84 56.9129C2406.99 60.7712 2403.58 66.1576 2402.18 72.1964C2399.57 72.4956 2397.06 73.4008 2394.86 74.8399C2392.65 76.279 2390.82 78.2123 2389.49 80.486C2388.17 82.7596 2387.4 85.3109 2387.23 87.9367C2387.07 90.5626 2387.52 93.1905 2388.55 95.6115C2389.58 98.0324 2391.16 100.18 2393.17 101.882C2395.17 103.584 2397.55 104.795 2400.1 105.418C2402.66 106.041 2405.32 106.058 2407.89 105.469C2410.45 104.88 2412.84 103.701 2414.87 102.025C2419.18 104.591 2424.1 105.93 2429.11 105.896C2434.13 105.863 2439.03 104.459 2443.3 101.837C2445.33 103.569 2447.74 104.798 2450.33 105.422C2452.92 106.047 2455.62 106.05 2458.21 105.431C2460.81 104.812 2463.21 103.589 2465.24 101.861C2467.27 100.133 2468.87 97.9499 2469.89 95.4895C2470.91 93.029 2471.34 90.3611 2471.14 87.7034C2470.94 85.0458 2470.11 82.4738 2468.72 80.1974C2467.34 77.9211 2465.43 76.0049 2463.16 74.6052C2460.9 73.2056 2458.33 72.3623 2455.67 72.144Z" fill="url(#paint25_linear)"/>
<path style="mix-blend-mode:screen" d="M1772.13 88.644C1770.71 82.6081 1767.3 77.2283 1762.44 73.3795C1757.58 69.5307 1751.56 67.4393 1745.36 67.4453C1739.16 67.4514 1733.15 69.5546 1728.3 73.4129C1723.44 77.2712 1720.04 82.6576 1718.64 88.6964C1716.02 88.9956 1713.52 89.9008 1711.31 91.3399C1709.11 92.779 1707.28 94.7123 1705.95 96.986C1704.63 99.2596 1703.85 101.811 1703.69 104.437C1703.52 107.063 1703.98 109.691 1705.01 112.111C1706.04 114.532 1707.62 116.68 1709.62 118.382C1711.63 120.084 1714 121.295 1716.56 121.918C1719.12 122.541 1721.78 122.558 1724.34 121.969C1726.91 121.38 1729.3 120.201 1731.33 118.525C1735.63 121.091 1740.56 122.429 1745.57 122.396C1750.58 122.363 1755.49 120.959 1759.76 118.337C1761.79 120.069 1764.19 121.298 1766.78 121.922C1769.38 122.547 1772.08 122.55 1774.67 121.931C1777.26 121.312 1779.67 120.089 1781.7 118.361C1783.73 116.633 1785.32 114.45 1786.35 111.989C1787.37 109.529 1787.8 106.861 1787.6 104.203C1787.39 101.546 1786.57 98.9738 1785.18 96.6974C1783.79 94.4211 1781.89 92.5049 1779.62 91.1052C1777.35 89.7056 1774.79 88.8623 1772.13 88.644Z" fill="url(#paint26_linear)"/>
<path style="mix-blend-mode:screen" d="M2056.33 143.293C2055.64 140.337 2053.97 137.702 2051.59 135.817C2049.21 133.932 2046.26 132.907 2043.22 132.91C2040.18 132.913 2037.24 133.943 2034.86 135.833C2032.48 137.722 2030.82 140.36 2030.13 143.318C2028.85 143.465 2027.62 143.909 2026.54 144.615C2025.47 145.32 2024.57 146.267 2023.92 147.38C2023.27 148.494 2022.89 149.743 2022.81 151.029C2022.73 152.314 2022.95 153.601 2023.46 154.787C2023.96 155.972 2024.74 157.023 2025.72 157.857C2026.7 158.691 2027.86 159.284 2029.11 159.589C2030.37 159.894 2031.67 159.903 2032.93 159.615C2034.18 159.327 2035.35 158.751 2036.35 157.931C2038.46 159.187 2040.87 159.843 2043.32 159.827C2045.78 159.81 2048.18 159.123 2050.27 157.838C2051.27 158.687 2052.45 159.29 2053.72 159.596C2054.98 159.902 2056.31 159.904 2057.58 159.601C2058.85 159.298 2060.03 158.699 2061.02 157.852C2062.02 157.006 2062.8 155.936 2063.3 154.73C2063.8 153.525 2064.01 152.217 2063.91 150.915C2063.81 149.613 2063.41 148.353 2062.73 147.238C2062.05 146.122 2061.11 145.184 2060 144.498C2058.89 143.813 2057.63 143.4 2056.33 143.293Z" fill="url(#paint27_linear)"/>
<path style="mix-blend-mode:screen" d="M2493.88 77.8286C2493.19 74.8722 2491.52 72.2372 2489.14 70.352C2486.76 68.4669 2483.81 67.4425 2480.77 67.4453C2477.74 67.4482 2474.79 68.4781 2472.41 70.3678C2470.04 72.2574 2468.37 74.8955 2467.68 77.8532C2466.4 78.0006 2465.17 78.4445 2464.09 79.1497C2463.02 79.8549 2462.12 80.8019 2461.47 81.9154C2460.82 83.0289 2460.44 84.2782 2460.36 85.5639C2460.28 86.8496 2460.5 88.1363 2461.01 89.3217C2461.51 90.5071 2462.29 91.5584 2463.27 92.3921C2464.25 93.2258 2465.41 93.8188 2466.67 94.1241C2467.92 94.4294 2469.22 94.4384 2470.48 94.1505C2471.73 93.8626 2472.9 93.2858 2473.9 92.4658C2476.01 93.7224 2478.42 94.3781 2480.87 94.3619C2483.33 94.3456 2485.73 93.6579 2487.83 92.3734C2488.82 93.2225 2490 93.8248 2491.27 94.1311C2492.54 94.4375 2493.86 94.4392 2495.13 94.1361C2496.4 93.833 2497.58 93.2338 2498.57 92.3872C2499.57 91.5407 2500.35 90.471 2500.85 89.2654C2501.35 88.0598 2501.56 86.7525 2501.46 85.4503C2501.36 84.1481 2500.96 82.8879 2500.28 81.7727C2499.6 80.6574 2498.67 79.7187 2497.55 79.0333C2496.44 78.3478 2495.18 77.935 2493.88 77.8286Z" fill="url(#paint28_linear)"/>
<path style="mix-blend-mode:screen" d="M1904.75 74.6724C1904.06 71.7159 1902.39 69.0809 1900.01 67.1958C1897.63 65.3106 1894.68 64.2862 1891.64 64.2891C1888.61 64.2919 1885.66 65.3219 1883.28 67.2115C1880.91 69.1011 1879.24 71.7393 1878.55 74.697C1877.27 74.8444 1876.04 75.2883 1874.97 75.9935C1873.89 76.6987 1872.99 77.6457 1872.34 78.7591C1871.69 79.8726 1871.32 81.1219 1871.23 82.4077C1871.15 83.6934 1871.38 84.9801 1871.88 86.1655C1872.38 87.3508 1873.16 88.4022 1874.14 89.2358C1875.12 90.0695 1876.29 90.6626 1877.54 90.9679C1878.79 91.2731 1880.09 91.2822 1881.35 90.9943C1882.6 90.7064 1883.78 90.1295 1884.77 89.3095C1886.88 90.5662 1889.29 91.2219 1891.75 91.2056C1894.2 91.1893 1896.6 90.5017 1898.7 89.2172C1899.69 90.0662 1900.87 90.6685 1902.14 90.9749C1903.41 91.2812 1904.73 91.2829 1906 90.9798C1907.27 90.6768 1908.45 90.0775 1909.45 89.231C1910.44 88.3845 1911.22 87.3148 1911.72 86.1092C1912.22 84.9035 1912.43 83.5963 1912.33 82.2941C1912.23 80.9918 1911.83 79.7317 1911.15 78.6164C1910.47 77.5012 1909.54 76.5625 1908.42 75.877C1907.31 75.1916 1906.06 74.7788 1904.75 74.6724Z" fill="url(#paint29_linear)"/>
<path style="mix-blend-mode:screen" opacity="0.74" d="M2028.07 120.028C2027.71 118.494 2026.84 117.127 2025.6 116.148C2024.37 115.169 2022.84 114.637 2021.26 114.637C2019.69 114.637 2018.16 115.169 2016.92 116.148C2015.69 117.127 2014.82 118.494 2014.46 120.028C2013.79 120.1 2013.15 120.328 2012.58 120.694C2012.02 121.059 2011.55 121.552 2011.21 122.132C2010.87 122.713 2010.67 123.365 2010.62 124.037C2010.58 124.709 2010.69 125.381 2010.96 126.001C2011.22 126.62 2011.63 127.169 2012.14 127.604C2012.65 128.039 2013.26 128.347 2013.92 128.504C2014.57 128.661 2015.25 128.662 2015.91 128.508C2016.56 128.354 2017.17 128.049 2017.69 127.616C2018.79 128.267 2020.04 128.607 2021.31 128.598C2022.59 128.59 2023.83 128.233 2024.92 127.567C2025.43 128.018 2026.05 128.34 2026.71 128.507C2027.37 128.674 2028.07 128.68 2028.73 128.526C2029.4 128.371 2030.02 128.06 2030.54 127.619C2031.07 127.178 2031.47 126.618 2031.74 125.987C2032 125.356 2032.11 124.671 2032.06 123.989C2032 123.307 2031.79 122.648 2031.43 122.066C2031.07 121.484 2030.58 120.995 2029.99 120.641C2029.41 120.287 2028.75 120.077 2028.07 120.028Z" fill="url(#paint30_linear)"/>
<path style="mix-blend-mode:screen" opacity="0.74" d="M2345.9 121.052C2345.54 119.518 2344.67 118.15 2343.44 117.172C2342.2 116.193 2340.68 115.66 2339.1 115.66C2337.52 115.66 2335.99 116.193 2334.76 117.172C2333.52 118.15 2332.66 119.518 2332.3 121.052C2331.63 121.124 2330.99 121.352 2330.42 121.717C2329.85 122.082 2329.38 122.575 2329.04 123.156C2328.7 123.736 2328.5 124.389 2328.46 125.06C2328.41 125.732 2328.53 126.405 2328.79 127.024C2329.06 127.644 2329.46 128.193 2329.98 128.627C2330.49 129.062 2331.1 129.37 2331.75 129.527C2332.41 129.684 2333.09 129.686 2333.74 129.532C2334.4 129.378 2335.01 129.072 2335.53 128.64C2336.62 129.291 2337.87 129.63 2339.15 129.622C2340.42 129.613 2341.67 129.256 2342.76 128.591C2343.27 129.042 2343.88 129.364 2344.55 129.53C2345.21 129.697 2345.9 129.703 2346.57 129.549C2347.24 129.395 2347.86 129.084 2348.38 128.642C2348.9 128.201 2349.31 127.642 2349.57 127.01C2349.84 126.379 2349.95 125.694 2349.89 125.013C2349.84 124.331 2349.62 123.671 2349.27 123.089C2348.91 122.507 2348.41 122.019 2347.83 121.664C2347.24 121.31 2346.58 121.1 2345.9 121.052Z" fill="url(#paint31_linear)"/>
<path style="mix-blend-mode:screen" opacity="0.74" d="M2065.55 86.1311C2064.4 81.2059 2061.61 76.8157 2057.65 73.6747C2053.68 70.5338 2048.77 68.827 2043.71 68.832C2038.66 68.837 2033.75 70.5535 2029.79 73.7023C2025.83 76.851 2023.05 81.2467 2021.91 86.1742C2019.78 86.4169 2017.73 87.1542 2015.93 88.3276C2014.14 89.5009 2012.64 91.0779 2011.56 92.9327C2010.48 94.7876 2009.84 96.8692 2009.71 99.0118C2009.58 101.154 2009.94 103.299 2010.79 105.274C2011.63 107.249 2012.92 109.001 2014.55 110.389C2016.19 111.777 2018.13 112.764 2020.21 113.271C2022.3 113.778 2024.48 113.791 2026.57 113.308C2028.66 112.826 2030.61 111.862 2032.26 110.493C2035.77 112.587 2039.79 113.68 2043.88 113.653C2047.97 113.627 2051.97 112.482 2055.46 110.342C2057.11 111.755 2059.07 112.757 2061.19 113.267C2063.3 113.776 2065.5 113.779 2067.62 113.274C2069.73 112.769 2071.7 111.771 2073.35 110.362C2075.01 108.953 2076.31 107.172 2077.14 105.164C2077.98 103.157 2078.33 100.981 2078.16 98.8128C2078 96.6449 2077.32 94.5468 2076.19 92.69C2075.06 90.8331 2073.51 89.2701 2071.66 88.1287C2069.81 86.9872 2067.71 86.2995 2065.54 86.1219L2065.55 86.1311Z" fill="url(#paint32_linear)"/>
<path style="mix-blend-mode:screen" opacity="0.74" d="M2575.91 115.658C2574.76 110.733 2571.97 106.343 2568.01 103.202C2564.04 100.061 2559.13 98.3544 2554.07 98.3594C2549.02 98.3644 2544.11 100.081 2540.15 103.23C2536.19 106.378 2533.41 110.774 2532.27 115.702C2530.14 115.944 2528.09 116.682 2526.29 117.855C2524.5 119.028 2523 120.605 2521.92 122.46C2520.84 124.315 2520.2 126.397 2520.07 128.539C2519.94 130.682 2520.3 132.826 2521.14 134.801C2521.99 136.776 2523.28 138.528 2524.91 139.916C2526.55 141.305 2528.49 142.292 2530.57 142.799C2532.66 143.305 2534.84 143.318 2536.93 142.836C2539.02 142.353 2540.97 141.389 2542.62 140.02C2546.13 142.114 2550.15 143.207 2554.24 143.181C2558.33 143.154 2562.33 142.009 2565.82 139.869C2567.47 141.282 2569.43 142.285 2571.55 142.794C2573.66 143.304 2575.86 143.306 2577.98 142.801C2580.09 142.297 2582.06 141.299 2583.71 139.889C2585.37 138.48 2586.67 136.699 2587.5 134.692C2588.34 132.685 2588.69 130.508 2588.52 128.34C2588.36 126.172 2587.68 124.074 2586.55 122.217C2585.42 120.36 2583.87 118.797 2582.01 117.656C2580.16 116.515 2578.07 115.827 2575.9 115.649L2575.91 115.658Z" fill="url(#paint33_linear)"/>
<path style="mix-blend-mode:screen" opacity="0.74" d="M1856.51 117.203C1855.36 112.278 1852.57 107.888 1848.61 104.747C1844.64 101.606 1839.73 99.8993 1834.67 99.9043C1829.62 99.9093 1824.71 101.626 1820.75 104.775C1816.79 107.923 1814.02 112.319 1812.87 117.247C1810.74 117.489 1808.69 118.227 1806.9 119.4C1805.1 120.573 1803.6 122.15 1802.52 124.005C1801.44 125.86 1800.81 127.941 1800.67 130.084C1800.54 132.227 1800.91 134.371 1801.75 136.346C1802.59 138.321 1803.88 140.073 1805.51 141.461C1807.15 142.85 1809.09 143.837 1811.18 144.343C1813.26 144.85 1815.44 144.863 1817.53 144.381C1819.62 143.898 1821.57 142.934 1823.22 141.565C1826.74 143.659 1830.75 144.752 1834.84 144.726C1838.93 144.699 1842.93 143.554 1846.42 141.414C1848.07 142.827 1850.03 143.829 1852.15 144.339C1854.26 144.849 1856.47 144.851 1858.58 144.346C1860.69 143.842 1862.66 142.844 1864.32 141.434C1865.97 140.025 1867.27 138.244 1868.11 136.237C1868.94 134.23 1869.29 132.053 1869.12 129.885C1868.96 127.717 1868.28 125.619 1867.15 123.762C1866.02 121.905 1864.47 120.342 1862.62 119.201C1860.77 118.059 1858.67 117.372 1856.51 117.194L1856.51 117.203Z" fill="url(#paint34_linear)"/>
<path style="mix-blend-mode:screen" opacity="0.74" d="M2193.11 87.1058C2191.96 82.1805 2189.17 77.7903 2185.21 74.6494C2181.24 71.5084 2176.33 69.8017 2171.27 69.8067C2166.21 69.8116 2161.31 71.5281 2157.35 74.6769C2153.39 77.8256 2150.61 82.2213 2149.47 87.1489C2147.34 87.3915 2145.29 88.1289 2143.49 89.3022C2141.7 90.4755 2140.2 92.0525 2139.12 93.9074C2138.04 95.7622 2137.4 97.8438 2137.27 99.9864C2137.13 102.129 2137.5 104.273 2138.34 106.248C2139.18 108.224 2140.47 109.975 2142.11 111.364C2143.75 112.752 2145.69 113.739 2147.77 114.246C2149.86 114.753 2152.03 114.765 2154.13 114.283C2156.22 113.801 2158.17 112.836 2159.82 111.467C2163.33 113.562 2167.35 114.655 2171.44 114.628C2175.53 114.601 2179.53 113.456 2183.02 111.316C2184.67 112.729 2186.63 113.732 2188.75 114.241C2190.86 114.751 2193.06 114.754 2195.18 114.249C2197.29 113.744 2199.26 112.746 2200.91 111.337C2202.57 109.927 2203.87 108.146 2204.7 106.139C2205.54 104.132 2205.89 101.955 2205.72 99.7875C2205.56 97.6195 2204.88 95.5214 2203.75 93.6646C2202.62 91.8077 2201.06 90.2448 2199.21 89.1033C2197.36 87.9618 2195.27 87.2742 2193.1 87.0965L2193.11 87.1058Z" fill="url(#paint35_linear)"/>
</g>
<defs>
<linearGradient id="paint0_linear" x1="1177.11" y1="1.36059e-05" x2="1177" y2="985" gradientUnits="userSpaceOnUse">
<stop stop-color="#AEE1F9"/>
<stop offset="0.739583" stop-color="white"/>
</linearGradient>
<linearGradient id="paint1_linear" x1="1229.7" y1="51.1784" x2="1229.7" y2="157.369" gradientUnits="userSpaceOnUse">
<stop offset="0.54" stop-color="#B3D1D1"/>
<stop offset="1"/>
</linearGradient>
<linearGradient id="paint2_linear" x1="1568.21" y1="4.19206" x2="1568.21" y2="110.383" gradientUnits="userSpaceOnUse">
<stop offset="0.54" stop-color="#B3D1D1"/>
<stop offset="1"/>
</linearGradient>
<linearGradient id="paint3_linear" x1="884.664" y1="20.6921" x2="884.664" y2="126.883" gradientUnits="userSpaceOnUse">
<stop offset="0.54" stop-color="#B3D1D1"/>
<stop offset="1"/>
</linearGradient>
<linearGradient id="paint4_linear" x1="8143.27" y1="5143.97" x2="8143.27" y2="9692.37" gradientUnits="userSpaceOnUse">
<stop offset="0.54" stop-color="#B3D1D1"/>
<stop offset="1"/>
</linearGradient>
<linearGradient id="paint5_linear" x1="8580.82" y1="5078.5" x2="8580.82" y2="9626.91" gradientUnits="userSpaceOnUse">
<stop offset="0.54" stop-color="#B3D1D1"/>
<stop offset="1"/>
</linearGradient>
<linearGradient id="paint6_linear" x1="7991.68" y1="5075.35" x2="7991.68" y2="9623.76" gradientUnits="userSpaceOnUse">
<stop offset="0.54" stop-color="#B3D1D1"/>
<stop offset="1"/>
</linearGradient>
<linearGradient id="paint7_linear" x1="3255.03" y1="2576.95" x2="3255.03" y2="3805.18" gradientUnits="userSpaceOnUse">
<stop offset="0.54" stop-color="#B3D1D1"/>
<stop offset="1"/>
</linearGradient>
<linearGradient id="paint8_linear" x1="3572.88" y1="2577.98" x2="3572.88" y2="3806.2" gradientUnits="userSpaceOnUse">
<stop offset="0.54" stop-color="#B3D1D1"/>
<stop offset="1"/>
</linearGradient>
<linearGradient id="paint9_linear" x1="12908.2" y1="-3934.79" x2="12908.2" y2="8678.73" gradientUnits="userSpaceOnUse">
<stop offset="0.54" stop-color="#B3D1D1"/>
<stop offset="1"/>
</linearGradient>
<linearGradient id="paint10_linear" x1="13418.6" y1="-3905.26" x2="13418.6" y2="8708.25" gradientUnits="userSpaceOnUse">
<stop offset="0.54" stop-color="#B3D1D1"/>
<stop offset="1"/>
</linearGradient>
<linearGradient id="paint11_linear" x1="12699.1" y1="-3903.71" x2="12699.1" y2="8709.8" gradientUnits="userSpaceOnUse">
<stop offset="0.54" stop-color="#B3D1D1"/>
<stop offset="1"/>
</linearGradient>
<linearGradient id="paint12_linear" x1="13035.7" y1="-3933.81" x2="13035.7" y2="8679.7" gradientUnits="userSpaceOnUse">
<stop offset="0.54" stop-color="#B3D1D1"/>
<stop offset="1"/>
</linearGradient>
<linearGradient id="paint13_linear" x1="498.91" y1="58.3073" x2="498.91" y2="164.498" gradientUnits="userSpaceOnUse">
<stop offset="0.54" stop-color="#B3D1D1"/>
<stop offset="1"/>
</linearGradient>
<linearGradient id="paint14_linear" x1="160.402" y1="11.3229" x2="160.402" y2="117.514" gradientUnits="userSpaceOnUse">
<stop offset="0.54" stop-color="#B3D1D1"/>
<stop offset="1"/>
</linearGradient>
<linearGradient id="paint15_linear" x1="-6414.65" y1="5151.1" x2="-6414.65" y2="9699.51" gradientUnits="userSpaceOnUse">
<stop offset="0.54" stop-color="#B3D1D1"/>
<stop offset="1"/>
</linearGradient>
<linearGradient id="paint16_linear" x1="-6852.2" y1="5085.64" x2="-6852.2" y2="9634.04" gradientUnits="userSpaceOnUse">
<stop offset="0.54" stop-color="#B3D1D1"/>
<stop offset="1"/>
</linearGradient>
<linearGradient id="paint17_linear" x1="-6263.09" y1="5082.48" x2="-6263.09" y2="9630.89" gradientUnits="userSpaceOnUse">
<stop offset="0.54" stop-color="#B3D1D1"/>
<stop offset="1"/>
</linearGradient>
<linearGradient id="paint18_linear" x1="-1526.43" y1="2584.08" x2="-1526.43" y2="3812.31" gradientUnits="userSpaceOnUse">
<stop offset="0.54" stop-color="#B3D1D1"/>
<stop offset="1"/>
</linearGradient>
<linearGradient id="paint19_linear" x1="-1844.26" y1="2585.1" x2="-1844.26" y2="3813.33" gradientUnits="userSpaceOnUse">
<stop offset="0.54" stop-color="#B3D1D1"/>
<stop offset="1"/>
</linearGradient>
<linearGradient id="paint20_linear" x1="-11179.6" y1="-3927.66" x2="-11179.6" y2="8685.86" gradientUnits="userSpaceOnUse">
<stop offset="0.54" stop-color="#B3D1D1"/>
<stop offset="1"/>
</linearGradient>
<linearGradient id="paint21_linear" x1="-11689.9" y1="-3898.13" x2="-11689.9" y2="8715.39" gradientUnits="userSpaceOnUse">
<stop offset="0.54" stop-color="#B3D1D1"/>
<stop offset="1"/>
</linearGradient>
<linearGradient id="paint22_linear" x1="-10970.5" y1="-3896.58" x2="-10970.5" y2="8716.93" gradientUnits="userSpaceOnUse">
<stop offset="0.54" stop-color="#B3D1D1"/>
<stop offset="1"/>
</linearGradient>
<linearGradient id="paint23_linear" x1="-11307.1" y1="-3926.68" x2="-11307.1" y2="8686.83" gradientUnits="userSpaceOnUse">
<stop offset="0.54" stop-color="#B3D1D1"/>
<stop offset="1"/>
</linearGradient>
<linearGradient id="paint24_linear" x1="2090.69" y1="34.5377" x2="2090.69" y2="140.729" gradientUnits="userSpaceOnUse">
<stop offset="0.54" stop-color="#B3D1D1"/>
<stop offset="1"/>
</linearGradient>
<linearGradient id="paint25_linear" x1="2429.2" y1="-12.4466" x2="2429.2" y2="93.7442" gradientUnits="userSpaceOnUse">
<stop offset="0.54" stop-color="#B3D1D1"/>
<stop offset="1"/>
</linearGradient>
<linearGradient id="paint26_linear" x1="1745.65" y1="4.05339" x2="1745.65" y2="110.244" gradientUnits="userSpaceOnUse">
<stop offset="0.54" stop-color="#B3D1D1"/>
<stop offset="1"/>
</linearGradient>
<linearGradient id="paint27_linear" x1="9004.26" y1="5127.33" x2="9004.26" y2="9675.74" gradientUnits="userSpaceOnUse">
<stop offset="0.54" stop-color="#B3D1D1"/>
<stop offset="1"/>
</linearGradient>
<linearGradient id="paint28_linear" x1="9441.79" y1="5061.86" x2="9441.79" y2="9610.27" gradientUnits="userSpaceOnUse">
<stop offset="0.54" stop-color="#B3D1D1"/>
<stop offset="1"/>
</linearGradient>
<linearGradient id="paint29_linear" x1="8852.66" y1="5058.71" x2="8852.66" y2="9607.12" gradientUnits="userSpaceOnUse">
<stop offset="0.54" stop-color="#B3D1D1"/>
<stop offset="1"/>
</linearGradient>
<linearGradient id="paint30_linear" x1="4116.01" y1="2560.31" x2="4116.01" y2="3788.54" gradientUnits="userSpaceOnUse">
<stop offset="0.54" stop-color="#B3D1D1"/>
<stop offset="1"/>
</linearGradient>
<linearGradient id="paint31_linear" x1="4433.86" y1="2561.33" x2="4433.86" y2="3789.56" gradientUnits="userSpaceOnUse">
<stop offset="0.54" stop-color="#B3D1D1"/>
<stop offset="1"/>
</linearGradient>
<linearGradient id="paint32_linear" x1="13769.2" y1="-3951.43" x2="13769.2" y2="8662.09" gradientUnits="userSpaceOnUse">
<stop offset="0.54" stop-color="#B3D1D1"/>
<stop offset="1"/>
</linearGradient>
<linearGradient id="paint33_linear" x1="14279.5" y1="-3921.9" x2="14279.5" y2="8691.62" gradientUnits="userSpaceOnUse">
<stop offset="0.54" stop-color="#B3D1D1"/>
<stop offset="1"/>
</linearGradient>
<linearGradient id="paint34_linear" x1="13560.1" y1="-3920.35" x2="13560.1" y2="8693.16" gradientUnits="userSpaceOnUse">
<stop offset="0.54" stop-color="#B3D1D1"/>
<stop offset="1"/>
</linearGradient>
<linearGradient id="paint35_linear" x1="13896.7" y1="-3950.45" x2="13896.7" y2="8663.06" gradientUnits="userSpaceOnUse">
<stop offset="0.54" stop-color="#B3D1D1"/>
<stop offset="1"/>
</linearGradient>
</defs>
</svg>
