<svg fill="none" viewBox="0 0 67 66" xmlns="http://www.w3.org/2000/svg">
  <path d="M33.333 0A33.331 33.331 0 000 33.333C0 48.066 9.567 60.566 22.8 65c1.667.267 2.2-.766 2.2-1.666V57.7c-9.233 2-11.2-4.466-11.2-4.466-1.533-3.867-3.7-4.9-3.7-4.9-3.033-2.067.233-2 .233-2 3.334.233 5.1 3.433 5.1 3.433 2.9 5.067 7.8 3.567 9.7 2.767.3-2.167 1.167-3.634 2.1-4.467-7.4-.833-15.167-3.7-15.167-16.4 0-3.7 1.267-6.667 3.434-9.033-.334-.834-1.5-4.3.333-8.8 0 0 2.8-.9 9.167 3.4 2.633-.734 5.5-1.1 8.333-1.1s5.7.366 8.333 1.1c6.367-4.3 9.167-3.4 9.167-3.4 1.833 4.5.667 7.966.333 8.8C53.333 25 54.6 27.967 54.6 31.667c0 12.733-7.8 15.533-15.233 16.367 1.2 1.033 2.3 3.067 2.3 6.167v9.133c0 .9.533 1.967 2.233 1.667 13.233-4.467 22.767-16.933 22.767-31.667A33.332 33.332 0 0033.334 0z" fill="#003448"/>
</svg>
