<?xml version="1.0" encoding="UTF-8"?>
<svg fill="none" viewBox="0 0 3840 5346" xmlns="http://www.w3.org/2000/svg">
<g clip-path="url(#t)">
<path d="m3840 5345.5-3840 0.13-8.6837e-4 -5345.6h3840v5345.5z" fill="url(#s)"/>
<path d="m2874.6 3373.2c-0.03-0.56 0.07-1.12 0.32-1.63 0.24-0.51 0.6-0.94 1.06-1.27 0.45-0.33 0.99-0.54 1.54-0.6 0.56-0.07 1.13 0.01 1.65 0.22l176.32 51.83c1.28 0.41 2.39 1.2 3.21 2.26s1.29 2.35 1.36 3.68c0.03 0.56-0.07 1.12-0.32 1.63-0.24 0.51-0.6 0.95-1.06 1.27-0.45 0.33-0.99 0.54-1.54 0.6-0.56 0.07-1.13-0.01-1.65-0.22l-176.32-51.83c-1.28-0.41-2.39-1.2-3.21-2.26-0.81-1.06-1.29-2.34-1.36-3.68z" fill="url(#i)" opacity=".5" style="mix-blend-mode:multiply"/>
<path d="m2962.2 3137.6c0.02 20.43-7.44 40.16-20.97 55.47-13.52 15.3-32.18 25.12-52.44 27.6-3.36 0.42-6.74 0.62-10.13 0.62-16.53 0.01-32.7-4.89-46.45-14.08s-24.47-22.25-30.8-37.54c-6.33-15.28-7.99-32.11-4.77-48.34 3.23-16.23 11.19-31.13 22.88-42.83 11.69-11.71 26.59-19.67 42.8-22.9 16.22-3.23 33.03-1.57 48.3 4.77 15.28 6.34 28.33 17.06 37.51 30.83 9.18 13.76 14.08 29.94 14.07 46.48v-0.08z" fill="#107E93"/>
<path d="m2880.3 3161.9h-0.96c-2.68 0-4.85 2.17-4.85 4.86v207.37c0 2.69 2.17 4.86 4.85 4.86h0.96c2.68 0 4.85-2.17 4.85-4.86v-207.37c0-2.69-2.17-4.86-4.85-4.86z" fill="#10627A"/>
<path d="m2962.2 3137.6c0.02 20.43-7.44 40.16-20.96 55.47-13.53 15.3-32.19 25.12-52.45 27.6-24.47-17.36-42.32-42.52-50.61-71.37-8.3-28.84-6.55-59.66 4.96-87.37 12.74-5.97 26.78-8.62 40.82-7.72 14.03 0.91 27.62 5.34 39.49 12.89 11.87 7.56 21.64 17.98 28.41 30.32 6.78 12.34 10.33 26.19 10.34 40.26v-0.08z" fill="#57C8DF"/>
<path d="m2955.6 4879.3c-0.03-0.56 0.07-1.12 0.32-1.62 0.24-0.51 0.6-0.95 1.06-1.28 0.45-0.33 0.99-0.53 1.54-0.6 0.56-0.06 1.13 0.01 1.65 0.22l176.32 51.84c1.28 0.41 2.39 1.2 3.21 2.26s1.29 2.34 1.36 3.68c0.03 0.56-0.07 1.12-0.32 1.62-0.24 0.51-0.6 0.95-1.06 1.28-0.45 0.33-0.99 0.53-1.54 0.6-0.56 0.07-1.13-0.01-1.65-0.22l-176.32-51.84c-1.28-0.41-2.39-1.19-3.21-2.26-0.81-1.06-1.29-2.34-1.36-3.68z" fill="url(#h)" opacity=".5" style="mix-blend-mode:multiply"/>
<path d="m3043.2 4643.6c0.02 20.43-7.44 40.16-20.97 55.46-13.52 15.31-32.18 25.13-52.44 27.6-3.36 0.42-6.74 0.63-10.13 0.63-16.53 0-32.7-4.9-46.45-14.08-13.75-9.19-24.47-22.26-30.8-37.54-6.33-15.29-7.99-32.11-4.77-48.34 3.23-16.23 11.19-31.14 22.88-42.84s26.59-19.67 42.8-22.89c16.22-3.23 33.03-1.57 48.3 4.77 15.28 6.33 28.33 17.06 37.51 30.82s14.08 29.94 14.07 46.49v-0.08z" fill="#107E93"/>
<path d="m2961.3 4667.9h-0.96c-2.68 0-4.85 2.18-4.85 4.86v207.38c0 2.68 2.17 4.86 4.85 4.86h0.96c2.68 0 4.85-2.18 4.85-4.86v-207.38c0-2.68-2.17-4.86-4.85-4.86z" fill="#10627A"/>
<path d="m3043.2 4643.6c0.02 20.44-7.44 40.17-20.96 55.47-13.53 15.31-32.19 25.12-52.45 27.6-24.47-17.35-42.32-42.52-50.61-71.37-8.3-28.84-6.55-59.65 4.96-87.37 12.74-5.97 26.78-8.62 40.82-7.71 14.03 0.9 27.62 5.33 39.49 12.89 11.87 7.55 21.64 17.98 28.41 30.31 6.78 12.34 10.33 26.19 10.34 40.27v-0.09z" fill="#57C8DF"/>
<path d="m915.56 3509.3c-0.034-0.56 0.074-1.12 0.315-1.62 0.24-0.51 0.606-0.95 1.062-1.28s0.988-0.53 1.545-0.6c0.558-0.06 1.123 0.01 1.643 0.22l176.32 51.84c1.28 0.41 2.39 1.2 3.21 2.26s1.29 2.34 1.36 3.68c0.03 0.56-0.07 1.12-0.32 1.62-0.24 0.51-0.6 0.95-1.06 1.28-0.45 0.33-0.99 0.53-1.54 0.6-0.56 0.07-1.13-0.01-1.65-0.22l-176.32-51.84c-1.273-0.41-2.391-1.19-3.206-2.26-0.815-1.06-1.289-2.34-1.359-3.68z" fill="url(#g)" opacity=".5" style="mix-blend-mode:multiply"/>
<path d="m1003.2 3273.6c0.02 20.43-7.442 40.16-20.967 55.46-13.526 15.31-32.183 25.13-52.447 27.6-3.359 0.42-6.741 0.63-10.126 0.63-16.534 0-32.698-4.9-46.449-14.08-13.751-9.19-24.47-22.26-30.801-37.54-6.331-15.29-7.99-32.11-4.766-48.34s11.185-31.14 22.876-42.84 26.587-19.67 42.803-22.89c16.217-3.23 33.025-1.57 48.299 4.77 15.274 6.33 28.326 17.06 37.507 30.82s14.081 29.94 14.071 46.49v-0.08z" fill="#107E93"/>
<path d="m921.28 3297.9h-0.955c-2.681 0-4.855 2.18-4.855 4.86v207.38c0 2.68 2.174 4.86 4.855 4.86h0.955c2.681 0 4.855-2.18 4.855-4.86v-207.38c0-2.68-2.174-4.86-4.855-4.86z" fill="#10627A"/>
<path d="m1003.2 3273.6c0.02 20.44-7.437 40.17-20.963 55.47-13.525 15.31-32.182 25.12-52.447 27.6-24.47-17.35-42.317-42.52-50.612-71.37-8.295-28.84-6.545-59.65 4.964-87.37 12.74-5.97 26.778-8.62 40.814-7.71 14.037 0.9 27.619 5.33 39.489 12.89 11.87 7.55 21.645 17.98 28.419 30.31 6.775 12.34 10.326 26.19 10.336 40.27v-0.09z" fill="#57C8DF"/>
<path d="m535.56 458.26c-0.034-0.561 0.074-1.121 0.315-1.628 0.24-0.508 0.606-0.946 1.062-1.274s0.988-0.534 1.545-0.601c0.558-0.066 1.123 0.011 1.643 0.222l176.33 51.834c1.272 0.41 2.39 1.198 3.205 2.259 0.815 1.06 1.289 2.344 1.359 3.68 0.035 0.561-0.073 1.121-0.314 1.629-0.241 0.507-0.607 0.946-1.063 1.273-0.456 0.328-0.987 0.535-1.545 0.601-0.557 0.066-1.122-0.01-1.642-0.222l-176.33-51.833c-1.273-0.411-2.391-1.199-3.206-2.259-0.815-1.061-1.289-2.344-1.359-3.681z" fill="url(#f)" opacity=".5" style="mix-blend-mode:multiply"/>
<path d="m623.16 222.61c0.019 20.432-7.439 40.164-20.964 55.468-13.526 15.304-32.183 25.122-52.447 27.598-3.359 0.419-6.741 0.627-10.126 0.623-16.534 9e-3 -32.698-4.891-46.449-14.079-13.751-9.189-24.47-22.252-30.801-37.539-6.331-15.286-7.99-32.108-4.766-48.338s11.185-31.138 22.876-42.839 26.587-19.668 42.803-22.895c16.217-3.226 33.025-1.566 48.299 4.77 15.274 6.337 28.326 17.064 37.507 30.826 9.181 13.763 14.076 29.941 14.068 46.488v-0.083z" fill="#107E93"/>
<path d="m541.28 246.9h-0.955c-2.681 0-4.855 2.176-4.855 4.86v207.38c0 2.683 2.174 4.859 4.855 4.859h0.955c2.681 0 4.855-2.176 4.855-4.859v-207.38c0-2.684-2.174-4.86-4.855-4.86z" fill="#10627A"/>
<path d="m623.16 222.6c0.018 20.432-7.439 40.164-20.965 55.468-13.525 15.304-32.182 25.122-52.447 27.598-24.47-17.355-42.317-42.52-50.612-71.365s-6.545-59.656 4.964-87.374c12.74-5.966 26.778-8.62 40.814-7.715 14.037 0.905 27.619 5.339 39.489 12.892 11.87 7.552 21.645 17.98 28.419 30.317 6.775 12.337 10.33 26.185 10.338 40.262v-0.083z" fill="#57C8DF"/>
<path d="m715.56 2849.3c-0.034-0.56 0.074-1.12 0.315-1.62 0.24-0.51 0.606-0.95 1.062-1.28s0.988-0.53 1.545-0.6c0.558-0.06 1.123 0.01 1.643 0.22l176.33 51.84c1.272 0.41 2.39 1.2 3.205 2.26s1.289 2.34 1.359 3.68c0.035 0.56-0.073 1.12-0.314 1.62-0.241 0.51-0.607 0.95-1.063 1.28s-0.987 0.53-1.545 0.6c-0.557 0.07-1.122-0.01-1.642-0.22l-176.33-51.84c-1.273-0.41-2.391-1.19-3.206-2.26-0.815-1.06-1.289-2.34-1.359-3.68z" fill="url(#e)" opacity=".5" style="mix-blend-mode:multiply"/>
<path d="m803.16 2613.6c0.019 20.43-7.439 40.16-20.964 55.46-13.526 15.31-32.183 25.13-52.447 27.6-3.359 0.42-6.741 0.63-10.126 0.63-16.534 0-32.698-4.9-46.449-14.08-13.751-9.19-24.47-22.26-30.801-37.54-6.331-15.29-7.99-32.11-4.766-48.34s11.185-31.14 22.876-42.84 26.587-19.67 42.803-22.89c16.217-3.23 33.025-1.57 48.299 4.77 15.274 6.33 28.326 17.06 37.507 30.82s14.076 29.94 14.068 46.49v-0.08z" fill="#107E93"/>
<path d="m721.28 2637.9h-0.955c-2.681 0-4.855 2.18-4.855 4.86v207.38c0 2.68 2.174 4.86 4.855 4.86h0.955c2.681 0 4.855-2.18 4.855-4.86v-207.38c0-2.68-2.174-4.86-4.855-4.86z" fill="#10627A"/>
<path d="m803.16 2613.6c0.018 20.44-7.439 40.17-20.965 55.47-13.525 15.31-32.182 25.12-52.447 27.6-24.47-17.35-42.317-42.52-50.612-71.37-8.295-28.84-6.545-59.65 4.964-87.37 12.74-5.97 26.778-8.62 40.814-7.71 14.037 0.9 27.619 5.33 39.489 12.89 11.87 7.55 21.645 17.98 28.419 30.31 6.775 12.34 10.33 26.19 10.338 40.27v-0.09z" fill="#57C8DF"/>
<path d="m2988.7 3443.5c-0.05-0.82 0.11-1.64 0.46-2.39 0.35-0.74 0.89-1.38 1.56-1.86s1.45-0.77 2.27-0.86 1.65 0.03 2.4 0.35l256.72 75.44c1.86 0.6 3.49 1.74 4.69 3.29 1.19 1.55 1.89 3.42 2 5.38 0.05 0.82-0.1 1.64-0.46 2.38-0.35 0.75-0.89 1.39-1.56 1.87-0.67 0.47-1.45 0.77-2.27 0.86s-1.64-0.04-2.4-0.36l-256.72-75.43c-1.85-0.6-3.49-1.75-4.68-3.3s-1.89-3.42-2.01-5.37z" fill="url(#d)" opacity=".5" style="mix-blend-mode:multiply"/>
<path d="m2996.3 3177.7h-1.24c-3.36 0-6.09 2.72-6.09 6.09v260.61c0 3.37 2.73 6.09 6.09 6.09h1.24c3.36 0 6.08-2.72 6.08-6.09v-260.61c0-3.37-2.72-6.09-6.08-6.09z" fill="#10627A"/>
<path d="m3099.2 3147.1c0 25.65-9.37 50.42-26.36 69.64-16.98 19.21-40.4 31.55-65.84 34.68-4.23 0.51-8.48 0.77-12.75 0.77-20.76 0-41.07-6.16-58.33-17.71-17.27-11.55-30.73-27.96-38.68-47.17-7.95-19.2-10.03-40.33-5.98-60.72 4.06-20.38 14.06-39.11 28.74-53.81 14.69-14.7 33.4-24.71 53.77-28.76 20.37-4.06 41.48-1.97 60.67 5.98s35.59 21.42 47.13 38.71c11.53 17.28 17.69 37.6 17.69 58.39h-0.06z" fill="#107E93"/>
<path d="m3099.2 3147.1c0.01 25.66-9.36 50.43-26.35 69.65-16.98 19.21-40.4 31.55-65.84 34.68-30.77-21.8-53.22-53.43-63.64-89.69-10.43-36.26-8.22-74.99 6.27-109.82 16.01-7.49 33.65-10.83 51.28-9.69 17.64 1.14 34.71 6.71 49.62 16.2 14.92 9.49 27.21 22.59 35.72 38.09 8.52 15.5 12.99 32.9 13.01 50.58h-0.07z" fill="#57C8DF"/>
<path d="m426.46 3958.5c-0.054-0.82 0.103-1.64 0.456-2.39 0.353-0.74 0.891-1.38 1.562-1.86s1.452-0.77 2.27-0.86 1.645 0.03 2.402 0.35l256.72 75.44c1.86 0.6 3.495 1.74 4.69 3.29 1.194 1.55 1.892 3.42 2.001 5.38 0.054 0.82-0.103 1.64-0.457 2.38-0.353 0.75-0.891 1.39-1.561 1.87-0.671 0.47-1.453 0.77-2.271 0.86s-1.645-0.04-2.402-0.36l-256.72-75.43c-1.857-0.6-3.49-1.75-4.684-3.3s-1.893-3.42-2.006-5.37z" fill="url(#c)" opacity=".5" style="mix-blend-mode:multiply"/>
<path d="m434.05 3692.7h-1.238c-3.362 0-6.088 2.72-6.088 6.09v260.61c0 3.37 2.726 6.09 6.088 6.09h1.238c3.362 0 6.088-2.72 6.088-6.09v-260.61c0-3.37-2.726-6.09-6.088-6.09z" fill="#10627A"/>
<path d="m536.95 3662.1c4e-3 25.65-9.369 50.42-26.352 69.64-16.982 19.21-40.402 31.55-65.844 34.68-4.229 0.51-8.486 0.77-12.746 0.77-20.768 0-41.071-6.16-58.339-17.71-17.269-11.55-30.728-27.96-38.676-47.17-7.947-19.2-10.027-40.33-5.975-60.72 4.052-20.38 14.053-39.11 28.738-53.81 14.686-14.7 33.397-24.71 53.766-28.76 20.37-4.06 41.484-1.97 60.671 5.98 19.188 7.95 35.588 21.42 47.127 38.71 11.538 17.28 17.697 37.6 17.697 58.39h-0.067z" fill="#107E93"/>
<path d="m536.95 3662.1c3e-3 25.66-9.369 50.43-26.352 69.65-16.983 19.21-40.402 31.55-65.844 34.68-30.771-21.8-53.215-53.43-63.642-89.69-10.426-36.26-8.215-74.99 6.27-109.82 16.01-7.49 33.65-10.83 51.287-9.69 17.638 1.14 34.704 6.71 49.62 16.2 14.917 9.49 27.202 22.59 35.719 38.09s12.991 32.9 13.009 50.58h-0.067z" fill="#57C8DF"/>
<path d="m712.46 1049.5c-0.054-0.82 0.103-1.64 0.456-2.39 0.353-0.74 0.891-1.38 1.562-1.86s1.452-0.77 2.27-0.86 1.645 0.03 2.402 0.36l256.72 75.43c1.86 0.6 3.495 1.75 4.69 3.29 1.194 1.55 1.892 3.43 2.001 5.38 0.054 0.82-0.103 1.64-0.457 2.39-0.353 0.74-0.891 1.38-1.561 1.86-0.671 0.47-1.453 0.77-2.271 0.86s-1.645-0.04-2.402-0.36l-256.72-75.43c-1.857-0.6-3.49-1.75-4.684-3.3s-1.893-3.42-2.006-5.37z" fill="url(#b)" opacity=".5" style="mix-blend-mode:multiply"/>
<path d="m720.05 783.66h-1.238c-3.362 0-6.088 2.728-6.088 6.094v260.61c0 3.36 2.726 6.09 6.088 6.09h1.238c3.362 0 6.088-2.73 6.088-6.09v-260.61c0-3.366-2.726-6.094-6.088-6.094z" fill="#10627A"/>
<path d="m822.95 753.1c4e-3 25.655-9.369 50.425-26.352 69.642-16.982 19.217-40.402 31.553-65.844 34.683-4.229 0.51-8.486 0.768-12.746 0.77-20.768 0-41.071-6.163-58.339-17.711-17.269-11.548-30.728-27.962-38.676-47.166-7.947-19.203-10.027-40.334-5.975-60.721 4.052-20.386 14.053-39.113 28.738-53.81 14.686-14.698 33.397-24.707 53.766-28.763 20.37-4.055 41.484-1.973 60.671 5.981 19.188 7.954 35.588 21.425 47.127 38.707 11.538 17.283 17.697 37.602 17.697 58.388h-0.067z" fill="#107E93"/>
<path d="m822.95 753.09c3e-3 25.655-9.369 50.425-26.352 69.642s-40.402 31.553-65.844 34.683c-30.771-21.799-53.215-53.428-63.642-89.687-10.426-36.258-8.215-74.989 6.27-109.82 16.01-7.493 33.65-10.825 51.287-9.687 17.638 1.138 34.704 6.708 49.62 16.197 14.917 9.488 27.202 22.588 35.719 38.088 8.517 15.499 12.991 32.898 13.009 50.587h-0.067z" fill="#57C8DF"/>
<path d="m811.46 4366.5c-0.054-0.82 0.103-1.64 0.456-2.39 0.353-0.74 0.891-1.38 1.562-1.86s1.452-0.77 2.27-0.86 1.645 0.03 2.402 0.35l256.71 75.44c1.86 0.6 3.5 1.74 4.69 3.29 1.2 1.55 1.89 3.42 2 5.38 0.06 0.82-0.1 1.64-0.45 2.38-0.36 0.75-0.89 1.39-1.56 1.87-0.68 0.47-1.46 0.77-2.27 0.86-0.82 0.09-1.65-0.04-2.41-0.36l-256.71-75.43c-1.857-0.6-3.49-1.75-4.684-3.3s-1.893-3.42-2.006-5.37z" fill="url(#a)" opacity=".5" style="mix-blend-mode:multiply"/>
<path d="m819.05 4100.7h-1.238c-3.362 0-6.088 2.72-6.088 6.09v260.61c0 3.37 2.726 6.09 6.088 6.09h1.238c3.362 0 6.088-2.72 6.088-6.09v-260.61c0-3.37-2.726-6.09-6.088-6.09z" fill="#10627A"/>
<path d="m921.95 4070.1c4e-3 25.65-9.369 50.42-26.352 69.64-16.982 19.21-40.402 31.55-65.844 34.68-4.229 0.51-8.486 0.77-12.746 0.77-20.768 0-41.071-6.16-58.339-17.71-17.269-11.55-30.728-27.96-38.676-47.17-7.947-19.2-10.027-40.33-5.975-60.72 4.052-20.38 14.053-39.11 28.738-53.81 14.686-14.7 33.397-24.71 53.766-28.76 20.37-4.06 41.484-1.97 60.671 5.98 19.188 7.95 35.588 21.42 47.127 38.71 11.538 17.28 17.697 37.6 17.697 58.39h-0.067z" fill="#107E93"/>
<path d="m921.95 4070.1c3e-3 25.66-9.369 50.43-26.352 69.65-16.983 19.21-40.402 31.55-65.844 34.68-30.771-21.8-53.215-53.43-63.642-89.69-10.426-36.26-8.215-74.99 6.27-109.82 16.01-7.49 33.65-10.83 51.287-9.69 17.638 1.14 34.704 6.71 49.62 16.2 14.917 9.49 27.202 22.59 35.719 38.09s12.991 32.9 13.009 50.58h-0.067z" fill="#57C8DF"/>
<path d="m3296.5 4227.5c-0.06-0.82 0.1-1.64 0.45-2.39 0.36-0.74 0.89-1.38 1.56-1.86s1.46-0.77 2.27-0.86c0.82-0.09 1.65 0.03 2.41 0.35l256.71 75.44c1.86 0.6 3.5 1.74 4.69 3.29 1.2 1.55 1.89 3.42 2 5.38 0.06 0.82-0.1 1.64-0.45 2.38-0.36 0.75-0.89 1.39-1.56 1.87-0.68 0.47-1.46 0.77-2.27 0.86-0.82 0.09-1.65-0.04-2.41-0.36l-256.71-75.43c-1.86-0.6-3.49-1.75-4.69-3.3-1.19-1.55-1.89-3.42-2-5.37z" fill="url(#r)" opacity=".5" style="mix-blend-mode:multiply"/>
<path d="m3304 3961.7h-1.24c-3.36 0-6.09 2.72-6.09 6.09v260.61c0 3.37 2.73 6.09 6.09 6.09h1.24c3.36 0 6.09-2.72 6.09-6.09v-260.61c0-3.37-2.73-6.09-6.09-6.09z" fill="#10627A"/>
<path d="m3407 3931.1c0 25.65-9.37 50.42-26.35 69.64-16.98 19.21-40.4 31.55-65.85 34.68-4.23 0.51-8.48 0.77-12.74 0.77-20.77 0-41.07-6.16-58.34-17.71s-30.73-27.96-38.68-47.17c-7.94-19.2-10.02-40.33-5.97-60.72 4.05-20.38 14.05-39.11 28.74-53.81 14.68-14.7 33.39-24.71 53.76-28.76 20.37-4.06 41.49-1.97 60.67 5.98 19.19 7.95 35.59 21.42 47.13 38.71 11.54 17.28 17.7 37.6 17.7 58.39h-0.07z" fill="#107E93"/>
<path d="m3407 3931.1c0 25.66-9.37 50.43-26.35 69.65-16.99 19.21-40.41 31.55-65.85 34.68-30.77-21.8-53.21-53.43-63.64-89.69s-8.22-74.99 6.27-109.82c16.01-7.49 33.65-10.83 51.29-9.69 17.63 1.14 34.7 6.71 49.62 16.2 14.91 9.49 27.2 22.59 35.72 38.09 8.51 15.5 12.99 32.9 13 50.58h-0.06z" fill="#57C8DF"/>
<path d="m508.46 2262.5c-0.054-0.82 0.103-1.64 0.456-2.39 0.353-0.74 0.891-1.38 1.562-1.86s1.452-0.77 2.27-0.86 1.645 0.03 2.402 0.36l256.72 75.43c1.86 0.6 3.495 1.75 4.69 3.29 1.194 1.55 1.892 3.43 2.001 5.38 0.054 0.82-0.103 1.64-0.457 2.39-0.353 0.74-0.891 1.38-1.561 1.86-0.671 0.47-1.453 0.77-2.271 0.86s-1.645-0.04-2.402-0.36l-256.72-75.43c-1.857-0.6-3.49-1.75-4.684-3.3s-1.893-3.42-2.006-5.37z" fill="url(#q)" opacity=".5" style="mix-blend-mode:multiply"/>
<path d="m516.05 1996.7h-1.238c-3.362 0-6.088 2.73-6.088 6.1v260.61c0 3.36 2.726 6.09 6.088 6.09h1.238c3.362 0 6.088-2.73 6.088-6.09v-260.61c0-3.37-2.726-6.1-6.088-6.1z" fill="#10627A"/>
<path d="m618.95 1966.1c4e-3 25.65-9.369 50.42-26.352 69.64-16.982 19.21-40.402 31.55-65.844 34.68-4.229 0.51-8.486 0.77-12.746 0.77-20.768 0-41.071-6.16-58.339-17.71-17.269-11.55-30.728-27.96-38.676-47.17-7.947-19.2-10.027-40.33-5.975-60.72 4.052-20.38 14.053-39.11 28.738-53.81 14.686-14.7 33.397-24.71 53.766-28.76 20.37-4.06 41.484-1.97 60.671 5.98 19.188 7.95 35.588 21.42 47.127 38.71 11.538 17.28 17.697 37.6 17.697 58.39h-0.067z" fill="#107E93"/>
<path d="m618.95 1966.1c3e-3 25.66-9.369 50.43-26.352 69.65-16.983 19.21-40.402 31.55-65.844 34.68-30.771-21.8-53.215-53.43-63.642-89.69-10.426-36.26-8.215-74.99 6.27-109.82 16.01-7.49 33.65-10.83 51.287-9.69 17.638 1.14 34.704 6.71 49.62 16.2 14.917 9.49 27.202 22.59 35.719 38.09s12.991 32.9 13.009 50.58h-0.067z" fill="#57C8DF"/>
<path d="m273.46 1190.5c-0.054-0.82 0.103-1.64 0.456-2.39 0.353-0.74 0.891-1.38 1.562-1.86s1.452-0.77 2.27-0.86 1.645 0.03 2.402 0.36l256.72 75.43c1.86 0.6 3.495 1.75 4.69 3.29 1.194 1.55 1.892 3.43 2.001 5.38 0.054 0.82-0.103 1.64-0.457 2.39-0.353 0.74-0.891 1.38-1.561 1.86-0.671 0.47-1.453 0.77-2.271 0.86s-1.645-0.04-2.402-0.36l-256.72-75.43c-1.857-0.6-3.49-1.75-4.684-3.3s-1.893-3.42-2.006-5.37z" fill="url(#p)" opacity=".5" style="mix-blend-mode:multiply"/>
<path d="m281.05 924.66h-1.238c-3.362 0-6.088 2.728-6.088 6.094v260.61c0 3.36 2.726 6.09 6.088 6.09h1.238c3.362 0 6.088-2.73 6.088-6.09v-260.61c0-3.366-2.726-6.094-6.088-6.094z" fill="#10627A"/>
<path d="m383.95 894.1c4e-3 25.655-9.369 50.425-26.352 69.642-16.982 19.217-40.402 31.553-65.844 34.683-4.229 0.51-8.486 0.768-12.746 0.77-20.768 0-41.071-6.163-58.339-17.711-17.269-11.548-30.728-27.962-38.676-47.166-7.947-19.203-10.027-40.334-5.975-60.721 4.052-20.386 14.053-39.113 28.738-53.81 14.686-14.698 33.397-24.707 53.766-28.763 20.37-4.055 41.484-1.973 60.671 5.981 19.188 7.954 35.588 21.425 47.127 38.707 11.538 17.283 17.697 37.602 17.697 58.388h-0.067z" fill="#107E93"/>
<path d="m383.95 894.09c3e-3 25.655-9.369 50.425-26.352 69.642s-40.402 31.553-65.844 34.683c-30.771-21.799-53.215-53.428-63.642-89.687-10.426-36.258-8.215-74.989 6.27-109.82 16.01-7.493 33.65-10.825 51.287-9.687 17.638 1.138 34.704 6.708 49.62 16.197 14.917 9.488 27.202 22.588 35.719 38.088 8.517 15.499 12.991 32.898 13.009 50.587h-0.067z" fill="#57C8DF"/>
<path d="m543.46 4891.5c-0.054-0.82 0.103-1.64 0.456-2.39 0.353-0.74 0.891-1.38 1.562-1.86s1.452-0.77 2.27-0.86 1.645 0.03 2.402 0.35l256.72 75.44c1.86 0.6 3.495 1.74 4.69 3.29 1.194 1.55 1.892 3.42 2.001 5.38 0.054 0.82-0.103 1.64-0.457 2.38-0.353 0.75-0.891 1.39-1.561 1.87-0.671 0.47-1.453 0.77-2.271 0.86s-1.645-0.04-2.402-0.36l-256.72-75.43c-1.857-0.6-3.49-1.75-4.684-3.3s-1.893-3.42-2.006-5.37z" fill="url(#o)" opacity=".5" style="mix-blend-mode:multiply"/>
<path d="m551.05 4625.7h-1.238c-3.362 0-6.088 2.72-6.088 6.09v260.61c0 3.37 2.726 6.09 6.088 6.09h1.238c3.362 0 6.088-2.72 6.088-6.09v-260.61c0-3.37-2.726-6.09-6.088-6.09z" fill="#10627A"/>
<path d="m653.95 4595.1c4e-3 25.65-9.369 50.42-26.352 69.64-16.982 19.21-40.402 31.55-65.844 34.68-4.229 0.51-8.486 0.77-12.746 0.77-20.768 0-41.071-6.16-58.339-17.71-17.269-11.55-30.728-27.96-38.676-47.17-7.947-19.2-10.027-40.33-5.975-60.72 4.052-20.38 14.053-39.11 28.738-53.81 14.686-14.7 33.397-24.71 53.766-28.76 20.37-4.06 41.484-1.97 60.671 5.98 19.188 7.95 35.588 21.42 47.127 38.71 11.538 17.28 17.697 37.6 17.697 58.39h-0.067z" fill="#107E93"/>
<path d="m653.95 4595.1c3e-3 25.66-9.369 50.43-26.352 69.65-16.983 19.21-40.402 31.55-65.844 34.68-30.771-21.8-53.215-53.43-63.642-89.69-10.426-36.26-8.215-74.99 6.27-109.82 16.01-7.49 33.65-10.83 51.287-9.69 17.638 1.14 34.704 6.71 49.62 16.2 14.917 9.49 27.202 22.59 35.719 38.09s12.991 32.9 13.009 50.58h-0.067z" fill="#57C8DF"/>
<path d="m3296.5 719.5c-0.06-0.822 0.1-1.644 0.45-2.388 0.36-0.743 0.89-1.384 1.56-1.861 0.67-0.476 1.46-0.773 2.27-0.862 0.82-0.088 1.65 0.034 2.41 0.356l256.71 75.432c1.86 0.599 3.5 1.748 4.69 3.296 1.2 1.548 1.89 3.422 2 5.375 0.06 0.822-0.1 1.644-0.45 2.387-0.36 0.744-0.89 1.385-1.56 1.861-0.68 0.477-1.46 0.774-2.27 0.862-0.82 0.089-1.65-0.034-2.41-0.356l-256.71-75.431c-1.86-0.603-3.49-1.754-4.69-3.301-1.19-1.547-1.89-3.419-2-5.37z" fill="url(#n)" opacity=".5" style="mix-blend-mode:multiply"/>
<path d="m3304 453.66h-1.24c-3.36 0-6.09 2.728-6.09 6.094v260.61c0 3.366 2.73 6.094 6.09 6.094h1.24c3.36 0 6.09-2.728 6.09-6.094v-260.61c0-3.366-2.73-6.094-6.09-6.094z" fill="#10627A"/>
<path d="m3407 423.1c0 25.655-9.37 50.425-26.35 69.642s-40.4 31.553-65.85 34.683c-4.23 0.51-8.48 0.768-12.74 0.77-20.77 0-41.07-6.163-58.34-17.711s-30.73-27.962-38.68-47.166c-7.94-19.203-10.02-40.334-5.97-60.721 4.05-20.386 14.05-39.113 28.74-53.81 14.68-14.698 33.39-24.707 53.76-28.763 20.37-4.055 41.49-1.973 60.67 5.981 19.19 7.954 35.59 21.425 47.13 38.707 11.54 17.283 17.7 37.602 17.7 58.388h-0.07z" fill="#107E93"/>
<path d="m3407 423.09c0 25.655-9.37 50.425-26.35 69.642-16.99 19.217-40.41 31.553-65.85 34.683-30.77-21.799-53.21-53.428-63.64-89.687-10.43-36.258-8.22-74.989 6.27-109.82 16.01-7.493 33.65-10.825 51.29-9.687 17.63 1.138 34.7 6.708 49.62 16.197 14.91 9.488 27.2 22.588 35.72 38.088 8.51 15.499 12.99 32.898 13 50.587h-0.06z" fill="#57C8DF"/>
<path d="m3084.5 1689.5c-0.06-0.82 0.1-1.64 0.45-2.39 0.36-0.74 0.89-1.38 1.56-1.86s1.46-0.77 2.27-0.86c0.82-0.09 1.65 0.03 2.41 0.36l256.71 75.43c1.86 0.6 3.5 1.75 4.69 3.29 1.2 1.55 1.89 3.43 2 5.38 0.06 0.82-0.1 1.64-0.45 2.39-0.36 0.74-0.89 1.38-1.56 1.86-0.68 0.47-1.46 0.77-2.27 0.86-0.82 0.09-1.65-0.04-2.41-0.36l-256.71-75.43c-1.86-0.6-3.49-1.75-4.69-3.3-1.19-1.55-1.89-3.42-2-5.37z" fill="url(#m)" opacity=".5" style="mix-blend-mode:multiply"/>
<path d="m3092 1423.7h-1.24c-3.36 0-6.09 2.73-6.09 6.1v260.61c0 3.36 2.73 6.09 6.09 6.09h1.24c3.36 0 6.09-2.73 6.09-6.09v-260.61c0-3.37-2.73-6.1-6.09-6.1z" fill="#10627A"/>
<path d="m3195 1393.1c0 25.65-9.37 50.42-26.35 69.64-16.98 19.21-40.4 31.55-65.85 34.68-4.23 0.51-8.48 0.77-12.74 0.77-20.77 0-41.07-6.16-58.34-17.71s-30.73-27.96-38.68-47.17c-7.94-19.2-10.02-40.33-5.97-60.72 4.05-20.38 14.05-39.11 28.74-53.81 14.68-14.7 33.39-24.71 53.76-28.76 20.37-4.06 41.49-1.97 60.67 5.98 19.19 7.95 35.59 21.42 47.13 38.71 11.54 17.28 17.7 37.6 17.7 58.39h-0.07z" fill="#107E93"/>
<path d="m3195 1393.1c0 25.66-9.37 50.43-26.35 69.65-16.99 19.21-40.41 31.55-65.85 34.68-30.77-21.8-53.21-53.43-63.64-89.69s-8.22-74.99 6.27-109.82c16.01-7.49 33.65-10.83 51.29-9.69 17.63 1.14 34.7 6.71 49.62 16.2 14.91 9.49 27.2 22.59 35.72 38.09 8.51 15.5 12.99 32.9 13 50.58h-0.06z" fill="#57C8DF"/>
<path d="m3240.5 2659.5c-0.06-0.82 0.1-1.64 0.45-2.39 0.36-0.74 0.89-1.38 1.56-1.86s1.46-0.77 2.27-0.86c0.82-0.09 1.65 0.03 2.41 0.36l256.71 75.43c1.86 0.6 3.5 1.75 4.69 3.29 1.2 1.55 1.89 3.43 2 5.38 0.06 0.82-0.1 1.64-0.45 2.39-0.36 0.74-0.89 1.38-1.56 1.86-0.68 0.47-1.46 0.77-2.27 0.86-0.82 0.09-1.65-0.04-2.41-0.36l-256.71-75.43c-1.86-0.6-3.49-1.75-4.69-3.3-1.19-1.55-1.89-3.42-2-5.37z" fill="url(#l)" opacity=".5" style="mix-blend-mode:multiply"/>
<path d="m3248 2393.7h-1.24c-3.36 0-6.09 2.73-6.09 6.1v260.61c0 3.36 2.73 6.09 6.09 6.09h1.24c3.36 0 6.09-2.73 6.09-6.09v-260.61c0-3.37-2.73-6.1-6.09-6.1z" fill="#10627A"/>
<path d="m3351 2363.1c0 25.65-9.37 50.42-26.35 69.64-16.98 19.21-40.4 31.55-65.85 34.68-4.23 0.51-8.48 0.77-12.74 0.77-20.77 0-41.07-6.16-58.34-17.71s-30.73-27.96-38.68-47.17c-7.94-19.2-10.02-40.33-5.97-60.72 4.05-20.38 14.05-39.11 28.74-53.81 14.68-14.7 33.39-24.71 53.76-28.76 20.37-4.06 41.49-1.97 60.67 5.98 19.19 7.95 35.59 21.42 47.13 38.71 11.54 17.28 17.7 37.6 17.7 58.39h-0.07z" fill="#107E93"/>
<path d="m3351 2363.1c0 25.66-9.37 50.43-26.35 69.65-16.99 19.21-40.41 31.55-65.85 34.68-30.77-21.8-53.21-53.43-63.64-89.69s-8.22-74.99 6.27-109.82c16.01-7.49 33.65-10.83 51.29-9.69 17.63 1.14 34.7 6.71 49.62 16.2 14.91 9.49 27.2 22.59 35.72 38.09 8.51 15.5 12.99 32.9 13 50.58h-0.06z" fill="#57C8DF"/>
<path d="m3352.2 844.72c-0.04-0.655 0.08-1.309 0.36-1.901s0.71-1.103 1.25-1.482c0.53-0.38 1.15-0.616 1.8-0.687 0.66-0.07 1.31 0.027 1.92 0.284l204.43 60.067c1.48 0.477 2.78 1.393 3.73 2.625 0.95 1.233 1.51 2.725 1.59 4.281 0.05 0.654-0.08 1.308-0.36 1.9-0.28 0.593-0.71 1.103-1.24 1.482-0.54 0.38-1.16 0.616-1.81 0.687-0.65 0.07-1.31-0.027-1.91-0.284l-204.43-60.067c-1.48-0.481-2.78-1.397-3.73-2.629s-1.51-2.722-1.6-4.276z" fill="url(#k)" opacity=".5" style="mix-blend-mode:multiply"/>
<path d="m3358.2 633.03h-0.98c-2.68 0-4.85 2.173-4.85 4.853v207.53c0 2.68 2.17 4.852 4.85 4.852h0.98c2.68 0 4.85-2.172 4.85-4.852v-207.53c0-2.68-2.17-4.853-4.85-4.853z" fill="#10627A"/>
<path d="m3440.2 608.69c0 20.43-7.46 40.155-20.99 55.458-13.52 15.302-32.17 25.126-52.43 27.619-3.37 0.406-6.76 0.611-10.15 0.613-16.54 0-32.71-4.908-46.46-14.104s-24.47-22.267-30.79-37.559c-6.33-15.292-7.99-32.119-4.76-48.354 3.22-16.234 11.19-31.146 22.88-42.85 11.7-11.704 26.6-19.675 42.82-22.904s33.03-1.572 48.31 4.763c15.28 6.334 28.34 17.06 37.53 30.823s14.09 29.943 14.09 46.495h-0.05z" fill="#107E93"/>
<path d="m3440.2 608.69c0.01 20.43-7.46 40.155-20.98 55.457-13.52 15.303-32.17 25.127-52.43 27.619-24.51-17.359-42.38-42.545-50.68-71.419-8.31-28.873-6.54-59.715 4.99-87.455 12.75-5.967 26.8-8.62 40.84-7.714 14.05 0.907 27.64 5.343 39.52 12.899 11.87 7.555 21.66 17.987 28.44 30.33 6.78 12.342 10.34 26.197 10.36 40.283h-0.06z" fill="#57C8DF"/>
<path d="m413.2 2326.7c-0.043-0.65 0.082-1.31 0.363-1.9s0.709-1.1 1.244-1.48c0.534-0.38 1.156-0.62 1.808-0.69 0.651-0.07 1.31 0.03 1.913 0.28l204.43 60.07c1.482 0.48 2.784 1.39 3.735 2.63 0.951 1.23 1.506 2.72 1.593 4.28 0.043 0.65-0.082 1.31-0.363 1.9-0.282 0.59-0.71 1.1-1.244 1.48s-1.156 0.62-1.808 0.69c-0.651 0.07-1.31-0.03-1.913-0.29l-204.43-60.06c-1.48-0.48-2.78-1.4-3.73-2.63-0.951-1.23-1.508-2.73-1.598-4.28z" fill="url(#j)" opacity=".5" style="mix-blend-mode:multiply"/>
<path d="m419.24 2115h-0.986c-2.677 0-4.848 2.18-4.848 4.86v207.53c0 2.68 2.171 4.85 4.848 4.85h0.986c2.678 0 4.848-2.17 4.848-4.85v-207.53c0-2.68-2.17-4.86-4.848-4.86z" fill="#10627A"/>
<path d="m501.19 2090.7c3e-3 20.43-7.46 40.15-20.984 55.46-13.524 15.3-32.173 25.12-52.433 27.62-3.368 0.4-6.757 0.61-10.15 0.61-16.538 0-32.705-4.91-46.457-14.11-13.751-9.19-24.469-22.26-30.798-37.55-6.329-15.3-7.985-32.12-4.758-48.36 3.226-16.23 11.19-31.14 22.885-42.85 11.694-11.7 26.594-19.67 42.815-22.9s33.034-1.57 48.313 4.76c15.28 6.33 28.34 17.06 37.528 30.82 9.188 13.77 14.093 29.95 14.093 46.5h-0.054z" fill="#107E93"/>
<path d="m501.18 2090.7c3e-3 20.43-7.46 40.15-20.984 55.46-13.524 15.3-32.173 25.12-52.433 27.62-24.504-17.36-42.376-42.55-50.679-71.42-8.303-28.88-6.542-59.72 4.993-87.46 12.749-5.97 26.795-8.62 40.841-7.71 14.045 0.9 27.635 5.34 39.513 12.9 11.878 7.55 21.661 17.98 28.443 30.33 6.783 12.34 10.345 26.19 10.36 40.28h-0.054z" fill="#57C8DF"/>
</g>
<defs>
<linearGradient id="s" x1="2871.9" x2="-3648.2" y1="7163" y2="1370.2" gradientUnits="userSpaceOnUse">
<stop stop-color="#509BBC" offset="0"/>
<stop stop-color="#ABC2D6" offset="1"/>
</linearGradient>
<linearGradient id="i" x1="2977.2" x2="2790.6" y1="3403.4" y2="3349.2" gradientUnits="userSpaceOnUse">
<stop stop-color="#fff" offset="0"/>
<stop stop-color="#006DB1" offset="1"/>
</linearGradient>
<linearGradient id="h" x1="3058.2" x2="2871.6" y1="4909.4" y2="4855.3" gradientUnits="userSpaceOnUse">
<stop stop-color="#fff" offset="0"/>
<stop stop-color="#006DB1" offset="1"/>
</linearGradient>
<linearGradient id="g" x1="1018.2" x2="831.58" y1="3539.4" y2="3485.3" gradientUnits="userSpaceOnUse">
<stop stop-color="#fff" offset="0"/>
<stop stop-color="#006DB1" offset="1"/>
</linearGradient>
<linearGradient id="f" x1="638.19" x2="451.58" y1="488.38" y2="434.26" gradientUnits="userSpaceOnUse">
<stop stop-color="#fff" offset="0"/>
<stop stop-color="#006DB1" offset="1"/>
</linearGradient>
<linearGradient id="e" x1="818.19" x2="631.58" y1="2879.4" y2="2825.3" gradientUnits="userSpaceOnUse">
<stop stop-color="#fff" offset="0"/>
<stop stop-color="#006DB1" offset="1"/>
</linearGradient>
<linearGradient id="d" x1="3138.2" x2="2866.4" y1="3487.4" y2="3408.5" gradientUnits="userSpaceOnUse">
<stop stop-color="#fff" offset="0"/>
<stop stop-color="#006DB1" offset="1"/>
</linearGradient>
<linearGradient id="c" x1="575.92" x2="304.16" y1="4002.4" y2="3923.5" gradientUnits="userSpaceOnUse">
<stop stop-color="#fff" offset="0"/>
<stop stop-color="#006DB1" offset="1"/>
</linearGradient>
<linearGradient id="b" x1="861.92" x2="590.16" y1="1093.4" y2="1014.5" gradientUnits="userSpaceOnUse">
<stop stop-color="#fff" offset="0"/>
<stop stop-color="#006DB1" offset="1"/>
</linearGradient>
<linearGradient id="a" x1="960.92" x2="689.16" y1="4410.4" y2="4331.5" gradientUnits="userSpaceOnUse">
<stop stop-color="#fff" offset="0"/>
<stop stop-color="#006DB1" offset="1"/>
</linearGradient>
<linearGradient id="r" x1="3445.9" x2="3174.2" y1="4271.4" y2="4192.5" gradientUnits="userSpaceOnUse">
<stop stop-color="#fff" offset="0"/>
<stop stop-color="#006DB1" offset="1"/>
</linearGradient>
<linearGradient id="q" x1="657.92" x2="386.16" y1="2306.4" y2="2227.5" gradientUnits="userSpaceOnUse">
<stop stop-color="#fff" offset="0"/>
<stop stop-color="#006DB1" offset="1"/>
</linearGradient>
<linearGradient id="p" x1="422.92" x2="151.16" y1="1234.4" y2="1155.5" gradientUnits="userSpaceOnUse">
<stop stop-color="#fff" offset="0"/>
<stop stop-color="#006DB1" offset="1"/>
</linearGradient>
<linearGradient id="o" x1="692.92" x2="421.16" y1="4935.4" y2="4856.5" gradientUnits="userSpaceOnUse">
<stop stop-color="#fff" offset="0"/>
<stop stop-color="#006DB1" offset="1"/>
</linearGradient>
<linearGradient id="n" x1="3445.9" x2="3174.2" y1="763.35" y2="684.52" gradientUnits="userSpaceOnUse">
<stop stop-color="#fff" offset="0"/>
<stop stop-color="#006DB1" offset="1"/>
</linearGradient>
<linearGradient id="m" x1="3233.9" x2="2962.2" y1="1733.4" y2="1654.5" gradientUnits="userSpaceOnUse">
<stop stop-color="#fff" offset="0"/>
<stop stop-color="#006DB1" offset="1"/>
</linearGradient>
<linearGradient id="l" x1="3389.9" x2="3118.2" y1="2703.4" y2="2624.5" gradientUnits="userSpaceOnUse">
<stop stop-color="#fff" offset="0"/>
<stop stop-color="#006DB1" offset="1"/>
</linearGradient>
<linearGradient id="k" x1="3471.2" x2="3254.8" y1="879.64" y2="816.87" gradientUnits="userSpaceOnUse">
<stop stop-color="#fff" offset="0"/>
<stop stop-color="#006DB1" offset="1"/>
</linearGradient>
<linearGradient id="j" x1="532.22" x2="315.81" y1="2361.6" y2="2298.9" gradientUnits="userSpaceOnUse">
<stop stop-color="#fff" offset="0"/>
<stop stop-color="#006DB1" offset="1"/>
</linearGradient>
<clipPath id="t">
<rect width="3840" height="5346" fill="#fff"/>
</clipPath>
</defs>
</svg>
