<?xml version="1.0" encoding="UTF-8"?>
<svg fill="none" viewBox="0 0 3840 1497" xmlns="http://www.w3.org/2000/svg">
<g clip-path="url(#i)">
<path d="m0 529.61v526.06h2027v-332.16c-46.5 1.014-453.79-86.451-934.65-128.05-351.84-30.45-897.47-113.77-1092.4-65.853z" fill="#4DBDD5"/>
<path d="m730.21 468.7h-6.489v132.4h6.489v-132.4z" fill="#4DBDD5"/>
<path d="m777.19 453.86c0 12.453-4.551 24.475-12.796 33.8-8.245 9.326-19.614 15.311-31.963 16.827-2.057 0.27-4.13 0.396-6.205 0.379-11.587-3e-3 -22.828-3.957-31.868-11.212s-15.34-17.376-17.861-28.695c-2.522-11.32-1.114-23.161 3.992-33.572 5.105-10.41 13.603-18.769 24.092-23.697 6.773-3.171 14.168-4.791 21.645-4.741 13.5 0 26.449 5.361 36.004 14.906s14.935 22.494 14.96 36.005z" fill="#4DBDD5"/>
<path d="m777.19 453.86c0 12.453-4.551 24.475-12.796 33.8-8.245 9.326-19.613 15.311-31.963 16.827-14.939-10.568-25.836-25.913-30.898-43.507-5.063-17.594-3.987-36.389 3.048-53.29 6.774-3.171 14.168-4.791 21.646-4.741 13.5 0 26.448 5.361 36.003 14.906s14.935 22.494 14.96 36.005z" fill="#4DBDD5"/>
<path d="m852.64 498.66h-5.412v110.41h5.412v-110.41z" fill="#4DBDD5"/>
<path d="m891.82 486.29c1e-3 10.384-3.795 20.41-10.671 28.187-6.875 7.777-16.356 12.768-26.655 14.032-1.715 0.225-3.444 0.331-5.174 0.316-9.663-2e-3 -19.037-3.3-26.576-9.35s-12.793-14.491-14.896-23.93c-2.102-9.44-0.928-19.314 3.33-27.996 4.257-8.682 11.344-15.653 20.091-19.763 5.649-2.644 11.815-3.994 18.051-3.953 11.258 0 22.056 4.471 30.024 12.43 7.969 7.96 12.456 18.759 12.476 30.027z" fill="#4DBDD5"/>
<path d="m891.82 486.29c0 10.384-3.795 20.41-10.671 28.187s-16.357 12.768-26.655 14.032c-12.458-8.813-21.546-21.61-25.768-36.282-4.221-14.673-3.325-30.346 2.543-44.441 5.648-2.644 11.815-3.994 18.051-3.953 11.258 0 22.056 4.471 30.024 12.43 7.968 7.96 12.455 18.759 12.476 30.027z" fill="#4DBDD5"/>
<path d="m991.47 479.8h-8.27v168.74h8.27v-168.74z" fill="#4DBDD5"/>
<path d="m1051.3 460.89c0 15.87-5.8 31.192-16.3 43.078-10.51 11.885-25 19.513-40.741 21.445-2.622 0.343-5.264 0.505-7.908 0.483-14.768-3e-3 -29.094-5.044-40.615-14.29-11.522-9.246-19.551-22.146-22.765-36.572-3.213-14.426-1.418-29.517 5.088-42.786 6.507-13.268 17.337-23.921 30.705-30.202 8.633-4.041 18.057-6.105 27.587-6.042 17.209 0 33.709 6.832 45.889 18.997 12.17 12.165 19.03 28.669 19.06 45.889z" fill="#4DBDD5"/>
<path d="m1051.4 460.89c0 15.87-5.8 31.192-16.31 43.078-10.5 11.885-24.99 19.513-40.733 21.445-19.039-13.469-32.928-33.026-39.38-55.449-6.452-22.424-5.081-46.378 3.885-67.918 8.633-4.041 18.057-6.105 27.587-6.042 17.201 0 33.711 6.832 45.881 18.997 12.18 12.165 19.04 28.669 19.07 45.889z" fill="#4DBDD5"/>
<path d="m1969.5 467.75c-342.19 229.94-452.29 210.24-703.75 218.83l-6.52 0.222c-221.1 7.537-940.26 32.053-1259.2 144.15l1.082e-4 666.05h3840v-699.1c-356.15-72.753-815.27-170.16-1080.6-249.27-88.43-26.367-155.31-50.701-189.67-71.41v-1e-3c-170-102.47-313.5-135.96-503.73-60.589-33.14 13.131-65.45 30.23-96.57 51.116z" fill="url(#g)"/>
<path d="m2136.8 557.32c-0.04-0.619 0.08-1.238 0.34-1.798 0.27-0.56 0.67-1.043 1.18-1.405 0.5-0.362 1.09-0.59 1.7-0.663 0.62-0.073 1.24 0.011 1.81 0.245l194.59 57.201c1.4 0.453 2.64 1.322 3.54 2.493 0.9 1.17 1.42 2.586 1.5 4.061 0.04 0.619-0.08 1.237-0.35 1.797-0.27 0.561-0.67 1.044-1.17 1.406-0.5 0.361-1.09 0.59-1.71 0.663-0.61 0.073-1.24-0.011-1.81-0.245l-194.59-57.201c-1.4-0.453-2.63-1.322-3.53-2.493-0.9-1.17-1.43-2.587-1.5-4.061z" fill="url(#f)" opacity=".5" style="mix-blend-mode:multiply"/>
<path d="m2233.5 297.26c0.02 22.548-8.21 44.323-23.13 61.212-14.93 16.889-35.52 27.723-57.88 30.456-3.71 0.462-7.44 0.691-11.18 0.688-18.24 9e-3 -36.08-5.399-51.25-15.538-15.18-10.14-27.01-24.556-33.99-41.425-6.99-16.87-8.82-35.434-5.26-53.344 3.55-17.911 12.34-34.363 25.24-47.275 12.9-12.913 29.34-21.705 47.24-25.266 17.89-3.56 36.44-1.728 53.3 5.264 16.85 6.993 31.26 18.831 41.39 34.019 10.13 15.187 15.53 33.04 15.52 51.301v-0.092z" fill="#107E93"/>
<path d="m2143.1 324.08h-1.06c-2.96 0-5.36 2.401-5.36 5.363v228.85c0 2.962 2.4 5.362 5.36 5.362h1.06c2.96 0 5.35-2.4 5.35-5.362v-228.85c0-2.962-2.39-5.363-5.35-5.363z" fill="#10627A"/>
<path d="m2233.5 297.26c0.02 22.547-8.21 44.322-23.14 61.211-14.92 16.889-35.51 27.723-57.88 30.456-27-19.152-46.69-46.923-55.85-78.755-9.15-31.832-7.22-65.833 5.48-96.421 14.06-6.584 29.55-9.513 45.04-8.514 15.49 0.998 30.48 5.891 43.58 14.226s23.88 19.842 31.36 33.457c7.48 13.614 11.4 28.896 11.41 44.431v-0.091z" fill="#57C8DF"/>
<g clip-path="url(#h)">
<path d="m2137.1 487.63 7.89 38.683c0.53 2.368-0.26 4.473-1.57 6.315l-25.78 27.367-4.99-18.42 8.41-21.841-4.73-24.21 20.77-7.894z" fill="#F7B690"/>
<path d="m2008 486.84-7.89 38.683c-0.52 2.368 0.27 4.473 1.58 6.315l32.09 33.946-1.32-25.525-8.41-21.841 4.73-24.21-20.78-7.368z" fill="#F7B690"/>
<path d="m2129 462.37c-3.42-5-13.41-11.316-18.93-13.684-6.32-2.632-33.93 0.526-36.82 0.526-2.63 0-30.25-3.158-36.56-0.526-5.52 2.368-15.78 8.684-19.2 13.684-4.21 6.052-11.57 26.577-11.57 26.577l26.04 11.579v53.682h82.05v-53.682l26.04-11.579c0.52 0-6.84-20.525-11.05-26.577z" fill="#252627"/>
<path d="m2074.3 457.63c-7.1 0-11.05-3.421-11.05-6.053 0-2.631 2.11-4.736 4.74-4.736h12.89c2.63 0 4.73 2.105 4.73 4.736-0.26 2.632-5.26 6.053-11.31 6.053z" fill="#EDA988"/>
<path d="m2098.2 419.74 1.05-14.21c0.27-3.421-1.31-6.579-3.94-8.421-5.52-3.684-14.47-9.21-18.94-9.473-11.31-1.053-14.46 3.421-20.77 6.315-3.69 1.579-5.79 5-6.05 8.947l-0.53 16.842v7.368l23.67 9.999 22.09-7.368 3.42-9.999z" fill="#956439"/>
<path d="m2093.7 433.68v5.789c0 2.105-1.05 4.21-2.63 5.263-4.21 3.158-12.62 8.947-16.83 9.21-3.95 0-12.36-5-17.1-7.894-2.1-1.316-3.41-3.421-3.68-6.053l-0.79-6.315-3.15-2.106c-0.79-0.526-1.32-1.315-1.32-2.105l-0.79-8.684 1.84-2.631 2.63 9.473h2.11l0.26-14.21c0-0.263 0.53-0.526 0.79-0.263 1.58 1.316 6.05 4.21 10.52 4.21 13.68 0 22.35-3.947 25.25-5.263 0.52-0.263 1.05 0 1.05 0.79l0.26 16.578 2.63-1.052 1.84-9.474 1.58 1.316v7.368c0 0.79-0.26 1.316-0.79 1.842l-3.68 4.211z" fill="#F7B690"/>
<path d="m2116.1 571.57h-87.05c-2.1 0-3.94-1.842-3.94-3.947v-54.734c0-2.106 1.84-3.948 3.94-3.948h87.05c2.11 0 3.95 1.842 3.95 3.948v54.997c0 2.106-1.84 3.684-3.95 3.684z" fill="#D1D3D4"/>
<path d="m2128.4 585.52 1.84 15.525-12.36-0.789-1.84-14.21s11.31-0.263 12.36-0.526z" fill="#F7B690"/>
<path d="m2127.1 584.2 1.32 17.104s11.57-2.105 15.25-2.368c5.26-0.263 20.51 2.105 21.57 0.263 1.05-2.105-1.85-24.21-3.16-25.262-1.32-1.053-14.99 6.052-19.99 7.368-3.15 1.053-14.99 2.895-14.99 2.895z" fill="#003448"/>
<path d="m1987.7 543.68s-16.04-7.631-18.93 16.052c-2.37 19.736 14.73 24.209 14.73 24.209l133.86 21.842 2.11-24.736-131.77-37.367z" fill="#4B6977"/>
<path d="m2143.4 594.73c-0.26 0-0.53-0.263-0.53-0.527l-1.05-7.894c0-0.263 0.26-0.789 0.53-0.789 0.26 0 0.79 0.263 0.79 0.526l1.05 7.894c0 0.527-0.26 0.79-0.79 0.79z" fill="#F1F2F2"/>
<path d="m2138.4 595.52c-0.26 0-0.52-0.263-0.52-0.527l-1.05-7.894c0-0.263 0.26-0.789 0.52-0.789s0.79 0.263 0.79 0.526l1.05 7.894c-0.26 0.263-0.52 0.79-0.79 0.79z" fill="#F1F2F2"/>
<path d="m2014.3 582.36-2.1 15.789 12.36-0.789 1.84-14.21c0-0.263-11.05-0.527-12.1-0.79z" fill="#F7B690"/>
<path d="m2015.4 581.05-1.58 17.368s-11.57-2.106-15.25-2.369c-5.26-0.526-20.78 2.105-21.57 0-1.05-2.105 2.11-24.472 3.42-25.525 1.32-1.053 14.73 6.052 19.73 7.631 3.68 1.053 15.25 2.895 15.25 2.895z" fill="#003448"/>
<path d="m2155.5 541.05s16.3-7.631 18.67 16.315c2.11 19.736-14.99 24.21-14.99 24.21l-134.13 21.051-1.84-24.999 132.29-36.577z" fill="#54768B"/>
<path d="m1999 591.31c-0.52 0-0.79-0.263-0.52-0.79l1.05-7.894c0-0.263 0.26-0.526 0.79-0.526 0.26 0 0.52 0.263 0.52 0.789l-1.05 7.895c-0.26 0.526-0.52 0.526-0.79 0.526z" fill="#F1F2F2"/>
<path d="m2004 592.1c-0.52 0-0.79-0.263-0.52-0.79l1.05-7.894c0-0.263 0.26-0.526 0.79-0.526 0.26 0 0.52 0.263 0.52 0.789l-1.05 7.895c-0.26 0.526-0.52 0.526-0.79 0.526z" fill="#F1F2F2"/>
<path d="m2079 538.15c0 2.368-3.41 4.21-7.89 4.21-4.47 0-7.89-1.842-7.89-4.21 0-2.369 3.42-4.211 7.89-4.211 4.48 0 7.89 1.842 7.89 4.211z" fill="#BCBEC0"/>
</g>
<path d="m2841.1 727.25c-0.04-0.561 0.07-1.121 0.31-1.629s0.61-0.946 1.07-1.273c0.45-0.328 0.98-0.535 1.54-0.601s1.12 0.01 1.64 0.222l176.33 51.833c1.27 0.411 2.39 1.198 3.21 2.259 0.81 1.061 1.29 2.344 1.36 3.68 0.03 0.561-0.08 1.122-0.32 1.629-0.24 0.508-0.6 0.946-1.06 1.274-0.46 0.327-0.99 0.534-1.54 0.6-0.56 0.067-1.13-0.01-1.65-0.222l-176.33-51.833c-1.27-0.41-2.39-1.198-3.2-2.259-0.82-1.061-1.29-2.344-1.36-3.68z" fill="url(#e)" opacity=".5" style="mix-blend-mode:multiply"/>
<path d="m2928.7 491.59c0.01 20.431-7.44 40.163-20.97 55.467-13.52 15.305-32.18 25.122-52.45 27.599-3.36 0.418-6.74 0.626-10.12 0.623-16.54 8e-3 -32.7-4.892-46.45-14.08s-24.47-22.252-30.8-37.538c-6.33-15.287-7.99-32.109-4.77-48.339 3.23-16.23 11.19-31.138 22.88-42.839s26.58-19.668 42.8-22.894c16.22-3.227 33.03-1.567 48.3 4.77 15.27 6.336 28.33 17.064 37.51 30.826s14.07 29.94 14.07 46.488v-0.083z" fill="#107E93"/>
<path d="m2846.8 515.89h-0.96c-2.68 0-4.85 2.175-4.85 4.859v207.38c0 2.684 2.17 4.859 4.85 4.859h0.96c2.68 0 4.85-2.175 4.85-4.859v-207.38c0-2.684-2.17-4.859-4.85-4.859z" fill="#10627A"/>
<path d="m2928.7 491.59c0.02 20.431-7.44 40.163-20.96 55.467-13.53 15.305-32.19 25.122-52.45 27.599-24.47-17.355-42.32-42.521-50.61-71.366-8.3-28.845-6.55-59.655 4.96-87.374 12.74-5.966 26.78-8.619 40.81-7.715 14.04 0.905 27.62 5.339 39.49 12.892s21.65 17.98 28.42 30.317c6.78 12.337 10.33 26.185 10.34 40.263v-0.083z" fill="#57C8DF"/>
<path d="m877.56 1256.3c-0.034-0.56 0.074-1.12 0.315-1.62 0.24-0.51 0.606-0.95 1.062-1.28s0.988-0.53 1.545-0.6c0.558-0.06 1.123 0.01 1.643 0.22l176.32 51.84c1.28 0.41 2.39 1.2 3.21 2.26s1.29 2.34 1.36 3.68c0.03 0.56-0.07 1.12-0.32 1.62-0.24 0.51-0.6 0.95-1.06 1.28-0.45 0.33-0.99 0.53-1.54 0.6-0.56 0.07-1.13-0.01-1.65-0.22l-176.32-51.84c-1.273-0.41-2.391-1.19-3.206-2.26-0.815-1.06-1.289-2.34-1.359-3.68z" fill="url(#d)" opacity=".5" style="mix-blend-mode:multiply"/>
<path d="m965.16 1020.6c0.019 20.43-7.439 40.16-20.964 55.46-13.526 15.31-32.183 25.13-52.447 27.6-3.359 0.42-6.741 0.63-10.126 0.63-16.534 0-32.698-4.9-46.449-14.08-13.751-9.19-24.47-22.26-30.801-37.54-6.331-15.29-7.99-32.11-4.766-48.34 3.224-16.231 11.185-31.139 22.876-42.84s26.587-19.668 42.803-22.895c16.217-3.226 33.025-1.566 48.299 4.77 15.274 6.337 28.326 17.064 37.507 30.826 9.181 13.763 14.076 29.939 14.068 46.489v-0.08z" fill="#107E93"/>
<path d="m883.28 1044.9h-0.955c-2.681 0-4.855 2.18-4.855 4.86v207.38c0 2.68 2.174 4.86 4.855 4.86h0.955c2.681 0 4.855-2.18 4.855-4.86v-207.38c0-2.68-2.174-4.86-4.855-4.86z" fill="#10627A"/>
<path d="m965.16 1020.6c0.018 20.44-7.439 40.17-20.965 55.47-13.525 15.31-32.182 25.12-52.447 27.6-24.47-17.35-42.317-42.52-50.612-71.37-8.295-28.84-6.545-59.651 4.964-87.369 12.74-5.966 26.778-8.62 40.814-7.715 14.037 0.905 27.619 5.339 39.489 12.892 11.87 7.552 21.645 17.98 28.419 30.317 6.775 12.337 10.33 26.185 10.338 40.265v-0.09z" fill="#57C8DF"/>
<path d="m2955.2 797.5c-0.05-0.822 0.1-1.644 0.46-2.387 0.35-0.744 0.89-1.385 1.56-1.861 0.67-0.477 1.45-0.774 2.27-0.863 0.82-0.088 1.64 0.034 2.4 0.356l256.72 75.432c1.86 0.599 3.49 1.748 4.69 3.297 1.19 1.548 1.89 3.421 2 5.374 0.05 0.822-0.1 1.644-0.46 2.387-0.35 0.744-0.89 1.385-1.56 1.861-0.67 0.477-1.45 0.774-2.27 0.862-0.82 0.089-1.65-0.033-2.4-0.355l-256.72-75.432c-1.86-0.603-3.49-1.754-4.68-3.301-1.2-1.547-1.9-3.419-2.01-5.37z" fill="url(#c)" opacity=".5" style="mix-blend-mode:multiply"/>
<path d="m2962.8 531.66h-1.23c-3.37 0-6.09 2.728-6.09 6.094v260.61c0 3.366 2.72 6.094 6.09 6.094h1.23c3.37 0 6.09-2.728 6.09-6.094v-260.61c0-3.366-2.72-6.094-6.09-6.094z" fill="#10627A"/>
<path d="m3065.7 501.1c0.01 25.655-9.36 50.425-26.35 69.642-16.98 19.217-40.4 31.553-65.84 34.683-4.23 0.51-8.49 0.768-12.75 0.77-20.77 0-41.07-6.163-58.34-17.711s-30.72-27.962-38.67-47.166c-7.95-19.203-10.03-40.334-5.98-60.721 4.05-20.386 14.06-39.113 28.74-53.81 14.69-14.698 33.4-24.707 53.77-28.763 20.37-4.055 41.48-1.973 60.67 5.981s35.59 21.425 47.12 38.707c11.54 17.283 17.7 37.602 17.7 58.388h-0.07z" fill="#107E93"/>
<path d="m3065.7 501.09c0.01 25.655-9.37 50.425-26.35 69.642s-40.4 31.553-65.84 34.683c-30.77-21.799-53.22-53.428-63.65-89.687-10.42-36.258-8.21-74.989 6.27-109.82 16.01-7.493 33.65-10.825 51.29-9.687s34.71 6.708 49.62 16.197c14.92 9.488 27.2 22.588 35.72 38.088 8.52 15.499 12.99 32.898 13.01 50.587h-0.07z" fill="#57C8DF"/>
<path d="m426.46 1226.5c-0.054-0.82 0.103-1.65 0.456-2.39s0.891-1.38 1.562-1.86 1.452-0.77 2.27-0.86 1.645 0.03 2.402 0.35l256.72 75.43c1.86 0.6 3.495 1.75 4.69 3.3 1.194 1.55 1.892 3.42 2.001 5.38 0.054 0.82-0.103 1.64-0.457 2.38-0.353 0.75-0.891 1.39-1.561 1.86-0.671 0.48-1.453 0.78-2.271 0.87-0.818 0.08-1.645-0.04-2.402-0.36l-256.72-75.43c-1.857-0.6-3.49-1.75-4.684-3.3s-1.893-3.42-2.006-5.37z" fill="url(#b)" opacity=".5" style="mix-blend-mode:multiply"/>
<path d="m434.05 960.66h-1.238c-3.362 0-6.088 2.728-6.088 6.094v260.61c0 3.36 2.726 6.09 6.088 6.09h1.238c3.362 0 6.088-2.73 6.088-6.09v-260.61c0-3.366-2.726-6.094-6.088-6.094z" fill="#10627A"/>
<path d="m536.95 930.1c4e-3 25.655-9.369 50.425-26.352 69.642-16.982 19.213-40.402 31.553-65.844 34.683-4.229 0.51-8.486 0.77-12.746 0.77-20.768 0-41.071-6.16-58.339-17.71-17.269-11.55-30.728-27.963-38.676-47.167-7.947-19.203-10.027-40.334-5.975-60.721 4.052-20.386 14.053-39.113 28.738-53.81 14.686-14.698 33.397-24.707 53.766-28.763 20.37-4.055 41.484-1.973 60.671 5.981 19.188 7.954 35.588 21.425 47.127 38.707 11.538 17.283 17.697 37.602 17.697 58.388h-0.067z" fill="#107E93"/>
<path d="m536.95 930.09c3e-3 25.655-9.369 50.425-26.352 69.642-16.983 19.214-40.402 31.554-65.844 34.684-30.771-21.8-53.215-53.429-63.642-89.688-10.426-36.258-8.215-74.989 6.27-109.82 16.01-7.493 33.65-10.825 51.287-9.687 17.638 1.138 34.704 6.708 49.62 16.197 14.917 9.488 27.202 22.588 35.719 38.088 8.517 15.499 12.991 32.898 13.009 50.587h-0.067z" fill="#57C8DF"/>
<path d="m2843.3 1279.5c-0.06-0.82 0.1-1.65 0.45-2.39 0.36-0.74 0.9-1.38 1.57-1.86s1.45-0.77 2.27-0.86c0.81-0.09 1.64 0.03 2.4 0.35l256.72 75.43c1.86 0.6 3.49 1.75 4.69 3.3 1.19 1.55 1.89 3.42 2 5.38 0.05 0.82-0.11 1.64-0.46 2.38-0.35 0.75-0.89 1.39-1.56 1.86-0.67 0.48-1.45 0.78-2.27 0.87-0.82 0.08-1.65-0.04-2.4-0.36l-256.72-75.43c-1.86-0.6-3.49-1.75-4.68-3.3-1.2-1.55-1.9-3.42-2.01-5.37z" fill="url(#a)" opacity=".5" style="mix-blend-mode:multiply"/>
<path d="m2850.9 1013.7h-1.24c-3.36 0-6.08 2.73-6.08 6.1v260.61c0 3.36 2.72 6.09 6.08 6.09h1.24c3.36 0 6.09-2.73 6.09-6.09v-260.61c0-3.37-2.73-6.1-6.09-6.1z" fill="#10627A"/>
<path d="m2953.8 983.1c0.01 25.655-9.37 50.425-26.35 69.645-16.98 19.21-40.4 31.55-65.84 34.68-4.23 0.51-8.49 0.77-12.75 0.77-20.77 0-41.07-6.16-58.34-17.71s-30.73-27.96-38.67-47.17c-7.95-19.2-10.03-40.331-5.98-60.718 4.05-20.386 14.05-39.113 28.74-53.81 14.68-14.698 33.4-24.707 53.77-28.763 20.36-4.055 41.48-1.973 60.67 5.981 19.18 7.954 35.58 21.425 47.12 38.707 11.54 17.283 17.7 37.602 17.7 58.388h-0.07z" fill="#107E93"/>
<path d="m2953.8 983.09c0 25.656-9.37 50.426-26.35 69.646-16.98 19.21-40.4 31.55-65.85 34.68-30.77-21.8-53.21-53.43-63.64-89.688-10.42-36.258-8.21-74.989 6.27-109.82 16.01-7.493 33.65-10.825 51.29-9.687s34.7 6.708 49.62 16.197c14.92 9.488 27.2 22.588 35.72 38.088 8.52 15.499 12.99 32.898 13.01 50.587h-0.07z" fill="#57C8DF"/>
</g>
<defs>
<linearGradient id="g" x1="2871.9" x2="-3648.2" y1="8660" y2="2867.2" gradientUnits="userSpaceOnUse">
<stop stop-color="#509BBC" offset="0"/>
<stop stop-color="#ABC2D6" offset="1"/>
</linearGradient>
<linearGradient id="f" x1="2250.1" x2="2044.1" y1="590.55" y2="530.83" gradientUnits="userSpaceOnUse">
<stop stop-color="#fff" offset="0"/>
<stop stop-color="#006DB1" offset="1"/>
</linearGradient>
<linearGradient id="e" x1="2943.7" x2="2757.1" y1="757.36" y2="703.24" gradientUnits="userSpaceOnUse">
<stop stop-color="#fff" offset="0"/>
<stop stop-color="#006DB1" offset="1"/>
</linearGradient>
<linearGradient id="d" x1="980.19" x2="793.58" y1="1286.4" y2="1232.3" gradientUnits="userSpaceOnUse">
<stop stop-color="#fff" offset="0"/>
<stop stop-color="#006DB1" offset="1"/>
</linearGradient>
<linearGradient id="c" x1="3104.6" x2="2832.9" y1="841.34" y2="762.52" gradientUnits="userSpaceOnUse">
<stop stop-color="#fff" offset="0"/>
<stop stop-color="#006DB1" offset="1"/>
</linearGradient>
<linearGradient id="b" x1="575.92" x2="304.16" y1="1270.4" y2="1191.5" gradientUnits="userSpaceOnUse">
<stop stop-color="#fff" offset="0"/>
<stop stop-color="#006DB1" offset="1"/>
</linearGradient>
<linearGradient id="a" x1="2992.8" x2="2721" y1="1323.4" y2="1244.5" gradientUnits="userSpaceOnUse">
<stop stop-color="#fff" offset="0"/>
<stop stop-color="#006DB1" offset="1"/>
</linearGradient>
<clipPath id="i">
<rect width="3840" height="1497" fill="#fff"/>
</clipPath>
<clipPath id="h">
<rect transform="translate(1968.5 387.63)" width="205.93" height="218.15" fill="#fff"/>
</clipPath>
</defs>
</svg>
