<?xml version="1.0" encoding="UTF-8"?>
<svg fill="none" viewBox="0 0 1440 1106" xmlns="http://www.w3.org/2000/svg">
<g clip-path="url(#d)">
<path d="m69.737 686.3c251.47-8.584 361.56 11.117 703.75-218.83 31.127-20.885 63.435-37.985 96.575-51.115 190.23-75.375 333.73-41.881 503.73 60.589v1e-3c1.96 1.179 4.02 2.371 6.18 3.573 15.17 8.422 35.41 17.406 60.03 26.851v597.77h-1440v-416.41c24.035-0.874 51.786-1.82 69.737-2.432z" fill="url(#a)"/>
<g clip-path="url(#c)">
<g clip-path="url(#b)">
<path d="m897.12 552.36 7.89 38.683c0.526 2.368-0.263 4.473-1.578 6.315l-25.774 27.368-4.997-18.42 8.416-21.842-4.734-24.209 20.777-7.895z" fill="#F7B690"/>
<path d="m767.98 551.57-7.89 38.683c-0.526 2.368 0.263 4.473 1.578 6.315l32.086 33.946-1.315-25.525-8.416-21.841 4.734-24.21-20.777-7.368z" fill="#F7B690"/>
<path d="m888.96 527.1c-3.419-5-13.413-11.315-18.936-13.684-6.312-2.631-33.926 0.527-36.819 0.527-2.63 0-30.245-3.158-36.557-0.527-5.522 2.369-15.779 8.684-19.198 13.684-4.208 6.052-11.572 26.578-11.572 26.578l26.037 11.578v53.682h82.054v-53.682l26.037-11.578c0.526 0-6.838-20.526-11.046-26.578z" fill="#252627"/>
<path d="m834.26 522.36c-7.101 0-11.046-3.421-11.046-6.052 0-2.632 2.104-4.737 4.734-4.737h12.887c2.63 0 4.734 2.105 4.734 4.737-0.263 2.631-5.26 6.052-11.309 6.052z" fill="#EDA988"/>
<path d="m858.19 484.47 1.052-14.21c0.263-3.421-1.315-6.579-3.945-8.421-5.523-3.684-14.465-9.21-18.936-9.473-11.309-1.053-14.464 3.421-20.776 6.316-3.682 1.579-5.786 4.999-6.049 8.947l-0.526 16.841v7.368l23.669 10 22.092-7.368 3.419-10z" fill="#956439"/>
<path d="m853.72 498.42v5.789c0 2.105-1.052 4.211-2.63 5.263-4.208 3.158-12.624 8.947-16.832 9.21-3.945 0-12.361-4.999-17.095-7.894-2.104-1.316-3.419-3.421-3.681-6.053l-0.789-6.315-3.156-2.105c-0.789-0.527-1.315-1.316-1.315-2.105l-0.789-8.684 1.841-2.632 2.63 9.474h2.103l0.263-14.21c0-0.264 0.526-0.527 0.789-0.264 1.578 1.316 6.049 4.211 10.52 4.211 13.676 0 22.355-3.947 25.248-5.263 0.526-0.263 1.052 0 1.052 0.789l0.263 16.579 2.63-1.053 1.841-9.473 1.578 1.315v7.369c0 0.789-0.263 1.315-0.789 1.842l-3.682 4.21z" fill="#F7B690"/>
<path d="m876.08 636.31h-87.052c-2.104 0-3.945-1.842-3.945-3.947v-54.735c0-2.105 1.841-3.947 3.945-3.947h87.052c2.104 0 3.945 1.842 3.945 3.947v54.998c0 2.105-1.841 3.684-3.945 3.684z" fill="#D1D3D4"/>
<path d="m888.44 650.25 1.841 15.526-12.361-0.79-1.841-14.21s11.309-0.263 12.361-0.526z" fill="#F7B690"/>
<path d="m887.12 648.94 1.315 17.105s11.572-2.106 15.254-2.369c5.26-0.263 20.514 2.105 21.566 0.263 1.052-2.105-1.841-24.209-3.156-25.262-1.315-1.052-14.991 6.053-19.988 7.368-3.156 1.053-14.991 2.895-14.991 2.895z" fill="#003448"/>
<path d="m747.74 608.41s-16.043-7.631-18.936 16.052c-2.367 19.736 14.728 24.21 14.728 24.21l133.86 21.841 2.104-24.736-131.76-37.367z" fill="#4B6977"/>
<path d="m903.43 659.46c-0.263 0-0.526-0.263-0.526-0.526l-1.052-7.895c0-0.263 0.263-0.789 0.526-0.789s0.789 0.263 0.789 0.526l1.052 7.895c0 0.526-0.263 0.789-0.789 0.789z" fill="#F1F2F2"/>
<path d="m898.43 660.25c-0.263 0-0.526-0.263-0.526-0.526l-1.052-7.895c0-0.263 0.263-0.789 0.526-0.789s0.789 0.263 0.789 0.526l1.052 7.895c-0.263 0.263-0.526 0.789-0.789 0.789z" fill="#F1F2F2"/>
<path d="m774.3 647.1-2.104 15.789 12.361-0.79 1.841-14.21c0-0.263-11.046-0.526-12.098-0.789z" fill="#F7B690"/>
<path d="m775.35 645.78-1.578 17.368s-11.572-2.105-15.254-2.368c-5.26-0.527-20.777 2.105-21.566 0-1.052-2.106 2.104-24.473 3.419-25.526 1.315-1.052 14.728 6.053 19.725 7.632 3.682 1.052 15.254 2.894 15.254 2.894z" fill="#003448"/>
<path d="m915.53 605.78s16.306-7.631 18.673 16.315c2.104 19.737-14.991 24.21-14.991 24.21l-134.13 21.052-1.841-24.999 132.29-36.578z" fill="#54768B"/>
<path d="m759.04 656.04c-0.526 0-0.789-0.263-0.526-0.789l1.052-7.895c0-0.263 0.263-0.526 0.789-0.526 0.263 0 0.526 0.263 0.526 0.789l-1.052 7.895c-0.263 0.526-0.526 0.526-0.789 0.526z" fill="#F1F2F2"/>
<path d="m764.04 656.83c-0.526 0-0.789-0.263-0.526-0.789l1.052-7.895c0-0.263 0.263-0.526 0.789-0.526 0.263 0 0.526 0.263 0.526 0.79l-1.052 7.894c-0.263 0.526-0.526 0.526-0.789 0.526z" fill="#F1F2F2"/>
<path d="m839 602.89c0 2.368-3.419 4.21-7.89 4.21s-7.89-1.842-7.89-4.21 3.419-4.21 7.89-4.21 7.89 1.842 7.89 4.21z" fill="#BCBEC0"/>
</g>
</g>
</g>
<defs>
<linearGradient id="a" x1="1077" x2="-2860.9" y1="8660.1" y2="7348.1" gradientUnits="userSpaceOnUse">
<stop stop-color="#509BBC" offset="0"/>
<stop stop-color="#ABC2D6" offset="1"/>
</linearGradient>
<clipPath id="d">
<rect transform="translate(0 .13672)" width="1440" height="1105" fill="#fff"/>
</clipPath>
<clipPath id="c">
<rect transform="translate(727 451.73)" width="209" height="219" fill="#fff"/>
</clipPath>
<clipPath id="b">
<rect transform="translate(728.54 452.37)" width="205.93" height="218.15" fill="#fff"/>
</clipPath>
</defs>
</svg>
