<?xml version="1.0" encoding="UTF-8"?>
<svg fill="none" viewBox="0 0 1440 6843" xmlns="http://www.w3.org/2000/svg">
<path d="m69.737 686.58c251.47-8.585 361.56 11.117 703.75-218.83 31.127-20.886 63.435-37.985 96.575-51.116 190.23-75.375 333.73-41.881 503.73 60.589v1e-3c1.96 1.18 4.02 2.371 6.18 3.574 15.17 8.422 35.41 17.405 60.03 26.851v6334.9l-1440 0.05v-6153.6c24.035-0.873 45.268-1.597 63.219-2.209l6.5181-0.222z" fill="url(#a)"/>
<g clip-path="url(#b)">
<path d="m897.12 552.63 7.89 38.682c0.526 2.369-0.263 4.474-1.578 6.316l-25.774 27.367-4.997-18.42 8.416-21.841-4.734-24.21 20.777-7.894z" fill="#F7B690"/>
<path d="m767.98 551.84-7.89 38.682c-0.526 2.369 0.263 4.474 1.578 6.316l32.086 33.946-1.315-25.525-8.416-21.842 4.734-24.209-20.777-7.368z" fill="#F7B690"/>
<path d="m888.96 527.37c-3.419-4.999-13.413-11.315-18.936-13.683-6.312-2.632-33.926 0.526-36.819 0.526-2.63 0-30.245-3.158-36.557-0.526-5.522 2.368-15.779 8.684-19.198 13.683-4.208 6.053-11.572 26.578-11.572 26.578l26.037 11.579v53.682h82.054v-53.682l26.037-11.579c0.526 0-6.838-20.525-11.046-26.578z" fill="#252627"/>
<path d="m834.26 522.64c-7.101 0-11.046-3.421-11.046-6.053 0-2.631 2.104-4.736 4.734-4.736h12.887c2.63 0 4.734 2.105 4.734 4.736-0.263 2.632-5.26 6.053-11.309 6.053z" fill="#EDA988"/>
<path d="m858.19 484.74 1.052-14.21c0.263-3.421-1.315-6.579-3.945-8.421-5.523-3.684-14.465-9.21-18.936-9.473-11.309-1.053-14.464 3.421-20.776 6.315-3.682 1.579-5.786 5-6.049 8.947l-0.526 16.842v7.368l23.669 9.999 22.092-7.368 3.419-9.999z" fill="#956439"/>
<path d="m853.72 498.69v5.79c0 2.105-1.052 4.21-2.63 5.263-4.208 3.157-12.624 8.947-16.832 9.21-3.945 0-12.361-5-17.095-7.895-2.104-1.315-3.419-3.421-3.681-6.052l-0.789-6.316-3.156-2.105c-0.789-0.526-1.315-1.315-1.315-2.105l-0.789-8.684 1.841-2.631 2.63 9.473h2.103l0.263-14.21c0-0.263 0.526-0.526 0.789-0.263 1.578 1.316 6.049 4.21 10.52 4.21 13.676 0 22.355-3.947 25.248-5.263 0.526-0.263 1.052 0 1.052 0.79l0.263 16.578 2.63-1.052 1.841-9.474 1.578 1.316v7.368c0 0.79-0.263 1.316-0.789 1.842l-3.682 4.21z" fill="#F7B690"/>
<path d="m876.08 636.58h-87.052c-2.104 0-3.945-1.842-3.945-3.947v-54.735c0-2.105 1.841-3.947 3.945-3.947h87.052c2.104 0 3.945 1.842 3.945 3.947v54.998c0 2.105-1.841 3.684-3.945 3.684z" fill="#D1D3D4"/>
<path d="m888.44 650.52 1.841 15.526-12.361-0.789-1.841-14.21s11.309-0.263 12.361-0.527z" fill="#F7B690"/>
<path d="m887.12 649.21 1.315 17.104s11.572-2.105 15.254-2.368c5.26-0.263 20.514 2.105 21.566 0.263 1.052-2.105-1.841-24.21-3.156-25.262-1.315-1.053-14.991 6.052-19.988 7.368-3.156 1.053-14.991 2.895-14.991 2.895z" fill="#003448"/>
<path d="m747.74 608.68s-16.043-7.632-18.936 16.052c-2.367 19.736 14.728 24.209 14.728 24.209l133.86 21.842 2.104-24.736-131.76-37.367z" fill="#4B6977"/>
<path d="m903.43 659.73c-0.263 0-0.526-0.263-0.526-0.527l-1.052-7.894c0-0.263 0.263-0.79 0.526-0.79s0.789 0.264 0.789 0.527l1.052 7.894c0 0.527-0.263 0.79-0.789 0.79z" fill="#F1F2F2"/>
<path d="m898.43 660.52c-0.263 0-0.526-0.263-0.526-0.527l-1.052-7.894c0-0.263 0.263-0.79 0.526-0.79s0.789 0.264 0.789 0.527l1.052 7.894c-0.263 0.263-0.526 0.79-0.789 0.79z" fill="#F1F2F2"/>
<path d="m774.3 647.36-2.104 15.789 12.361-0.789 1.841-14.21c0-0.263-11.046-0.527-12.098-0.79z" fill="#F7B690"/>
<path d="m775.35 646.05-1.578 17.367s-11.572-2.105-15.254-2.368c-5.26-0.526-20.777 2.105-21.566 0-1.052-2.105 2.104-24.473 3.419-25.525 1.315-1.053 14.728 6.052 19.725 7.631 3.682 1.053 15.254 2.895 15.254 2.895z" fill="#003448"/>
<path d="m915.53 606.05s16.306-7.631 18.673 16.315c2.104 19.736-14.991 24.21-14.991 24.21l-134.13 21.051-1.841-24.999 132.29-36.577z" fill="#54768B"/>
<path d="m759.04 656.31c-0.526 0-0.789-0.263-0.526-0.79l1.052-7.894c0-0.263 0.263-0.526 0.789-0.526 0.263 0 0.526 0.263 0.526 0.789l-1.052 7.894c-0.263 0.527-0.526 0.527-0.789 0.527z" fill="#F1F2F2"/>
<path d="m764.04 657.1c-0.526 0-0.789-0.263-0.526-0.79l1.052-7.894c0-0.263 0.263-0.526 0.789-0.526 0.263 0 0.526 0.263 0.526 0.789l-1.052 7.895c-0.263 0.526-0.526 0.526-0.789 0.526z" fill="#F1F2F2"/>
<path d="m839 603.16c0 2.368-3.419 4.21-7.89 4.21s-7.89-1.842-7.89-4.21c0-2.369 3.419-4.211 7.89-4.211s7.89 1.842 7.89 4.211z" fill="#BCBEC0"/>
</g>
<defs>
<linearGradient id="a" x1="1077" x2="-2860.9" y1="8659.9" y2="7347.9" gradientUnits="userSpaceOnUse">
<stop stop-color="#509BBC" offset="0"/>
<stop stop-color="#ABC2D6" offset="1"/>
</linearGradient>
<clipPath id="b">
<rect transform="translate(728.54 452.64)" width="205.93" height="218.15" fill="#fff"/>
</clipPath>
</defs>
</svg>
