<svg fill="none" viewBox="0 0 3840 5346" xmlns="http://www.w3.org/2000/svg"><g clip-path="url(#z)"><path d="M3840 5345.5l-3840 .14V.04h3840v5345.5z" fill="url(#y)"/><path d="M2874.6 3373.2c-.03-.56.07-1.12.32-1.63.24-.51.6-.95 1.06-1.27.45-.33.99-.54 1.54-.6.56-.07 1.13.01 1.65.22l176.32 51.83c1.28.41 2.39 1.2 3.21 2.26s1.29 2.34 1.36 3.68c.03.56-.07 1.12-.32 1.63-.24.51-.6.94-1.06 1.27-.45.33-.99.54-1.54.6-.56.07-1.13-.01-1.65-.22l-176.32-51.83a6.6 6.6 0 01-4.57-5.94z" fill="url(#n)" opacity=".5" style="mix-blend-mode:multiply"/><path d="M2962.2 3137.6a83.642 83.642 0 01-20.97 55.47 83.535 83.535 0 01-62.57 28.22c-16.53.01-32.7-4.89-46.45-14.08s-24.47-22.25-30.8-37.54a83.751 83.751 0 01-4.77-48.34 83.77 83.77 0 0122.88-42.84 83.593 83.593 0 0142.8-22.89 83.451 83.451 0 0148.3 4.77 83.547 83.547 0 0137.51 30.83 83.677 83.677 0 0114.07 46.48v-.08z" fill="#107E93"/><path d="M2880.3 3161.9h-.96a4.85 4.85 0 00-4.85 4.86v207.37c0 2.68 2.17 4.86 4.85 4.86h.96c2.68 0 4.85-2.18 4.85-4.86v-207.37a4.85 4.85 0 00-4.85-4.86z" fill="#10627A"/><path d="M2962.2 3137.6a83.683 83.683 0 01-20.96 55.47 83.524 83.524 0 01-52.45 27.59 132.28 132.28 0 01-50.61-71.36c-8.3-28.85-6.55-59.66 4.96-87.37a83.59 83.59 0 0140.82-7.72c14.03.91 27.62 5.34 39.49 12.89s21.64 17.98 28.41 30.32a83.703 83.703 0 0110.34 40.26v-.08z" fill="#57C8DF"/><path d="M2955.6 4879.3c-.03-.56.07-1.12.32-1.62a3.292 3.292 0 012.6-1.88c.56-.06 1.13.01 1.65.22l176.32 51.84c1.28.41 2.39 1.2 3.21 2.26s1.29 2.34 1.36 3.68c.03.56-.07 1.12-.32 1.62a3.292 3.292 0 01-2.6 1.88c-.56.07-1.13-.01-1.65-.22l-176.32-51.84a6.537 6.537 0 01-3.21-2.26 6.633 6.633 0 01-1.36-3.68z" fill="url(#h)" opacity=".5" style="mix-blend-mode:multiply"/><path d="M3043.2 4643.6a83.598 83.598 0 01-20.97 55.46 83.44 83.44 0 01-52.44 27.6c-3.36.42-6.74.63-10.13.63-16.53 0-32.7-4.9-46.45-14.08a83.678 83.678 0 01-30.8-37.54 83.76 83.76 0 01-4.77-48.34c3.23-16.23 11.19-31.14 22.88-42.84s26.59-19.67 42.8-22.89a83.451 83.451 0 0148.3 4.77c15.28 6.33 28.33 17.06 37.51 30.82s14.08 29.94 14.07 46.49v-.08z" fill="#107E93"/><path d="M2961.3 4667.9h-.96c-2.68 0-4.85 2.18-4.85 4.86v207.38c0 2.68 2.17 4.86 4.85 4.86h.96c2.68 0 4.85-2.18 4.85-4.86v-207.38c0-2.68-2.17-4.86-4.85-4.86z" fill="#10627A"/><path d="M3043.2 4643.6a83.645 83.645 0 01-20.96 55.47 83.537 83.537 0 01-52.45 27.6 132.267 132.267 0 01-50.61-71.37c-8.3-28.84-6.55-59.65 4.96-87.37a83.47 83.47 0 0140.82-7.71c14.03.9 27.62 5.33 39.49 12.89a83.612 83.612 0 0128.41 30.31 83.742 83.742 0 0110.34 40.27v-.09z" fill="#57C8DF"/><path d="M915.56 3509.3a3.28 3.28 0 01.315-1.62c.24-.51.606-.95 1.062-1.28s.988-.53 1.545-.6a3.41 3.41 0 011.643.22l176.32 51.84c1.28.41 2.4 1.2 3.21 2.26a6.559 6.559 0 011.36 3.68c.03.56-.07 1.12-.32 1.62a3.292 3.292 0 01-2.6 1.88c-.56.07-1.13-.01-1.65-.22l-176.32-51.84a6.535 6.535 0 01-3.206-2.26 6.595 6.595 0 01-1.359-3.68z" fill="url(#g)" opacity=".5" style="mix-blend-mode:multiply"/><path d="M1003.2 3273.6a83.62 83.62 0 01-20.967 55.46 83.462 83.462 0 01-52.447 27.6c-3.359.42-6.741.63-10.126.63a83.659 83.659 0 01-46.449-14.08 83.68 83.68 0 01-35.567-85.88c3.224-16.23 11.185-31.14 22.876-42.84s26.587-19.67 42.803-22.89a83.454 83.454 0 0148.299 4.77c15.274 6.33 28.326 17.06 37.507 30.82s14.081 29.94 14.071 46.49v-.08z" fill="#107E93"/><path d="M921.28 3297.9h-.955a4.86 4.86 0 00-4.855 4.86v207.38a4.86 4.86 0 004.855 4.86h.955a4.86 4.86 0 004.855-4.86v-207.38a4.86 4.86 0 00-4.855-4.86z" fill="#10627A"/><path d="M1003.2 3273.6a83.617 83.617 0 01-20.963 55.47 83.504 83.504 0 01-52.447 27.6 132.296 132.296 0 01-50.612-71.37 132.413 132.413 0 014.964-87.37 83.455 83.455 0 0140.814-7.71 83.438 83.438 0 0139.489 12.89 83.67 83.67 0 0128.419 30.31 83.794 83.794 0 0110.336 40.27v-.09z" fill="#57C8DF"/><path d="M535.56 458.26a3.323 3.323 0 014.565-3.281l176.33 51.834a6.606 6.606 0 014.564 5.939 3.317 3.317 0 01-2.922 3.503 3.316 3.316 0 01-1.642-.222L540.125 464.2a6.604 6.604 0 01-4.565-5.94z" fill="url(#f)" opacity=".5" style="mix-blend-mode:multiply"/><path d="M623.16 222.61a83.646 83.646 0 01-20.964 55.468 83.516 83.516 0 01-52.447 27.598 81.033 81.033 0 01-10.126.623 83.522 83.522 0 01-46.449-14.079 83.635 83.635 0 01-30.801-37.539c-6.331-15.286-7.99-32.108-4.766-48.338s11.185-31.138 22.876-42.839 26.587-19.668 42.803-22.895a83.52 83.52 0 0148.299 4.77 83.6 83.6 0 0137.507 30.826 83.699 83.699 0 0114.068 46.488v-.083z" fill="#107E93"/><path d="M541.28 246.9h-.955a4.858 4.858 0 00-4.855 4.86v207.38a4.858 4.858 0 004.855 4.859h.955a4.858 4.858 0 004.855-4.859V251.76a4.858 4.858 0 00-4.855-4.86z" fill="#10627A"/><path d="M623.16 222.6a83.647 83.647 0 01-20.965 55.468 83.511 83.511 0 01-52.447 27.598c-24.47-17.355-42.317-42.52-50.612-71.365s-6.545-59.656 4.964-87.374a83.56 83.56 0 0180.303 5.177 83.65 83.65 0 0128.419 30.317 83.743 83.743 0 0110.338 40.262v-.083z" fill="#57C8DF"/><path d="M1005.7 1335.6c-.04-.56.07-1.12.31-1.63.24-.5.61-.94 1.06-1.27.46-.33.99-.53 1.55-.6s1.12.01 1.64.22l176.33 51.84a6.51 6.51 0 013.2 2.26 6.559 6.559 0 011.36 3.68c.04.56-.07 1.12-.31 1.62-.24.51-.61.95-1.06 1.28-.46.33-.99.53-1.55.6-.56.06-1.12-.01-1.64-.22l-176.33-51.84a6.647 6.647 0 01-3.21-2.26 6.622 6.622 0 01-1.35-3.68z" fill="url(#e)" opacity=".5" style="mix-blend-mode:multiply"/><path d="M1093.3 1100a83.638 83.638 0 01-20.96 55.46 83.464 83.464 0 01-52.45 27.6c-3.36.42-6.74.63-10.13.62a83.493 83.493 0 01-46.444-14.08 83.601 83.601 0 01-30.801-37.53 83.717 83.717 0 01-4.766-48.34 83.664 83.664 0 0122.875-42.84 83.606 83.606 0 0142.804-22.9 83.639 83.639 0 0148.302 4.77c15.27 6.34 28.32 17.07 37.5 30.83s14.08 29.94 14.07 46.49v-.08z" fill="#107E93"/><path d="M1011.4 1124.3h-.95c-2.68 0-4.86 2.18-4.86 4.86v207.38c0 2.68 2.18 4.86 4.86 4.86h.95c2.68 0 4.86-2.18 4.86-4.86v-207.38c0-2.68-2.18-4.86-4.86-4.86z" fill="#10627A"/><path d="M1093.3 1100a83.604 83.604 0 01-20.97 55.47 83.487 83.487 0 01-52.44 27.6 132.315 132.315 0 01-50.617-71.37 132.419 132.419 0 014.963-87.37 83.446 83.446 0 0140.814-7.71c14.04.9 27.62 5.33 39.49 12.89a83.723 83.723 0 0128.42 30.31 83.854 83.854 0 0110.34 40.27v-.09z" fill="#57C8DF"/><path d="M715.56 2849.3a3.28 3.28 0 01.315-1.62c.24-.51.606-.95 1.062-1.28s.988-.53 1.545-.6a3.41 3.41 0 011.643.22l176.33 51.84a6.6 6.6 0 014.564 5.94 3.344 3.344 0 01-1.377 2.9 3.33 3.33 0 01-3.187.38l-176.33-51.84a6.535 6.535 0 01-3.206-2.26 6.595 6.595 0 01-1.359-3.68z" fill="url(#d)" opacity=".5" style="mix-blend-mode:multiply"/><path d="M803.16 2613.6a83.622 83.622 0 01-20.964 55.46 83.462 83.462 0 01-52.447 27.6c-3.359.42-6.741.63-10.126.63a83.659 83.659 0 01-46.449-14.08 83.68 83.68 0 01-35.567-85.88c3.224-16.23 11.185-31.14 22.876-42.84s26.587-19.67 42.803-22.89a83.454 83.454 0 0148.299 4.77c15.274 6.33 28.326 17.06 37.507 30.82s14.076 29.94 14.068 46.49v-.08z" fill="#107E93"/><path d="M721.28 2637.9h-.955a4.86 4.86 0 00-4.855 4.86v207.38a4.86 4.86 0 004.855 4.86h.955a4.86 4.86 0 004.855-4.86v-207.38a4.86 4.86 0 00-4.855-4.86z" fill="#10627A"/><path d="M803.16 2613.6a83.63 83.63 0 01-20.965 55.47 83.504 83.504 0 01-52.447 27.6 132.296 132.296 0 01-50.612-71.37 132.413 132.413 0 014.964-87.37 83.455 83.455 0 0140.814-7.71 83.438 83.438 0 0139.489 12.89 83.67 83.67 0 0128.419 30.31 83.774 83.774 0 0110.338 40.27v-.09z" fill="#57C8DF"/><path d="M2988.7 3443.5c-.05-.82.11-1.65.46-2.39s.89-1.38 1.56-1.86 1.45-.77 2.27-.86 1.65.03 2.4.35l256.72 75.43c1.86.6 3.5 1.75 4.69 3.3s1.89 3.42 2 5.38c.05.82-.1 1.64-.46 2.38a4.7 4.7 0 01-1.56 1.86c-.67.48-1.45.78-2.27.87a4.93 4.93 0 01-2.4-.36l-256.72-75.43c-1.85-.6-3.49-1.75-4.68-3.3s-1.89-3.42-2.01-5.37z" fill="url(#c)" opacity=".5" style="mix-blend-mode:multiply"/><path d="M2996.3 3177.7h-1.24c-3.36 0-6.09 2.73-6.09 6.1v260.61c0 3.36 2.73 6.09 6.09 6.09h1.24c3.36 0 6.08-2.73 6.08-6.09V3183.8c0-3.37-2.72-6.1-6.08-6.1z" fill="#10627A"/><path d="M3099.2 3147.1c0 25.65-9.37 50.42-26.36 69.64a104.997 104.997 0 01-65.84 34.68c-4.23.51-8.49.77-12.75.77-20.76 0-41.07-6.16-58.33-17.71a105.08 105.08 0 01-38.68-47.17 105.164 105.164 0 01-5.98-60.72 105.26 105.26 0 0128.74-53.81c14.69-14.7 33.4-24.71 53.77-28.76 20.37-4.06 41.48-1.97 60.67 5.98s35.59 21.42 47.13 38.71a105.208 105.208 0 0117.69 58.39h-.06z" fill="#107E93"/><path d="M3099.2 3147.1c.01 25.66-9.36 50.43-26.35 69.65a104.997 104.997 0 01-65.84 34.68 166.17 166.17 0 01-63.64-89.69 166.262 166.262 0 016.27-109.82 105.037 105.037 0 0151.28-9.69c17.64 1.14 34.71 6.71 49.62 16.2a105.09 105.09 0 0135.72 38.09c8.52 15.5 12.99 32.9 13.01 50.58h-.07z" fill="#57C8DF"/><path d="M426.46 3958.5c-.054-.82.103-1.65.456-2.39s.891-1.38 1.562-1.86 1.452-.77 2.27-.86 1.645.03 2.402.35l256.72 75.43a9.686 9.686 0 016.691 8.68c.054.82-.103 1.64-.457 2.38a4.728 4.728 0 01-1.561 1.86c-.671.48-1.453.78-2.271.87a4.936 4.936 0 01-2.402-.36l-256.72-75.43c-1.857-.6-3.49-1.75-4.684-3.3s-1.893-3.42-2.006-5.37z" fill="url(#b)" opacity=".5" style="mix-blend-mode:multiply"/><path d="M434.05 3692.7h-1.238c-3.362 0-6.088 2.73-6.088 6.1v260.61c0 3.36 2.726 6.09 6.088 6.09h1.238a6.091 6.091 0 006.088-6.09V3698.8c0-3.37-2.726-6.1-6.088-6.1z" fill="#10627A"/><path d="M536.95 3662.1a105.152 105.152 0 01-26.352 69.64 105.007 105.007 0 01-65.844 34.68c-4.229.51-8.486.77-12.746.77-20.768 0-41.071-6.16-58.339-17.71a105.065 105.065 0 01-38.676-47.17 105.16 105.16 0 0122.763-114.53 104.928 104.928 0 0153.766-28.76 104.923 104.923 0 0160.671 5.98 104.961 104.961 0 0147.127 38.71 105.151 105.151 0 0117.697 58.39h-.067z" fill="#107E93"/><path d="M536.95 3662.1a105.164 105.164 0 01-26.352 69.65 105.01 105.01 0 01-65.844 34.68 166.204 166.204 0 01-63.642-89.69 166.319 166.319 0 016.27-109.82 105.05 105.05 0 0151.287-9.69 105.057 105.057 0 0149.62 16.2c14.917 9.49 27.202 22.59 35.719 38.09s12.991 32.9 13.009 50.58h-.067z" fill="#57C8DF"/><path d="M712.46 1049.5c-.054-.82.103-1.65.456-2.39s.891-1.38 1.562-1.86 1.452-.77 2.27-.86 1.645.03 2.402.35l256.72 75.43a9.686 9.686 0 016.691 8.68c.054.82-.103 1.64-.457 2.38a4.728 4.728 0 01-1.561 1.86c-.671.48-1.453.78-2.271.87a4.936 4.936 0 01-2.402-.36l-256.72-75.43c-1.857-.6-3.49-1.75-4.684-3.3s-1.893-3.42-2.006-5.37z" fill="url(#a)" opacity=".5" style="mix-blend-mode:multiply"/><path d="M720.05 783.66h-1.238a6.091 6.091 0 00-6.088 6.094v260.61c0 3.36 2.726 6.09 6.088 6.09h1.238a6.091 6.091 0 006.088-6.09v-260.61a6.091 6.091 0 00-6.088-6.094z" fill="#10627A"/><path d="M822.95 753.1a105.142 105.142 0 01-26.352 69.642 104.977 104.977 0 01-65.844 34.683c-4.229.51-8.486.768-12.746.77a104.945 104.945 0 01-58.339-17.711 105.075 105.075 0 01-38.676-47.166 105.179 105.179 0 01-5.975-60.721 105.125 105.125 0 0128.738-53.81 104.992 104.992 0 0153.766-28.763 104.931 104.931 0 0160.671 5.981 105.032 105.032 0 0147.127 38.707 105.162 105.162 0 0117.697 58.388h-.067z" fill="#107E93"/><path d="M822.95 753.09c.003 25.655-9.369 50.425-26.352 69.642s-40.402 31.553-65.844 34.683a166.197 166.197 0 01-63.642-89.687 166.32 166.32 0 016.27-109.82 105.036 105.036 0 01100.907 6.51 105.15 105.15 0 0135.719 38.088 105.265 105.265 0 0113.009 50.587h-.067z" fill="#57C8DF"/><path d="M811.46 4366.5c-.054-.82.103-1.65.456-2.39s.891-1.38 1.562-1.86 1.452-.77 2.27-.86 1.645.03 2.402.35l256.71 75.43c1.86.6 3.5 1.75 4.69 3.3a9.648 9.648 0 012 5.38c.06.82-.1 1.64-.45 2.38-.36.75-.89 1.39-1.56 1.86-.68.48-1.46.78-2.27.87a4.97 4.97 0 01-2.41-.36l-256.71-75.43c-1.857-.6-3.49-1.75-4.684-3.3s-1.893-3.42-2.006-5.37z" fill="url(#x)" opacity=".5" style="mix-blend-mode:multiply"/><path d="M819.05 4100.7h-1.238c-3.362 0-6.088 2.73-6.088 6.1v260.61c0 3.36 2.726 6.09 6.088 6.09h1.238a6.091 6.091 0 006.088-6.09V4106.8c0-3.37-2.726-6.1-6.088-6.1z" fill="#10627A"/><path d="M921.95 4070.1a105.152 105.152 0 01-26.352 69.64 105.007 105.007 0 01-65.844 34.68c-4.229.51-8.486.77-12.746.77-20.768 0-41.071-6.16-58.339-17.71a105.065 105.065 0 01-38.676-47.17 105.16 105.16 0 0122.763-114.53 104.928 104.928 0 0153.766-28.76 104.923 104.923 0 0160.671 5.98 104.961 104.961 0 0147.127 38.71 105.151 105.151 0 0117.697 58.39h-.067z" fill="#107E93"/><path d="M921.95 4070.1a105.164 105.164 0 01-26.352 69.65 105.01 105.01 0 01-65.844 34.68 166.204 166.204 0 01-63.642-89.69 166.319 166.319 0 016.27-109.82 105.05 105.05 0 0151.287-9.69 105.057 105.057 0 0149.62 16.2c14.917 9.49 27.202 22.59 35.719 38.09s12.991 32.9 13.009 50.58h-.067z" fill="#57C8DF"/><path d="M2712.2 4079.5c-.06-.82.1-1.64.45-2.38.36-.75.89-1.39 1.57-1.86.67-.48 1.45-.78 2.27-.87.81-.09 1.64.04 2.4.36l256.71 75.43c1.86.6 3.5 1.75 4.69 3.3 1.2 1.55 1.9 3.42 2 5.37a4.798 4.798 0 01-2.01 4.25c-.67.48-1.46.77-2.27.86-.82.09-1.65-.03-2.41-.35l-256.71-75.44a9.694 9.694 0 01-4.69-3.3 9.692 9.692 0 01-2-5.37z" fill="url(#w)" opacity=".5" style="mix-blend-mode:multiply"/><path d="M2719.7 3813.7h-1.24c-3.36 0-6.09 2.73-6.09 6.09v260.62c0 3.36 2.73 6.09 6.09 6.09h1.24c3.36 0 6.09-2.73 6.09-6.09v-260.62c0-3.36-2.73-6.09-6.09-6.09z" fill="#10627A"/><path d="M2822.6 3783.1c0 25.66-9.37 50.43-26.35 69.64a104.962 104.962 0 01-65.84 34.69c-4.23.51-8.49.76-12.75.77-20.77 0-41.07-6.17-58.34-17.72a105.054 105.054 0 01-38.68-47.16 105.252 105.252 0 01-5.97-60.72 105.073 105.073 0 0128.74-53.81 104.883 104.883 0 0153.76-28.76 104.83 104.83 0 0160.67 5.98 105.007 105.007 0 0147.13 38.7c11.54 17.29 17.7 37.6 17.7 58.39h-.07z" fill="#107E93"/><path d="M2822.6 3783.1c0 25.65-9.37 50.42-26.35 69.64a104.974 104.974 0 01-65.85 34.68 166.16 166.16 0 01-63.64-89.68 166.42 166.42 0 016.27-109.83c16.01-7.49 33.65-10.82 51.29-9.68s34.7 6.71 49.62 16.19c14.92 9.49 27.2 22.59 35.72 38.09 8.51 15.5 12.99 32.9 13.01 50.59h-.07z" fill="#57C8DF"/><path d="M3296.5 4227.5c-.06-.82.1-1.65.45-2.39.36-.74.89-1.38 1.56-1.86s1.46-.77 2.27-.86c.82-.09 1.65.03 2.41.35l256.71 75.43c1.86.6 3.5 1.75 4.69 3.3a9.648 9.648 0 012 5.38c.06.82-.1 1.64-.45 2.38-.36.75-.89 1.39-1.56 1.86-.68.48-1.46.78-2.27.87a4.97 4.97 0 01-2.41-.36l-256.71-75.43a9.694 9.694 0 01-4.69-3.3 9.72 9.72 0 01-2-5.37z" fill="url(#v)" opacity=".5" style="mix-blend-mode:multiply"/><path d="M3304 3961.7h-1.24c-3.36 0-6.09 2.73-6.09 6.1v260.61c0 3.36 2.73 6.09 6.09 6.09h1.24c3.36 0 6.09-2.73 6.09-6.09V3967.8c0-3.37-2.73-6.1-6.09-6.1z" fill="#10627A"/><path d="M3407 3931.1c0 25.65-9.37 50.42-26.35 69.64a104.996 104.996 0 01-65.85 34.68c-4.23.51-8.48.77-12.74.77-20.77 0-41.07-6.16-58.34-17.71s-30.73-27.96-38.68-47.17a105.244 105.244 0 01-5.97-60.72 105.112 105.112 0 0128.74-53.81 104.883 104.883 0 0153.76-28.76c20.37-4.06 41.49-1.97 60.67 5.98a104.964 104.964 0 0147.13 38.71c11.54 17.28 17.7 37.6 17.7 58.39h-.07z" fill="#107E93"/><path d="M3407 3931.1c0 25.66-9.37 50.43-26.35 69.65a105.047 105.047 0 01-65.85 34.68c-30.77-21.8-53.21-53.43-63.64-89.69s-8.22-74.99 6.27-109.82a105.054 105.054 0 0151.29-9.69 105.1 105.1 0 0149.62 16.2c14.91 9.49 27.2 22.59 35.72 38.09 8.51 15.5 12.99 32.9 13 50.58h-.06z" fill="#57C8DF"/><path d="M508.46 2262.5c-.054-.82.103-1.65.456-2.39s.891-1.38 1.562-1.86 1.452-.77 2.27-.86 1.645.03 2.402.35l256.72 75.43a9.686 9.686 0 016.691 8.68c.054.82-.103 1.64-.457 2.38a4.728 4.728 0 01-1.561 1.86c-.671.48-1.453.78-2.271.87a4.936 4.936 0 01-2.402-.36l-256.72-75.43c-1.857-.6-3.49-1.75-4.684-3.3s-1.893-3.42-2.006-5.37z" fill="url(#u)" opacity=".5" style="mix-blend-mode:multiply"/><path d="M516.05 1996.7h-1.238c-3.362 0-6.088 2.73-6.088 6.1v260.61c0 3.36 2.726 6.09 6.088 6.09h1.238a6.091 6.091 0 006.088-6.09V2002.8c0-3.37-2.726-6.1-6.088-6.1z" fill="#10627A"/><path d="M618.95 1966.1a105.152 105.152 0 01-26.352 69.64 105.007 105.007 0 01-65.844 34.68c-4.229.51-8.486.77-12.746.77-20.768 0-41.071-6.16-58.339-17.71a105.065 105.065 0 01-38.676-47.17 105.16 105.16 0 0122.763-114.53 104.928 104.928 0 0153.766-28.76 104.923 104.923 0 0160.671 5.98 104.961 104.961 0 0147.127 38.71 105.151 105.151 0 0117.697 58.39h-.067z" fill="#107E93"/><path d="M618.95 1966.1a105.164 105.164 0 01-26.352 69.65 105.01 105.01 0 01-65.844 34.68 166.204 166.204 0 01-63.642-89.69 166.319 166.319 0 016.27-109.82 105.05 105.05 0 0151.287-9.69 105.057 105.057 0 0149.62 16.2 105.18 105.18 0 0135.719 38.09 105.267 105.267 0 0113.009 50.58h-.067z" fill="#57C8DF"/><path d="M273.46 1190.5c-.054-.82.103-1.65.456-2.39s.891-1.38 1.562-1.86 1.452-.77 2.27-.86 1.645.03 2.402.35l256.72 75.43a9.686 9.686 0 016.691 8.68c.054.82-.103 1.64-.457 2.38a4.728 4.728 0 01-1.561 1.86c-.671.48-1.453.78-2.271.87a4.936 4.936 0 01-2.402-.36l-256.72-75.43c-1.857-.6-3.49-1.75-4.684-3.3s-1.893-3.42-2.006-5.37z" fill="url(#t)" opacity=".5" style="mix-blend-mode:multiply"/><path d="M281.05 924.66h-1.238a6.091 6.091 0 00-6.088 6.094v260.61c0 3.36 2.726 6.09 6.088 6.09h1.238a6.091 6.091 0 006.088-6.09v-260.61a6.091 6.091 0 00-6.088-6.094z" fill="#10627A"/><path d="M383.95 894.1a105.142 105.142 0 01-26.352 69.642 104.977 104.977 0 01-65.844 34.683c-4.229.51-8.486.768-12.746.77a104.945 104.945 0 01-58.339-17.711 105.075 105.075 0 01-38.676-47.166 105.179 105.179 0 01-5.975-60.721 105.125 105.125 0 0128.738-53.81 104.992 104.992 0 0153.766-28.763 104.931 104.931 0 0160.671 5.981 105.032 105.032 0 0147.127 38.707 105.162 105.162 0 0117.697 58.388h-.067z" fill="#107E93"/><path d="M383.95 894.09c.003 25.655-9.369 50.425-26.352 69.642s-40.402 31.553-65.844 34.683a166.197 166.197 0 01-63.642-89.687 166.32 166.32 0 016.27-109.82 105.036 105.036 0 01100.907 6.51 105.15 105.15 0 0135.719 38.088 105.265 105.265 0 0113.009 50.587h-.067z" fill="#57C8DF"/><path d="M853.24 1859.5c-.054-.82.103-1.65.456-2.39s.891-1.38 1.562-1.86 1.452-.77 2.27-.86 1.645.03 2.402.35l256.72 75.43c1.86.6 3.5 1.75 4.69 3.3a9.648 9.648 0 012 5.38c.06.82-.1 1.64-.45 2.38-.36.75-.89 1.39-1.57 1.86-.67.48-1.45.78-2.27.87-.81.08-1.64-.04-2.4-.36l-256.72-75.43a9.664 9.664 0 01-4.684-3.3 9.727 9.727 0 01-2.006-5.37z" fill="url(#s)" opacity=".5" style="mix-blend-mode:multiply"/><path d="M860.84 1593.7h-1.238c-3.362 0-6.088 2.73-6.088 6.1v260.61c0 3.36 2.726 6.09 6.088 6.09h1.238a6.091 6.091 0 006.088-6.09V1599.8c0-3.37-2.726-6.1-6.088-6.1z" fill="#10627A"/><path d="M963.74 1563.1a105.152 105.152 0 01-26.352 69.64 105.007 105.007 0 01-65.844 34.68c-4.229.51-8.485.77-12.746.77-20.768 0-41.071-6.16-58.339-17.71a105.065 105.065 0 01-38.676-47.17 105.16 105.16 0 0122.763-114.53 104.928 104.928 0 0153.766-28.76 104.923 104.923 0 0160.671 5.98 104.961 104.961 0 0147.127 38.71 105.151 105.151 0 0117.697 58.39h-.067z" fill="#107E93"/><path d="M963.74 1563.1a105.164 105.164 0 01-26.352 69.65 105.01 105.01 0 01-65.844 34.68 166.204 166.204 0 01-63.642-89.69 166.319 166.319 0 016.27-109.82 105.05 105.05 0 0151.287-9.69 105.057 105.057 0 0149.62 16.2c14.917 9.49 27.202 22.59 35.719 38.09s12.991 32.9 13.009 50.58h-.067z" fill="#57C8DF"/><path d="M543.46 4891.5c-.054-.82.103-1.65.456-2.39s.891-1.38 1.562-1.86 1.452-.77 2.27-.86 1.645.03 2.402.35l256.72 75.43a9.686 9.686 0 016.691 8.68c.054.82-.103 1.64-.457 2.38a4.728 4.728 0 01-1.561 1.86c-.671.48-1.453.78-2.271.87a4.936 4.936 0 01-2.402-.36l-256.72-75.43c-1.857-.6-3.49-1.75-4.684-3.3s-1.893-3.42-2.006-5.37z" fill="url(#r)" opacity=".5" style="mix-blend-mode:multiply"/><path d="M551.05 4625.7h-1.238c-3.362 0-6.088 2.73-6.088 6.1v260.61c0 3.36 2.726 6.09 6.088 6.09h1.238a6.091 6.091 0 006.088-6.09V4631.8c0-3.37-2.726-6.1-6.088-6.1z" fill="#10627A"/><path d="M653.95 4595.1a105.152 105.152 0 01-26.352 69.64 105.007 105.007 0 01-65.844 34.68c-4.229.51-8.486.77-12.746.77-20.768 0-41.071-6.16-58.339-17.71a105.065 105.065 0 01-38.676-47.17 105.16 105.16 0 0122.763-114.53 104.928 104.928 0 0153.766-28.76 104.923 104.923 0 0160.671 5.98 104.961 104.961 0 0147.127 38.71 105.151 105.151 0 0117.697 58.39h-.067z" fill="#107E93"/><path d="M653.95 4595.1a105.164 105.164 0 01-26.352 69.65 105.01 105.01 0 01-65.844 34.68 166.204 166.204 0 01-63.642-89.69 166.319 166.319 0 016.27-109.82 105.05 105.05 0 0151.287-9.69 105.057 105.057 0 0149.62 16.2c14.917 9.49 27.202 22.59 35.719 38.09s12.991 32.9 13.009 50.58h-.067z" fill="#57C8DF"/><path d="M3296.5 719.5c-.06-.822.1-1.644.45-2.387.36-.744.89-1.385 1.56-1.861a4.844 4.844 0 012.27-.863c.82-.088 1.65.034 2.41.356l256.71 75.432a9.642 9.642 0 014.69 3.297 9.643 9.643 0 012 5.374c.06.822-.1 1.644-.45 2.387a4.874 4.874 0 01-1.56 1.861c-.68.477-1.46.774-2.27.862a4.84 4.84 0 01-2.41-.355l-256.71-75.432a9.735 9.735 0 01-4.69-3.301 9.709 9.709 0 01-2-5.37z" fill="url(#q)" opacity=".5" style="mix-blend-mode:multiply"/><path d="M3304 453.66h-1.24a6.094 6.094 0 00-6.09 6.094v260.61a6.094 6.094 0 006.09 6.094h1.24c3.36 0 6.09-2.728 6.09-6.094v-260.61a6.094 6.094 0 00-6.09-6.094z" fill="#10627A"/><path d="M3407 423.1c0 25.655-9.37 50.425-26.35 69.642s-40.4 31.553-65.85 34.683c-4.23.51-8.48.768-12.74.77-20.77 0-41.07-6.163-58.34-17.711s-30.73-27.962-38.68-47.166a105.252 105.252 0 01-5.97-60.721 105.077 105.077 0 0128.74-53.81 104.922 104.922 0 01114.43-22.782 105.035 105.035 0 0147.13 38.707 105.149 105.149 0 0117.7 58.388h-.07z" fill="#107E93"/><path d="M3407 423.09c0 25.655-9.37 50.425-26.35 69.642a105.017 105.017 0 01-65.85 34.683 166.214 166.214 0 01-63.64-89.687 166.263 166.263 0 016.27-109.82 105.04 105.04 0 01100.91 6.51 105.237 105.237 0 0135.72 38.088 105.245 105.245 0 0113 50.587h-.06z" fill="#57C8DF"/><path d="M2803.5 455.5c-.06-.822.1-1.644.45-2.387.36-.744.89-1.385 1.56-1.861a4.844 4.844 0 012.27-.863c.82-.088 1.65.034 2.41.356l256.71 75.432a9.642 9.642 0 014.69 3.297 9.643 9.643 0 012 5.374c.06.822-.1 1.644-.45 2.387a4.874 4.874 0 01-1.56 1.861 4.832 4.832 0 01-4.68.507l-256.71-75.432a9.735 9.735 0 01-4.69-3.301 9.709 9.709 0 01-2-5.37z" fill="url(#p)" opacity=".5" style="mix-blend-mode:multiply"/><path d="M2811.1 189.66h-1.24a6.094 6.094 0 00-6.09 6.094v260.61a6.094 6.094 0 006.09 6.094h1.24c3.36 0 6.09-2.728 6.09-6.094v-260.61a6.094 6.094 0 00-6.09-6.094z" fill="#10627A"/><path d="M2914 159.1c0 25.655-9.37 50.425-26.35 69.642s-40.4 31.553-65.85 34.683c-4.23.51-8.48.768-12.74.77-20.77 0-41.07-6.163-58.34-17.711s-30.73-27.962-38.68-47.166a105.252 105.252 0 01-5.97-60.721 105.08 105.08 0 0128.74-53.81 104.937 104.937 0 01114.43-22.781 105.037 105.037 0 0147.13 38.707 105.149 105.149 0 0117.7 58.388h-.07z" fill="#107E93"/><path d="M2914 159.09c0 25.655-9.37 50.425-26.35 69.642a105.017 105.017 0 01-65.85 34.683 166.214 166.214 0 01-63.64-89.687 166.263 166.263 0 016.27-109.82 105.04 105.04 0 01100.91 6.51 105.24 105.24 0 0135.72 38.088 105.245 105.245 0 0113 50.587h-.06z" fill="#57C8DF"/><path d="M3084.5 1689.5c-.06-.82.1-1.65.45-2.39.36-.74.89-1.38 1.56-1.86s1.46-.77 2.27-.86c.82-.09 1.65.03 2.41.35l256.71 75.43c1.86.6 3.5 1.75 4.69 3.3a9.648 9.648 0 012 5.38c.06.82-.1 1.64-.45 2.38-.36.75-.89 1.39-1.56 1.86-.68.48-1.46.78-2.27.87a4.97 4.97 0 01-2.41-.36l-256.71-75.43a9.694 9.694 0 01-4.69-3.3 9.72 9.72 0 01-2-5.37z" fill="url(#o)" opacity=".5" style="mix-blend-mode:multiply"/><path d="M3092 1423.7h-1.24c-3.36 0-6.09 2.73-6.09 6.1v260.61c0 3.36 2.73 6.09 6.09 6.09h1.24c3.36 0 6.09-2.73 6.09-6.09V1429.8c0-3.37-2.73-6.1-6.09-6.1z" fill="#10627A"/><path d="M3195 1393.1c0 25.65-9.37 50.42-26.35 69.64a104.996 104.996 0 01-65.85 34.68c-4.23.51-8.48.77-12.74.77-20.77 0-41.07-6.16-58.34-17.71s-30.73-27.96-38.68-47.17a105.244 105.244 0 01-5.97-60.72 105.112 105.112 0 0128.74-53.81 104.883 104.883 0 0153.76-28.76c20.37-4.06 41.49-1.97 60.67 5.98a104.964 104.964 0 0147.13 38.71c11.54 17.28 17.7 37.6 17.7 58.39h-.07z" fill="#107E93"/><path d="M3195 1393.1c0 25.66-9.37 50.43-26.35 69.65a105.047 105.047 0 01-65.85 34.68c-30.77-21.8-53.21-53.43-63.64-89.69s-8.22-74.99 6.27-109.82a105.054 105.054 0 0151.29-9.69 105.1 105.1 0 0149.62 16.2c14.91 9.49 27.2 22.59 35.72 38.09 8.51 15.5 12.99 32.9 13 50.58h-.06z" fill="#57C8DF"/><path d="M3240.5 2659.5c-.06-.82.1-1.65.45-2.39.36-.74.89-1.38 1.56-1.86s1.46-.77 2.27-.86c.82-.09 1.65.03 2.41.35l256.71 75.43c1.86.6 3.5 1.75 4.69 3.3a9.648 9.648 0 012 5.38c.06.82-.1 1.64-.45 2.38-.36.75-.89 1.39-1.56 1.86-.68.48-1.46.78-2.27.87a4.97 4.97 0 01-2.41-.36l-256.71-75.43a9.694 9.694 0 01-4.69-3.3 9.72 9.72 0 01-2-5.37z" fill="url(#m)" opacity=".5" style="mix-blend-mode:multiply"/><path d="M3248 2393.7h-1.24c-3.36 0-6.09 2.73-6.09 6.1v260.61c0 3.36 2.73 6.09 6.09 6.09h1.24c3.36 0 6.09-2.73 6.09-6.09V2399.8c0-3.37-2.73-6.1-6.09-6.1z" fill="#10627A"/><path d="M3351 2363.1c0 25.65-9.37 50.42-26.35 69.64a104.996 104.996 0 01-65.85 34.68c-4.23.51-8.48.77-12.74.77-20.77 0-41.07-6.16-58.34-17.71s-30.73-27.96-38.68-47.17a105.244 105.244 0 01-5.97-60.72 105.112 105.112 0 0128.74-53.81 104.883 104.883 0 0153.76-28.76c20.37-4.06 41.49-1.97 60.67 5.98a104.964 104.964 0 0147.13 38.71c11.54 17.28 17.7 37.6 17.7 58.39h-.07z" fill="#107E93"/><path d="M3351 2363.1c0 25.66-9.37 50.43-26.35 69.65a105.047 105.047 0 01-65.85 34.68c-30.77-21.8-53.21-53.43-63.64-89.69s-8.22-74.99 6.27-109.82a105.054 105.054 0 0151.29-9.69 105.1 105.1 0 0149.62 16.2c14.91 9.49 27.2 22.59 35.72 38.09 8.51 15.5 12.99 32.9 13 50.58h-.06z" fill="#57C8DF"/><path d="M2893.2 2176.5c-.05-.82.11-1.65.46-2.39s.89-1.38 1.56-1.86 1.46-.77 2.27-.86c.82-.09 1.65.03 2.41.35l256.71 75.43c1.86.6 3.5 1.75 4.69 3.3a9.648 9.648 0 012 5.38c.06.82-.1 1.64-.45 2.38-.36.75-.89 1.39-1.57 1.86-.67.48-1.45.78-2.27.87-.81.08-1.64-.04-2.4-.36l-256.71-75.43a9.694 9.694 0 01-4.69-3.3 9.808 9.808 0 01-2.01-5.37z" fill="url(#l)" opacity=".5" style="mix-blend-mode:multiply"/><path d="M2900.8 1910.7h-1.24c-3.36 0-6.09 2.73-6.09 6.1v260.61c0 3.36 2.73 6.09 6.09 6.09h1.24c3.36 0 6.09-2.73 6.09-6.09V1916.8c0-3.37-2.73-6.1-6.09-6.1z" fill="#10627A"/><path d="M3003.7 1880.1c0 25.65-9.37 50.42-26.35 69.64a105.022 105.022 0 01-65.85 34.68c-4.23.51-8.48.77-12.74.77-20.77 0-41.07-6.16-58.34-17.71s-30.73-27.96-38.68-47.17a105.16 105.16 0 01-5.97-60.72 105.112 105.112 0 0128.74-53.81 104.883 104.883 0 0153.76-28.76c20.37-4.06 41.48-1.97 60.67 5.98s35.59 21.42 47.13 38.71c11.54 17.28 17.7 37.6 17.7 58.39h-.07z" fill="#107E93"/><path d="M3003.7 1880.1c0 25.66-9.37 50.43-26.35 69.65a105.047 105.047 0 01-65.85 34.68c-30.77-21.8-53.21-53.43-63.64-89.69s-8.22-74.99 6.27-109.82a105.054 105.054 0 0151.29-9.69 105.1 105.1 0 0149.62 16.2c14.91 9.49 27.2 22.59 35.71 38.09 8.52 15.5 13 32.9 13.01 50.58h-.06z" fill="#57C8DF"/><path d="M3352.2 844.72c-.04-.655.08-1.309.36-1.901s.71-1.103 1.25-1.482c.53-.38 1.15-.616 1.8-.687.66-.07 1.31.027 1.92.284l204.43 60.067a7.69 7.69 0 013.73 2.625 7.665 7.665 0 011.59 4.281 3.844 3.844 0 01-1.6 3.382c-.54.38-1.16.616-1.81.687a3.82 3.82 0 01-1.91-.284l-204.43-60.067a7.738 7.738 0 01-5.33-6.905z" fill="url(#k)" opacity=".5" style="mix-blend-mode:multiply"/><path d="M3358.2 633.03h-.98a4.85 4.85 0 00-4.85 4.853v207.53a4.85 4.85 0 004.85 4.852h.98a4.85 4.85 0 004.85-4.852v-207.53a4.85 4.85 0 00-4.85-4.853z" fill="#10627A"/><path d="M3440.2 608.69c0 20.43-7.46 40.155-20.99 55.458a83.588 83.588 0 01-52.43 27.619c-3.37.406-6.76.611-10.15.613-16.54 0-32.71-4.908-46.46-14.104s-24.47-22.267-30.79-37.559a83.718 83.718 0 01-4.76-48.354 83.638 83.638 0 0165.7-65.754 83.54 83.54 0 0148.31 4.763c15.28 6.334 28.34 17.06 37.53 30.823s14.09 29.943 14.09 46.495h-.05z" fill="#107E93"/><path d="M3440.2 608.69a83.704 83.704 0 01-20.98 55.457 83.578 83.578 0 01-52.43 27.619 132.295 132.295 0 01-50.68-71.419 132.436 132.436 0 014.99-87.455 83.651 83.651 0 0180.36 5.185 83.772 83.772 0 0128.44 30.33 83.913 83.913 0 0110.36 40.283h-.06z" fill="#57C8DF"/><path d="M2894.2 1137.7c-.05-.65.08-1.31.36-1.9s.71-1.1 1.24-1.48c.54-.38 1.16-.62 1.81-.69s1.31.03 1.91.28l204.43 60.07c1.48.48 2.79 1.39 3.74 2.63.95 1.23 1.5 2.72 1.59 4.28.04.65-.08 1.31-.36 1.9s-.71 1.1-1.25 1.48a3.79 3.79 0 01-3.72.4l-204.43-60.06c-1.48-.48-2.78-1.4-3.73-2.63s-1.5-2.73-1.59-4.28z" fill="url(#j)" opacity=".5" style="mix-blend-mode:multiply"/><path d="M2900.3 926.03h-.99a4.849 4.849 0 00-4.84 4.853v207.53c0 2.68 2.17 4.86 4.84 4.86h.99c2.68 0 4.85-2.18 4.85-4.86v-207.53a4.85 4.85 0 00-4.85-4.853z" fill="#10627A"/><path d="M2982.2 901.69a83.709 83.709 0 01-20.98 55.458 83.613 83.613 0 01-52.43 27.619c-3.37.406-6.76.611-10.15.613-16.54 0-32.71-4.908-46.46-14.104s-24.47-22.267-30.8-37.559-7.98-32.119-4.76-48.354a83.703 83.703 0 0122.89-42.85 83.57 83.57 0 01128.65 12.682 83.733 83.733 0 0114.1 46.495h-.06z" fill="#107E93"/><path d="M2982.2 901.69c0 20.43-7.46 40.155-20.98 55.457a83.627 83.627 0 01-52.44 27.619 132.398 132.398 0 01-50.68-71.419 132.437 132.437 0 015-87.455 83.63 83.63 0 0180.35 5.185 83.687 83.687 0 0128.44 30.33 83.688 83.688 0 0110.36 40.283h-.05z" fill="#57C8DF"/><path d="M413.2 2326.7c-.043-.65.082-1.31.363-1.9s.709-1.1 1.244-1.48a3.826 3.826 0 013.721-.41l204.43 60.07a7.676 7.676 0 013.735 2.63 7.69 7.69 0 011.593 4.28c.043.65-.082 1.31-.363 1.9a3.86 3.86 0 01-3.052 2.17c-.651.07-1.31-.03-1.913-.29l-204.43-60.06a7.733 7.733 0 01-5.328-6.91z" fill="url(#i)" opacity=".5" style="mix-blend-mode:multiply"/><path d="M419.24 2115h-.986a4.848 4.848 0 00-4.848 4.85v207.53c0 2.68 2.171 4.86 4.848 4.86h.986c2.678 0 4.848-2.18 4.848-4.86v-207.53c0-2.68-2.17-4.85-4.848-4.85z" fill="#10627A"/><path d="M501.19 2090.7a83.746 83.746 0 01-20.984 55.46 83.65 83.65 0 01-52.433 27.62c-3.368.4-6.757.61-10.15.61a83.547 83.547 0 01-46.457-14.11 83.634 83.634 0 01-30.798-37.55 83.742 83.742 0 0118.127-91.21 83.581 83.581 0 0191.128-18.14 83.614 83.614 0 0137.528 30.82 83.78 83.78 0 0114.093 46.5h-.054z" fill="#107E93"/><path d="M501.18 2090.7a83.746 83.746 0 01-20.984 55.46 83.65 83.65 0 01-52.433 27.62 132.36 132.36 0 01-50.679-71.42 132.46 132.46 0 014.993-87.46 83.557 83.557 0 0140.841-7.71 83.54 83.54 0 0139.513 12.9 83.634 83.634 0 0128.443 30.33 83.794 83.794 0 0110.36 40.28h-.054z" fill="#57C8DF"/></g><defs><linearGradient id="y" x1="2871.9" x2="-3648.2" y1="7163" y2="1370.2" gradientUnits="userSpaceOnUse"><stop stop-color="#509BBC" offset="0"/><stop stop-color="#ABC2D6" offset="1"/></linearGradient><linearGradient id="n" x1="2977.2" x2="2790.6" y1="3403.4" y2="3349.2" gradientUnits="userSpaceOnUse"><stop stop-color="#fff" offset="0"/><stop stop-color="#006DB1" offset="1"/></linearGradient><linearGradient id="h" x1="3058.2" x2="2871.6" y1="4909.4" y2="4855.3" gradientUnits="userSpaceOnUse"><stop stop-color="#fff" offset="0"/><stop stop-color="#006DB1" offset="1"/></linearGradient><linearGradient id="g" x1="1018.2" x2="831.58" y1="3539.4" y2="3485.3" gradientUnits="userSpaceOnUse"><stop stop-color="#fff" offset="0"/><stop stop-color="#006DB1" offset="1"/></linearGradient><linearGradient id="f" x1="638.19" x2="451.58" y1="488.38" y2="434.26" gradientUnits="userSpaceOnUse"><stop stop-color="#fff" offset="0"/><stop stop-color="#006DB1" offset="1"/></linearGradient><linearGradient id="e" x1="1108.3" x2="921.72" y1="1365.7" y2="1311.6" gradientUnits="userSpaceOnUse"><stop stop-color="#fff" offset="0"/><stop stop-color="#006DB1" offset="1"/></linearGradient><linearGradient id="d" x1="818.19" x2="631.58" y1="2879.4" y2="2825.3" gradientUnits="userSpaceOnUse"><stop stop-color="#fff" offset="0"/><stop stop-color="#006DB1" offset="1"/></linearGradient><linearGradient id="c" x1="3138.2" x2="2866.4" y1="3487.4" y2="3408.5" gradientUnits="userSpaceOnUse"><stop stop-color="#fff" offset="0"/><stop stop-color="#006DB1" offset="1"/></linearGradient><linearGradient id="b" x1="575.92" x2="304.16" y1="4002.4" y2="3923.5" gradientUnits="userSpaceOnUse"><stop stop-color="#fff" offset="0"/><stop stop-color="#006DB1" offset="1"/></linearGradient><linearGradient id="a" x1="861.92" x2="590.16" y1="1093.4" y2="1014.5" gradientUnits="userSpaceOnUse"><stop stop-color="#fff" offset="0"/><stop stop-color="#006DB1" offset="1"/></linearGradient><linearGradient id="x" x1="960.92" x2="689.16" y1="4410.4" y2="4331.5" gradientUnits="userSpaceOnUse"><stop stop-color="#fff" offset="0"/><stop stop-color="#006DB1" offset="1"/></linearGradient><linearGradient id="w" x1="2861.6" x2="2589.8" y1="4123.4" y2="4044.5" gradientUnits="userSpaceOnUse"><stop stop-color="#fff" offset="0"/><stop stop-color="#006DB1" offset="1"/></linearGradient><linearGradient id="v" x1="3445.9" x2="3174.2" y1="4271.4" y2="4192.5" gradientUnits="userSpaceOnUse"><stop stop-color="#fff" offset="0"/><stop stop-color="#006DB1" offset="1"/></linearGradient><linearGradient id="u" x1="657.92" x2="386.16" y1="2306.4" y2="2227.5" gradientUnits="userSpaceOnUse"><stop stop-color="#fff" offset="0"/><stop stop-color="#006DB1" offset="1"/></linearGradient><linearGradient id="t" x1="422.92" x2="151.16" y1="1234.4" y2="1155.5" gradientUnits="userSpaceOnUse"><stop stop-color="#fff" offset="0"/><stop stop-color="#006DB1" offset="1"/></linearGradient><linearGradient id="s" x1="1002.7" x2="730.94" y1="1903.4" y2="1824.5" gradientUnits="userSpaceOnUse"><stop stop-color="#fff" offset="0"/><stop stop-color="#006DB1" offset="1"/></linearGradient><linearGradient id="r" x1="692.92" x2="421.16" y1="4935.4" y2="4856.5" gradientUnits="userSpaceOnUse"><stop stop-color="#fff" offset="0"/><stop stop-color="#006DB1" offset="1"/></linearGradient><linearGradient id="q" x1="3445.9" x2="3174.2" y1="763.34" y2="684.52" gradientUnits="userSpaceOnUse"><stop stop-color="#fff" offset="0"/><stop stop-color="#006DB1" offset="1"/></linearGradient><linearGradient id="p" x1="2953" x2="2681.2" y1="499.34" y2="420.52" gradientUnits="userSpaceOnUse"><stop stop-color="#fff" offset="0"/><stop stop-color="#006DB1" offset="1"/></linearGradient><linearGradient id="o" x1="3233.9" x2="2962.2" y1="1733.4" y2="1654.5" gradientUnits="userSpaceOnUse"><stop stop-color="#fff" offset="0"/><stop stop-color="#006DB1" offset="1"/></linearGradient><linearGradient id="m" x1="3389.9" x2="3118.2" y1="2703.4" y2="2624.5" gradientUnits="userSpaceOnUse"><stop stop-color="#fff" offset="0"/><stop stop-color="#006DB1" offset="1"/></linearGradient><linearGradient id="l" x1="3042.7" x2="2770.9" y1="2220.4" y2="2141.5" gradientUnits="userSpaceOnUse"><stop stop-color="#fff" offset="0"/><stop stop-color="#006DB1" offset="1"/></linearGradient><linearGradient id="k" x1="3471.2" x2="3254.8" y1="879.64" y2="816.87" gradientUnits="userSpaceOnUse"><stop stop-color="#fff" offset="0"/><stop stop-color="#006DB1" offset="1"/></linearGradient><linearGradient id="j" x1="3013.2" x2="2796.8" y1="1172.6" y2="1109.9" gradientUnits="userSpaceOnUse"><stop stop-color="#fff" offset="0"/><stop stop-color="#006DB1" offset="1"/></linearGradient><linearGradient id="i" x1="532.22" x2="315.81" y1="2361.6" y2="2298.9" gradientUnits="userSpaceOnUse"><stop stop-color="#fff" offset="0"/><stop stop-color="#006DB1" offset="1"/></linearGradient><clipPath id="z"><path fill="#fff" d="M0 0h3840v5346H0z"/></clipPath></defs></svg>