<svg xmlns="http://www.w3.org/2000/svg" width="3840" height="8126" fill="none"><g clip-path="url(#clip0)"><path fill="url(#paint0_linear)" d="M3840 8126.4l-3840 .1V0h3840v8126.4z"/><path style="mix-blend-mode:multiply" fill="url(#paint1_linear)" d="M2874.6 3373.3a3.3 3.3 0 011.3-3c.5-.3 1-.5 1.6-.6.5 0 1.1 0 1.6.3l176.3 51.8a6.6 6.6 0 014.6 6 3.3 3.3 0 01-1.4 2.8c-.4.4-1 .6-1.5.6-.6.1-1.1 0-1.7-.2l-176.3-51.8a6.6 6.6 0 01-4.5-6z" opacity=".5"/><path fill="#107E93" d="M2962.2 3137.6a83.6 83.6 0 11-167.3 0 83.6 83.6 0 01167.3 0z"/><path fill="#10627A" d="M2880.3 3161.9h-1a4.9 4.9 0 00-4.8 4.8v207.4c0 2.7 2.1 4.9 4.8 4.9h1c2.7 0 4.8-2.2 4.8-4.9v-207.3c0-2.7-2.1-5-4.8-5z"/><path fill="#57C8DF" d="M2962.2 3137.6a83.7 83.7 0 01-73.4 83A132.3 132.3 0 012843 3062a83.6 83.6 0 01119 75.8v-.1z"/><path style="mix-blend-mode:multiply" fill="url(#paint2_linear)" d="M2955.6 4879.3c0-.6 0-1.2.3-1.7a3.3 3.3 0 014.2-1.6l176.3 51.8a6.6 6.6 0 014.6 6c0 .5 0 1-.3 1.6a3.3 3.3 0 01-4.3 1.6l-176.3-51.8a6.5 6.5 0 01-4.5-6z" opacity=".5"/><path fill="#107E93" d="M3043.2 4643.6a83.6 83.6 0 11-167.2 0 83.6 83.6 0 01167.2 0z"/><path fill="#10627A" d="M2961.3 4667.9h-1a4.9 4.9 0 00-4.8 4.9V4880c0 2.7 2.1 4.9 4.8 4.9h1c2.7 0 4.8-2.2 4.8-4.9v-207.3c0-2.7-2.1-4.9-4.8-4.9z"/><path fill="#57C8DF" d="M3043.2 4643.6a83.6 83.6 0 01-73.4 83A132.3 132.3 0 012924 4568a83.5 83.5 0 01119 75.8v-.1z"/><path style="mix-blend-mode:multiply" fill="url(#paint3_linear)" d="M915.6 3509.3c0-.6 0-1.2.3-1.7a3.3 3.3 0 014.2-1.6l176.4 51.8a6.6 6.6 0 014.5 6c0 .5 0 1-.3 1.6a3.3 3.3 0 01-4.3 1.6l-176.3-51.8a6.5 6.5 0 01-4.5-6z" opacity=".5"/><path fill="#107E93" d="M1003.2 3273.6a83.6 83.6 0 11-167.3 0 83.6 83.6 0 01167.3 0z"/><path fill="#10627A" d="M921.3 3297.9h-1a4.9 4.9 0 00-4.8 4.9V3510c0 2.7 2.1 4.9 4.8 4.9h1c2.7 0 4.8-2.2 4.8-4.9v-207.3c0-2.7-2.1-4.9-4.8-4.9z"/><path fill="#57C8DF" d="M1003.2 3273.6a83.6 83.6 0 01-73.5 83 132.3 132.3 0 01-45.6-158.7 83.5 83.5 0 01119 75.8v-.1z"/><path style="mix-blend-mode:multiply" fill="url(#paint4_linear)" d="M535.6 458.3a3.3 3.3 0 014.5-3.3l176.4 51.8a6.6 6.6 0 014.5 6 3.3 3.3 0 01-4.5 3.2L540 464.2a6.6 6.6 0 01-4.5-6z" opacity=".5"/><path fill="#107E93" d="M623.2 222.6a83.6 83.6 0 11-167.3 0 83.6 83.6 0 01167.3 0z"/><path fill="#10627A" d="M541.3 246.9h-1a4.9 4.9 0 00-4.8 4.9V459c0 2.7 2.1 4.9 4.8 4.9h1c2.7 0 4.8-2.2 4.8-4.9V251.8c0-2.7-2.1-4.9-4.8-4.9z"/><path fill="#57C8DF" d="M623.2 222.6a83.6 83.6 0 01-73.5 83A132.3 132.3 0 01504.1 147a83.6 83.6 0 01119 75.8v-.1z"/><path style="mix-blend-mode:multiply" fill="url(#paint5_linear)" d="M1005.7 1335.6a3.3 3.3 0 011.4-2.9 3.4 3.4 0 013.2-.4l176.3 51.9c1.3.4 2.4 1.2 3.2 2.2.8 1.1 1.3 2.4 1.4 3.7 0 .6-.1 1.1-.4 1.6-.2.5-.6 1-1 1.3a3.4 3.4 0 01-3.2.4l-176.3-51.8a6.6 6.6 0 01-4.6-6z" opacity=".5"/><path fill="#107E93" d="M1093.3 1100a83.6 83.6 0 11-167.3 0 83.6 83.6 0 01167.3 0z"/><path fill="#10627A" d="M1011.4 1124.3h-1a4.9 4.9 0 00-4.8 4.8v207.4c0 2.7 2.2 4.9 4.9 4.9h1c2.6 0 4.8-2.2 4.8-4.9v-207.4c0-2.7-2.2-4.8-4.9-4.8z"/><path fill="#57C8DF" d="M1093.3 1100a83.6 83.6 0 01-73.4 83 132.3 132.3 0 01-45.7-158.7 83.4 83.4 0 01119.1 75.8v-.1z"/><path style="mix-blend-mode:multiply" fill="url(#paint6_linear)" d="M715.6 2849.3c0-.6 0-1.2.3-1.7a3.3 3.3 0 014.2-1.6l176.4 51.8a6.6 6.6 0 014.5 6c0 .5 0 1-.3 1.6a3.3 3.3 0 01-2.6 1.9c-.6 0-1.1 0-1.6-.3L720 2855.2a6.5 6.5 0 01-4.5-6z" opacity=".5"/><path fill="#107E93" d="M803.2 2613.6a83.6 83.6 0 11-167.3 0 83.6 83.6 0 01167.3 0z"/><path fill="#10627A" d="M721.3 2637.9h-1a4.9 4.9 0 00-4.8 4.9V2850c0 2.7 2.1 4.9 4.8 4.9h1c2.7 0 4.8-2.2 4.8-4.9v-207.3c0-2.7-2.1-4.9-4.8-4.9z"/><path fill="#57C8DF" d="M803.2 2613.6a83.6 83.6 0 01-73.5 83 132.3 132.3 0 01-45.6-158.7 83.5 83.5 0 01119 75.8v-.1z"/><path style="mix-blend-mode:multiply" fill="url(#paint7_linear)" d="M2988.7 3443.5a5 5 0 012-4.3 4.8 4.8 0 014.7-.5l256.7 75.5a9.6 9.6 0 016.7 8.7 4.8 4.8 0 01-2 4.2 4.8 4.8 0 01-4.7.5l-256.7-75.4a9.7 9.7 0 01-6.7-8.7z" opacity=".5"/><path fill="#10627A" d="M2996.3 3177.7h-1.3c-3.3 0-6 2.7-6 6v260.7a6 6 0 006 6h1.3a6 6 0 006-6v-260.6a6 6 0 00-6-6.1z"/><path fill="#107E93" d="M3099.2 3147.1a105.1 105.1 0 01-163.3 87.4 105 105 0 11163.3-87.4z"/><path fill="#57C8DF" d="M3099.2 3147a105 105 0 01-92.2 104.4 166.2 166.2 0 01-57.4-199.5 105 105 0 01149.6 95.2z"/><path style="mix-blend-mode:multiply" fill="url(#paint8_linear)" d="M426.5 3958.5a4.8 4.8 0 016.6-4.8l256.8 75.5a9.7 9.7 0 016.7 8.7 4.8 4.8 0 01-2 4.2 4.8 4.8 0 01-4.7.5L433 3967.2a9.7 9.7 0 01-6.6-8.7z" opacity=".5"/><path fill="#10627A" d="M434 3692.7h-1.2a6 6 0 00-6 6v260.7a6 6 0 006 6h1.2a6 6 0 006.1-6v-260.6a6 6 0 00-6-6.1z"/><path fill="#107E93" d="M537 3662.1a105.2 105.2 0 01-163.3 87.4A105 105 0 11537 3662z"/><path fill="#57C8DF" d="M537 3662a105.2 105.2 0 01-92.2 104.4 166.2 166.2 0 01-57.4-199.5 105 105 0 01149.6 95.2z"/><path style="mix-blend-mode:multiply" fill="url(#paint9_linear)" d="M712.5 1049.5a4.8 4.8 0 016.6-4.8l256.8 75.5a9.7 9.7 0 016.7 8.6 4.8 4.8 0 01-2 4.3 4.8 4.8 0 01-4.7.5L719 1058.2a9.7 9.7 0 01-6.6-8.7z" opacity=".5"/><path fill="#10627A" d="M720 783.7h-1.2a6 6 0 00-6 6v260.7a6 6 0 006 6h1.2a6 6 0 006.1-6V789.8a6 6 0 00-6-6.1z"/><path fill="#107E93" d="M823 753.1a105.1 105.1 0 01-163.3 87.4A105 105 0 11823 753z"/><path fill="#57C8DF" d="M823 753a105.1 105.1 0 01-92.2 104.4A166.2 166.2 0 01673.4 658 105 105 0 01823 753.1z"/><path style="mix-blend-mode:multiply" fill="url(#paint10_linear)" d="M811.5 4366.5a4.8 4.8 0 016.6-4.8l256.8 75.5a9.6 9.6 0 016.6 8.7 4.8 4.8 0 01-2 4.2 4.9 4.9 0 01-4.6.5L818 4375.2a9.7 9.7 0 01-6.6-8.7z" opacity=".5"/><path fill="#10627A" d="M819 4100.7h-1.2a6 6 0 00-6 6v260.7a6 6 0 006 6h1.2a6 6 0 006.1-6v-260.6a6 6 0 00-6-6.1z"/><path fill="#107E93" d="M922 4070.1a105.2 105.2 0 01-163.3 87.4A105 105 0 11922 4070z"/><path fill="#57C8DF" d="M922 4070a105.2 105.2 0 01-92.2 104.4 166.2 166.2 0 01-57.4-199.5 105 105 0 01149.6 95.2z"/><path style="mix-blend-mode:multiply" fill="url(#paint11_linear)" d="M2712.2 4079.5a4.8 4.8 0 012-4.2 4.8 4.8 0 014.6-.5l256.8 75.4a9.6 9.6 0 016.6 8.7 4.8 4.8 0 01-6.6 4.7l-256.8-75.4a9.7 9.7 0 01-6.7-8.7z" opacity=".5"/><path fill="#10627A" d="M2719.7 3813.7h-1.2a6 6 0 00-6 6v260.7a6 6 0 006 6h1.2a6 6 0 006.1-6v-260.6a6 6 0 00-6-6.1z"/><path fill="#107E93" d="M2822.6 3783.1a105.1 105.1 0 01-163.2 87.4 105 105 0 11163.3-87.4z"/><path fill="#57C8DF" d="M2822.6 3783.1a105.2 105.2 0 01-92.2 104.3 166.2 166.2 0 01-57.3-199.5 105 105 0 01149.6 95.2z"/><path style="mix-blend-mode:multiply" fill="url(#paint12_linear)" d="M3296.5 4227.5a4.8 4.8 0 016.7-4.8l256.7 75.5a9.6 9.6 0 016.7 8.7 4.8 4.8 0 01-2 4.2 4.9 4.9 0 01-4.7.5l-256.8-75.4a9.7 9.7 0 01-6.6-8.7z" opacity=".5"/><path fill="#10627A" d="M3304 3961.7h-1.2c-3.4 0-6 2.7-6 6v260.7a6 6 0 006 6h1.3a6 6 0 006-6v-260.6c0-3.4-2.7-6.1-6-6.1z"/><path fill="#107E93" d="M3407 3931.1a105.2 105.2 0 01-105 105 105 105 0 01-74.2-179.3A104.9 104.9 0 013407 3931z"/><path fill="#57C8DF" d="M3407 3931a105.2 105.2 0 01-92.3 104.4 166.2 166.2 0 01-57.3-199.5 105 105 0 01149.6 95.2z"/><path style="mix-blend-mode:multiply" fill="url(#paint13_linear)" d="M508.5 2262.5a4.8 4.8 0 016.6-4.8l256.8 75.5a9.7 9.7 0 016.7 8.7 4.8 4.8 0 01-2 4.2 4.8 4.8 0 01-4.7.5L515 2271.2a9.7 9.7 0 01-6.6-8.7z" opacity=".5"/><path fill="#10627A" d="M516 1996.7h-1.2a6 6 0 00-6 6v260.7a6 6 0 006 6h1.2a6 6 0 006.1-6v-260.6a6 6 0 00-6-6.1z"/><path fill="#107E93" d="M619 1966.1a105.2 105.2 0 01-163.3 87.4A105 105 0 11619 1966z"/><path fill="#57C8DF" d="M619 1966a105.2 105.2 0 01-92.2 104.4 166.2 166.2 0 01-57.4-199.5 105 105 0 01149.6 95.2z"/><path style="mix-blend-mode:multiply" fill="url(#paint14_linear)" d="M273.5 1190.5a4.8 4.8 0 016.6-4.8l256.8 75.5a9.7 9.7 0 016.7 8.6 4.8 4.8 0 01-2 4.3 4.8 4.8 0 01-4.7.5L280 1199.2a9.7 9.7 0 01-6.6-8.7z" opacity=".5"/><path fill="#10627A" d="M281 924.7h-1.2a6 6 0 00-6 6v260.7a6 6 0 006 6h1.2a6 6 0 006.1-6V930.8a6 6 0 00-6-6.1z"/><path fill="#107E93" d="M384 894.1a105.1 105.1 0 01-163.3 87.4A105 105 0 11384 894z"/><path fill="#57C8DF" d="M384 894a105.1 105.1 0 01-92.2 104.4A166.2 166.2 0 01234.4 799 105 105 0 01384 894.1z"/><path style="mix-blend-mode:multiply" fill="url(#paint15_linear)" d="M853.2 1859.5a4.8 4.8 0 016.7-4.8l256.8 75.5a9.6 9.6 0 016.6 8.6 4.8 4.8 0 01-2 4.3 4.8 4.8 0 01-4.6.5l-256.8-75.4a9.7 9.7 0 01-6.7-8.7z" opacity=".5"/><path fill="#10627A" d="M860.8 1593.7h-1.2a6 6 0 00-6 6v260.7a6 6 0 006 6h1.2a6 6 0 006.1-6v-260.6a6 6 0 00-6-6.1z"/><path fill="#107E93" d="M963.7 1563.1a105.2 105.2 0 01-163.2 87.4 105 105 0 11163.3-87.4z"/><path fill="#57C8DF" d="M963.7 1563a105.2 105.2 0 01-92.2 104.4 166.2 166.2 0 01-57.3-199.5 105 105 0 01149.6 95.2z"/><path style="mix-blend-mode:multiply" fill="url(#paint16_linear)" d="M543.5 4891.5a4.8 4.8 0 016.6-4.8l256.8 75.5a9.7 9.7 0 016.7 8.7 4.8 4.8 0 01-2 4.2 4.8 4.8 0 01-4.7.5L550 4900.2a9.7 9.7 0 01-6.6-8.7z" opacity=".5"/><path fill="#10627A" d="M551 4625.7h-1.2a6 6 0 00-6 6v260.7a6 6 0 006 6h1.2a6 6 0 006.1-6v-260.6a6 6 0 00-6-6.1z"/><path fill="#107E93" d="M654 4595.1a105.2 105.2 0 01-163.3 87.4A105 105 0 11654 4595z"/><path fill="#57C8DF" d="M654 4595a105.2 105.2 0 01-92.2 104.4 166.2 166.2 0 01-57.4-199.5 105 105 0 01149.6 95.2z"/><path style="mix-blend-mode:multiply" fill="url(#paint17_linear)" d="M3296.5 719.5a4.8 4.8 0 014.2-5.1c.9-.1 1.7 0 2.5.3l256.7 75.5a9.6 9.6 0 016.7 8.6 4.8 4.8 0 01-4.3 5.2c-.9 0-1.7 0-2.4-.4L3303 728.2a9.7 9.7 0 01-6.6-8.7z" opacity=".5"/><path fill="#10627A" d="M3304 453.7h-1.2a6 6 0 00-6 6v260.7a6 6 0 006 6h1.3a6 6 0 006-6V459.8a6 6 0 00-6-6.1z"/><path fill="#107E93" d="M3407 423.1a105.2 105.2 0 01-163.3 87.4A105 105 0 113407 423z"/><path fill="#57C8DF" d="M3407 423a105.2 105.2 0 01-92.3 104.4 166.2 166.2 0 01-57.3-199.5 105 105 0 01149.6 95.2z"/><path style="mix-blend-mode:multiply" fill="url(#paint18_linear)" d="M2803.5 455.5a4.8 4.8 0 014.3-5.1c.8-.1 1.7 0 2.4.3l256.7 75.5a9.6 9.6 0 016.7 8.6 4.8 4.8 0 01-4.3 5.2c-.8 0-1.6 0-2.4-.4l-256.7-75.4a9.7 9.7 0 01-6.7-8.7z" opacity=".5"/><path fill="#10627A" d="M2811.1 189.7h-1.2a6 6 0 00-6.1 6v260.7a6 6 0 006 6h1.3a6 6 0 006.1-6V195.8a6 6 0 00-6-6.1z"/><path fill="#107E93" d="M2914 159a105.2 105.2 0 01-163.3 87.5 105 105 0 11163.4-87.4z"/><path fill="#57C8DF" d="M2914 159a105.2 105.2 0 01-92.2 104.4A166.2 166.2 0 012764.5 64a105 105 0 01149.6 95.2z"/><path style="mix-blend-mode:multiply" fill="url(#paint19_linear)" d="M3084.5 1689.5a4.8 4.8 0 016.7-4.8l256.7 75.5a9.6 9.6 0 016.7 8.6 4.8 4.8 0 01-2 4.3 4.9 4.9 0 01-4.7.5l-256.8-75.4a9.7 9.7 0 01-6.6-8.7z" opacity=".5"/><path fill="#10627A" d="M3092 1423.7h-1.2c-3.4 0-6 2.7-6 6v260.7a6 6 0 006 6h1.3a6 6 0 006-6v-260.6c0-3.4-2.7-6.1-6-6.1z"/><path fill="#107E93" d="M3195 1393.1a105.2 105.2 0 01-105 105 105 105 0 01-74.2-179.3A104.9 104.9 0 013195 1393z"/><path fill="#57C8DF" d="M3195 1393a105.2 105.2 0 01-92.3 104.4 166.2 166.2 0 01-57.3-199.5 105 105 0 01149.6 95.2z"/><path style="mix-blend-mode:multiply" fill="url(#paint20_linear)" d="M3240.5 2659.5a4.8 4.8 0 016.7-4.8l256.7 75.5a9.6 9.6 0 016.7 8.7 4.8 4.8 0 01-2 4.2 4.9 4.9 0 01-4.7.5l-256.8-75.4a9.7 9.7 0 01-6.6-8.7z" opacity=".5"/><path fill="#10627A" d="M3248 2393.7h-1.2c-3.4 0-6 2.7-6 6v260.7a6 6 0 006 6h1.3a6 6 0 006-6v-260.6c0-3.4-2.7-6.1-6-6.1z"/><path fill="#107E93" d="M3351 2363.1a105.2 105.2 0 01-105 105 105 105 0 01-74.2-179.3A104.9 104.9 0 013351 2363z"/><path fill="#57C8DF" d="M3351 2363a105.2 105.2 0 01-92.3 104.4 166.2 166.2 0 01-57.3-199.5 105 105 0 01149.6 95.2z"/><path style="mix-blend-mode:multiply" fill="url(#paint21_linear)" d="M2893.2 2176.5a5 5 0 012-4.3 4.8 4.8 0 014.7-.5l256.8 75.5a9.6 9.6 0 016.6 8.7 4.8 4.8 0 01-2 4.2 4.8 4.8 0 01-4.7.5l-256.7-75.4a9.7 9.7 0 01-6.7-8.7z" opacity=".5"/><path fill="#10627A" d="M2900.8 1910.7h-1.2c-3.4 0-6 2.7-6 6v260.7a6 6 0 006 6h1.2a6 6 0 006.1-6v-260.6c0-3.4-2.7-6.1-6-6.1z"/><path fill="#107E93" d="M3003.7 1880.1a105.2 105.2 0 01-104.9 105 105 105 0 01-74.3-179.3 104.9 104.9 0 01179.3 74.3z"/><path fill="#57C8DF" d="M3003.7 1880a105.2 105.2 0 01-92.2 104.4 166.2 166.2 0 01-57.3-199.5 105 105 0 01149.6 95.2z"/><path style="mix-blend-mode:multiply" fill="url(#paint22_linear)" d="M3352.2 844.7a3.9 3.9 0 011.6-3.4 3.8 3.8 0 013.7-.4L3562 901a7.7 7.7 0 015.3 7 3.8 3.8 0 01-1.6 3.3 3.9 3.9 0 01-3.7.4l-204.5-60a7.7 7.7 0 01-5.3-7z" opacity=".5"/><path fill="#10627A" d="M3358.2 633h-1a4.9 4.9 0 00-4.8 4.9v207.5c0 2.7 2.2 4.9 4.9 4.9h1c2.6 0 4.8-2.2 4.8-4.9V638c0-2.7-2.2-4.9-4.9-4.9z"/><path fill="#107E93" d="M3440.2 608.7a83.7 83.7 0 11-167.5 0 83.7 83.7 0 01167.5 0z"/><path fill="#57C8DF" d="M3440.2 608.7a83.7 83.7 0 01-73.4 83A132.3 132.3 0 013321 533a83.7 83.7 0 01119.1 75.8z"/><path style="mix-blend-mode:multiply" fill="url(#paint23_linear)" d="M2894.2 1137.7a3.8 3.8 0 011.6-3.4 3.9 3.9 0 013.7-.4L3104 1194a7.7 7.7 0 015.3 7c0 .6 0 1.2-.4 1.8a3.8 3.8 0 01-3 2.2c-.7 0-1.3 0-2-.3l-204.4-60a7.7 7.7 0 01-5.3-7z" opacity=".5"/><path fill="#10627A" d="M2900.3 926h-1a4.8 4.8 0 00-4.9 4.9v207.5c0 2.7 2.2 4.9 4.9 4.9h1c2.6 0 4.8-2.2 4.8-4.9V931c0-2.7-2.2-4.9-4.8-4.9z"/><path fill="#107E93" d="M2982.2 901.7a83.7 83.7 0 11-167.5 0 83.7 83.7 0 01167.6 0h-.1z"/><path fill="#57C8DF" d="M2982.2 901.7a83.8 83.8 0 01-73.4 83A132.4 132.4 0 012863 826a83.6 83.6 0 01119.2 75.8h-.1z"/><path style="mix-blend-mode:multiply" fill="url(#paint24_linear)" d="M413.2 2326.7a3.8 3.8 0 015.3-3.8L623 2383a7.7 7.7 0 015.3 7 3.8 3.8 0 01-5.3 3.7l-204.5-60a7.7 7.7 0 01-5.3-7z" opacity=".5"/><path fill="#10627A" d="M419.2 2115h-1a4.8 4.8 0 00-4.8 4.9v207.5c0 2.7 2.2 4.9 4.9 4.9h1c2.6 0 4.8-2.2 4.8-4.9V2120c0-2.7-2.2-4.9-4.9-4.9z"/><path fill="#107E93" d="M501.2 2090.7a83.7 83.7 0 01-130 69.6 83.6 83.6 0 11130-69.6z"/><path fill="#57C8DF" d="M501.2 2090.7a83.7 83.7 0 01-73.4 83A132.4 132.4 0 01382 2015a83.6 83.6 0 01119.1 75.8z"/></g><defs><linearGradient id="paint0_linear" x1="2871.9" x2="-3508.9" y1="6992.1" y2="1184.5" gradientUnits="userSpaceOnUse"><stop stop-color="#509BBC"/><stop offset="1" stop-color="#ABC2D6"/></linearGradient><linearGradient id="paint1_linear" x1="2977.2" x2="2790.6" y1="3403.4" y2="3349.2" gradientUnits="userSpaceOnUse"><stop stop-color="#fff"/><stop offset="1" stop-color="#006DB1"/></linearGradient><linearGradient id="paint2_linear" x1="3058.2" x2="2871.6" y1="4909.4" y2="4855.3" gradientUnits="userSpaceOnUse"><stop stop-color="#fff"/><stop offset="1" stop-color="#006DB1"/></linearGradient><linearGradient id="paint3_linear" x1="1018.2" x2="831.6" y1="3539.4" y2="3485.3" gradientUnits="userSpaceOnUse"><stop stop-color="#fff"/><stop offset="1" stop-color="#006DB1"/></linearGradient><linearGradient id="paint4_linear" x1="638.2" x2="451.6" y1="488.4" y2="434.3" gradientUnits="userSpaceOnUse"><stop stop-color="#fff"/><stop offset="1" stop-color="#006DB1"/></linearGradient><linearGradient id="paint5_linear" x1="1108.3" x2="921.7" y1="1365.7" y2="1311.6" gradientUnits="userSpaceOnUse"><stop stop-color="#fff"/><stop offset="1" stop-color="#006DB1"/></linearGradient><linearGradient id="paint6_linear" x1="818.2" x2="631.6" y1="2879.4" y2="2825.3" gradientUnits="userSpaceOnUse"><stop stop-color="#fff"/><stop offset="1" stop-color="#006DB1"/></linearGradient><linearGradient id="paint7_linear" x1="3138.2" x2="2866.4" y1="3487.3" y2="3408.5" gradientUnits="userSpaceOnUse"><stop stop-color="#fff"/><stop offset="1" stop-color="#006DB1"/></linearGradient><linearGradient id="paint8_linear" x1="575.9" x2="304.2" y1="4002.3" y2="3923.5" gradientUnits="userSpaceOnUse"><stop stop-color="#fff"/><stop offset="1" stop-color="#006DB1"/></linearGradient><linearGradient id="paint9_linear" x1="861.9" x2="590.2" y1="1093.3" y2="1014.5" gradientUnits="userSpaceOnUse"><stop stop-color="#fff"/><stop offset="1" stop-color="#006DB1"/></linearGradient><linearGradient id="paint10_linear" x1="960.9" x2="689.2" y1="4410.4" y2="4331.5" gradientUnits="userSpaceOnUse"><stop stop-color="#fff"/><stop offset="1" stop-color="#006DB1"/></linearGradient><linearGradient id="paint11_linear" x1="2861.6" x2="2589.8" y1="4123.4" y2="4044.5" gradientUnits="userSpaceOnUse"><stop stop-color="#fff"/><stop offset="1" stop-color="#006DB1"/></linearGradient><linearGradient id="paint12_linear" x1="3445.9" x2="3174.2" y1="4271.4" y2="4192.5" gradientUnits="userSpaceOnUse"><stop stop-color="#fff"/><stop offset="1" stop-color="#006DB1"/></linearGradient><linearGradient id="paint13_linear" x1="657.9" x2="386.2" y1="2306.3" y2="2227.5" gradientUnits="userSpaceOnUse"><stop stop-color="#fff"/><stop offset="1" stop-color="#006DB1"/></linearGradient><linearGradient id="paint14_linear" x1="422.9" x2="151.2" y1="1234.3" y2="1155.5" gradientUnits="userSpaceOnUse"><stop stop-color="#fff"/><stop offset="1" stop-color="#006DB1"/></linearGradient><linearGradient id="paint15_linear" x1="1002.7" x2="730.9" y1="1903.3" y2="1824.5" gradientUnits="userSpaceOnUse"><stop stop-color="#fff"/><stop offset="1" stop-color="#006DB1"/></linearGradient><linearGradient id="paint16_linear" x1="692.9" x2="421.2" y1="4935.4" y2="4856.5" gradientUnits="userSpaceOnUse"><stop stop-color="#fff"/><stop offset="1" stop-color="#006DB1"/></linearGradient><linearGradient id="paint17_linear" x1="3445.9" x2="3174.2" y1="763.3" y2="684.5" gradientUnits="userSpaceOnUse"><stop stop-color="#fff"/><stop offset="1" stop-color="#006DB1"/></linearGradient><linearGradient id="paint18_linear" x1="2953" x2="2681.2" y1="499.3" y2="420.5" gradientUnits="userSpaceOnUse"><stop stop-color="#fff"/><stop offset="1" stop-color="#006DB1"/></linearGradient><linearGradient id="paint19_linear" x1="3233.9" x2="2962.2" y1="1733.3" y2="1654.5" gradientUnits="userSpaceOnUse"><stop stop-color="#fff"/><stop offset="1" stop-color="#006DB1"/></linearGradient><linearGradient id="paint20_linear" x1="3389.9" x2="3118.2" y1="2703.3" y2="2624.5" gradientUnits="userSpaceOnUse"><stop stop-color="#fff"/><stop offset="1" stop-color="#006DB1"/></linearGradient><linearGradient id="paint21_linear" x1="3042.7" x2="2770.9" y1="2220.3" y2="2141.5" gradientUnits="userSpaceOnUse"><stop stop-color="#fff"/><stop offset="1" stop-color="#006DB1"/></linearGradient><linearGradient id="paint22_linear" x1="3471.2" x2="3254.8" y1="879.6" y2="816.9" gradientUnits="userSpaceOnUse"><stop stop-color="#fff"/><stop offset="1" stop-color="#006DB1"/></linearGradient><linearGradient id="paint23_linear" x1="3013.2" x2="2796.8" y1="1172.6" y2="1109.9" gradientUnits="userSpaceOnUse"><stop stop-color="#fff"/><stop offset="1" stop-color="#006DB1"/></linearGradient><linearGradient id="paint24_linear" x1="532.2" x2="315.8" y1="2361.6" y2="2298.9" gradientUnits="userSpaceOnUse"><stop stop-color="#fff"/><stop offset="1" stop-color="#006DB1"/></linearGradient><clipPath id="clip0"><path fill="#fff" d="M0 0h3840v8126H0z"/></clipPath></defs></svg>