<svg fill="none" viewBox="0 0 3840 1497" xmlns="http://www.w3.org/2000/svg"><g clip-path="url(#i)"><path d="M0 529.61v526.06h2027V723.51c-46.5 1.014-453.79-86.451-934.65-128.05C740.51 565.01 194.88 481.69-.05 529.607z" fill="#4DBDD5"/><path d="M730.21 468.7h-6.489v132.4h6.489V468.7z" fill="#4DBDD5"/><path d="M777.19 453.86a51.027 51.027 0 01-12.796 33.8 50.951 50.951 0 01-31.963 16.827 44.85 44.85 0 01-6.205.379c-11.587-.003-22.828-3.957-31.868-11.212s-15.34-17.376-17.861-28.695a51.038 51.038 0 013.992-33.572 50.981 50.981 0 0124.092-23.697 50.257 50.257 0 0121.645-4.741c13.5 0 26.449 5.361 36.004 14.906s14.935 22.494 14.96 36.005z" fill="#4DBDD5"/><path d="M777.19 453.86a51.027 51.027 0 01-12.796 33.8 50.948 50.948 0 01-31.963 16.827 80.581 80.581 0 01-30.898-43.507 80.645 80.645 0 013.048-53.29 50.261 50.261 0 0121.646-4.741c13.5 0 26.448 5.361 36.003 14.906s14.935 22.494 14.96 36.005zM852.64 498.66h-5.412v110.41h5.412V498.66z" fill="#4DBDD5"/><path d="M891.82 486.29a42.55 42.55 0 01-10.671 28.187 42.485 42.485 0 01-26.655 14.032 37.292 37.292 0 01-5.174.316c-9.663-.002-19.037-3.3-26.576-9.35s-12.793-14.491-14.896-23.93a42.568 42.568 0 013.33-27.996 42.515 42.515 0 0120.091-19.763 41.929 41.929 0 0118.051-3.953 42.485 42.485 0 0130.024 12.43 42.547 42.547 0 0112.476 30.027z" fill="#4DBDD5"/><path d="M891.82 486.29c0 10.384-3.795 20.41-10.671 28.187s-16.357 12.768-26.655 14.032a67.206 67.206 0 01-25.768-36.282 67.254 67.254 0 012.543-44.441 41.926 41.926 0 0118.051-3.953 42.485 42.485 0 0130.024 12.43 42.555 42.555 0 0112.476 30.027zM991.47 479.8h-8.27v168.74h8.27V479.8z" fill="#4DBDD5"/><path d="M1051.3 460.89c0 15.87-5.8 31.192-16.3 43.078a64.949 64.949 0 01-40.741 21.445 57.289 57.289 0 01-7.908.483 64.912 64.912 0 01-40.615-14.29 65.018 65.018 0 01-22.765-36.572 65.062 65.062 0 015.088-42.786 64.979 64.979 0 0130.705-30.202 64.072 64.072 0 0127.587-6.042 64.93 64.93 0 0145.889 18.997 65.052 65.052 0 0119.06 45.889z" fill="#4DBDD5"/><path d="M1051.4 460.89a65.03 65.03 0 01-16.31 43.078 64.9 64.9 0 01-40.733 21.445 102.709 102.709 0 01-39.38-55.449 102.787 102.787 0 013.885-67.918 64.072 64.072 0 0127.587-6.042 64.909 64.909 0 0145.881 18.997 65.019 65.019 0 0119.07 45.889z" fill="#4DBDD5"/><path d="M1969.5 467.75c-342.19 229.94-452.29 210.24-703.75 218.83l-6.52.222c-221.1 7.537-940.26 32.053-1259.2 144.15v666.05h3840v-699.1c-356.15-72.753-815.27-170.16-1080.6-249.27-88.43-26.367-155.31-50.701-189.67-71.41v-.001c-170-102.47-313.5-135.96-503.73-60.589-33.14 13.131-65.45 30.23-96.57 51.116z" fill="url(#g)"/><path d="M2136.8 557.32c-.04-.619.08-1.238.34-1.798.27-.56.67-1.043 1.18-1.405a3.647 3.647 0 013.51-.418l194.59 57.201a7.306 7.306 0 013.54 2.493 7.305 7.305 0 011.5 4.061 3.6 3.6 0 01-.35 1.797 3.653 3.653 0 01-2.88 2.069 3.65 3.65 0 01-1.81-.245l-194.59-57.201a7.28 7.28 0 01-3.53-2.493 7.233 7.233 0 01-1.5-4.061z" fill="url(#f)" opacity=".5" style="mix-blend-mode:multiply"/><path d="M2233.5 297.26a92.337 92.337 0 01-23.13 61.212 92.186 92.186 0 01-57.88 30.456 89.84 89.84 0 01-11.18.688 92.158 92.158 0 01-51.25-15.538 92.219 92.219 0 01-33.99-41.425 92.332 92.332 0 01-5.26-53.344 92.28 92.28 0 0125.24-47.275 92.177 92.177 0 01100.54-20.002 92.27 92.27 0 0141.39 34.019 92.359 92.359 0 0115.52 51.301v-.092z" fill="#107E93"/><path d="M2143.1 324.08h-1.06a5.362 5.362 0 00-5.36 5.363v228.85a5.36 5.36 0 005.36 5.362h1.06c2.96 0 5.35-2.4 5.35-5.362v-228.85a5.353 5.353 0 00-5.35-5.363z" fill="#10627A"/><path d="M2233.5 297.26a92.295 92.295 0 01-23.14 61.211 92.136 92.136 0 01-57.88 30.456 146.068 146.068 0 01-55.85-78.755 146.162 146.162 0 015.48-96.421 92.207 92.207 0 0145.04-8.514c15.49.998 30.48 5.891 43.58 14.226s23.88 19.842 31.36 33.457a92.387 92.387 0 0111.41 44.431v-.091z" fill="#57C8DF"/><g clip-path="url(#h)"><path d="M2137.1 487.63l7.89 38.683c.53 2.368-.26 4.473-1.57 6.315l-25.78 27.367-4.99-18.42 8.41-21.841-4.73-24.21 20.77-7.894zM2008 486.84l-7.89 38.683c-.52 2.368.27 4.473 1.58 6.315l32.09 33.946-1.32-25.525-8.41-21.841 4.73-24.21-20.78-7.368z" fill="#F7B690"/><path d="M2129 462.37c-3.42-5-13.41-11.316-18.93-13.684-6.32-2.632-33.93.526-36.82.526-2.63 0-30.25-3.158-36.56-.526-5.52 2.368-15.78 8.684-19.2 13.684-4.21 6.052-11.57 26.577-11.57 26.577l26.04 11.579v53.682h82.05v-53.682l26.04-11.579c.52 0-6.84-20.525-11.05-26.577z" fill="#252627"/><path d="M2074.3 457.63c-7.1 0-11.05-3.421-11.05-6.053a4.72 4.72 0 014.74-4.736h12.89c2.63 0 4.73 2.105 4.73 4.736-.26 2.632-5.26 6.053-11.31 6.053z" fill="#EDA988"/><path d="M2098.2 419.74l1.05-14.21a9.358 9.358 0 00-3.94-8.421c-5.52-3.684-14.47-9.21-18.94-9.473-11.31-1.053-14.46 3.421-20.77 6.315-3.69 1.579-5.79 5-6.05 8.947l-.53 16.842v7.368l23.67 9.999 22.09-7.368 3.42-9.999z" fill="#956439"/><path d="M2093.7 433.68v5.789c0 2.105-1.05 4.21-2.63 5.263-4.21 3.158-12.62 8.947-16.83 9.21-3.95 0-12.36-5-17.1-7.894-2.1-1.316-3.41-3.421-3.68-6.053l-.79-6.315-3.15-2.106c-.79-.526-1.32-1.315-1.32-2.105l-.79-8.684 1.84-2.631 2.63 9.473h2.11l.26-14.21c0-.263.53-.526.79-.263 1.58 1.316 6.05 4.21 10.52 4.21 13.68 0 22.35-3.947 25.25-5.263.52-.263 1.05 0 1.05.79l.26 16.578 2.63-1.052 1.84-9.474 1.58 1.316v7.368c0 .79-.26 1.316-.79 1.842l-3.68 4.211z" fill="#F7B690"/><path d="M2116.1 571.57h-87.05c-2.1 0-3.94-1.842-3.94-3.947v-54.734c0-2.106 1.84-3.948 3.94-3.948h87.05c2.11 0 3.95 1.842 3.95 3.948v54.997c0 2.106-1.84 3.684-3.95 3.684z" fill="#D1D3D4"/><path d="M2128.4 585.52l1.84 15.525-12.36-.789-1.84-14.21s11.31-.263 12.36-.526z" fill="#F7B690"/><path d="M2127.1 584.2l1.32 17.104s11.57-2.105 15.25-2.368c5.26-.263 20.51 2.105 21.57.263 1.05-2.105-1.85-24.21-3.16-25.262-1.32-1.053-14.99 6.052-19.99 7.368-3.15 1.053-14.99 2.895-14.99 2.895z" fill="#003448"/><path d="M1987.7 543.68s-16.04-7.631-18.93 16.052c-2.37 19.736 14.73 24.209 14.73 24.209l133.86 21.842 2.11-24.736-131.77-37.367z" fill="#4B6977"/><path d="M2143.4 594.73c-.26 0-.53-.263-.53-.527l-1.05-7.894c0-.263.26-.789.53-.789.26 0 .79.263.79.526l1.05 7.894c0 .527-.26.79-.79.79zM2138.4 595.52c-.26 0-.52-.263-.52-.527l-1.05-7.894c0-.263.26-.789.52-.789s.79.263.79.526l1.05 7.894c-.26.263-.52.79-.79.79z" fill="#F1F2F2"/><path d="M2014.3 582.36l-2.1 15.789 12.36-.789 1.84-14.21c0-.263-11.05-.527-12.1-.79z" fill="#F7B690"/><path d="M2015.4 581.05l-1.58 17.368s-11.57-2.106-15.25-2.369c-5.26-.526-20.78 2.105-21.57 0-1.05-2.105 2.11-24.472 3.42-25.525 1.32-1.053 14.73 6.052 19.73 7.631 3.68 1.053 15.25 2.895 15.25 2.895z" fill="#003448"/><path d="M2155.5 541.05s16.3-7.631 18.67 16.315c2.11 19.736-14.99 24.21-14.99 24.21l-134.13 21.051-1.84-24.999 132.29-36.577z" fill="#54768B"/><path d="M1999 591.31c-.52 0-.79-.263-.52-.79l1.05-7.894c0-.263.26-.526.79-.526.26 0 .52.263.52.789l-1.05 7.895c-.26.526-.52.526-.79.526zM2004 592.1c-.52 0-.79-.263-.52-.79l1.05-7.894c0-.263.26-.526.79-.526.26 0 .52.263.52.789l-1.05 7.895c-.26.526-.52.526-.79.526z" fill="#F1F2F2"/><path d="M2079 538.15c0 2.368-3.41 4.21-7.89 4.21-4.47 0-7.89-1.842-7.89-4.21 0-2.369 3.42-4.211 7.89-4.211 4.48 0 7.89 1.842 7.89 4.211z" fill="#BCBEC0"/></g><path d="M2841.1 727.25a3.29 3.29 0 011.38-2.902 3.303 3.303 0 013.18-.379l176.33 51.833a6.645 6.645 0 013.21 2.259 6.647 6.647 0 011.36 3.68c.03.561-.08 1.122-.32 1.629-.24.508-.6.946-1.06 1.274-.46.327-.99.534-1.54.6-.56.067-1.13-.01-1.65-.222l-176.33-51.833a6.566 6.566 0 01-3.2-2.259 6.573 6.573 0 01-1.36-3.68z" fill="url(#e)" opacity=".5" style="mix-blend-mode:multiply"/><path d="M2928.7 491.59a83.672 83.672 0 01-20.97 55.467 83.495 83.495 0 01-52.45 27.599 81.39 81.39 0 01-10.12.623c-16.54.008-32.7-4.892-46.45-14.08s-24.47-22.252-30.8-37.538a83.754 83.754 0 01-4.77-48.339c3.23-16.23 11.19-31.138 22.88-42.839a83.524 83.524 0 0191.1-18.124c15.27 6.336 28.33 17.064 37.51 30.826s14.07 29.94 14.07 46.488v-.083z" fill="#107E93"/><path d="M2846.8 515.89h-.96a4.853 4.853 0 00-4.85 4.859v207.38a4.853 4.853 0 004.85 4.859h.96c2.68 0 4.85-2.175 4.85-4.859v-207.38a4.853 4.853 0 00-4.85-4.859z" fill="#10627A"/><path d="M2928.7 491.59a83.662 83.662 0 01-20.96 55.467 83.545 83.545 0 01-52.45 27.599 132.294 132.294 0 01-50.61-71.366 132.384 132.384 0 014.96-87.374 83.57 83.57 0 0140.81-7.715 83.627 83.627 0 0167.91 43.209 83.712 83.712 0 0110.34 40.263v-.083z" fill="#57C8DF"/><path d="M877.56 1256.3a3.28 3.28 0 01.315-1.62c.24-.51.606-.95 1.062-1.28s.988-.53 1.545-.6a3.41 3.41 0 011.643.22l176.32 51.84c1.28.41 2.39 1.2 3.21 2.26s1.29 2.34 1.36 3.68c.03.56-.07 1.12-.32 1.62a3.292 3.292 0 01-2.6 1.88c-.56.07-1.13-.01-1.65-.22l-176.32-51.84a6.535 6.535 0 01-3.206-2.26 6.595 6.595 0 01-1.359-3.68z" fill="url(#d)" opacity=".5" style="mix-blend-mode:multiply"/><path d="M965.16 1020.6a83.622 83.622 0 01-20.964 55.46 83.462 83.462 0 01-52.447 27.6c-3.359.42-6.741.63-10.126.63a83.659 83.659 0 01-46.449-14.08 83.68 83.68 0 01-35.567-85.88c3.224-16.231 11.185-31.139 22.876-42.84s26.587-19.668 42.803-22.895a83.52 83.52 0 0148.299 4.77 83.6 83.6 0 0137.507 30.826 83.695 83.695 0 0114.068 46.489v-.08z" fill="#107E93"/><path d="M883.28 1044.9h-.955a4.86 4.86 0 00-4.855 4.86v207.38a4.86 4.86 0 004.855 4.86h.955a4.86 4.86 0 004.855-4.86v-207.38a4.86 4.86 0 00-4.855-4.86z" fill="#10627A"/><path d="M965.16 1020.6a83.63 83.63 0 01-20.965 55.47 83.504 83.504 0 01-52.447 27.6 132.296 132.296 0 01-50.612-71.37 132.41 132.41 0 014.964-87.369 83.56 83.56 0 0180.303 5.177 83.65 83.65 0 0128.419 30.317 83.746 83.746 0 0110.338 40.265v-.09z" fill="#57C8DF"/><path d="M2955.2 797.5c-.05-.822.1-1.644.46-2.387.35-.744.89-1.385 1.56-1.861a4.804 4.804 0 014.67-.507l256.72 75.432a9.688 9.688 0 014.69 3.297 9.718 9.718 0 012 5.374c.05.822-.1 1.644-.46 2.387a4.787 4.787 0 01-1.56 1.861c-.67.477-1.45.774-2.27.862a4.785 4.785 0 01-2.4-.355l-256.72-75.432a9.662 9.662 0 01-4.68-3.301 9.645 9.645 0 01-2.01-5.37z" fill="url(#c)" opacity=".5" style="mix-blend-mode:multiply"/><path d="M2962.8 531.66h-1.23a6.088 6.088 0 00-6.09 6.094v260.61a6.088 6.088 0 006.09 6.094h1.23c3.37 0 6.09-2.728 6.09-6.094v-260.61a6.088 6.088 0 00-6.09-6.094z" fill="#10627A"/><path d="M3065.7 501.1a105.075 105.075 0 01-26.35 69.642 104.968 104.968 0 01-65.84 34.683c-4.23.51-8.49.768-12.75.77-20.77 0-41.07-6.163-58.34-17.711s-30.72-27.962-38.67-47.166a105.172 105.172 0 01-5.98-60.721 105.15 105.15 0 0128.74-53.81 105.015 105.015 0 0153.77-28.763 104.956 104.956 0 01107.79 44.688 105.149 105.149 0 0117.7 58.388h-.07z" fill="#107E93"/><path d="M3065.7 501.09c.01 25.655-9.37 50.425-26.35 69.642s-40.4 31.553-65.84 34.683a166.23 166.23 0 01-63.65-89.687 166.389 166.389 0 016.27-109.82 105.04 105.04 0 01100.91 6.51 105.152 105.152 0 0135.72 38.088 105.255 105.255 0 0113.01 50.587h-.07z" fill="#57C8DF"/><path d="M426.46 1226.5c-.054-.82.103-1.65.456-2.39s.891-1.38 1.562-1.86 1.452-.77 2.27-.86 1.645.03 2.402.35l256.72 75.43a9.686 9.686 0 016.691 8.68c.054.82-.103 1.64-.457 2.38a4.728 4.728 0 01-1.561 1.86c-.671.48-1.453.78-2.271.87a4.936 4.936 0 01-2.402-.36l-256.72-75.43c-1.857-.6-3.49-1.75-4.684-3.3s-1.893-3.42-2.006-5.37z" fill="url(#b)" opacity=".5" style="mix-blend-mode:multiply"/><path d="M434.05 960.66h-1.238a6.091 6.091 0 00-6.088 6.094v260.61c0 3.36 2.726 6.09 6.088 6.09h1.238a6.091 6.091 0 006.088-6.09v-260.61a6.091 6.091 0 00-6.088-6.094z" fill="#10627A"/><path d="M536.95 930.1a105.142 105.142 0 01-26.352 69.642 104.996 104.996 0 01-65.844 34.683c-4.229.51-8.486.77-12.746.77-20.768 0-41.071-6.16-58.339-17.71a105.089 105.089 0 01-38.676-47.167 105.179 105.179 0 01-5.975-60.721 105.125 105.125 0 0128.738-53.81 104.992 104.992 0 0153.766-28.763 104.931 104.931 0 0160.671 5.981 105.032 105.032 0 0147.127 38.707 105.162 105.162 0 0117.697 58.388h-.067z" fill="#107E93"/><path d="M536.95 930.09a105.147 105.147 0 01-26.352 69.642 104.996 104.996 0 01-65.844 34.684 166.203 166.203 0 01-63.642-89.688 166.32 166.32 0 016.27-109.82 105.036 105.036 0 01100.907 6.51 105.15 105.15 0 0135.719 38.088 105.265 105.265 0 0113.009 50.587h-.067z" fill="#57C8DF"/><path d="M2843.3 1279.5c-.06-.82.1-1.65.45-2.39.36-.74.9-1.38 1.57-1.86s1.45-.77 2.27-.86c.81-.09 1.64.03 2.4.35l256.72 75.43c1.86.6 3.49 1.75 4.69 3.3a9.723 9.723 0 012 5.38c.05.82-.11 1.64-.46 2.38a4.7 4.7 0 01-1.56 1.86c-.67.48-1.45.78-2.27.87-.82.08-1.65-.04-2.4-.36l-256.72-75.43a9.62 9.62 0 01-4.68-3.3 9.657 9.657 0 01-2.01-5.37z" fill="url(#a)" opacity=".5" style="mix-blend-mode:multiply"/><path d="M2850.9 1013.7h-1.24c-3.36 0-6.08 2.73-6.08 6.1v260.61c0 3.36 2.72 6.09 6.08 6.09h1.24c3.36 0 6.09-2.73 6.09-6.09V1019.8c0-3.37-2.73-6.1-6.09-6.1z" fill="#10627A"/><path d="M2953.8 983.1a105.139 105.139 0 01-26.35 69.645 104.997 104.997 0 01-65.84 34.68c-4.23.51-8.49.77-12.75.77-20.77 0-41.07-6.16-58.34-17.71s-30.73-27.96-38.67-47.17a105.16 105.16 0 01-5.98-60.718 105.077 105.077 0 0128.74-53.81 104.976 104.976 0 0153.77-28.763 104.938 104.938 0 0160.67 5.981 105.061 105.061 0 0147.12 38.707 105.149 105.149 0 0117.7 58.388h-.07z" fill="#107E93"/><path d="M2953.8 983.09a105.19 105.19 0 01-26.35 69.646 104.996 104.996 0 01-65.85 34.68 166.223 166.223 0 01-63.64-89.688 166.389 166.389 0 016.27-109.82 105.04 105.04 0 01100.91 6.51 105.152 105.152 0 0135.72 38.088 105.255 105.255 0 0113.01 50.587h-.07z" fill="#57C8DF"/></g><defs><linearGradient id="g" x1="2871.9" x2="-3648.2" y1="8660" y2="2867.2" gradientUnits="userSpaceOnUse"><stop stop-color="#509BBC" offset="0"/><stop stop-color="#ABC2D6" offset="1"/></linearGradient><linearGradient id="f" x1="2250.1" x2="2044.1" y1="590.55" y2="530.83" gradientUnits="userSpaceOnUse"><stop stop-color="#fff" offset="0"/><stop stop-color="#006DB1" offset="1"/></linearGradient><linearGradient id="e" x1="2943.7" x2="2757.1" y1="757.36" y2="703.24" gradientUnits="userSpaceOnUse"><stop stop-color="#fff" offset="0"/><stop stop-color="#006DB1" offset="1"/></linearGradient><linearGradient id="d" x1="980.19" x2="793.58" y1="1286.4" y2="1232.3" gradientUnits="userSpaceOnUse"><stop stop-color="#fff" offset="0"/><stop stop-color="#006DB1" offset="1"/></linearGradient><linearGradient id="c" x1="3104.6" x2="2832.9" y1="841.34" y2="762.52" gradientUnits="userSpaceOnUse"><stop stop-color="#fff" offset="0"/><stop stop-color="#006DB1" offset="1"/></linearGradient><linearGradient id="b" x1="575.92" x2="304.16" y1="1270.4" y2="1191.5" gradientUnits="userSpaceOnUse"><stop stop-color="#fff" offset="0"/><stop stop-color="#006DB1" offset="1"/></linearGradient><linearGradient id="a" x1="2992.8" x2="2721" y1="1323.4" y2="1244.5" gradientUnits="userSpaceOnUse"><stop stop-color="#fff" offset="0"/><stop stop-color="#006DB1" offset="1"/></linearGradient><clipPath id="i"><path fill="#fff" d="M0 0h3840v1497H0z"/></clipPath><clipPath id="h"><path transform="translate(1968.5 387.63)" fill="#fff" d="M0 0h205.93v218.15H0z"/></clipPath></defs></svg>