<svg xmlns="http://www.w3.org/2000/svg" width="68" height="66" fill="none"><path fill="#003448" d="M34.167 0C15.757 0 .832 14.562.832 32.525S15.756 65.05 34.167 65.05c18.41 0 33.335-14.562 33.335-32.525S52.578 0 34.167 0zm-8.16 46.006h-6.75V24.81h6.75v21.195zM22.59 22.209c-2.132 0-3.51-1.474-3.51-3.297 0-1.86 1.42-3.29 3.597-3.29s3.51 1.43 3.552 3.29c0 1.823-1.375 3.297-3.639 3.297zm28.07 23.797h-6.75V34.26c0-2.734-.979-4.591-3.42-4.591-1.864 0-2.972 1.257-3.462 2.466-.18.43-.225 1.04-.225 1.647v12.22h-6.754V31.57c0-2.646-.087-4.859-.177-6.763h5.865l.309 2.944h.135c.889-1.382 3.066-3.422 6.709-3.422 4.44 0 7.77 2.904 7.77 9.145v12.532z"/></svg>