<?xml version="1.0" encoding="UTF-8"?>
<svg fill="none" viewBox="0 0 900 985" xmlns="http://www.w3.org/2000/svg">
<g opacity=".5">
<path d="m488.4 142.9c1.415-6.036 4.83-11.416 9.69-15.265 4.859-3.848 10.878-5.94 17.077-5.934s12.213 2.109 17.065 5.968c4.853 3.858 8.257 9.245 9.66 15.283 2.613 0.3 5.121 1.205 7.323 2.644 2.203 1.439 4.039 3.372 5.362 5.646 1.324 2.274 2.099 4.825 2.263 7.451 0.164 2.625-0.286 5.253-1.316 7.674s-2.611 4.568-4.617 6.271c-2.006 1.702-4.381 2.913-6.937 3.536s-5.222 0.64-7.786 0.051-4.955-1.768-6.983-3.444c-4.305 2.566-9.231 3.904-14.243 3.871s-9.919-1.437-14.19-4.059c-2.026 1.732-4.433 2.96-7.023 3.585-2.591 0.625-5.293 0.628-7.885 9e-3 -2.593-0.619-5.002-1.843-7.031-3.57-2.029-1.728-3.622-3.911-4.646-6.372-1.025-2.46-1.454-5.128-1.251-7.786 0.203-2.657 1.032-5.229 2.418-7.506 1.386-2.276 3.291-4.192 5.559-5.592 2.268-1.399 4.835-2.243 7.491-2.461z" fill="url(#l)" style="mix-blend-mode:screen"/>
<path d="m811.53 96.199c1.415-6.0359 4.83-11.416 9.69-15.264 4.859-3.8488 10.878-5.9403 17.077-5.9342s12.213 2.1093 17.065 5.9676 8.257 9.2447 9.66 15.283c2.613 0.2993 5.121 1.2045 7.323 2.6436 2.203 1.4394 4.039 3.3724 5.362 5.6464 1.324 2.273 2.099 4.825 2.263 7.45 0.164 2.626-0.286 5.254-1.316 7.675s-2.611 4.568-4.617 6.271c-2.006 1.702-4.381 2.913-6.937 3.536-2.556 0.622-5.222 0.64-7.786 0.051s-4.955-1.769-6.983-3.445c-4.305 2.566-9.231 3.905-14.243 3.872s-9.919-1.437-14.191-4.059c-2.025 1.732-4.432 2.96-7.023 3.585-2.59 0.624-5.292 0.627-7.884 8e-3 -2.593-0.619-5.002-1.842-7.031-3.57-2.03-1.727-3.622-3.91-4.646-6.371-1.025-2.46-1.454-5.128-1.251-7.786s1.031-5.23 2.418-7.506c1.386-2.276 3.291-4.192 5.559-5.5921 2.268-1.3996 4.835-2.243 7.491-2.4612z" fill="url(#i)" style="mix-blend-mode:screen"/>
<path d="m149.89 95.914c1.414-6.036 4.829-11.416 9.689-15.265 4.859-3.8488 10.878-5.9402 17.077-5.9341 6.199 6e-3 12.213 2.1092 17.066 5.9675 4.852 3.8583 8.256 9.2448 9.659 15.284 2.614 0.2992 5.121 1.2044 7.324 2.6435 2.202 1.4396 4.038 3.3726 5.362 5.6466 1.323 2.273 2.098 4.824 2.262 7.45 0.165 2.626-0.286 5.254-1.316 7.675s-2.611 4.568-4.617 6.27c-2.005 1.703-4.381 2.914-6.937 3.536-2.556 0.623-5.222 0.641-7.785 0.052-2.564-0.589-4.955-1.769-6.983-3.445-4.306 2.566-9.232 3.905-14.244 3.872-5.011-0.033-9.919-1.437-14.19-4.06-2.026 1.733-4.432 2.961-7.023 3.586-2.591 0.624-5.293 0.627-7.885 8e-3s-5.002-1.842-7.031-3.57c-2.029-1.727-3.621-3.911-4.646-6.371s-1.453-5.128-1.251-7.786c0.203-2.658 1.032-5.23 2.418-7.506s3.291-4.1926 5.559-5.5922c2.269-1.3997 4.835-2.243 7.492-2.4612z" fill="url(#h)" style="mix-blend-mode:screen"/>
<path d="m549.23 167.06c0.693-2.956 2.366-5.591 4.746-7.477 2.38-1.885 5.328-2.909 8.365-2.906 3.036 3e-3 5.982 1.033 8.359 2.922 2.377 1.89 4.045 4.528 4.732 7.486 1.28 0.147 2.507 0.591 3.585 1.296s1.977 1.652 2.625 2.766c0.647 1.113 1.026 2.363 1.107 3.648 0.08 1.286-0.141 2.573-0.645 3.758-0.505 1.185-1.279 2.237-2.261 3.07-0.982 0.834-2.145 1.427-3.396 1.732-1.251 0.306-2.557 0.315-3.812 0.027-1.256-0.288-2.427-0.865-3.42-1.685-2.109 1.257-4.522 1.913-6.977 1.896-2.455-0.016-4.859-0.704-6.951-1.988-0.992 0.849-2.171 1.451-3.441 1.757-1.269 0.307-2.593 0.309-3.863 5e-3 -1.27-0.303-2.451-0.902-3.445-1.748-0.995-0.847-1.775-1.917-2.277-3.122-0.502-1.206-0.712-2.513-0.612-3.815 0.099-1.303 0.505-2.563 1.185-3.678s1.613-2.054 2.725-2.739c1.111-0.686 2.369-1.099 3.671-1.205z" fill="url(#g)" style="mix-blend-mode:screen"/>
<path d="m111.68 101.6c0.693-2.9563 2.366-5.5913 4.746-7.4764 2.381-1.8852 5.328-2.9096 8.365-2.9068 3.036 0.0029 5.982 1.0329 8.359 2.9225s4.045 4.5277 4.732 7.4857c1.28 0.147 2.507 0.591 3.585 1.296s1.977 1.652 2.625 2.766c0.647 1.113 1.026 2.363 1.107 3.648 0.08 1.286-0.141 2.573-0.645 3.758-0.505 1.186-1.279 2.237-2.261 3.071-0.982 0.833-2.145 1.426-3.396 1.732-1.251 0.305-2.557 0.314-3.812 0.026-1.256-0.288-2.427-0.865-3.42-1.685-2.109 1.257-4.522 1.913-6.977 1.896-2.455-0.016-4.859-0.704-6.951-1.988-0.992 0.849-2.171 1.451-3.44 1.758-1.27 0.306-2.594 0.308-3.864 5e-3s-2.451-0.903-3.445-1.749c-0.995-0.847-1.775-1.916-2.277-3.122s-0.712-2.513-0.612-3.815c0.099-1.302 0.506-2.563 1.185-3.678 0.68-1.115 1.613-2.054 2.725-2.739 1.111-0.686 2.369-1.098 3.671-1.205z" fill="url(#f)" style="mix-blend-mode:screen"/>
<path d="m700.8 98.442c0.693-2.9564 2.366-5.5914 4.746-7.4766 2.381-1.8851 5.329-2.9096 8.365-2.9067s5.982 1.0328 8.359 2.9224 4.045 4.5278 4.732 7.4855c1.28 0.1474 2.508 0.5913 3.586 1.2965 1.078 0.705 1.976 1.652 2.624 2.766 0.648 1.113 1.027 2.362 1.107 3.648s-0.141 2.573-0.645 3.758c-0.505 1.185-1.279 2.237-2.261 3.07-0.981 0.834-2.144 1.427-3.396 1.732-1.251 0.306-2.557 0.315-3.812 0.027-1.256-0.288-2.427-0.865-3.42-1.685-2.109 1.257-4.522 1.912-6.977 1.896s-4.859-0.704-6.951-1.988c-0.992 0.849-2.171 1.451-3.44 1.757-1.27 0.307-2.594 0.308-3.864 5e-3s-2.451-0.902-3.445-1.748c-0.995-0.847-1.775-1.917-2.277-3.122-0.502-1.206-0.712-2.513-0.612-3.815 0.099-1.303 0.506-2.563 1.185-3.678 0.68-1.115 1.613-2.054 2.725-2.7394 1.111-0.6855 2.369-1.0983 3.671-1.2047z" fill="url(#e)" style="mix-blend-mode:screen"/>
<path d="m577.5 143.8c0.36-1.534 1.227-2.902 2.462-3.88 1.235-0.979 2.764-1.512 4.34-1.512 1.575 0 3.105 0.533 4.34 1.512 1.234 0.978 2.102 2.346 2.462 3.88 0.669 0.072 1.312 0.3 1.878 0.665 0.565 0.365 1.037 0.858 1.378 1.439 0.34 0.58 0.54 1.233 0.583 1.905 0.044 0.671-0.071 1.344-0.335 1.963-0.263 0.62-0.668 1.169-1.182 1.603-0.514 0.435-1.123 0.743-1.778 0.9-0.654 0.157-1.336 0.159-1.991 5e-3 -0.656-0.154-1.266-0.46-1.782-0.892-1.095 0.651-2.347 0.99-3.622 0.982-1.274-9e-3 -2.521-0.365-3.608-1.031-0.514 0.451-1.128 0.773-1.791 0.939-0.663 0.167-1.357 0.173-2.023 0.019s-1.286-0.465-1.808-0.906c-0.523-0.442-0.933-1.001-1.196-1.633-0.263-0.631-0.373-1.315-0.319-1.997s0.269-1.341 0.628-1.924c0.358-0.582 0.851-1.07 1.436-1.425 0.585-0.354 1.246-0.564 1.928-0.612z" fill="url(#d)" opacity=".74" style="mix-blend-mode:screen"/>
<path d="m259.66 144.82c0.36-1.534 1.227-2.901 2.462-3.88s2.764-1.511 4.34-1.511 3.105 0.532 4.34 1.511 2.102 2.346 2.462 3.88c0.669 0.072 1.312 0.3 1.878 0.666 0.565 0.365 1.037 0.858 1.378 1.438 0.34 0.581 0.54 1.233 0.583 1.905 0.044 0.672-0.071 1.344-0.335 1.964-0.263 0.619-0.668 1.168-1.182 1.603s-1.123 0.743-1.777 0.9c-0.655 0.157-1.337 0.158-1.992 4e-3 -0.656-0.154-1.266-0.459-1.782-0.892-1.095 0.651-2.347 0.991-3.621 0.982-1.275-9e-3 -2.522-0.365-3.609-1.031-0.514 0.451-1.128 0.773-1.791 0.94s-1.357 0.173-2.023 0.019c-0.666-0.155-1.286-0.466-1.808-0.907-0.523-0.441-0.932-1.001-1.196-1.632-0.263-0.631-0.373-1.316-0.319-1.998s0.269-1.341 0.628-1.923 0.851-1.071 1.436-1.425 1.246-0.564 1.928-0.613z" fill="url(#c)" opacity=".74" style="mix-blend-mode:screen"/>
<path d="m540.01 109.9c1.153-4.926 3.938-9.316 7.903-12.457 3.965-3.1409 8.876-4.8477 13.934-4.8427s9.965 1.7215 13.924 4.8702c3.958 3.1492 6.735 7.5442 7.878 12.472 2.133 0.242 4.179 0.98 5.977 2.153 1.797 1.173 3.296 2.75 4.377 4.605 1.08 1.855 1.713 3.937 1.847 6.079 0.134 2.143-0.234 4.287-1.075 6.262-0.84 1.976-2.131 3.727-3.768 5.116-1.637 1.388-3.576 2.375-5.661 2.882-2.086 0.507-4.262 0.519-6.353 0.037-2.092-0.483-4.042-1.447-5.695-2.816-3.512 2.094-7.53 3.188-11.619 3.161s-8.092-1.172-11.576-3.312c-1.653 1.413-3.616 2.416-5.729 2.925-2.114 0.51-4.318 0.512-6.432 8e-3 -2.115-0.505-4.08-1.503-5.736-2.912-1.655-1.41-2.954-3.191-3.79-5.198s-1.185-4.184-1.019-6.352c0.165-2.168 0.841-4.266 1.972-6.123 1.131-1.856 2.686-3.419 4.536-4.561 1.85-1.141 3.944-1.829 6.111-2.007l-6e-3 0.01z" fill="url(#b)" opacity=".74" style="mix-blend-mode:screen"/>
<path d="m29.653 139.43c1.1529-4.925 3.9383-9.315 7.9031-12.456 3.9647-3.141 8.8755-4.848 13.933-4.843s9.9653 1.721 13.924 4.87c3.9585 3.149 6.7353 7.545 7.8785 12.472 2.1327 0.243 4.1794 0.98 5.9769 2.153 1.7975 1.174 3.2962 2.751 4.3767 4.606 1.0806 1.855 1.7131 3.936 1.8473 6.079 0.1341 2.142-0.2338 4.286-1.0746 6.262-0.8407 1.975-2.131 3.726-3.7681 5.115-1.6371 1.388-3.5758 2.375-5.6616 2.882-2.0859 0.507-4.2612 0.52-6.3528 0.037-2.0916-0.482-4.0417-1.446-5.6949-2.816-3.5119 2.095-7.5299 3.188-11.619 3.161-4.0888-0.026-8.0923-1.172-11.577-3.311-1.6523 1.413-3.6153 2.415-5.7288 2.925-2.1135 0.509-4.3176 0.512-6.4322 7e-3 -2.1147-0.505-4.08-1.503-5.7354-2.912-1.6555-1.41-2.9542-3.191-3.7901-5.198s-1.1853-4.183-1.0196-6.351c0.1656-2.168 0.8416-4.266 1.9728-6.123 1.1311-1.857 2.6853-3.42 4.5357-4.561 1.8503-1.142 3.9444-1.83 6.1112-2.007l-0.0061 9e-3z" fill="url(#a)" opacity=".74" style="mix-blend-mode:screen"/>
<path d="m749.05 140.97c1.153-4.925 3.939-9.316 7.903-12.456 3.965-3.141 8.876-4.848 13.934-4.843s9.965 1.721 13.924 4.87c3.958 3.149 6.735 7.544 7.878 12.472 2.133 0.243 4.179 0.98 5.977 2.153 1.798 1.174 3.296 2.751 4.377 4.606 1.08 1.854 1.713 3.936 1.847 6.079 0.134 2.142-0.234 4.286-1.075 6.262-0.84 1.975-2.131 3.726-3.768 5.115-1.637 1.388-3.575 2.375-5.661 2.882s-4.261 0.52-6.353 0.037c-2.092-0.482-4.042-1.447-5.695-2.816-3.512 2.095-7.53 3.188-11.619 3.161-4.088-0.026-8.092-1.172-11.576-3.312-1.653 1.414-3.616 2.416-5.729 2.926-2.114 0.509-4.318 0.512-6.432 7e-3 -2.115-0.505-4.08-1.503-5.736-2.912-1.655-1.41-2.954-3.191-3.79-5.198s-1.185-4.183-1.019-6.351c0.165-2.168 0.841-4.266 1.972-6.123s2.686-3.42 4.536-4.562c1.85-1.141 3.945-1.829 6.111-2.006l-6e-3 9e-3z" fill="url(#k)" opacity=".74" style="mix-blend-mode:screen"/>
<path d="m412.45 110.88c1.152-4.925 3.938-9.315 7.903-12.456 3.964-3.1409 8.875-4.8477 13.933-4.8427s9.965 1.7215 13.924 4.8702c3.959 3.1486 6.735 7.5446 7.878 12.472 2.133 0.243 4.18 0.98 5.977 2.154 1.798 1.173 3.297 2.75 4.377 4.605 1.081 1.855 1.713 3.936 1.847 6.079 0.135 2.142-0.233 4.287-1.074 6.262s-2.131 3.727-3.768 5.115c-1.637 1.389-3.576 2.376-5.662 2.882-2.086 0.507-4.261 0.52-6.353 0.037-2.091-0.482-4.041-1.446-5.695-2.815-3.512 2.094-7.53 3.187-11.618 3.161-4.089-0.027-8.093-1.172-11.577-3.312-1.652 1.413-3.615 2.415-5.729 2.925-2.113 0.51-4.317 0.512-6.432 7e-3s-4.08-1.502-5.735-2.912c-1.656-1.409-2.955-3.19-3.79-5.197-0.836-2.008-1.186-4.184-1.02-6.352s0.842-4.266 1.973-6.123 2.685-3.42 4.535-4.561c1.851-1.142 3.945-1.829 6.112-2.007l-6e-3 9e-3z" fill="url(#j)" opacity=".74" style="mix-blend-mode:screen"/>
</g>
<defs>
<linearGradient id="l" x1="514.88" x2="514.88" y1="58.307" y2="164.5" gradientUnits="userSpaceOnUse">
<stop stop-color="#B3D1D1" offset=".54"/>
<stop offset="1"/>
</linearGradient>
<linearGradient id="i" x1="838" x2="838" y1="11.608" y2="117.8" gradientUnits="userSpaceOnUse">
<stop stop-color="#B3D1D1" offset=".54"/>
<stop offset="1"/>
</linearGradient>
<linearGradient id="h" x1="176.37" x2="176.37" y1="11.323" y2="117.51" gradientUnits="userSpaceOnUse">
<stop stop-color="#B3D1D1" offset=".54"/>
<stop offset="1"/>
</linearGradient>
<linearGradient id="g" x1="-6398.7" x2="-6398.7" y1="5151.1" y2="9699.5" gradientUnits="userSpaceOnUse">
<stop stop-color="#B3D1D1" offset=".54"/>
<stop offset="1"/>
</linearGradient>
<linearGradient id="f" x1="-6836.2" x2="-6836.2" y1="5085.6" y2="9634" gradientUnits="userSpaceOnUse">
<stop stop-color="#B3D1D1" offset=".54"/>
<stop offset="1"/>
</linearGradient>
<linearGradient id="e" x1="-6247.1" x2="-6247.1" y1="5082.5" y2="9630.9" gradientUnits="userSpaceOnUse">
<stop stop-color="#B3D1D1" offset=".54"/>
<stop offset="1"/>
</linearGradient>
<linearGradient id="d" x1="-1510.5" x2="-1510.5" y1="2584.1" y2="3812.3" gradientUnits="userSpaceOnUse">
<stop stop-color="#B3D1D1" offset=".54"/>
<stop offset="1"/>
</linearGradient>
<linearGradient id="c" x1="-1828.3" x2="-1828.3" y1="2585.1" y2="3813.3" gradientUnits="userSpaceOnUse">
<stop stop-color="#B3D1D1" offset=".54"/>
<stop offset="1"/>
</linearGradient>
<linearGradient id="b" x1="-11164" x2="-11164" y1="-3927.7" y2="8685.9" gradientUnits="userSpaceOnUse">
<stop stop-color="#B3D1D1" offset=".54"/>
<stop offset="1"/>
</linearGradient>
<linearGradient id="a" x1="-11674" x2="-11674" y1="-3898.1" y2="8715.4" gradientUnits="userSpaceOnUse">
<stop stop-color="#B3D1D1" offset=".54"/>
<stop offset="1"/>
</linearGradient>
<linearGradient id="k" x1="-10955" x2="-10955" y1="-3896.6" y2="8716.9" gradientUnits="userSpaceOnUse">
<stop stop-color="#B3D1D1" offset=".54"/>
<stop offset="1"/>
</linearGradient>
<linearGradient id="j" x1="-11291" x2="-11291" y1="-3926.7" y2="8686.8" gradientUnits="userSpaceOnUse">
<stop stop-color="#B3D1D1" offset=".54"/>
<stop offset="1"/>
</linearGradient>
</defs>
</svg>
