<svg fill="none" viewBox="0 0 3840 1298" xmlns="http://www.w3.org/2000/svg"><path d="M1974.1 169.26a58.725 58.725 0 00-20.59-32.587 58.207 58.207 0 00-36.3-12.669c-13.17.013-25.95 4.503-36.26 12.74s-17.55 19.736-20.53 32.628a35.782 35.782 0 00-15.56 5.644c-4.69 3.072-8.59 7.199-11.4 12.053s-4.46 10.301-4.81 15.907.61 11.216 2.8 16.384c2.19 5.169 5.55 9.753 9.81 13.387s9.31 6.219 14.74 7.549a35.778 35.778 0 0016.55.109 35.843 35.843 0 0014.84-7.353 58.173 58.173 0 0030.27 8.265 58.187 58.187 0 0030.16-8.666 35.792 35.792 0 0031.68 7.672 35.828 35.828 0 0014.94-7.621 36.015 36.015 0 009.87-13.602 36.226 36.226 0 002.66-16.622 36.146 36.146 0 00-5.14-16.025c-2.94-4.859-6.99-8.95-11.81-11.938s-10.28-4.789-15.92-5.255z" fill="url(#z)" style="mix-blend-mode:screen" opacity=".5"/><g opacity=".5"><path d="M1041.8 249.56a58.73 58.73 0 0120.59-32.588 58.212 58.212 0 0136.3-12.668 58.18 58.18 0 0136.26 12.74 58.622 58.622 0 0120.53 32.628 35.82 35.82 0 0115.57 5.643c4.68 3.073 8.58 7.2 11.39 12.054s4.46 10.301 4.81 15.906c.35 5.606-.61 11.217-2.8 16.385s-5.55 9.752-9.81 13.387a35.849 35.849 0 01-14.74 7.548 35.778 35.778 0 01-16.55.11 35.857 35.857 0 01-14.84-7.354 58.149 58.149 0 01-30.27 8.266 58.144 58.144 0 01-30.15-8.666 35.888 35.888 0 01-14.93 7.653 35.764 35.764 0 01-16.76.019 35.89 35.89 0 01-14.94-7.622 36.115 36.115 0 01-9.87-13.602 36.222 36.222 0 012.48-32.646c2.95-4.86 6.99-8.951 11.81-11.939s10.28-4.788 15.92-5.254z" fill="url(#o)" style="mix-blend-mode:screen"/><path d="M1171.1 301.15a28.775 28.775 0 0110.09-15.961 28.503 28.503 0 0117.78-6.206c6.45.006 12.71 2.205 17.76 6.239s8.6 9.667 10.06 15.981a17.562 17.562 0 0113.19 8.672c1.38 2.377 2.19 5.044 2.36 7.789s-.3 5.492-1.37 8.023a17.74 17.74 0 01-4.81 6.554 17.555 17.555 0 01-7.21 3.698c-2.66.652-5.44.671-8.11.056a17.573 17.573 0 01-7.26-3.596 28.527 28.527 0 01-14.83 4.048 28.473 28.473 0 01-14.77-4.245 17.597 17.597 0 01-7.32 3.752c-2.69.654-5.51.658-8.21.011s-5.2-1.927-7.32-3.734a17.744 17.744 0 01-4.84-6.665c-1.06-2.573-1.51-5.364-1.3-8.144s1.08-5.471 2.52-7.852a17.717 17.717 0 015.79-5.848 17.564 17.564 0 017.8-2.572z" fill="url(#h)" style="mix-blend-mode:screen"/><path d="M1493.2 154.66a28.775 28.775 0 0110.09-15.961c5.06-4.025 11.33-6.212 17.78-6.206s12.71 2.205 17.76 6.239 8.6 9.666 10.06 15.981c2.72.314 5.33 1.262 7.62 2.768a17.69 17.69 0 015.58 5.904c1.37 2.377 2.18 5.044 2.35 7.789s-.3 5.492-1.37 8.022a17.634 17.634 0 01-4.81 6.555c-2.08 1.78-4.55 3.046-7.21 3.698s-5.44.671-8.11.056a17.573 17.573 0 01-7.26-3.596 28.536 28.536 0 01-14.83 4.048 28.465 28.465 0 01-14.77-4.246 17.61 17.61 0 01-7.31 3.753c-2.7.654-5.52.658-8.22.011a17.66 17.66 0 01-7.32-3.734 17.612 17.612 0 01-4.83-6.665 17.737 17.737 0 01-1.31-8.144 17.897 17.897 0 012.52-7.852 17.707 17.707 0 015.79-5.848 17.593 17.593 0 017.8-2.572z" fill="url(#g)" style="mix-blend-mode:screen"/><path d="M2047.7 266.17a28.777 28.777 0 0110.09-15.962 28.508 28.508 0 0117.78-6.205c6.45.006 12.71 2.205 17.76 6.239s8.6 9.666 10.06 15.981c2.72.314 5.33 1.262 7.62 2.767a17.575 17.575 0 015.57 5.905c1.38 2.377 2.19 5.044 2.36 7.789s-.3 5.492-1.37 8.022c-1.08 2.531-2.72 4.775-4.81 6.555s-4.56 3.046-7.22 3.698c-2.66.651-5.43.671-8.1.056a17.6 17.6 0 01-7.27-3.597 28.482 28.482 0 01-14.82 4.048 28.454 28.454 0 01-14.77-4.245 17.587 17.587 0 01-7.32 3.753 17.537 17.537 0 01-15.53-3.723 17.744 17.744 0 01-4.84-6.665c-1.06-2.574-1.51-5.365-1.3-8.145s1.08-5.47 2.52-7.851 3.43-4.385 5.79-5.848a17.54 17.54 0 017.8-2.572z" fill="url(#f)" style="mix-blend-mode:screen"/><path d="M1231.2 251.48a14.92 14.92 0 015.23-8.284 14.83 14.83 0 019.22-3.226c3.35 0 6.6 1.137 9.23 3.226a14.92 14.92 0 015.23 8.284c1.42.154 2.79.64 3.99 1.42s2.2 1.832 2.93 3.072a9.257 9.257 0 01.53 8.258 9.127 9.127 0 01-2.52 3.423 9.104 9.104 0 01-3.77 1.921 9.136 9.136 0 01-4.24.01 9.088 9.088 0 01-3.78-1.905 14.83 14.83 0 01-7.7 2.097c-2.71-.019-5.36-.78-7.67-2.202a9.1 9.1 0 01-8.1 2.046c-1.42-.329-2.74-.993-3.85-1.935s-1.98-2.137-2.54-3.484a9.155 9.155 0 01-.67-4.265c.11-1.456.57-2.863 1.33-4.106s1.81-2.286 3.05-3.042 2.65-1.205 4.1-1.308z" fill="url(#e)" opacity=".74" style="mix-blend-mode:screen"/><path d="M555.7 253.67a14.927 14.927 0 015.233-8.284 14.806 14.806 0 019.223-3.227c3.349 0 6.599 1.137 9.223 3.227a14.927 14.927 0 015.233 8.284 9.14 9.14 0 013.991 1.42 9.19 9.19 0 012.928 3.071 9.234 9.234 0 01.528 8.259 9.2 9.2 0 01-2.513 3.422 9.12 9.12 0 01-8.01 1.931 9.145 9.145 0 01-3.786-1.904 14.807 14.807 0 01-15.365-.105 9.136 9.136 0 01-8.106 2.046 9.153 9.153 0 01-3.843-1.935 9.206 9.206 0 01-2.541-3.485 9.246 9.246 0 01.656-8.371 9.19 9.19 0 013.052-3.042 9.131 9.131 0 014.097-1.307z" fill="url(#d)" opacity=".74" style="mix-blend-mode:screen"/><path d="M1151.5 179.12a47.847 47.847 0 0116.8-26.593 47.456 47.456 0 0129.61-10.338 47.482 47.482 0 0129.59 10.397 47.873 47.873 0 0116.74 26.626c4.53.518 8.88 2.092 12.7 4.597s7.01 5.871 9.3 9.831c2.3 3.96 3.64 8.404 3.93 12.978.28 4.574-.5 9.152-2.28 13.369-1.79 4.217-4.53 7.956-8.01 10.92s-7.6 5.071-12.03 6.153a29.217 29.217 0 01-13.51.08 29.308 29.308 0 01-12.1-6.012 47.406 47.406 0 01-49.29-.322c-3.51 3.017-7.69 5.157-12.18 6.245s-9.17 1.093-13.67.016a29.301 29.301 0 01-12.19-6.217 29.537 29.537 0 01-10.22-24.656 29.562 29.562 0 014.2-13.072c2.4-3.964 5.7-7.301 9.64-9.738a29.18 29.18 0 0112.98-4.284l-.01.02z" fill="url(#c)" opacity=".74" style="mix-blend-mode:screen"/><path d="M322.42 149.26a58.662 58.662 0 0120.591-32.587c10.328-8.217 23.118-12.682 36.292-12.669s25.956 4.503 36.268 12.74a58.678 58.678 0 0120.528 32.628 35.83 35.83 0 0115.564 5.644c4.68 3.072 8.582 7.199 11.395 12.053s4.459 10.301 4.808 15.907a36.224 36.224 0 01-2.797 16.384 36.082 36.082 0 01-9.811 13.387 35.883 35.883 0 01-14.742 7.549 35.765 35.765 0 01-16.547.109 35.85 35.85 0 01-14.84-7.353 58.167 58.167 0 01-30.269 8.265 58.172 58.172 0 01-30.158-8.666 35.865 35.865 0 01-14.925 7.654c-5.506 1.333-11.248 1.339-16.757.018s-10.629-3.933-14.941-7.621a36.068 36.068 0 01-9.874-13.602 36.238 36.238 0 012.48-32.647c2.946-4.859 6.995-8.95 11.815-11.938s10.275-4.789 15.92-5.255z" fill="url(#b)" style="mix-blend-mode:screen"/><path d="M241.22 161.39a28.75 28.75 0 0110.087-15.962 28.512 28.512 0 0117.777-6.205 28.512 28.512 0 0117.765 6.239 28.739 28.739 0 0110.056 15.98 17.557 17.557 0 017.62 2.768 17.652 17.652 0 015.577 5.904 17.741 17.741 0 01.981 15.812c-1.072 2.53-2.716 4.775-4.803 6.555a17.553 17.553 0 01-15.32 3.754 17.563 17.563 0 01-7.268-3.597 28.49 28.49 0 01-29.598-.197 17.58 17.58 0 01-7.312 3.752 17.518 17.518 0 01-8.211.011 17.559 17.559 0 01-7.322-3.734 17.679 17.679 0 01-4.838-6.664 17.748 17.748 0 011.217-15.996 17.657 17.657 0 015.791-5.849 17.542 17.542 0 017.801-2.571z" fill="url(#a)" style="mix-blend-mode:screen"/><path d="M66.892 242.16a47.862 47.862 0 0116.796-26.593 47.473 47.473 0 0129.611-10.338 47.472 47.472 0 0129.591 10.397 47.867 47.867 0 0116.743 26.626c4.532.518 8.882 2.092 12.702 4.597s7.005 5.872 9.301 9.831a29.557 29.557 0 011.642 26.347c-1.787 4.217-4.529 7.956-8.008 10.92s-7.599 5.071-12.032 6.153a29.16 29.16 0 01-13.5.08 29.24 29.24 0 01-12.103-6.012 47.441 47.441 0 01-24.692 6.748 47.427 47.427 0 01-24.602-7.07 29.248 29.248 0 01-12.175 6.245 29.177 29.177 0 01-13.67.016 29.252 29.252 0 01-12.189-6.217 29.425 29.425 0 01-8.055-11.097 29.553 29.553 0 012.026-26.631 29.37 29.37 0 019.64-9.738 29.2 29.2 0 0112.987-4.284l-.013.02z" fill="url(#y)" opacity=".74" style="mix-blend-mode:screen"/><path d="M1595.7 245.45a47.847 47.847 0 0116.8-26.593 47.456 47.456 0 0129.61-10.338c10.75.01 21.18 3.675 29.59 10.397s14.31 16.106 16.74 26.626c4.53.518 8.88 2.092 12.7 4.597s7.01 5.871 9.31 9.831a29.545 29.545 0 013.92 12.978c.29 4.574-.5 9.152-2.28 13.369-1.79 4.217-4.53 7.956-8.01 10.92s-7.6 5.071-12.03 6.153-9.06 1.109-13.5.08a29.286 29.286 0 01-12.11-6.012 47.421 47.421 0 01-24.69 6.748 47.433 47.433 0 01-24.6-7.07 29.177 29.177 0 01-25.84 6.261 29.241 29.241 0 01-12.19-6.217 29.464 29.464 0 01-8.06-11.097 29.53 29.53 0 01-2.16-13.559 29.422 29.422 0 014.19-13.072c2.4-3.964 5.7-7.301 9.64-9.738a29.18 29.18 0 0112.98-4.284l-.01.02z" fill="url(#x)" opacity=".74" style="mix-blend-mode:screen"/><path d="M880.41 181.2a47.86 47.86 0 0116.795-26.593 47.473 47.473 0 0129.611-10.338c10.749.01 21.178 3.675 29.591 10.397s14.314 16.106 16.743 26.626c4.533.518 8.882 2.092 12.702 4.597s7.005 5.871 9.302 9.831a29.538 29.538 0 013.925 12.978c.286 4.574-.496 9.152-2.283 13.369s-4.529 7.956-8.008 10.92-7.599 5.071-12.032 6.153-9.056 1.109-13.501.08a29.253 29.253 0 01-12.103-6.012 47.435 47.435 0 01-24.691 6.748 47.43 47.43 0 01-24.603-7.07 29.245 29.245 0 01-12.175 6.245 29.173 29.173 0 01-13.669.016 29.261 29.261 0 01-12.189-6.217 29.441 29.441 0 01-8.055-11.097 29.56 29.56 0 012.026-26.631 29.375 29.375 0 019.639-9.738 29.205 29.205 0 0112.988-4.284l-.013.02z" fill="url(#w)" opacity=".74" style="mix-blend-mode:screen"/></g><path d="M3674.1 169.26a58.617 58.617 0 00-20.59-32.587c-10.32-8.217-23.12-12.682-36.29-12.669s-25.96 4.503-36.27 12.74-17.54 19.736-20.52 32.628c-5.56.639-10.89 2.572-15.57 5.644s-8.58 7.199-11.39 12.053c-2.82 4.854-4.46 10.301-4.81 15.907s.61 11.216 2.8 16.384a35.894 35.894 0 009.81 13.387 35.863 35.863 0 0014.74 7.549 35.736 35.736 0 0016.54.109 35.843 35.843 0 0014.84-7.353 58.16 58.16 0 0060.43-.401 35.89 35.89 0 0014.93 7.654c5.5 1.333 11.24 1.339 16.75.018s10.63-3.933 14.95-7.621c4.31-3.689 7.69-8.349 9.87-13.602s3.09-10.949 2.66-16.622a36.273 36.273 0 00-5.14-16.025c-2.95-4.859-7-8.95-11.82-11.938s-10.27-4.789-15.92-5.255z" fill="url(#v)" style="mix-blend-mode:screen" opacity=".5"/><g opacity=".5"><path d="M2741.8 249.56a58.73 58.73 0 0120.59-32.588 58.212 58.212 0 0136.3-12.668c13.17.013 25.95 4.503 36.26 12.74s17.55 19.736 20.53 32.628a35.827 35.827 0 0115.56 5.643c4.68 3.073 8.59 7.2 11.4 12.054s4.46 10.301 4.81 15.906c.35 5.606-.61 11.217-2.8 16.385s-5.55 9.752-9.81 13.387a35.849 35.849 0 01-14.74 7.548 35.778 35.778 0 01-16.55.11 35.857 35.857 0 01-14.84-7.354c-9.15 5.478-19.62 8.337-30.27 8.266s-21.08-3.068-30.16-8.666a35.85 35.85 0 01-14.92 7.653 35.764 35.764 0 01-16.76.019 35.83 35.83 0 01-14.94-7.622 36.007 36.007 0 01-9.87-13.602 36.222 36.222 0 012.48-32.646c2.94-4.86 6.99-8.951 11.81-11.939s10.28-4.788 15.92-5.254z" fill="url(#u)" style="mix-blend-mode:screen"/><path d="M2871.1 301.15a28.72 28.72 0 0110.09-15.961 28.503 28.503 0 0117.78-6.206c6.45.006 12.71 2.205 17.76 6.239s8.6 9.667 10.06 15.981a17.562 17.562 0 0113.19 8.672c1.38 2.377 2.19 5.044 2.36 7.789s-.3 5.492-1.38 8.023a17.605 17.605 0 01-12.02 10.252 17.551 17.551 0 01-15.37-3.54 28.492 28.492 0 01-14.82 4.048 28.535 28.535 0 01-14.78-4.245 17.5 17.5 0 01-7.31 3.752c-2.69.654-5.51.658-8.21.011s-5.21-1.927-7.32-3.734-3.77-4.091-4.84-6.665c-1.06-2.573-1.51-5.364-1.3-8.144s1.08-5.471 2.52-7.852 3.43-4.384 5.79-5.848a17.564 17.564 0 017.8-2.572z" fill="url(#t)" style="mix-blend-mode:screen"/><path d="M3193.2 154.66a28.775 28.775 0 0110.09-15.961 28.503 28.503 0 0117.78-6.206c6.45.006 12.71 2.205 17.76 6.239s8.6 9.666 10.06 15.981a17.562 17.562 0 0113.19 8.672c1.38 2.377 2.19 5.044 2.36 7.789s-.3 5.492-1.37 8.022a17.743 17.743 0 01-4.81 6.555 17.531 17.531 0 01-15.32 3.754 17.611 17.611 0 01-7.27-3.596 28.465 28.465 0 01-29.59-.198 17.587 17.587 0 01-7.32 3.753c-2.69.654-5.51.658-8.21.011s-5.21-1.927-7.32-3.734-3.77-4.091-4.84-6.665a17.863 17.863 0 01-1.3-8.144c.21-2.781 1.08-5.471 2.52-7.852s3.43-4.385 5.79-5.848 5.04-2.345 7.8-2.572z" fill="url(#s)" style="mix-blend-mode:screen"/><path d="M3747.7 266.17a28.723 28.723 0 0110.09-15.962 28.501 28.501 0 0117.77-6.205c6.46.006 12.72 2.205 17.77 6.239s8.59 9.666 10.06 15.981a17.604 17.604 0 0113.19 8.672c1.38 2.377 2.18 5.044 2.35 7.789s-.3 5.492-1.37 8.022a17.608 17.608 0 01-12.02 10.253 17.54 17.54 0 01-15.37-3.541 28.482 28.482 0 01-29.6-.197 17.514 17.514 0 01-15.52 3.763c-2.7-.647-5.21-1.926-7.32-3.733s-3.77-4.091-4.84-6.665-1.51-5.365-1.3-8.145 1.07-5.47 2.52-7.851a17.613 17.613 0 015.79-5.848 17.498 17.498 0 017.8-2.572z" fill="url(#r)" style="mix-blend-mode:screen"/><path d="M2931.2 251.48a14.92 14.92 0 015.23-8.284c2.62-2.089 5.87-3.226 9.22-3.226s6.6 1.137 9.23 3.226a14.974 14.974 0 015.23 8.284c1.42.154 2.79.64 3.99 1.42s2.2 1.832 2.93 3.072c.72 1.239 1.15 2.632 1.24 4.066a9.267 9.267 0 01-3.23 7.615 9.104 9.104 0 01-3.77 1.921c-1.4.336-2.85.339-4.24.01s-2.69-.981-3.78-1.905a14.83 14.83 0 01-7.7 2.097c-2.71-.019-5.36-.78-7.67-2.202a9.137 9.137 0 01-3.81 2.007 9.138 9.138 0 01-8.14-1.896 9.2 9.2 0 01-2.54-3.484 9.291 9.291 0 01-.68-4.265 9.22 9.22 0 011.34-4.106c.76-1.243 1.81-2.286 3.05-3.042s2.65-1.205 4.1-1.308z" fill="url(#q)" opacity=".74" style="mix-blend-mode:screen"/><path d="M2255.7 253.67a14.917 14.917 0 015.23-8.284c2.62-2.09 5.87-3.227 9.22-3.227s6.6 1.137 9.23 3.227a14.97 14.97 0 015.23 8.284c1.42.154 2.79.64 3.99 1.42s2.2 1.832 2.93 3.071a9.261 9.261 0 01.53 8.259 9.131 9.131 0 01-2.52 3.422 9.118 9.118 0 01-3.77 1.922 9.15 9.15 0 01-4.24.009 9.098 9.098 0 01-3.78-1.904 14.82 14.82 0 01-15.37-.105 9.114 9.114 0 01-8.1 2.046 9.15 9.15 0 01-6.39-5.42 9.287 9.287 0 01-.68-4.265c.12-1.455.58-2.863 1.34-4.106s1.81-2.285 3.05-3.042a9.128 9.128 0 014.1-1.307z" fill="url(#p)" opacity=".74" style="mix-blend-mode:screen"/><path d="M2851.5 179.12a47.885 47.885 0 0116.79-26.593 47.498 47.498 0 0129.61-10.338 47.461 47.461 0 0129.59 10.397 47.834 47.834 0 0116.75 26.626c4.53.518 8.88 2.092 12.7 4.597s7.01 5.871 9.3 9.831c2.3 3.96 3.64 8.404 3.93 12.978.28 4.574-.5 9.152-2.29 13.369a29.429 29.429 0 01-8 10.92 29.24 29.24 0 01-12.04 6.153 29.174 29.174 0 01-25.6-5.932 47.406 47.406 0 01-49.29-.322c-3.52 3.017-7.69 5.157-12.18 6.245s-9.17 1.093-13.67.016a29.301 29.301 0 01-12.19-6.217 29.333 29.333 0 01-8.05-11.097 29.549 29.549 0 012.02-26.631 29.453 29.453 0 019.64-9.738 29.262 29.262 0 0112.99-4.284l-.01.02z" fill="url(#n)" opacity=".74" style="mix-blend-mode:screen"/><path d="M2022.4 149.26a58.686 58.686 0 0120.6-32.587 58.159 58.159 0 0136.29-12.669 58.229 58.229 0 0136.27 12.74 58.66 58.66 0 0120.52 32.628c5.56.639 10.89 2.572 15.57 5.644s8.58 7.199 11.39 12.053c2.82 4.854 4.46 10.301 4.81 15.907s-.61 11.216-2.8 16.384a36.003 36.003 0 01-9.81 13.387 35.863 35.863 0 01-14.74 7.549 35.778 35.778 0 01-16.55.109 35.903 35.903 0 01-14.84-7.353 58.138 58.138 0 01-60.42-.401 35.89 35.89 0 01-14.93 7.654 35.735 35.735 0 01-16.75.018 35.926 35.926 0 01-14.95-7.621c-4.31-3.689-7.69-8.349-9.87-13.602s-3.09-10.949-2.66-16.622a36.146 36.146 0 015.14-16.025c2.95-4.859 6.99-8.95 11.81-11.938s10.28-4.789 15.92-5.255z" fill="url(#m)" style="mix-blend-mode:screen"/><path d="M1941.2 161.39a28.723 28.723 0 0110.09-15.962c5.05-4.024 11.32-6.211 17.77-6.205s12.72 2.205 17.77 6.239 8.59 9.666 10.05 15.98c2.72.315 5.33 1.263 7.62 2.768s4.2 3.527 5.58 5.904 2.18 5.045 2.35 7.789a17.726 17.726 0 01-6.17 14.578 17.579 17.579 0 01-7.22 3.697c-2.66.652-5.43.671-8.1.057a17.553 17.553 0 01-7.27-3.597 28.492 28.492 0 01-14.83 4.048 28.527 28.527 0 01-14.77-4.245c-2.11 1.812-4.61 3.098-7.31 3.752s-5.51.658-8.21.011-5.21-1.926-7.32-3.734a17.641 17.641 0 01-4.84-6.664c-1.07-2.574-1.51-5.365-1.3-8.145s1.07-5.47 2.52-7.851a17.532 17.532 0 015.79-5.849 17.51 17.51 0 017.8-2.571z" fill="url(#l)" style="mix-blend-mode:screen"/><path d="M1766.9 242.16a47.847 47.847 0 0116.8-26.593 47.456 47.456 0 0129.61-10.338 47.482 47.482 0 0129.59 10.397 47.873 47.873 0 0116.74 26.626c4.53.518 8.88 2.092 12.7 4.597s7.01 5.872 9.3 9.831c2.3 3.96 3.64 8.404 3.93 12.978.28 4.574-.5 9.152-2.28 13.369-1.79 4.217-4.53 7.956-8.01 10.92s-7.6 5.071-12.03 6.153a29.162 29.162 0 01-13.5.08 29.286 29.286 0 01-12.11-6.012 47.406 47.406 0 01-49.29-.322 29.21 29.21 0 01-25.85 6.261 29.192 29.192 0 01-12.18-6.217 29.457 29.457 0 01-8.06-11.097 29.537 29.537 0 01-2.17-13.559 29.562 29.562 0 014.2-13.072c2.4-3.964 5.7-7.301 9.64-9.738a29.18 29.18 0 0112.98-4.284l-.01.02z" fill="url(#k)" opacity=".74" style="mix-blend-mode:screen"/><path d="M3295.7 245.45a47.847 47.847 0 0116.8-26.593 47.456 47.456 0 0129.61-10.338 47.482 47.482 0 0129.59 10.397 47.873 47.873 0 0116.74 26.626c4.53.518 8.88 2.092 12.7 4.597s7.01 5.871 9.3 9.831c2.3 3.96 3.64 8.404 3.93 12.978.28 4.574-.5 9.152-2.28 13.369-1.79 4.217-4.53 7.956-8.01 10.92s-7.6 5.071-12.03 6.153a29.175 29.175 0 01-13.5.08 29.286 29.286 0 01-12.11-6.012 47.406 47.406 0 01-49.29-.322 29.21 29.21 0 01-25.85 6.261 29.204 29.204 0 01-12.18-6.217c-3.52-3.009-6.28-6.812-8.06-11.097s-2.52-8.931-2.17-13.559a29.562 29.562 0 014.2-13.072c2.4-3.964 5.7-7.301 9.64-9.738a29.18 29.18 0 0112.98-4.284l-.01.02z" fill="url(#j)" opacity=".74" style="mix-blend-mode:screen"/><path d="M2580.4 181.2a47.885 47.885 0 0116.79-26.593 47.498 47.498 0 0129.61-10.338 47.51 47.51 0 0129.6 10.397 47.873 47.873 0 0116.74 26.626c4.53.518 8.88 2.092 12.7 4.597s7.01 5.871 9.3 9.831c2.3 3.96 3.64 8.404 3.93 12.978.28 4.574-.5 9.152-2.29 13.369a29.429 29.429 0 01-8 10.92 29.24 29.24 0 01-12.04 6.153 29.174 29.174 0 01-25.6-5.932 47.406 47.406 0 01-49.29-.322c-3.52 3.017-7.69 5.157-12.18 6.245s-9.17 1.093-13.67.016a29.301 29.301 0 01-12.19-6.217 29.333 29.333 0 01-8.05-11.097 29.549 29.549 0 012.02-26.631 29.453 29.453 0 019.64-9.738 29.262 29.262 0 0112.99-4.284l-.01.02z" fill="url(#i)" opacity=".74" style="mix-blend-mode:screen"/></g><defs><linearGradient id="z" x1="1917.9" x2="1917.9" y1="-11.333" y2="215.37" gradientUnits="userSpaceOnUse"><stop stop-color="#B3D1D1" offset=".54"/><stop offset="1"/></linearGradient><linearGradient id="o" x1="1098.1" x2="1098.1" y1="68.975" y2="295.68" gradientUnits="userSpaceOnUse"><stop stop-color="#B3D1D1" offset=".54"/><stop offset="1"/></linearGradient><linearGradient id="h" x1="-13594" x2="-13594" y1="10941" y2="20652" gradientUnits="userSpaceOnUse"><stop stop-color="#B3D1D1" offset=".54"/><stop offset="1"/></linearGradient><linearGradient id="g" x1="-13272" x2="-13272" y1="10795" y2="20505" gradientUnits="userSpaceOnUse"><stop stop-color="#B3D1D1" offset=".54"/><stop offset="1"/></linearGradient><linearGradient id="f" x1="-12718" x2="-12718" y1="10906" y2="20617" gradientUnits="userSpaceOnUse"><stop stop-color="#B3D1D1" offset=".54"/><stop offset="1"/></linearGradient><linearGradient id="e" x1="-3206.1" x2="-3206.1" y1="5461.2" y2="8083.3" gradientUnits="userSpaceOnUse"><stop stop-color="#B3D1D1" offset=".54"/><stop offset="1"/></linearGradient><linearGradient id="d" x1="-3881.6" x2="-3881.6" y1="5463.4" y2="8085.5" gradientUnits="userSpaceOnUse"><stop stop-color="#B3D1D1" offset=".54"/><stop offset="1"/></linearGradient><linearGradient id="c" x1="-23721" x2="-23721" y1="-8440.5" y2="18488" gradientUnits="userSpaceOnUse"><stop stop-color="#B3D1D1" offset=".54"/><stop offset="1"/></linearGradient><linearGradient id="b" x1="378.68" x2="378.68" y1="-31.333" y2="195.37" gradientUnits="userSpaceOnUse"><stop stop-color="#B3D1D1" offset=".54"/><stop offset="1"/></linearGradient><linearGradient id="a" x1="-14524" x2="-14524" y1="10802" y2="20512" gradientUnits="userSpaceOnUse"><stop stop-color="#B3D1D1" offset=".54"/><stop offset="1"/></linearGradient><linearGradient id="y" x1="-24805" x2="-24805" y1="-8377.5" y2="18551" gradientUnits="userSpaceOnUse"><stop stop-color="#B3D1D1" offset=".54"/><stop offset="1"/></linearGradient><linearGradient id="x" x1="-23277" x2="-23277" y1="-8374.2" y2="18554" gradientUnits="userSpaceOnUse"><stop stop-color="#B3D1D1" offset=".54"/><stop offset="1"/></linearGradient><linearGradient id="w" x1="-23992" x2="-23992" y1="-8438.4" y2="18490" gradientUnits="userSpaceOnUse"><stop stop-color="#B3D1D1" offset=".54"/><stop offset="1"/></linearGradient><linearGradient id="v" x1="3617.9" x2="3617.9" y1="-11.333" y2="215.37" gradientUnits="userSpaceOnUse"><stop stop-color="#B3D1D1" offset=".54"/><stop offset="1"/></linearGradient><linearGradient id="u" x1="2798.1" x2="2798.1" y1="68.975" y2="295.68" gradientUnits="userSpaceOnUse"><stop stop-color="#B3D1D1" offset=".54"/><stop offset="1"/></linearGradient><linearGradient id="t" x1="-11894" x2="-11894" y1="10941" y2="20652" gradientUnits="userSpaceOnUse"><stop stop-color="#B3D1D1" offset=".54"/><stop offset="1"/></linearGradient><linearGradient id="s" x1="-11572" x2="-11572" y1="10795" y2="20505" gradientUnits="userSpaceOnUse"><stop stop-color="#B3D1D1" offset=".54"/><stop offset="1"/></linearGradient><linearGradient id="r" x1="-11018" x2="-11018" y1="10906" y2="20617" gradientUnits="userSpaceOnUse"><stop stop-color="#B3D1D1" offset=".54"/><stop offset="1"/></linearGradient><linearGradient id="q" x1="-1506.1" x2="-1506.1" y1="5461.2" y2="8083.3" gradientUnits="userSpaceOnUse"><stop stop-color="#B3D1D1" offset=".54"/><stop offset="1"/></linearGradient><linearGradient id="p" x1="-2181.6" x2="-2181.6" y1="5463.4" y2="8085.5" gradientUnits="userSpaceOnUse"><stop stop-color="#B3D1D1" offset=".54"/><stop offset="1"/></linearGradient><linearGradient id="n" x1="-22021" x2="-22021" y1="-8440.5" y2="18488" gradientUnits="userSpaceOnUse"><stop stop-color="#B3D1D1" offset=".54"/><stop offset="1"/></linearGradient><linearGradient id="m" x1="2078.7" x2="2078.7" y1="-31.333" y2="195.37" gradientUnits="userSpaceOnUse"><stop stop-color="#B3D1D1" offset=".54"/><stop offset="1"/></linearGradient><linearGradient id="l" x1="-12824" x2="-12824" y1="10802" y2="20512" gradientUnits="userSpaceOnUse"><stop stop-color="#B3D1D1" offset=".54"/><stop offset="1"/></linearGradient><linearGradient id="k" x1="-23105" x2="-23105" y1="-8377.5" y2="18551" gradientUnits="userSpaceOnUse"><stop stop-color="#B3D1D1" offset=".54"/><stop offset="1"/></linearGradient><linearGradient id="j" x1="-21577" x2="-21577" y1="-8374.2" y2="18554" gradientUnits="userSpaceOnUse"><stop stop-color="#B3D1D1" offset=".54"/><stop offset="1"/></linearGradient><linearGradient id="i" x1="-22292" x2="-22292" y1="-8438.4" y2="18490" gradientUnits="userSpaceOnUse"><stop stop-color="#B3D1D1" offset=".54"/><stop offset="1"/></linearGradient></defs></svg>