<svg fill="none" viewBox="0 0 900 985" xmlns="http://www.w3.org/2000/svg"><g opacity=".5"><path d="M488.4 142.9a27.47 27.47 0 0126.767-21.199 27.465 27.465 0 0126.725 21.251 16.914 16.914 0 0112.685 8.29 16.901 16.901 0 01.947 15.125 16.91 16.91 0 01-11.554 9.807 16.9 16.9 0 01-14.769-3.393 27.465 27.465 0 01-28.433-.188 16.893 16.893 0 01-21.939.024 16.898 16.898 0 012.08-27.256 16.904 16.904 0 017.491-2.461z" fill="url(#l)" style="mix-blend-mode:screen"/><path d="M811.53 96.199a27.465 27.465 0 0153.492.052 16.903 16.903 0 0114.948 15.74 16.911 16.911 0 01-5.933 13.946 16.913 16.913 0 01-14.723 3.587 16.903 16.903 0 01-6.983-3.445 27.466 27.466 0 01-28.434-.187 16.902 16.902 0 01-21.938.023 16.898 16.898 0 012.08-27.255 16.9 16.9 0 017.491-2.46z" fill="url(#i)" style="mix-blend-mode:screen"/><path d="M149.89 95.914a27.463 27.463 0 0153.491.052 16.906 16.906 0 11-12.69 29.829 27.472 27.472 0 01-28.434-.189 16.899 16.899 0 01-26.585-6.346 16.911 16.911 0 011.167-15.292 16.901 16.901 0 0113.051-8.054z" fill="url(#h)" style="mix-blend-mode:screen"/><path d="M549.23 167.06a13.45 13.45 0 0121.47-7.461 13.452 13.452 0 014.732 7.486 8.274 8.274 0 016.21 4.062 8.288 8.288 0 01-1.799 10.476 8.274 8.274 0 01-7.208 1.759 8.276 8.276 0 01-3.42-1.685 13.457 13.457 0 01-13.928-.092 8.271 8.271 0 01-7.304 1.762 8.281 8.281 0 011.247-16.307z" fill="url(#g)" style="mix-blend-mode:screen"/><path d="M111.68 101.6a13.456 13.456 0 0113.111-10.383 13.454 13.454 0 0113.091 10.408 8.274 8.274 0 016.21 4.062 8.288 8.288 0 01-1.799 10.477 8.28 8.28 0 01-10.628.073 13.457 13.457 0 01-13.928-.092 8.287 8.287 0 01-7.304 1.763 8.283 8.283 0 01-5.149-12.364 8.278 8.278 0 016.396-3.944z" fill="url(#f)" style="mix-blend-mode:screen"/><path d="M700.8 98.442a13.456 13.456 0 0113.111-10.383 13.454 13.454 0 0113.091 10.408 8.281 8.281 0 11-6.217 14.612 13.456 13.456 0 01-13.928-.092 8.273 8.273 0 01-7.304 1.762 8.281 8.281 0 011.247-16.307z" fill="url(#e)" style="mix-blend-mode:screen"/><path d="M577.5 143.8a6.984 6.984 0 016.802-5.392 6.988 6.988 0 016.802 5.392 4.318 4.318 0 013.256 2.104 4.313 4.313 0 01-.934 5.471 4.305 4.305 0 01-3.769.905 4.311 4.311 0 01-1.782-.892 7 7 0 01-7.23-.049 4.31 4.31 0 11-3.145-7.539z" fill="url(#d)" opacity=".74" style="mix-blend-mode:screen"/><path d="M259.66 144.82a6.987 6.987 0 0113.604 0 4.307 4.307 0 013.839 4.009 4.307 4.307 0 01-7.068 3.579 6.99 6.99 0 01-7.23-.049 4.312 4.312 0 01-3.814.959 4.32 4.32 0 01-3.004-2.539 4.31 4.31 0 013.673-5.959z" fill="url(#c)" opacity=".74" style="mix-blend-mode:screen"/><path d="M540.01 109.9a22.405 22.405 0 0143.639.043 13.782 13.782 0 0112.201 12.837 13.786 13.786 0 01-22.552 11.48 22.4 22.4 0 01-23.195-.15 13.788 13.788 0 01-21.687-5.177 13.784 13.784 0 01-1.019-6.352 13.782 13.782 0 0112.619-12.691l-.006.01z" fill="url(#b)" opacity=".74" style="mix-blend-mode:screen"/><path d="M29.653 139.43a22.407 22.407 0 0121.836-17.299 22.403 22.403 0 0121.803 17.342c2.132.243 4.179.98 5.977 2.153a13.794 13.794 0 015.149 16.947 13.792 13.792 0 01-9.43 7.997 13.774 13.774 0 01-12.047-2.779 22.404 22.404 0 01-23.196-.15 13.792 13.792 0 01-12.161 2.932 13.791 13.791 0 01-9.526-8.11 13.785 13.785 0 015.489-17.035 13.77 13.77 0 016.111-2.007l-.006.009z" fill="url(#a)" opacity=".74" style="mix-blend-mode:screen"/><path d="M749.05 140.97a22.408 22.408 0 0121.837-17.299 22.402 22.402 0 0121.802 17.342 13.795 13.795 0 0112.201 12.838 13.79 13.79 0 01-10.504 14.259 13.775 13.775 0 01-12.048-2.779 22.39 22.39 0 01-23.195-.151 13.79 13.79 0 01-12.161 2.933 13.795 13.795 0 01-9.526-8.11 13.78 13.78 0 01-1.019-6.351 13.782 13.782 0 0112.619-12.691l-.006.009z" fill="url(#k)" opacity=".74" style="mix-blend-mode:screen"/><path d="M412.45 110.88a22.4 22.4 0 0121.836-17.299 22.404 22.404 0 0121.802 17.342 13.78 13.78 0 0110.354 6.76 13.78 13.78 0 011.847 6.078 13.774 13.774 0 01-4.842 11.377 13.775 13.775 0 01-12.015 2.919 13.79 13.79 0 01-5.695-2.815 22.402 22.402 0 01-23.195-.151 13.788 13.788 0 01-17.896.02 13.787 13.787 0 017.81-24.24l-.006.01z" fill="url(#j)" opacity=".74" style="mix-blend-mode:screen"/></g><defs><linearGradient id="l" x1="514.88" x2="514.88" y1="58.307" y2="164.5" gradientUnits="userSpaceOnUse"><stop stop-color="#B3D1D1" offset=".54"/><stop offset="1"/></linearGradient><linearGradient id="i" x1="838" x2="838" y1="11.608" y2="117.8" gradientUnits="userSpaceOnUse"><stop stop-color="#B3D1D1" offset=".54"/><stop offset="1"/></linearGradient><linearGradient id="h" x1="176.37" x2="176.37" y1="11.323" y2="117.51" gradientUnits="userSpaceOnUse"><stop stop-color="#B3D1D1" offset=".54"/><stop offset="1"/></linearGradient><linearGradient id="g" x1="-6398.7" x2="-6398.7" y1="5151.1" y2="9699.5" gradientUnits="userSpaceOnUse"><stop stop-color="#B3D1D1" offset=".54"/><stop offset="1"/></linearGradient><linearGradient id="f" x1="-6836.2" x2="-6836.2" y1="5085.6" y2="9634" gradientUnits="userSpaceOnUse"><stop stop-color="#B3D1D1" offset=".54"/><stop offset="1"/></linearGradient><linearGradient id="e" x1="-6247.1" x2="-6247.1" y1="5082.5" y2="9630.9" gradientUnits="userSpaceOnUse"><stop stop-color="#B3D1D1" offset=".54"/><stop offset="1"/></linearGradient><linearGradient id="d" x1="-1510.5" x2="-1510.5" y1="2584.1" y2="3812.3" gradientUnits="userSpaceOnUse"><stop stop-color="#B3D1D1" offset=".54"/><stop offset="1"/></linearGradient><linearGradient id="c" x1="-1828.3" x2="-1828.3" y1="2585.1" y2="3813.3" gradientUnits="userSpaceOnUse"><stop stop-color="#B3D1D1" offset=".54"/><stop offset="1"/></linearGradient><linearGradient id="b" x1="-11164" x2="-11164" y1="-3927.7" y2="8685.9" gradientUnits="userSpaceOnUse"><stop stop-color="#B3D1D1" offset=".54"/><stop offset="1"/></linearGradient><linearGradient id="a" x1="-11674" x2="-11674" y1="-3898.1" y2="8715.4" gradientUnits="userSpaceOnUse"><stop stop-color="#B3D1D1" offset=".54"/><stop offset="1"/></linearGradient><linearGradient id="k" x1="-10955" x2="-10955" y1="-3896.6" y2="8716.9" gradientUnits="userSpaceOnUse"><stop stop-color="#B3D1D1" offset=".54"/><stop offset="1"/></linearGradient><linearGradient id="j" x1="-11291" x2="-11291" y1="-3926.7" y2="8686.8" gradientUnits="userSpaceOnUse"><stop stop-color="#B3D1D1" offset=".54"/><stop offset="1"/></linearGradient></defs></svg>