<?xml version="1.0" encoding="UTF-8"?>
<svg fill="none" viewBox="0 0 4390 1298" xmlns="http://www.w3.org/2000/svg">
<g opacity=".5">
<path d="m1974.1 169.26c-3.01-12.886-10.27-24.371-20.59-32.587-10.33-8.217-23.12-12.682-36.3-12.669-13.17 0.013-25.95 4.503-36.26 12.74s-17.55 19.736-20.53 32.628c-5.56 0.639-10.88 2.572-15.56 5.644-4.69 3.072-8.59 7.199-11.4 12.053s-4.46 10.301-4.81 15.907 0.61 11.216 2.8 16.384c2.19 5.169 5.55 9.753 9.81 13.387s9.31 6.219 14.74 7.549c5.43 1.329 11.1 1.367 16.55 0.109 5.45-1.257 10.53-3.775 14.84-7.353 9.15 5.478 19.62 8.336 30.27 8.265 10.65-0.07 21.08-3.067 30.16-8.666 4.3 3.698 9.41 6.32 14.92 7.654 5.51 1.333 11.25 1.339 16.76 0.018s10.63-3.933 14.94-7.621c4.31-3.689 7.7-8.349 9.87-13.602 2.18-5.253 3.09-10.949 2.66-16.622-0.43-5.674-2.19-11.165-5.14-16.025-2.94-4.859-6.99-8.95-11.81-11.938s-10.28-4.789-15.92-5.255z" fill="url(#z)" style="mix-blend-mode:screen"/>
</g>
<g opacity=".5">
<path d="m1041.8 249.56c3.01-12.886 10.27-24.371 20.59-32.588 10.33-8.216 23.12-12.681 36.3-12.668 13.17 0.013 25.95 4.503 36.26 12.74 10.32 8.237 17.55 19.736 20.53 32.628 5.56 0.639 10.89 2.571 15.57 5.643 4.68 3.073 8.58 7.2 11.39 12.054s4.46 10.301 4.81 15.906c0.35 5.606-0.61 11.217-2.8 16.385s-5.55 9.752-9.81 13.387c-4.26 3.634-9.31 6.219-14.74 7.548-5.43 1.33-11.1 1.367-16.55 0.11-5.45-1.258-10.53-3.776-14.84-7.354-9.15 5.478-19.61 8.337-30.27 8.266-10.65-0.071-21.08-3.068-30.15-8.666-4.31 3.697-9.42 6.32-14.93 7.653-5.51 1.334-11.25 1.34-16.76 0.019-5.51-1.322-10.62-3.933-14.94-7.622-4.31-3.688-7.69-8.349-9.87-13.602-2.18-5.252-3.09-10.948-2.66-16.622 0.43-5.673 2.19-11.164 5.14-16.024s6.99-8.951 11.81-11.939 10.28-4.788 15.92-5.254z" fill="url(#o)" style="mix-blend-mode:screen"/>
<path d="m1171.1 301.15c1.48-6.311 5.03-11.937 10.09-15.961 5.06-4.025 11.32-6.212 17.78-6.206 6.45 6e-3 12.71 2.205 17.76 6.239s8.6 9.667 10.06 15.981c2.72 0.315 5.33 1.262 7.62 2.768 2.29 1.505 4.2 3.527 5.57 5.904 1.38 2.377 2.19 5.044 2.36 7.789s-0.3 5.492-1.37 8.023c-1.08 2.53-2.72 4.775-4.81 6.554-2.08 1.78-4.56 3.046-7.21 3.698-2.66 0.652-5.44 0.671-8.11 0.056-2.66-0.614-5.15-1.846-7.26-3.596-4.49 2.683-9.61 4.082-14.83 4.048-5.22-0.035-10.33-1.503-14.77-4.245-2.11 1.812-4.62 3.098-7.32 3.752-2.69 0.654-5.51 0.658-8.21 0.011s-5.2-1.927-7.32-3.734c-2.11-1.807-3.77-4.091-4.84-6.665-1.06-2.573-1.51-5.364-1.3-8.144s1.08-5.471 2.52-7.852c1.45-2.381 3.43-4.384 5.79-5.848 2.36-1.463 5.04-2.344 7.8-2.572z" fill="url(#h)" style="mix-blend-mode:screen"/>
<path d="m1493.2 154.66c1.48-6.311 5.03-11.937 10.09-15.961 5.06-4.025 11.33-6.212 17.78-6.206s12.71 2.205 17.76 6.239 8.6 9.666 10.06 15.981c2.72 0.314 5.33 1.262 7.62 2.768 2.29 1.505 4.2 3.527 5.58 5.904 1.37 2.377 2.18 5.044 2.35 7.789s-0.3 5.492-1.37 8.022c-1.07 2.531-2.72 4.775-4.81 6.555-2.08 1.78-4.55 3.046-7.21 3.698s-5.44 0.671-8.11 0.056c-2.66-0.614-5.15-1.846-7.26-3.596-4.49 2.682-9.61 4.082-14.83 4.048-5.22-0.035-10.33-1.503-14.77-4.246-2.11 1.813-4.62 3.099-7.31 3.753-2.7 0.654-5.52 0.658-8.22 0.011-2.69-0.647-5.2-1.927-7.32-3.734-2.11-1.807-3.77-4.091-4.83-6.665-1.07-2.574-1.52-5.364-1.31-8.144 0.22-2.781 1.08-5.471 2.52-7.852 1.45-2.381 3.43-4.385 5.79-5.848 2.37-1.463 5.04-2.345 7.8-2.572z" fill="url(#g)" style="mix-blend-mode:screen"/>
<path d="m2047.7 266.17c1.48-6.312 5.03-11.937 10.09-15.962 5.06-4.024 11.32-6.211 17.78-6.205 6.45 6e-3 12.71 2.205 17.76 6.239s8.6 9.666 10.06 15.981c2.72 0.314 5.33 1.262 7.62 2.767 2.29 1.506 4.2 3.528 5.57 5.905 1.38 2.377 2.19 5.044 2.36 7.789s-0.3 5.492-1.37 8.022c-1.08 2.531-2.72 4.775-4.81 6.555s-4.56 3.046-7.22 3.698c-2.66 0.651-5.43 0.671-8.1 0.056-2.67-0.614-5.15-1.846-7.27-3.597-4.48 2.683-9.61 4.083-14.82 4.048-5.22-0.034-10.33-1.502-14.77-4.245-2.11 1.813-4.62 3.099-7.32 3.753-2.69 0.654-5.51 0.657-8.21 0.01s-5.21-1.926-7.32-3.733-3.77-4.091-4.84-6.665c-1.06-2.574-1.51-5.365-1.3-8.145s1.08-5.47 2.52-7.851 3.43-4.385 5.79-5.848c2.36-1.464 5.04-2.345 7.8-2.572z" fill="url(#f)" style="mix-blend-mode:screen"/>
<path d="m1231.2 251.48c0.76-3.275 2.61-6.194 5.23-8.284 2.63-2.089 5.88-3.226 9.22-3.226 3.35 0 6.6 1.137 9.23 3.226 2.62 2.09 4.47 5.009 5.23 8.284 1.42 0.154 2.79 0.64 3.99 1.42s2.2 1.832 2.93 3.072c0.72 1.239 1.15 2.632 1.24 4.066s-0.15 2.87-0.71 4.192c-0.56 1.323-1.42 2.495-2.52 3.423-1.09 0.928-2.38 1.586-3.77 1.921-1.39 0.336-2.84 0.339-4.24 0.01-1.39-0.329-2.69-0.981-3.78-1.905-2.33 1.39-4.99 2.115-7.7 2.097-2.71-0.019-5.36-0.78-7.67-2.202-1.09 0.963-2.39 1.651-3.8 2.007-1.41 0.355-2.89 0.369-4.3 0.039-1.42-0.329-2.74-0.993-3.85-1.935s-1.98-2.137-2.54-3.484c-0.56-1.348-0.79-2.81-0.67-4.265 0.11-1.456 0.57-2.863 1.33-4.106s1.81-2.286 3.05-3.042 2.65-1.205 4.1-1.308z" fill="url(#e)" opacity=".74" style="mix-blend-mode:screen"/>
<path d="m555.7 253.67c0.765-3.275 2.609-6.195 5.233-8.284 2.625-2.09 5.875-3.227 9.223-3.227 3.349 0 6.599 1.137 9.223 3.227 2.624 2.089 4.468 5.009 5.233 8.284 1.422 0.154 2.789 0.64 3.991 1.42 1.201 0.78 2.204 1.832 2.928 3.071 0.724 1.24 1.149 2.632 1.24 4.067 0.092 1.434-0.152 2.87-0.712 4.192s-1.421 2.494-2.513 3.422c-1.093 0.928-2.386 1.586-3.777 1.922-1.391 0.335-2.841 0.338-4.233 9e-3 -1.393-0.329-2.689-0.981-3.786-1.904-2.327 1.39-4.989 2.115-7.697 2.096-2.708-0.018-5.359-0.78-7.668-2.201-1.092 0.963-2.397 1.65-3.807 2.006-1.409 0.356-2.883 0.37-4.299 0.04-1.415-0.33-2.733-0.993-3.843-1.935-1.11-0.943-1.981-2.137-2.541-3.485-0.559-1.347-0.792-2.809-0.678-4.265 0.114-1.455 0.571-2.863 1.334-4.106s1.809-2.285 3.052-3.042c1.243-0.756 2.648-1.204 4.097-1.307z" fill="url(#d)" opacity=".74" style="mix-blend-mode:screen"/>
<path d="m1151.5 179.12c2.45-10.515 8.37-19.887 16.8-26.593 8.42-6.705 18.86-10.349 29.61-10.338 10.75 0.01 21.17 3.675 29.59 10.397 8.41 6.722 14.31 16.106 16.74 26.626 4.53 0.518 8.88 2.092 12.7 4.597s7.01 5.871 9.3 9.831c2.3 3.96 3.64 8.404 3.93 12.978 0.28 4.574-0.5 9.152-2.28 13.369-1.79 4.217-4.53 7.956-8.01 10.92s-7.6 5.071-12.03 6.153c-4.44 1.082-9.06 1.109-13.51 0.08-4.44-1.03-8.58-3.089-12.1-6.012-7.46 4.471-16 6.805-24.69 6.748-8.69-0.056-17.2-2.501-24.6-7.07-3.51 3.017-7.69 5.157-12.18 6.245s-9.17 1.093-13.67 0.016c-4.49-1.078-8.67-3.209-12.19-6.217-3.51-3.009-6.27-6.812-8.05-11.097s-2.52-8.931-2.17-13.559c0.36-4.629 1.79-9.108 4.2-13.072 2.4-3.964 5.7-7.301 9.64-9.738 3.93-2.437 8.38-3.905 12.98-4.284l-0.01 0.02z" fill="url(#c)" opacity=".74" style="mix-blend-mode:screen"/>
<path d="m322.42 149.26c3.006-12.886 10.263-24.371 20.591-32.587 10.328-8.217 23.118-12.682 36.292-12.669s25.956 4.503 36.268 12.74c10.311 8.237 17.546 19.736 20.528 32.628 5.554 0.639 10.883 2.572 15.564 5.644 4.68 3.072 8.582 7.199 11.395 12.053s4.459 10.301 4.808 15.907c0.35 5.606-0.608 11.216-2.797 16.384-2.189 5.169-5.549 9.753-9.811 13.387-4.263 3.634-9.311 6.219-14.742 7.549-5.432 1.329-11.098 1.367-16.547 0.109-5.449-1.257-10.53-3.775-14.84-7.353-9.15 5.478-19.618 8.336-30.269 8.265-10.651-0.07-21.08-3.067-30.158-8.666-4.305 3.698-9.419 6.32-14.925 7.654-5.506 1.333-11.248 1.339-16.757 0.018s-10.629-3.933-14.941-7.621c-4.313-3.689-7.697-8.349-9.874-13.602-2.178-5.253-3.089-10.949-2.658-16.622 0.431-5.674 2.192-11.165 5.138-16.025 2.946-4.859 6.995-8.95 11.815-11.938s10.275-4.789 15.92-5.255z" fill="url(#b)" style="mix-blend-mode:screen"/>
<path d="m241.22 161.39c1.474-6.312 5.029-11.937 10.087-15.962 5.059-4.024 11.324-6.211 17.777-6.205 6.452 6e-3 12.713 2.205 17.765 6.239 5.051 4.034 8.595 9.666 10.056 15.98 2.72 0.315 5.329 1.263 7.62 2.768 2.29 1.505 4.2 3.527 5.577 5.904 1.376 2.377 2.182 5.045 2.352 7.789 0.171 2.745-0.299 5.492-1.371 8.023-1.072 2.53-2.716 4.775-4.803 6.555s-4.558 3.046-7.218 3.697c-2.659 0.652-5.433 0.671-8.102 0.057-2.668-0.615-5.157-1.846-7.268-3.597-4.482 2.683-9.609 4.083-14.826 4.048-5.218-0.035-10.326-1.503-14.772-4.245-2.109 1.812-4.615 3.098-7.312 3.752-2.698 0.654-5.512 0.658-8.211 0.011-2.7-0.647-5.208-1.926-7.322-3.734-2.113-1.807-3.771-4.091-4.838-6.664-1.067-2.574-1.513-5.365-1.301-8.145 0.211-2.78 1.074-5.47 2.518-7.851 1.445-2.381 3.429-4.385 5.791-5.849 2.362-1.463 5.036-2.344 7.801-2.571z" fill="url(#a)" style="mix-blend-mode:screen"/>
<path d="m66.892 242.16c2.4502-10.515 8.3697-19.887 16.796-26.593 8.4258-6.705 18.862-10.349 29.611-10.338 10.749 0.01 21.178 3.675 29.591 10.397 8.412 6.722 14.313 16.106 16.743 26.626 4.532 0.518 8.882 2.092 12.702 4.597s7.005 5.872 9.301 9.831c2.297 3.96 3.641 8.404 3.926 12.978s-0.497 9.152-2.284 13.369-4.529 7.956-8.008 10.92-7.599 5.071-12.032 6.153c-4.432 1.082-9.055 1.11-13.5 0.08-4.446-1.03-8.59-3.089-12.103-6.012-7.464 4.471-16.003 6.805-24.692 6.748-8.689-0.056-17.198-2.501-24.602-7.07-3.5114 3.017-7.6832 5.157-12.175 6.245-4.4916 1.088-9.1757 1.093-13.67 0.016-4.494-1.078-8.6706-3.208-12.189-6.217-3.5181-3.009-6.2781-6.811-8.0545-11.097-1.7765-4.285-2.519-8.931-2.1669-13.559 0.352-4.629 1.7886-9.108 4.1925-13.072 2.4038-3.964 5.7068-7.301 9.6392-9.738 3.9323-2.437 8.3826-3.905 12.988-4.284l-0.0131 0.02z" fill="url(#y)" opacity=".74" style="mix-blend-mode:screen"/>
<path d="m1595.7 245.45c2.45-10.515 8.37-19.887 16.8-26.593 8.42-6.705 18.86-10.349 29.61-10.338 10.75 0.01 21.18 3.675 29.59 10.397s14.31 16.106 16.74 26.626c4.53 0.518 8.88 2.092 12.7 4.597s7.01 5.871 9.31 9.831c2.29 3.96 3.64 8.404 3.92 12.978 0.29 4.574-0.5 9.152-2.28 13.369-1.79 4.217-4.53 7.956-8.01 10.92s-7.6 5.071-12.03 6.153-9.06 1.109-13.5 0.08c-4.45-1.03-8.59-3.089-12.11-6.012-7.46 4.471-16 6.805-24.69 6.748-8.69-0.056-17.19-2.501-24.6-7.07-3.51 3.017-7.68 5.157-12.17 6.245-4.5 1.088-9.18 1.093-13.67 0.016-4.5-1.078-8.67-3.209-12.19-6.217-3.52-3.009-6.28-6.812-8.06-11.097-1.77-4.285-2.52-8.931-2.16-13.559 0.35-4.629 1.78-9.108 4.19-13.072 2.4-3.964 5.7-7.301 9.64-9.738 3.93-2.437 8.38-3.905 12.98-4.284l-0.01 0.02z" fill="url(#x)" opacity=".74" style="mix-blend-mode:screen"/>
<path d="m880.41 181.2c2.45-10.515 8.369-19.887 16.795-26.593 8.426-6.705 18.862-10.349 29.611-10.338 10.749 0.01 21.178 3.675 29.591 10.397s14.314 16.106 16.743 26.626c4.533 0.518 8.882 2.092 12.702 4.597s7.005 5.871 9.302 9.831c2.296 3.96 3.64 8.404 3.925 12.978 0.286 4.574-0.496 9.152-2.283 13.369s-4.529 7.956-8.008 10.92-7.599 5.071-12.032 6.153-9.056 1.109-13.501 0.08c-4.445-1.03-8.589-3.089-12.103-6.012-7.463 4.471-16.002 6.805-24.691 6.748-8.69-0.056-17.198-2.501-24.603-7.07-3.511 3.017-7.683 5.157-12.175 6.245-4.491 1.088-9.175 1.093-13.669 0.016-4.494-1.078-8.671-3.209-12.189-6.217-3.518-3.009-6.278-6.812-8.055-11.097-1.776-4.285-2.518-8.931-2.166-13.559 0.352-4.629 1.788-9.108 4.192-13.072s5.707-7.301 9.639-9.738c3.933-2.437 8.383-3.905 12.988-4.284l-0.013 0.02z" fill="url(#w)" opacity=".74" style="mix-blend-mode:screen"/>
</g>
<g opacity=".5">
<path d="m4169.1 169.26c-3-12.886-10.26-24.371-20.59-32.587-10.32-8.217-23.12-12.682-36.29-12.669s-25.96 4.503-36.27 12.74-17.54 19.736-20.52 32.628c-5.56 0.639-10.89 2.572-15.57 5.644s-8.58 7.199-11.39 12.053c-2.82 4.854-4.46 10.301-4.81 15.907s0.61 11.216 2.8 16.384c2.18 5.169 5.54 9.753 9.81 13.387 4.26 3.634 9.31 6.219 14.74 7.549 5.43 1.329 11.1 1.367 16.54 0.109 5.45-1.257 10.53-3.775 14.84-7.353 9.15 5.478 19.62 8.336 30.27 8.265 10.66-0.07 21.08-3.067 30.16-8.666 4.31 3.698 9.42 6.32 14.93 7.654 5.5 1.333 11.24 1.339 16.75 0.018s10.63-3.933 14.95-7.621c4.31-3.689 7.69-8.349 9.87-13.602s3.09-10.949 2.66-16.622c-0.43-5.674-2.2-11.165-5.14-16.025-2.95-4.859-7-8.95-11.82-11.938s-10.27-4.789-15.92-5.255z" fill="url(#v)" style="mix-blend-mode:screen"/>
</g>
<g opacity=".5">
<path d="m3236.8 249.56c3.01-12.886 10.27-24.371 20.59-32.588 10.33-8.216 23.12-12.681 36.3-12.668 13.17 0.013 25.95 4.503 36.26 12.74s17.55 19.736 20.53 32.628c5.55 0.639 10.88 2.571 15.56 5.643 4.68 3.073 8.59 7.2 11.4 12.054s4.46 10.301 4.81 15.906c0.35 5.606-0.61 11.217-2.8 16.385s-5.55 9.752-9.81 13.387c-4.26 3.634-9.31 6.219-14.74 7.548-5.43 1.33-11.1 1.367-16.55 0.11-5.45-1.258-10.53-3.776-14.84-7.354-9.15 5.478-19.62 8.337-30.27 8.266s-21.08-3.068-30.16-8.666c-4.3 3.697-9.42 6.32-14.92 7.653-5.51 1.334-11.25 1.34-16.76 0.019-5.51-1.322-10.63-3.933-14.94-7.622-4.31-3.688-7.7-8.349-9.87-13.602-2.18-5.252-3.09-10.948-2.66-16.622 0.43-5.673 2.19-11.164 5.14-16.024 2.94-4.86 6.99-8.951 11.81-11.939s10.28-4.788 15.92-5.254z" fill="url(#u)" style="mix-blend-mode:screen"/>
<path d="m3366.1 301.15c1.47-6.311 5.03-11.937 10.09-15.961 5.06-4.025 11.32-6.212 17.78-6.206 6.45 6e-3 12.71 2.205 17.76 6.239s8.6 9.667 10.06 15.981c2.72 0.315 5.33 1.262 7.62 2.768 2.29 1.505 4.2 3.527 5.57 5.904 1.38 2.377 2.19 5.044 2.36 7.789s-0.3 5.492-1.38 8.023c-1.07 2.53-2.71 4.775-4.8 6.554-2.09 1.78-4.56 3.046-7.22 3.698s-5.43 0.671-8.1 0.056c-2.67-0.614-5.16-1.846-7.27-3.596-4.48 2.683-9.61 4.082-14.82 4.048-5.22-0.035-10.33-1.503-14.78-4.245-2.1 1.812-4.61 3.098-7.31 3.752-2.69 0.654-5.51 0.658-8.21 0.011s-5.21-1.927-7.32-3.734-3.77-4.091-4.84-6.665c-1.06-2.573-1.51-5.364-1.3-8.144s1.08-5.471 2.52-7.852 3.43-4.384 5.79-5.848c2.36-1.463 5.04-2.344 7.8-2.572z" fill="url(#t)" style="mix-blend-mode:screen"/>
<path d="m3688.2 154.66c1.48-6.311 5.03-11.937 10.09-15.961 5.06-4.025 11.32-6.212 17.78-6.206 6.45 6e-3 12.71 2.205 17.76 6.239s8.6 9.666 10.06 15.981c2.72 0.314 5.33 1.262 7.62 2.768 2.29 1.505 4.2 3.527 5.57 5.904 1.38 2.377 2.19 5.044 2.36 7.789s-0.3 5.492-1.37 8.022c-1.08 2.531-2.72 4.775-4.81 6.555-2.08 1.78-4.56 3.046-7.22 3.698s-5.43 0.671-8.1 0.056c-2.67-0.614-5.15-1.846-7.27-3.596-4.48 2.682-9.61 4.082-14.82 4.048-5.22-0.035-10.33-1.503-14.77-4.246-2.11 1.813-4.62 3.099-7.32 3.753-2.69 0.654-5.51 0.658-8.21 0.011s-5.21-1.927-7.32-3.734-3.77-4.091-4.84-6.665c-1.06-2.574-1.51-5.364-1.3-8.144 0.21-2.781 1.08-5.471 2.52-7.852s3.43-4.385 5.79-5.848 5.04-2.345 7.8-2.572z" fill="url(#s)" style="mix-blend-mode:screen"/>
<path d="m4242.7 266.17c1.47-6.312 5.03-11.937 10.09-15.962 5.06-4.024 11.32-6.211 17.77-6.205 6.46 6e-3 12.72 2.205 17.77 6.239s8.59 9.666 10.06 15.981c2.71 0.314 5.32 1.262 7.61 2.767 2.3 1.506 4.2 3.528 5.58 5.905s2.18 5.044 2.35 7.789-0.3 5.492-1.37 8.022c-1.07 2.531-2.71 4.775-4.8 6.555s-4.56 3.046-7.22 3.698c-2.66 0.651-5.43 0.671-8.1 0.056-2.67-0.614-5.16-1.846-7.27-3.597-4.48 2.683-9.61 4.083-14.82 4.048-5.22-0.034-10.33-1.502-14.78-4.245-2.11 1.813-4.61 3.099-7.31 3.753s-5.51 0.657-8.21 0.01-5.21-1.926-7.32-3.733-3.77-4.091-4.84-6.665-1.51-5.365-1.3-8.145 1.07-5.47 2.52-7.851c1.44-2.381 3.43-4.385 5.79-5.848 2.36-1.464 5.03-2.345 7.8-2.572z" fill="url(#r)" style="mix-blend-mode:screen"/>
<path d="m3426.2 251.48c0.76-3.275 2.61-6.194 5.23-8.284 2.62-2.089 5.87-3.226 9.22-3.226s6.6 1.137 9.23 3.226c2.62 2.09 4.46 5.009 5.23 8.284 1.42 0.154 2.79 0.64 3.99 1.42s2.2 1.832 2.93 3.072c0.72 1.239 1.15 2.632 1.24 4.066s-0.16 2.87-0.72 4.192c-0.56 1.323-1.42 2.495-2.51 3.423s-2.38 1.586-3.77 1.921c-1.4 0.336-2.85 0.339-4.24 0.01s-2.69-0.981-3.78-1.905c-2.33 1.39-4.99 2.115-7.7 2.097-2.71-0.019-5.36-0.78-7.67-2.202-1.09 0.963-2.4 1.651-3.81 2.007-1.41 0.355-2.88 0.369-4.29 0.039-1.42-0.329-2.74-0.993-3.85-1.935s-1.98-2.137-2.54-3.484c-0.56-1.348-0.79-2.81-0.68-4.265 0.12-1.456 0.57-2.863 1.34-4.106 0.76-1.243 1.81-2.286 3.05-3.042s2.65-1.205 4.1-1.308z" fill="url(#q)" opacity=".74" style="mix-blend-mode:screen"/>
<path d="m2750.7 253.67c0.76-3.275 2.61-6.195 5.23-8.284 2.62-2.09 5.87-3.227 9.22-3.227s6.6 1.137 9.23 3.227c2.62 2.089 4.46 5.009 5.23 8.284 1.42 0.154 2.79 0.64 3.99 1.42s2.2 1.832 2.93 3.071c0.72 1.24 1.15 2.632 1.24 4.067 0.09 1.434-0.15 2.87-0.71 4.192s-1.42 2.494-2.52 3.422c-1.09 0.928-2.38 1.586-3.77 1.922-1.39 0.335-2.84 0.338-4.24 9e-3 -1.39-0.329-2.69-0.981-3.78-1.904-2.33 1.39-4.99 2.115-7.7 2.096-2.71-0.018-5.36-0.78-7.67-2.201-1.09 0.963-2.4 1.65-3.8 2.006-1.41 0.356-2.89 0.37-4.3 0.04-1.42-0.33-2.74-0.993-3.85-1.935-1.11-0.943-1.98-2.137-2.54-3.485-0.56-1.347-0.79-2.809-0.68-4.265 0.12-1.455 0.58-2.863 1.34-4.106s1.81-2.285 3.05-3.042c1.24-0.756 2.65-1.204 4.1-1.307z" fill="url(#p)" opacity=".74" style="mix-blend-mode:screen"/>
<path d="m3346.5 179.12c2.45-10.515 8.37-19.887 16.79-26.593 8.43-6.705 18.87-10.349 29.61-10.338 10.75 0.01 21.18 3.675 29.59 10.397 8.42 6.722 14.32 16.106 16.75 26.626 4.53 0.518 8.88 2.092 12.7 4.597s7.01 5.871 9.3 9.831c2.3 3.96 3.64 8.404 3.93 12.978 0.28 4.574-0.5 9.152-2.29 13.369-1.78 4.217-4.53 7.956-8 10.92-3.48 2.964-7.6 5.071-12.04 6.153-4.43 1.082-9.05 1.109-13.5 0.08-4.44-1.03-8.59-3.089-12.1-6.012-7.46 4.471-16 6.805-24.69 6.748-8.69-0.056-17.2-2.501-24.6-7.07-3.52 3.017-7.69 5.157-12.18 6.245s-9.17 1.093-13.67 0.016c-4.49-1.078-8.67-3.209-12.19-6.217-3.52-3.009-6.28-6.812-8.05-11.097-1.78-4.285-2.52-8.931-2.17-13.559 0.35-4.629 1.79-9.108 4.19-13.072 2.41-3.964 5.71-7.301 9.64-9.738 3.94-2.437 8.39-3.905 12.99-4.284l-0.01 0.02z" fill="url(#n)" opacity=".74" style="mix-blend-mode:screen"/>
<path d="m2517.4 149.26c3.01-12.886 10.27-24.371 20.6-32.587 10.32-8.217 23.11-12.682 36.29-12.669 13.17 0.013 25.95 4.503 36.27 12.74 10.31 8.237 17.54 19.736 20.52 32.628 5.56 0.639 10.89 2.572 15.57 5.644s8.58 7.199 11.39 12.053c2.82 4.854 4.46 10.301 4.81 15.907s-0.61 11.216-2.8 16.384c-2.19 5.169-5.54 9.753-9.81 13.387-4.26 3.634-9.31 6.219-14.74 7.549-5.43 1.329-11.1 1.367-16.55 0.109-5.44-1.257-10.53-3.775-14.84-7.353-9.15 5.478-19.61 8.336-30.26 8.265-10.66-0.07-21.09-3.067-30.16-8.666-4.31 3.698-9.42 6.32-14.93 7.654-5.5 1.333-11.25 1.339-16.75 0.018-5.51-1.321-10.63-3.933-14.95-7.621-4.31-3.689-7.69-8.349-9.87-13.602s-3.09-10.949-2.66-16.622c0.43-5.674 2.19-11.165 5.14-16.025 2.95-4.859 6.99-8.95 11.81-11.938s10.28-4.789 15.92-5.255z" fill="url(#m)" style="mix-blend-mode:screen"/>
<path d="m2436.2 161.39c1.47-6.312 5.03-11.937 10.09-15.962 5.05-4.024 11.32-6.211 17.77-6.205s12.72 2.205 17.77 6.239 8.59 9.666 10.05 15.98c2.72 0.315 5.33 1.263 7.62 2.768s4.2 3.527 5.58 5.904 2.18 5.045 2.35 7.789c0.17 2.745-0.3 5.492-1.37 8.023-1.07 2.53-2.72 4.775-4.8 6.555-2.09 1.78-4.56 3.046-7.22 3.697-2.66 0.652-5.43 0.671-8.1 0.057-2.67-0.615-5.16-1.846-7.27-3.597-4.48 2.683-9.61 4.083-14.83 4.048-5.21-0.035-10.32-1.503-14.77-4.245-2.11 1.812-4.61 3.098-7.31 3.752s-5.51 0.658-8.21 0.011-5.21-1.926-7.32-3.734c-2.12-1.807-3.77-4.091-4.84-6.664-1.07-2.574-1.51-5.365-1.3-8.145s1.07-5.47 2.52-7.851c1.44-2.381 3.42-4.385 5.79-5.849 2.36-1.463 5.03-2.344 7.8-2.571z" fill="url(#l)" style="mix-blend-mode:screen"/>
<path d="m2261.9 242.16c2.45-10.515 8.37-19.887 16.8-26.593 8.42-6.705 18.86-10.349 29.61-10.338 10.75 0.01 21.17 3.675 29.59 10.397 8.41 6.722 14.31 16.106 16.74 26.626 4.53 0.518 8.88 2.092 12.7 4.597s7.01 5.872 9.3 9.831c2.3 3.96 3.64 8.404 3.93 12.978 0.28 4.574-0.5 9.152-2.28 13.369-1.79 4.217-4.53 7.956-8.01 10.92s-7.6 5.071-12.03 6.153c-4.44 1.082-9.06 1.11-13.5 0.08-4.45-1.03-8.59-3.089-12.11-6.012-7.46 4.471-16 6.805-24.69 6.748-8.69-0.056-17.2-2.501-24.6-7.07-3.51 3.017-7.68 5.157-12.18 6.245-4.49 1.088-9.17 1.093-13.67 0.016-4.49-1.078-8.67-3.208-12.18-6.217-3.52-3.009-6.28-6.811-8.06-11.097-1.78-4.285-2.52-8.931-2.17-13.559 0.36-4.629 1.79-9.108 4.2-13.072 2.4-3.964 5.7-7.301 9.64-9.738 3.93-2.437 8.38-3.905 12.98-4.284l-0.01 0.02z" fill="url(#k)" opacity=".74" style="mix-blend-mode:screen"/>
<path d="m3790.7 245.45c2.45-10.515 8.37-19.887 16.8-26.593 8.42-6.705 18.86-10.349 29.61-10.338 10.75 0.01 21.17 3.675 29.59 10.397 8.41 6.722 14.31 16.106 16.74 26.626 4.53 0.518 8.88 2.092 12.7 4.597s7.01 5.871 9.3 9.831c2.3 3.96 3.64 8.404 3.93 12.978 0.28 4.574-0.5 9.152-2.28 13.369-1.79 4.217-4.53 7.956-8.01 10.92s-7.6 5.071-12.03 6.153c-4.44 1.082-9.06 1.109-13.5 0.08-4.45-1.03-8.59-3.089-12.11-6.012-7.46 4.471-16 6.805-24.69 6.748-8.69-0.056-17.2-2.501-24.6-7.07-3.51 3.017-7.68 5.157-12.18 6.245-4.49 1.088-9.17 1.093-13.67 0.016-4.49-1.078-8.67-3.209-12.18-6.217-3.52-3.009-6.28-6.812-8.06-11.097s-2.52-8.931-2.17-13.559c0.36-4.629 1.79-9.108 4.2-13.072 2.4-3.964 5.7-7.301 9.64-9.738 3.93-2.437 8.38-3.905 12.98-4.284l-0.01 0.02z" fill="url(#j)" opacity=".74" style="mix-blend-mode:screen"/>
<path d="m3075.4 181.2c2.45-10.515 8.37-19.887 16.79-26.593 8.43-6.705 18.87-10.349 29.61-10.338 10.75 0.01 21.18 3.675 29.6 10.397 8.41 6.722 14.31 16.106 16.74 26.626 4.53 0.518 8.88 2.092 12.7 4.597s7.01 5.871 9.3 9.831c2.3 3.96 3.64 8.404 3.93 12.978 0.28 4.574-0.5 9.152-2.29 13.369-1.78 4.217-4.53 7.956-8 10.92-3.48 2.964-7.6 5.071-12.04 6.153-4.43 1.082-9.05 1.109-13.5 0.08-4.44-1.03-8.59-3.089-12.1-6.012-7.46 4.471-16 6.805-24.69 6.748-8.69-0.056-17.2-2.501-24.6-7.07-3.52 3.017-7.69 5.157-12.18 6.245s-9.17 1.093-13.67 0.016c-4.49-1.078-8.67-3.209-12.19-6.217-3.52-3.009-6.28-6.812-8.05-11.097-1.78-4.285-2.52-8.931-2.17-13.559 0.35-4.629 1.79-9.108 4.19-13.072 2.41-3.964 5.71-7.301 9.64-9.738 3.94-2.437 8.39-3.905 12.99-4.284l-0.01 0.02z" fill="url(#i)" opacity=".74" style="mix-blend-mode:screen"/>
</g>
<defs>
<linearGradient id="z" x1="1917.9" x2="1917.9" y1="-11.333" y2="215.37" gradientUnits="userSpaceOnUse">
<stop stop-color="#B3D1D1" offset=".54"/>
<stop offset="1"/>
</linearGradient>
<linearGradient id="o" x1="1098.1" x2="1098.1" y1="68.975" y2="295.68" gradientUnits="userSpaceOnUse">
<stop stop-color="#B3D1D1" offset=".54"/>
<stop offset="1"/>
</linearGradient>
<linearGradient id="h" x1="-13594" x2="-13594" y1="10941" y2="20652" gradientUnits="userSpaceOnUse">
<stop stop-color="#B3D1D1" offset=".54"/>
<stop offset="1"/>
</linearGradient>
<linearGradient id="g" x1="-13272" x2="-13272" y1="10795" y2="20505" gradientUnits="userSpaceOnUse">
<stop stop-color="#B3D1D1" offset=".54"/>
<stop offset="1"/>
</linearGradient>
<linearGradient id="f" x1="-12718" x2="-12718" y1="10906" y2="20617" gradientUnits="userSpaceOnUse">
<stop stop-color="#B3D1D1" offset=".54"/>
<stop offset="1"/>
</linearGradient>
<linearGradient id="e" x1="-3206.1" x2="-3206.1" y1="5461.2" y2="8083.3" gradientUnits="userSpaceOnUse">
<stop stop-color="#B3D1D1" offset=".54"/>
<stop offset="1"/>
</linearGradient>
<linearGradient id="d" x1="-3881.6" x2="-3881.6" y1="5463.4" y2="8085.5" gradientUnits="userSpaceOnUse">
<stop stop-color="#B3D1D1" offset=".54"/>
<stop offset="1"/>
</linearGradient>
<linearGradient id="c" x1="-23721" x2="-23721" y1="-8440.5" y2="18488" gradientUnits="userSpaceOnUse">
<stop stop-color="#B3D1D1" offset=".54"/>
<stop offset="1"/>
</linearGradient>
<linearGradient id="b" x1="378.68" x2="378.68" y1="-31.333" y2="195.37" gradientUnits="userSpaceOnUse">
<stop stop-color="#B3D1D1" offset=".54"/>
<stop offset="1"/>
</linearGradient>
<linearGradient id="a" x1="-14524" x2="-14524" y1="10802" y2="20512" gradientUnits="userSpaceOnUse">
<stop stop-color="#B3D1D1" offset=".54"/>
<stop offset="1"/>
</linearGradient>
<linearGradient id="y" x1="-24805" x2="-24805" y1="-8377.5" y2="18551" gradientUnits="userSpaceOnUse">
<stop stop-color="#B3D1D1" offset=".54"/>
<stop offset="1"/>
</linearGradient>
<linearGradient id="x" x1="-23277" x2="-23277" y1="-8374.2" y2="18554" gradientUnits="userSpaceOnUse">
<stop stop-color="#B3D1D1" offset=".54"/>
<stop offset="1"/>
</linearGradient>
<linearGradient id="w" x1="-23992" x2="-23992" y1="-8438.4" y2="18490" gradientUnits="userSpaceOnUse">
<stop stop-color="#B3D1D1" offset=".54"/>
<stop offset="1"/>
</linearGradient>
<linearGradient id="v" x1="4112.9" x2="4112.9" y1="-11.333" y2="215.37" gradientUnits="userSpaceOnUse">
<stop stop-color="#B3D1D1" offset=".54"/>
<stop offset="1"/>
</linearGradient>
<linearGradient id="u" x1="3293.1" x2="3293.1" y1="68.975" y2="295.68" gradientUnits="userSpaceOnUse">
<stop stop-color="#B3D1D1" offset=".54"/>
<stop offset="1"/>
</linearGradient>
<linearGradient id="t" x1="-11400" x2="-11400" y1="10941" y2="20652" gradientUnits="userSpaceOnUse">
<stop stop-color="#B3D1D1" offset=".54"/>
<stop offset="1"/>
</linearGradient>
<linearGradient id="s" x1="-11077" x2="-11077" y1="10795" y2="20505" gradientUnits="userSpaceOnUse">
<stop stop-color="#B3D1D1" offset=".54"/>
<stop offset="1"/>
</linearGradient>
<linearGradient id="r" x1="-10523" x2="-10523" y1="10906" y2="20617" gradientUnits="userSpaceOnUse">
<stop stop-color="#B3D1D1" offset=".54"/>
<stop offset="1"/>
</linearGradient>
<linearGradient id="q" x1="-1011.1" x2="-1011.1" y1="5461.2" y2="8083.3" gradientUnits="userSpaceOnUse">
<stop stop-color="#B3D1D1" offset=".54"/>
<stop offset="1"/>
</linearGradient>
<linearGradient id="p" x1="-1686.6" x2="-1686.6" y1="5463.4" y2="8085.5" gradientUnits="userSpaceOnUse">
<stop stop-color="#B3D1D1" offset=".54"/>
<stop offset="1"/>
</linearGradient>
<linearGradient id="n" x1="-21526" x2="-21526" y1="-8440.5" y2="18488" gradientUnits="userSpaceOnUse">
<stop stop-color="#B3D1D1" offset=".54"/>
<stop offset="1"/>
</linearGradient>
<linearGradient id="m" x1="2573.7" x2="2573.7" y1="-31.333" y2="195.37" gradientUnits="userSpaceOnUse">
<stop stop-color="#B3D1D1" offset=".54"/>
<stop offset="1"/>
</linearGradient>
<linearGradient id="l" x1="-12329" x2="-12329" y1="10802" y2="20512" gradientUnits="userSpaceOnUse">
<stop stop-color="#B3D1D1" offset=".54"/>
<stop offset="1"/>
</linearGradient>
<linearGradient id="k" x1="-22610" x2="-22610" y1="-8377.5" y2="18551" gradientUnits="userSpaceOnUse">
<stop stop-color="#B3D1D1" offset=".54"/>
<stop offset="1"/>
</linearGradient>
<linearGradient id="j" x1="-21082" x2="-21082" y1="-8374.2" y2="18554" gradientUnits="userSpaceOnUse">
<stop stop-color="#B3D1D1" offset=".54"/>
<stop offset="1"/>
</linearGradient>
<linearGradient id="i" x1="-21797" x2="-21797" y1="-8438.4" y2="18490" gradientUnits="userSpaceOnUse">
<stop stop-color="#B3D1D1" offset=".54"/>
<stop offset="1"/>
</linearGradient>
</defs>
</svg>
