<svg width="4390" height="1298" viewBox="0 0 4390 1298" fill="none" xmlns="http://www.w3.org/2000/svg">
<g opacity="0.5">
<path style="mix-blend-mode:screen" d="M1974.14 169.256C1971.13 156.37 1963.87 144.885 1953.55 136.669C1943.22 128.452 1930.43 123.987 1917.25 124C1904.08 124.013 1891.3 128.503 1880.99 136.74C1870.68 144.977 1863.44 156.476 1860.46 169.368C1854.9 170.007 1849.58 171.94 1844.9 175.012C1840.21 178.084 1836.31 182.211 1833.5 187.065C1830.69 191.919 1829.04 197.366 1828.69 202.972C1828.34 208.578 1829.3 214.188 1831.49 219.356C1833.68 224.525 1837.04 229.109 1841.3 232.743C1845.56 236.377 1850.61 238.962 1856.04 240.292C1861.47 241.621 1867.14 241.659 1872.59 240.401C1878.04 239.144 1883.12 236.626 1887.43 233.048C1896.58 238.526 1907.05 241.384 1917.7 241.313C1928.35 241.243 1938.78 238.246 1947.86 232.647C1952.16 236.345 1957.27 238.967 1962.78 240.301C1968.29 241.634 1974.03 241.64 1979.54 240.319C1985.05 238.998 1990.17 236.386 1994.48 232.698C1998.79 229.009 2002.18 224.349 2004.35 219.096C2006.53 213.843 2007.44 208.147 2007.01 202.474C2006.58 196.8 2004.82 191.309 2001.87 186.449C1998.93 181.59 1994.88 177.499 1990.06 174.511C1985.24 171.523 1979.78 169.722 1974.14 169.256V169.256Z" fill="url(#paint0_linear)"/>
</g>
<g opacity="0.5">
<path style="mix-blend-mode:screen" d="M1041.8 249.565C1044.81 236.679 1052.07 225.194 1062.39 216.977C1072.72 208.761 1085.51 204.296 1098.69 204.309C1111.86 204.322 1124.64 208.812 1134.95 217.049C1145.27 225.286 1152.5 236.785 1155.48 249.677C1161.04 250.316 1166.37 252.248 1171.05 255.32C1175.73 258.393 1179.63 262.52 1182.44 267.374C1185.25 272.228 1186.9 277.675 1187.25 283.28C1187.6 288.886 1186.64 294.497 1184.45 299.665C1182.26 304.833 1178.9 309.417 1174.64 313.052C1170.38 316.686 1165.33 319.271 1159.9 320.6C1154.47 321.93 1148.8 321.967 1143.35 320.71C1137.9 319.452 1132.82 316.934 1128.51 313.356C1119.36 318.834 1108.9 321.693 1098.24 321.622C1087.59 321.551 1077.16 318.554 1068.09 312.956C1063.78 316.653 1058.67 319.276 1053.16 320.609C1047.65 321.943 1041.91 321.949 1036.4 320.628C1030.89 319.306 1025.78 316.695 1021.46 313.006C1017.15 309.318 1013.77 304.657 1011.59 299.404C1009.41 294.152 1008.5 288.456 1008.93 282.782C1009.36 277.109 1011.12 271.618 1014.07 266.758C1017.02 261.898 1021.06 257.807 1025.88 254.819C1030.7 251.831 1036.16 250.031 1041.8 249.565V249.565Z" fill="url(#paint1_linear)"/>
<path style="mix-blend-mode:screen" d="M1171.08 301.151C1172.56 294.84 1176.11 289.214 1181.17 285.19C1186.23 281.165 1192.49 278.978 1198.95 278.984C1205.4 278.99 1211.66 281.189 1216.71 285.223C1221.76 289.257 1225.31 294.89 1226.77 301.204C1229.49 301.519 1232.1 302.466 1234.39 303.972C1236.68 305.477 1238.59 307.499 1239.96 309.876C1241.34 312.253 1242.15 314.92 1242.32 317.665C1242.49 320.41 1242.02 323.157 1240.95 325.688C1239.87 328.218 1238.23 330.463 1236.14 332.242C1234.06 334.022 1231.58 335.288 1228.93 335.94C1226.27 336.592 1223.49 336.611 1220.82 335.996C1218.16 335.382 1215.67 334.15 1213.56 332.4C1209.07 335.083 1203.95 336.482 1198.73 336.448C1193.51 336.413 1188.4 334.945 1183.96 332.203C1181.85 334.015 1179.34 335.301 1176.64 335.955C1173.95 336.609 1171.13 336.613 1168.43 335.966C1165.73 335.319 1163.23 334.039 1161.11 332.232C1159 330.425 1157.34 328.141 1156.27 325.567C1155.21 322.994 1154.76 320.203 1154.97 317.423C1155.18 314.643 1156.05 311.952 1157.49 309.571C1158.94 307.19 1160.92 305.187 1163.28 303.723C1165.64 302.26 1168.32 301.379 1171.08 301.151V301.151Z" fill="url(#paint2_linear)"/>
<path style="mix-blend-mode:screen" d="M1493.21 154.657C1494.69 148.346 1498.24 142.72 1503.3 138.696C1508.36 134.671 1514.63 132.484 1521.08 132.49C1527.53 132.496 1533.79 134.695 1538.84 138.729C1543.89 142.763 1547.44 148.395 1548.9 154.71C1551.62 155.024 1554.23 155.972 1556.52 157.478C1558.81 158.983 1560.72 161.005 1562.1 163.382C1563.47 165.759 1564.28 168.426 1564.45 171.171C1564.62 173.916 1564.15 176.663 1563.08 179.193C1562.01 181.724 1560.36 183.968 1558.27 185.748C1556.19 187.528 1553.72 188.794 1551.06 189.446C1548.4 190.098 1545.62 190.117 1542.95 189.502C1540.29 188.888 1537.8 187.656 1535.69 185.906C1531.2 188.588 1526.08 189.988 1520.86 189.954C1515.64 189.919 1510.53 188.451 1506.09 185.708C1503.98 187.521 1501.47 188.807 1498.78 189.461C1496.08 190.115 1493.26 190.119 1490.56 189.472C1487.87 188.825 1485.36 187.545 1483.24 185.738C1481.13 183.931 1479.47 181.647 1478.41 179.073C1477.34 176.499 1476.89 173.709 1477.1 170.929C1477.32 168.148 1478.18 165.458 1479.62 163.077C1481.07 160.696 1483.05 158.692 1485.41 157.229C1487.78 155.766 1490.45 154.884 1493.21 154.657V154.657Z" fill="url(#paint3_linear)"/>
<path style="mix-blend-mode:screen" d="M2047.73 266.167C2049.21 259.855 2052.76 254.23 2057.82 250.205C2062.88 246.181 2069.14 243.994 2075.6 244C2082.05 244.006 2088.31 246.205 2093.36 250.239C2098.41 254.273 2101.96 259.905 2103.42 266.22C2106.14 266.534 2108.75 267.482 2111.04 268.987C2113.33 270.493 2115.24 272.515 2116.61 274.892C2117.99 277.269 2118.8 279.936 2118.97 282.681C2119.14 285.426 2118.67 288.173 2117.6 290.703C2116.52 293.234 2114.88 295.478 2112.79 297.258C2110.7 299.038 2108.23 300.304 2105.57 300.956C2102.91 301.607 2100.14 301.627 2097.47 301.012C2094.8 300.398 2092.32 299.166 2090.2 297.415C2085.72 300.098 2080.59 301.498 2075.38 301.463C2070.16 301.429 2065.05 299.961 2060.61 297.218C2058.5 299.031 2055.99 300.317 2053.29 300.971C2050.6 301.625 2047.78 301.628 2045.08 300.981C2042.38 300.334 2039.87 299.055 2037.76 297.248C2035.65 295.441 2033.99 293.157 2032.92 290.583C2031.86 288.009 2031.41 285.218 2031.62 282.438C2031.83 279.658 2032.7 276.968 2034.14 274.587C2035.58 272.206 2037.57 270.202 2039.93 268.739C2042.29 267.275 2044.97 266.394 2047.73 266.167V266.167Z" fill="url(#paint4_linear)"/>
<path style="mix-blend-mode:screen" opacity="0.74" d="M1231.16 251.483C1231.92 248.208 1233.77 245.289 1236.39 243.199C1239.02 241.11 1242.27 239.973 1245.61 239.973C1248.96 239.973 1252.21 241.11 1254.84 243.199C1257.46 245.289 1259.31 248.208 1260.07 251.483C1261.49 251.637 1262.86 252.123 1264.06 252.903C1265.26 253.683 1266.26 254.735 1266.99 255.975C1267.71 257.214 1268.14 258.607 1268.23 260.041C1268.32 261.475 1268.08 262.911 1267.52 264.233C1266.96 265.556 1266.1 266.728 1265 267.656C1263.91 268.584 1262.62 269.242 1261.23 269.577C1259.84 269.913 1258.39 269.916 1256.99 269.587C1255.6 269.258 1254.3 268.606 1253.21 267.682C1250.88 269.072 1248.22 269.797 1245.51 269.779C1242.8 269.76 1240.15 268.999 1237.84 267.577C1236.75 268.54 1235.45 269.228 1234.04 269.584C1232.63 269.939 1231.15 269.953 1229.74 269.623C1228.32 269.294 1227 268.63 1225.89 267.688C1224.78 266.746 1223.91 265.551 1223.35 264.204C1222.79 262.856 1222.56 261.394 1222.68 259.939C1222.79 258.483 1223.25 257.076 1224.01 255.833C1224.77 254.59 1225.82 253.547 1227.06 252.791C1228.3 252.035 1229.71 251.586 1231.16 251.483V251.483Z" fill="url(#paint5_linear)"/>
<path style="mix-blend-mode:screen" opacity="0.74" d="M555.699 253.669C556.464 250.394 558.308 247.474 560.932 245.385C563.557 243.295 566.807 242.158 570.155 242.158C573.504 242.158 576.754 243.295 579.378 245.385C582.002 247.474 583.846 250.394 584.611 253.669C586.033 253.823 587.4 254.309 588.602 255.089C589.803 255.869 590.806 256.921 591.53 258.16C592.254 259.4 592.679 260.792 592.77 262.227C592.862 263.661 592.618 265.097 592.058 266.419C591.498 267.741 590.637 268.913 589.545 269.841C588.452 270.769 587.159 271.427 585.768 271.763C584.377 272.098 582.927 272.101 581.535 271.772C580.142 271.443 578.846 270.791 577.749 269.868C575.422 271.258 572.76 271.983 570.052 271.964C567.344 271.946 564.693 271.184 562.384 269.763C561.292 270.726 559.987 271.413 558.577 271.769C557.168 272.125 555.694 272.139 554.278 271.809C552.863 271.479 551.545 270.816 550.435 269.874C549.325 268.931 548.454 267.737 547.894 266.389C547.335 265.042 547.102 263.58 547.216 262.124C547.33 260.669 547.787 259.261 548.55 258.018C549.313 256.775 550.359 255.733 551.602 254.976C552.845 254.22 554.25 253.772 555.699 253.669V253.669Z" fill="url(#paint6_linear)"/>
<path style="mix-blend-mode:screen" opacity="0.74" d="M1151.5 179.117C1153.95 168.602 1159.87 159.23 1168.3 152.524C1176.72 145.819 1187.16 142.175 1197.91 142.186C1208.66 142.196 1219.08 145.861 1227.5 152.583C1235.91 159.305 1241.81 168.689 1244.24 179.209C1248.77 179.727 1253.12 181.301 1256.94 183.806C1260.76 186.311 1263.95 189.677 1266.24 193.637C1268.54 197.597 1269.88 202.041 1270.17 206.615C1270.45 211.189 1269.67 215.767 1267.89 219.984C1266.1 224.201 1263.36 227.94 1259.88 230.904C1256.4 233.868 1252.28 235.975 1247.85 237.057C1243.41 238.139 1238.79 238.166 1234.34 237.137C1229.9 236.107 1225.76 234.048 1222.24 231.125C1214.78 235.596 1206.24 237.93 1197.55 237.873C1188.86 237.817 1180.35 235.372 1172.95 230.803C1169.44 233.82 1165.26 235.96 1160.77 237.048C1156.28 238.136 1151.6 238.141 1147.1 237.064C1142.61 235.986 1138.43 233.855 1134.91 230.847C1131.4 227.838 1128.64 224.035 1126.86 219.75C1125.08 215.465 1124.34 210.819 1124.69 206.191C1125.05 201.562 1126.48 197.083 1128.89 193.119C1131.29 189.155 1134.59 185.818 1138.53 183.381C1142.46 180.944 1146.91 179.476 1151.51 179.097L1151.5 179.117Z" fill="url(#paint7_linear)"/>
<path style="mix-blend-mode:screen" d="M322.417 149.256C325.423 136.37 332.68 124.885 343.008 116.669C353.336 108.452 366.126 103.987 379.3 104C392.474 104.013 405.256 108.503 415.568 116.74C425.879 124.977 433.114 136.476 436.096 149.368C441.65 150.007 446.979 151.94 451.66 155.012C456.34 158.084 460.242 162.211 463.055 167.065C465.868 171.919 467.514 177.366 467.863 182.972C468.213 188.578 467.255 194.188 465.066 199.356C462.877 204.525 459.517 209.109 455.255 212.743C450.992 216.377 445.944 218.962 440.513 220.292C435.081 221.621 429.415 221.659 423.966 220.401C418.517 219.144 413.436 216.626 409.126 213.048C399.976 218.526 389.508 221.384 378.857 221.313C368.206 221.243 357.777 218.246 348.699 212.647C344.394 216.345 339.28 218.967 333.774 220.301C328.268 221.634 322.526 221.64 317.017 220.319C311.508 218.998 306.388 216.386 302.076 212.698C297.763 209.009 294.379 204.349 292.202 199.096C290.024 193.843 289.113 188.147 289.544 182.474C289.975 176.8 291.736 171.309 294.682 166.449C297.628 161.59 301.677 157.499 306.497 154.511C311.317 151.523 316.772 149.722 322.417 149.256V149.256Z" fill="url(#paint8_linear)"/>
<path style="mix-blend-mode:screen" d="M241.22 161.392C242.694 155.08 246.249 149.455 251.307 145.43C256.366 141.406 262.631 139.219 269.084 139.225C275.536 139.231 281.797 141.43 286.849 145.464C291.9 149.498 295.444 155.13 296.905 161.444C299.625 161.759 302.234 162.707 304.525 164.212C306.815 165.717 308.725 167.739 310.102 170.116C311.478 172.493 312.284 175.161 312.454 177.905C312.625 180.65 312.155 183.397 311.083 185.928C310.011 188.458 308.367 190.703 306.28 192.483C304.193 194.263 301.722 195.529 299.062 196.18C296.403 196.832 293.629 196.851 290.96 196.237C288.292 195.622 285.803 194.391 283.692 192.64C279.21 195.323 274.083 196.723 268.866 196.688C263.648 196.653 258.54 195.185 254.094 192.443C251.985 194.255 249.479 195.541 246.782 196.195C244.084 196.849 241.27 196.853 238.571 196.206C235.871 195.559 233.363 194.28 231.249 192.472C229.136 190.665 227.478 188.381 226.411 185.808C225.344 183.234 224.898 180.443 225.11 177.663C225.321 174.883 226.184 172.193 227.628 169.812C229.073 167.431 231.057 165.427 233.419 163.963C235.781 162.5 238.455 161.619 241.22 161.392V161.392Z" fill="url(#paint9_linear)"/>
<path style="mix-blend-mode:screen" opacity="0.74" d="M66.8921 242.156C69.3423 231.641 75.2618 222.269 83.6877 215.563C92.1135 208.858 102.55 205.214 113.299 205.225C124.048 205.235 134.477 208.9 142.89 215.622C151.302 222.344 157.203 231.728 159.633 242.248C164.165 242.766 168.515 244.34 172.335 246.845C176.155 249.35 179.34 252.717 181.636 256.676C183.933 260.636 185.277 265.08 185.562 269.654C185.847 274.228 185.065 278.806 183.278 283.023C181.491 287.24 178.749 290.979 175.27 293.943C171.791 296.907 167.671 299.014 163.238 300.096C158.806 301.178 154.183 301.206 149.738 300.176C145.292 299.146 141.148 297.087 137.635 294.164C130.171 298.635 121.632 300.969 112.943 300.912C104.254 300.856 95.7454 298.411 88.3406 293.842C84.8292 296.859 80.6574 298.999 76.1659 300.087C71.6743 301.175 66.9902 301.18 62.4962 300.103C58.0022 299.025 53.8256 296.895 50.3074 293.886C46.7893 290.877 44.0293 287.075 42.2529 282.789C40.4764 278.504 39.7339 273.858 40.086 269.23C40.438 264.601 41.8746 260.122 44.2785 256.158C46.6823 252.194 49.9853 248.857 53.9177 246.42C57.85 243.983 62.3003 242.515 66.9052 242.136L66.8921 242.156Z" fill="url(#paint10_linear)"/>
<path style="mix-blend-mode:screen" opacity="0.74" d="M1595.74 245.451C1598.19 234.936 1604.11 225.564 1612.54 218.858C1620.96 212.153 1631.4 208.509 1642.15 208.52C1652.9 208.53 1663.33 212.195 1671.74 218.917C1680.15 225.639 1686.05 235.023 1688.48 245.543C1693.01 246.061 1697.36 247.635 1701.18 250.14C1705 252.645 1708.19 256.011 1710.49 259.971C1712.78 263.931 1714.13 268.375 1714.41 272.949C1714.7 277.523 1713.91 282.101 1712.13 286.318C1710.34 290.535 1707.6 294.274 1704.12 297.238C1700.64 300.202 1696.52 302.309 1692.09 303.391C1687.66 304.473 1683.03 304.5 1678.59 303.471C1674.14 302.441 1670 300.382 1666.48 297.459C1659.02 301.93 1650.48 304.264 1641.79 304.207C1633.1 304.151 1624.6 301.706 1617.19 297.137C1613.68 300.154 1609.51 302.294 1605.02 303.382C1600.52 304.47 1595.84 304.475 1591.35 303.398C1586.85 302.32 1582.68 300.189 1579.16 297.181C1575.64 294.172 1572.88 290.369 1571.1 286.084C1569.33 281.799 1568.58 277.153 1568.94 272.525C1569.29 267.896 1570.72 263.417 1573.13 259.453C1575.53 255.489 1578.83 252.152 1582.77 249.715C1586.7 247.278 1591.15 245.81 1595.75 245.431L1595.74 245.451Z" fill="url(#paint11_linear)"/>
<path style="mix-blend-mode:screen" opacity="0.74" d="M880.41 181.201C882.86 170.686 888.779 161.314 897.205 154.608C905.631 147.903 916.067 144.259 926.816 144.27C937.565 144.28 947.994 147.945 956.407 154.667C964.82 161.389 970.721 170.773 973.15 181.293C977.683 181.811 982.032 183.385 985.852 185.89C989.672 188.395 992.857 191.761 995.154 195.721C997.45 199.681 998.794 204.125 999.079 208.699C999.365 213.273 998.583 217.851 996.796 222.068C995.009 226.285 992.267 230.024 988.788 232.988C985.309 235.952 981.189 238.059 976.756 239.141C972.323 240.223 967.7 240.25 963.255 239.221C958.81 238.191 954.666 236.132 951.152 233.209C943.689 237.68 935.15 240.014 926.461 239.957C917.771 239.901 909.263 237.456 901.858 232.887C898.347 235.904 894.175 238.044 889.683 239.132C885.192 240.22 880.508 240.225 876.014 239.148C871.52 238.07 867.343 235.939 863.825 232.931C860.307 229.922 857.547 226.119 855.77 221.834C853.994 217.549 853.252 212.903 853.604 208.275C853.956 203.646 855.392 199.167 857.796 195.203C860.2 191.239 863.503 187.902 867.435 185.465C871.368 183.028 875.818 181.56 880.423 181.181L880.41 181.201Z" fill="url(#paint12_linear)"/>
</g>
<g opacity="0.5">
<path style="mix-blend-mode:screen" d="M4169.13 169.256C4166.13 156.37 4158.87 144.885 4148.54 136.669C4138.22 128.452 4125.42 123.987 4112.25 124C4099.08 124.013 4086.29 128.503 4075.98 136.74C4065.67 144.977 4058.44 156.476 4055.46 169.368C4049.9 170.007 4044.57 171.94 4039.89 175.012C4035.21 178.084 4031.31 182.211 4028.5 187.065C4025.68 191.919 4024.04 197.366 4023.69 202.972C4023.34 208.578 4024.3 214.188 4026.49 219.356C4028.67 224.525 4032.03 229.109 4036.3 232.743C4040.56 236.377 4045.61 238.962 4051.04 240.292C4056.47 241.621 4062.14 241.659 4067.58 240.401C4073.03 239.144 4078.11 236.626 4082.42 233.048C4091.57 238.526 4102.04 241.384 4112.69 241.313C4123.35 241.243 4133.77 238.246 4142.85 232.647C4147.16 236.345 4152.27 238.967 4157.78 240.301C4163.28 241.634 4169.02 241.64 4174.53 240.319C4180.04 238.998 4185.16 236.386 4189.48 232.698C4193.79 229.009 4197.17 224.349 4199.35 219.096C4201.53 213.843 4202.44 208.147 4202.01 202.474C4201.58 196.8 4199.81 191.309 4196.87 186.449C4193.92 181.59 4189.87 177.499 4185.05 174.511C4180.23 171.523 4174.78 169.722 4169.13 169.256V169.256Z" fill="url(#paint13_linear)"/>
</g>
<g opacity="0.5">
<path style="mix-blend-mode:screen" d="M3236.8 249.565C3239.81 236.679 3247.07 225.194 3257.39 216.977C3267.72 208.761 3280.51 204.296 3293.69 204.309C3306.86 204.322 3319.64 208.812 3329.95 217.049C3340.26 225.286 3347.5 236.785 3350.48 249.677C3356.03 250.316 3361.36 252.248 3366.04 255.32C3370.72 258.393 3374.63 262.52 3377.44 267.374C3380.25 272.228 3381.9 277.675 3382.25 283.28C3382.6 288.886 3381.64 294.497 3379.45 299.665C3377.26 304.833 3373.9 309.417 3369.64 313.052C3365.38 316.686 3360.33 319.271 3354.9 320.6C3349.47 321.93 3343.8 321.967 3338.35 320.71C3332.9 319.452 3327.82 316.934 3323.51 313.356C3314.36 318.834 3303.89 321.693 3293.24 321.622C3282.59 321.551 3272.16 318.554 3263.08 312.956C3258.78 316.653 3253.66 319.276 3248.16 320.609C3242.65 321.943 3236.91 321.949 3231.4 320.628C3225.89 319.306 3220.77 316.695 3216.46 313.006C3212.15 309.318 3208.76 304.657 3206.59 299.404C3204.41 294.152 3203.5 288.456 3203.93 282.782C3204.36 277.109 3206.12 271.618 3209.07 266.758C3212.01 261.898 3216.06 257.807 3220.88 254.819C3225.7 251.831 3231.16 250.031 3236.8 249.565V249.565Z" fill="url(#paint14_linear)"/>
<path style="mix-blend-mode:screen" d="M3366.08 301.151C3367.55 294.84 3371.11 289.214 3376.17 285.19C3381.23 281.165 3387.49 278.978 3393.95 278.984C3400.4 278.99 3406.66 281.189 3411.71 285.223C3416.76 289.257 3420.31 294.89 3421.77 301.204C3424.49 301.519 3427.1 302.466 3429.39 303.972C3431.68 305.477 3433.59 307.499 3434.96 309.876C3436.34 312.253 3437.15 314.92 3437.32 317.665C3437.49 320.41 3437.02 323.157 3435.94 325.688C3434.87 328.218 3433.23 330.463 3431.14 332.242C3429.05 334.022 3426.58 335.288 3423.92 335.94C3421.26 336.592 3418.49 336.611 3415.82 335.996C3413.15 335.382 3410.66 334.15 3408.55 332.4C3404.07 335.083 3398.94 336.482 3393.73 336.448C3388.51 336.413 3383.4 334.945 3378.95 332.203C3376.85 334.015 3374.34 335.301 3371.64 335.955C3368.95 336.609 3366.13 336.613 3363.43 335.966C3360.73 335.319 3358.22 334.039 3356.11 332.232C3354 330.425 3352.34 328.141 3351.27 325.567C3350.21 322.994 3349.76 320.203 3349.97 317.423C3350.18 314.643 3351.05 311.952 3352.49 309.571C3353.93 307.19 3355.92 305.187 3358.28 303.723C3360.64 302.26 3363.32 301.379 3366.08 301.151V301.151Z" fill="url(#paint15_linear)"/>
<path style="mix-blend-mode:screen" d="M3688.21 154.657C3689.69 148.346 3693.24 142.72 3698.3 138.696C3703.36 134.671 3709.62 132.484 3716.08 132.49C3722.53 132.496 3728.79 134.695 3733.84 138.729C3738.89 142.763 3742.44 148.395 3743.9 154.71C3746.62 155.024 3749.23 155.972 3751.52 157.478C3753.81 158.983 3755.72 161.005 3757.09 163.382C3758.47 165.759 3759.28 168.426 3759.45 171.171C3759.62 173.916 3759.15 176.663 3758.08 179.193C3757 181.724 3755.36 183.968 3753.27 185.748C3751.19 187.528 3748.71 188.794 3746.05 189.446C3743.39 190.098 3740.62 190.117 3737.95 189.502C3735.28 188.888 3732.8 187.656 3730.68 185.906C3726.2 188.588 3721.07 189.988 3715.86 189.954C3710.64 189.919 3705.53 188.451 3701.09 185.708C3698.98 187.521 3696.47 188.807 3693.77 189.461C3691.08 190.115 3688.26 190.119 3685.56 189.472C3682.86 188.825 3680.35 187.545 3678.24 185.738C3676.13 183.931 3674.47 181.647 3673.4 179.073C3672.34 176.499 3671.89 173.709 3672.1 170.929C3672.31 168.148 3673.18 165.458 3674.62 163.077C3676.06 160.696 3678.05 158.692 3680.41 157.229C3682.77 155.766 3685.45 154.884 3688.21 154.657V154.657Z" fill="url(#paint16_linear)"/>
<path style="mix-blend-mode:screen" d="M4242.73 266.167C4244.2 259.855 4247.76 254.23 4252.82 250.205C4257.88 246.181 4264.14 243.994 4270.59 244C4277.05 244.006 4283.31 246.205 4288.36 250.239C4293.41 254.273 4296.95 259.905 4298.42 266.22C4301.13 266.534 4303.74 267.482 4306.03 268.987C4308.33 270.493 4310.23 272.515 4311.61 274.892C4312.99 277.269 4313.79 279.936 4313.96 282.681C4314.13 285.426 4313.66 288.173 4312.59 290.703C4311.52 293.234 4309.88 295.478 4307.79 297.258C4305.7 299.038 4303.23 300.304 4300.57 300.956C4297.91 301.607 4295.14 301.627 4292.47 301.012C4289.8 300.398 4287.31 299.166 4285.2 297.415C4280.72 300.098 4275.59 301.498 4270.38 301.463C4265.16 301.429 4260.05 299.961 4255.6 297.218C4253.49 299.031 4250.99 300.317 4248.29 300.971C4245.59 301.625 4242.78 301.628 4240.08 300.981C4237.38 300.334 4234.87 299.055 4232.76 297.248C4230.65 295.441 4228.99 293.157 4227.92 290.583C4226.85 288.009 4226.41 285.218 4226.62 282.438C4226.83 279.658 4227.69 276.968 4229.14 274.587C4230.58 272.206 4232.57 270.202 4234.93 268.739C4237.29 267.275 4239.96 266.394 4242.73 266.167V266.167Z" fill="url(#paint17_linear)"/>
<path style="mix-blend-mode:screen" opacity="0.74" d="M3426.16 251.483C3426.92 248.208 3428.77 245.289 3431.39 243.199C3434.01 241.11 3437.26 239.973 3440.61 239.973C3443.96 239.973 3447.21 241.11 3449.84 243.199C3452.46 245.289 3454.3 248.208 3455.07 251.483C3456.49 251.637 3457.86 252.123 3459.06 252.903C3460.26 253.683 3461.26 254.735 3461.99 255.975C3462.71 257.214 3463.14 258.607 3463.23 260.041C3463.32 261.475 3463.07 262.911 3462.51 264.233C3461.95 265.556 3461.09 266.728 3460 267.656C3458.91 268.584 3457.62 269.242 3456.23 269.577C3454.83 269.913 3453.38 269.916 3451.99 269.587C3450.6 269.258 3449.3 268.606 3448.21 267.682C3445.88 269.072 3443.22 269.797 3440.51 269.779C3437.8 269.76 3435.15 268.999 3432.84 267.577C3431.75 268.54 3430.44 269.228 3429.03 269.584C3427.62 269.939 3426.15 269.953 3424.74 269.623C3423.32 269.294 3422 268.63 3420.89 267.688C3419.78 266.746 3418.91 265.551 3418.35 264.204C3417.79 262.856 3417.56 261.394 3417.67 259.939C3417.79 258.483 3418.24 257.076 3419.01 255.833C3419.77 254.59 3420.82 253.547 3422.06 252.791C3423.3 252.035 3424.71 251.586 3426.16 251.483V251.483Z" fill="url(#paint18_linear)"/>
<path style="mix-blend-mode:screen" opacity="0.74" d="M2750.7 253.669C2751.46 250.394 2753.31 247.474 2755.93 245.385C2758.55 243.295 2761.8 242.158 2765.15 242.158C2768.5 242.158 2771.75 243.295 2774.38 245.385C2777 247.474 2778.84 250.394 2779.61 253.669C2781.03 253.823 2782.4 254.309 2783.6 255.089C2784.8 255.869 2785.8 256.921 2786.53 258.16C2787.25 259.4 2787.68 260.792 2787.77 262.227C2787.86 263.661 2787.62 265.097 2787.06 266.419C2786.5 267.741 2785.64 268.913 2784.54 269.841C2783.45 270.769 2782.16 271.427 2780.77 271.763C2779.38 272.098 2777.93 272.101 2776.53 271.772C2775.14 271.443 2773.84 270.791 2772.75 269.868C2770.42 271.258 2767.76 271.983 2765.05 271.964C2762.34 271.946 2759.69 271.184 2757.38 269.763C2756.29 270.726 2754.98 271.413 2753.58 271.769C2752.17 272.125 2750.69 272.139 2749.28 271.809C2747.86 271.479 2746.54 270.816 2745.43 269.874C2744.32 268.931 2743.45 267.737 2742.89 266.389C2742.33 265.042 2742.1 263.58 2742.21 262.124C2742.33 260.669 2742.79 259.261 2743.55 258.018C2744.31 256.775 2745.36 255.733 2746.6 254.976C2747.84 254.22 2749.25 253.772 2750.7 253.669V253.669Z" fill="url(#paint19_linear)"/>
<path style="mix-blend-mode:screen" opacity="0.74" d="M3346.5 179.117C3348.95 168.602 3354.87 159.23 3363.29 152.524C3371.72 145.819 3382.16 142.175 3392.9 142.186C3403.65 142.196 3414.08 145.861 3422.49 152.583C3430.91 159.305 3436.81 168.689 3439.24 179.209C3443.77 179.727 3448.12 181.301 3451.94 183.806C3455.76 186.311 3458.95 189.677 3461.24 193.637C3463.54 197.597 3464.88 202.041 3465.17 206.615C3465.45 211.189 3464.67 215.767 3462.88 219.984C3461.1 224.201 3458.35 227.94 3454.88 230.904C3451.4 233.868 3447.28 235.975 3442.84 237.057C3438.41 238.139 3433.79 238.166 3429.34 237.137C3424.9 236.107 3420.75 234.048 3417.24 231.125C3409.78 235.596 3401.24 237.93 3392.55 237.873C3383.86 237.817 3375.35 235.372 3367.95 230.803C3364.43 233.82 3360.26 235.96 3355.77 237.048C3351.28 238.136 3346.6 238.141 3342.1 237.064C3337.61 235.986 3333.43 233.855 3329.91 230.847C3326.39 227.838 3323.63 224.035 3321.86 219.75C3320.08 215.465 3319.34 210.819 3319.69 206.191C3320.04 201.562 3321.48 197.083 3323.88 193.119C3326.29 189.155 3329.59 185.818 3333.52 183.381C3337.46 180.944 3341.91 179.476 3346.51 179.097L3346.5 179.117Z" fill="url(#paint20_linear)"/>
<path style="mix-blend-mode:screen" d="M2517.41 149.256C2520.42 136.37 2527.68 124.885 2538.01 116.669C2548.33 108.452 2561.12 103.987 2574.3 104C2587.47 104.013 2600.25 108.503 2610.57 116.74C2620.88 124.977 2628.11 136.476 2631.09 149.368C2636.65 150.007 2641.98 151.94 2646.66 155.012C2651.34 158.084 2655.24 162.211 2658.05 167.065C2660.87 171.919 2662.51 177.366 2662.86 182.972C2663.21 188.578 2662.25 194.188 2660.06 199.356C2657.87 204.525 2654.52 209.109 2650.25 212.743C2645.99 216.377 2640.94 218.962 2635.51 220.292C2630.08 221.621 2624.41 221.659 2618.96 220.401C2613.52 219.144 2608.43 216.626 2604.12 213.048C2594.97 218.526 2584.51 221.384 2573.86 221.313C2563.2 221.243 2552.77 218.246 2543.7 212.647C2539.39 216.345 2534.28 218.967 2528.77 220.301C2523.27 221.634 2517.52 221.64 2512.02 220.319C2506.51 218.998 2501.39 216.386 2497.07 212.698C2492.76 209.009 2489.38 204.349 2487.2 199.096C2485.02 193.843 2484.11 188.147 2484.54 182.474C2484.97 176.8 2486.73 171.309 2489.68 166.449C2492.63 161.59 2496.67 157.499 2501.49 154.511C2506.31 151.523 2511.77 149.722 2517.41 149.256V149.256Z" fill="url(#paint21_linear)"/>
<path style="mix-blend-mode:screen" d="M2436.22 161.392C2437.69 155.08 2441.25 149.455 2446.31 145.43C2451.36 141.406 2457.63 139.219 2464.08 139.225C2470.53 139.231 2476.8 141.43 2481.85 145.464C2486.9 149.498 2490.44 155.13 2491.9 161.444C2494.62 161.759 2497.23 162.707 2499.52 164.212C2501.81 165.717 2503.72 167.739 2505.1 170.116C2506.48 172.493 2507.28 175.161 2507.45 177.905C2507.62 180.65 2507.15 183.397 2506.08 185.928C2505.01 188.458 2503.36 190.703 2501.28 192.483C2499.19 194.263 2496.72 195.529 2494.06 196.18C2491.4 196.832 2488.63 196.851 2485.96 196.237C2483.29 195.622 2480.8 194.391 2478.69 192.64C2474.21 195.323 2469.08 196.723 2463.86 196.688C2458.65 196.653 2453.54 195.185 2449.09 192.443C2446.98 194.255 2444.48 195.541 2441.78 196.195C2439.08 196.849 2436.27 196.853 2433.57 196.206C2430.87 195.559 2428.36 194.28 2426.25 192.472C2424.13 190.665 2422.48 188.381 2421.41 185.808C2420.34 183.234 2419.9 180.443 2420.11 177.663C2420.32 174.883 2421.18 172.193 2422.63 169.812C2424.07 167.431 2426.05 165.427 2428.42 163.963C2430.78 162.5 2433.45 161.619 2436.22 161.392V161.392Z" fill="url(#paint22_linear)"/>
<path style="mix-blend-mode:screen" opacity="0.74" d="M2261.89 242.156C2264.34 231.641 2270.26 222.269 2278.69 215.563C2287.11 208.858 2297.55 205.214 2308.3 205.225C2319.05 205.235 2329.47 208.9 2337.89 215.622C2346.3 222.344 2352.2 231.728 2354.63 242.248C2359.16 242.766 2363.51 244.34 2367.33 246.845C2371.15 249.35 2374.34 252.717 2376.63 256.676C2378.93 260.636 2380.27 265.08 2380.56 269.654C2380.84 274.228 2380.06 278.806 2378.28 283.023C2376.49 287.24 2373.75 290.979 2370.27 293.943C2366.79 296.907 2362.67 299.014 2358.24 300.096C2353.8 301.178 2349.18 301.206 2344.74 300.176C2340.29 299.146 2336.15 297.087 2332.63 294.164C2325.17 298.635 2316.63 300.969 2307.94 300.912C2299.25 300.856 2290.74 298.411 2283.34 293.842C2279.83 296.859 2275.66 298.999 2271.16 300.087C2266.67 301.175 2261.99 301.18 2257.49 300.103C2253 299.025 2248.82 296.895 2245.31 293.886C2241.79 290.877 2239.03 287.075 2237.25 282.789C2235.47 278.504 2234.73 273.858 2235.08 269.23C2235.44 264.601 2236.87 260.122 2239.28 256.158C2241.68 252.194 2244.98 248.857 2248.92 246.42C2252.85 243.983 2257.3 242.515 2261.9 242.136L2261.89 242.156Z" fill="url(#paint23_linear)"/>
<path style="mix-blend-mode:screen" opacity="0.74" d="M3790.74 245.451C3793.19 234.936 3799.11 225.564 3807.54 218.858C3815.96 212.153 3826.4 208.509 3837.15 208.52C3847.9 208.53 3858.32 212.195 3866.74 218.917C3875.15 225.639 3881.05 235.023 3883.48 245.543C3888.01 246.061 3892.36 247.635 3896.18 250.14C3900 252.645 3903.19 256.011 3905.48 259.971C3907.78 263.931 3909.12 268.375 3909.41 272.949C3909.69 277.523 3908.91 282.101 3907.13 286.318C3905.34 290.535 3902.6 294.274 3899.12 297.238C3895.64 300.202 3891.52 302.309 3887.09 303.391C3882.65 304.473 3878.03 304.5 3873.59 303.471C3869.14 302.441 3865 300.382 3861.48 297.459C3854.02 301.93 3845.48 304.264 3836.79 304.207C3828.1 304.151 3819.59 301.706 3812.19 297.137C3808.68 300.154 3804.51 302.294 3800.01 303.382C3795.52 304.47 3790.84 304.475 3786.34 303.398C3781.85 302.32 3777.67 300.189 3774.16 297.181C3770.64 294.172 3767.88 290.369 3766.1 286.084C3764.32 281.799 3763.58 277.153 3763.93 272.525C3764.29 267.896 3765.72 263.417 3768.13 259.453C3770.53 255.489 3773.83 252.152 3777.77 249.715C3781.7 247.278 3786.15 245.81 3790.75 245.431L3790.74 245.451Z" fill="url(#paint24_linear)"/>
<path style="mix-blend-mode:screen" opacity="0.74" d="M3075.41 181.201C3077.86 170.686 3083.78 161.314 3092.2 154.608C3100.63 147.903 3111.07 144.259 3121.81 144.27C3132.56 144.28 3142.99 147.945 3151.41 154.667C3159.82 161.389 3165.72 170.773 3168.15 181.293C3172.68 181.811 3177.03 183.385 3180.85 185.89C3184.67 188.395 3187.86 191.761 3190.15 195.721C3192.45 199.681 3193.79 204.125 3194.08 208.699C3194.36 213.273 3193.58 217.851 3191.79 222.068C3190.01 226.285 3187.26 230.024 3183.79 232.988C3180.31 235.952 3176.19 238.059 3171.75 239.141C3167.32 240.223 3162.7 240.25 3158.25 239.221C3153.81 238.191 3149.66 236.132 3146.15 233.209C3138.69 237.68 3130.15 240.014 3121.46 239.957C3112.77 239.901 3104.26 237.456 3096.86 232.887C3093.34 235.904 3089.17 238.044 3084.68 239.132C3080.19 240.22 3075.51 240.225 3071.01 239.148C3066.52 238.07 3062.34 235.939 3058.82 232.931C3055.3 229.922 3052.54 226.119 3050.77 221.834C3048.99 217.549 3048.25 212.903 3048.6 208.275C3048.95 203.646 3050.39 199.167 3052.79 195.203C3055.2 191.239 3058.5 187.902 3062.43 185.465C3066.37 183.028 3070.82 181.56 3075.42 181.181L3075.41 181.201Z" fill="url(#paint25_linear)"/>
</g>
<defs>
<linearGradient id="paint0_linear" x1="1917.87" y1="-11.3334" x2="1917.87" y2="215.37" gradientUnits="userSpaceOnUse">
<stop offset="0.54" stop-color="#B3D1D1"/>
<stop offset="1"/>
</linearGradient>
<linearGradient id="paint1_linear" x1="1098.07" y1="68.9752" x2="1098.07" y2="295.679" gradientUnits="userSpaceOnUse">
<stop offset="0.54" stop-color="#B3D1D1"/>
<stop offset="1"/>
</linearGradient>
<linearGradient id="paint2_linear" x1="-13594.5" y1="10941.4" x2="-13594.5" y2="20651.7" gradientUnits="userSpaceOnUse">
<stop offset="0.54" stop-color="#B3D1D1"/>
<stop offset="1"/>
</linearGradient>
<linearGradient id="paint3_linear" x1="-13272.4" y1="10794.9" x2="-13272.4" y2="20505.2" gradientUnits="userSpaceOnUse">
<stop offset="0.54" stop-color="#B3D1D1"/>
<stop offset="1"/>
</linearGradient>
<linearGradient id="paint4_linear" x1="-12717.8" y1="10906.4" x2="-12717.8" y2="20616.7" gradientUnits="userSpaceOnUse">
<stop offset="0.54" stop-color="#B3D1D1"/>
<stop offset="1"/>
</linearGradient>
<linearGradient id="paint5_linear" x1="-3206.13" y1="5461.17" x2="-3206.13" y2="8083.27" gradientUnits="userSpaceOnUse">
<stop offset="0.54" stop-color="#B3D1D1"/>
<stop offset="1"/>
</linearGradient>
<linearGradient id="paint6_linear" x1="-3881.59" y1="5463.35" x2="-3881.59" y2="8085.46" gradientUnits="userSpaceOnUse">
<stop offset="0.54" stop-color="#B3D1D1"/>
<stop offset="1"/>
</linearGradient>
<linearGradient id="paint7_linear" x1="-23720.8" y1="-8440.54" x2="-23720.8" y2="18487.7" gradientUnits="userSpaceOnUse">
<stop offset="0.54" stop-color="#B3D1D1"/>
<stop offset="1"/>
</linearGradient>
<linearGradient id="paint8_linear" x1="378.684" y1="-31.3334" x2="378.684" y2="195.37" gradientUnits="userSpaceOnUse">
<stop offset="0.54" stop-color="#B3D1D1"/>
<stop offset="1"/>
</linearGradient>
<linearGradient id="paint9_linear" x1="-14524.4" y1="10801.7" x2="-14524.4" y2="20511.9" gradientUnits="userSpaceOnUse">
<stop offset="0.54" stop-color="#B3D1D1"/>
<stop offset="1"/>
</linearGradient>
<linearGradient id="paint10_linear" x1="-24805.4" y1="-8377.5" x2="-24805.4" y2="18550.7" gradientUnits="userSpaceOnUse">
<stop offset="0.54" stop-color="#B3D1D1"/>
<stop offset="1"/>
</linearGradient>
<linearGradient id="paint11_linear" x1="-23276.6" y1="-8374.2" x2="-23276.6" y2="18554" gradientUnits="userSpaceOnUse">
<stop offset="0.54" stop-color="#B3D1D1"/>
<stop offset="1"/>
</linearGradient>
<linearGradient id="paint12_linear" x1="-23991.9" y1="-8438.45" x2="-23991.9" y2="18489.7" gradientUnits="userSpaceOnUse">
<stop offset="0.54" stop-color="#B3D1D1"/>
<stop offset="1"/>
</linearGradient>
<linearGradient id="paint13_linear" x1="4112.87" y1="-11.3334" x2="4112.87" y2="215.37" gradientUnits="userSpaceOnUse">
<stop offset="0.54" stop-color="#B3D1D1"/>
<stop offset="1"/>
</linearGradient>
<linearGradient id="paint14_linear" x1="3293.07" y1="68.9752" x2="3293.07" y2="295.679" gradientUnits="userSpaceOnUse">
<stop offset="0.54" stop-color="#B3D1D1"/>
<stop offset="1"/>
</linearGradient>
<linearGradient id="paint15_linear" x1="-11399.5" y1="10941.4" x2="-11399.5" y2="20651.7" gradientUnits="userSpaceOnUse">
<stop offset="0.54" stop-color="#B3D1D1"/>
<stop offset="1"/>
</linearGradient>
<linearGradient id="paint16_linear" x1="-11077.4" y1="10794.9" x2="-11077.4" y2="20505.2" gradientUnits="userSpaceOnUse">
<stop offset="0.54" stop-color="#B3D1D1"/>
<stop offset="1"/>
</linearGradient>
<linearGradient id="paint17_linear" x1="-10522.9" y1="10906.4" x2="-10522.9" y2="20616.7" gradientUnits="userSpaceOnUse">
<stop offset="0.54" stop-color="#B3D1D1"/>
<stop offset="1"/>
</linearGradient>
<linearGradient id="paint18_linear" x1="-1011.13" y1="5461.17" x2="-1011.13" y2="8083.27" gradientUnits="userSpaceOnUse">
<stop offset="0.54" stop-color="#B3D1D1"/>
<stop offset="1"/>
</linearGradient>
<linearGradient id="paint19_linear" x1="-1686.59" y1="5463.35" x2="-1686.59" y2="8085.46" gradientUnits="userSpaceOnUse">
<stop offset="0.54" stop-color="#B3D1D1"/>
<stop offset="1"/>
</linearGradient>
<linearGradient id="paint20_linear" x1="-21525.8" y1="-8440.54" x2="-21525.8" y2="18487.7" gradientUnits="userSpaceOnUse">
<stop offset="0.54" stop-color="#B3D1D1"/>
<stop offset="1"/>
</linearGradient>
<linearGradient id="paint21_linear" x1="2573.68" y1="-31.3334" x2="2573.68" y2="195.37" gradientUnits="userSpaceOnUse">
<stop offset="0.54" stop-color="#B3D1D1"/>
<stop offset="1"/>
</linearGradient>
<linearGradient id="paint22_linear" x1="-12329.4" y1="10801.7" x2="-12329.4" y2="20511.9" gradientUnits="userSpaceOnUse">
<stop offset="0.54" stop-color="#B3D1D1"/>
<stop offset="1"/>
</linearGradient>
<linearGradient id="paint23_linear" x1="-22610.4" y1="-8377.5" x2="-22610.4" y2="18550.7" gradientUnits="userSpaceOnUse">
<stop offset="0.54" stop-color="#B3D1D1"/>
<stop offset="1"/>
</linearGradient>
<linearGradient id="paint24_linear" x1="-21081.6" y1="-8374.2" x2="-21081.6" y2="18554" gradientUnits="userSpaceOnUse">
<stop offset="0.54" stop-color="#B3D1D1"/>
<stop offset="1"/>
</linearGradient>
<linearGradient id="paint25_linear" x1="-21796.9" y1="-8438.45" x2="-21796.9" y2="18489.7" gradientUnits="userSpaceOnUse">
<stop offset="0.54" stop-color="#B3D1D1"/>
<stop offset="1"/>
</linearGradient>
</defs>
</svg>
