<?xml version="1.0" encoding="UTF-8"?>
<svg fill="none" viewBox="0 0 2589 985" xmlns="http://www.w3.org/2000/svg">
<g opacity=".5">
<path d="m1256.2 135.77c-1.42-6.036-4.83-11.416-9.69-15.265-4.86-3.848-10.88-5.94-17.08-5.934s-12.21 2.11-17.07 5.968c-4.85 3.858-8.25 9.245-9.66 15.283-2.61 0.3-5.12 1.205-7.32 2.644s-4.04 3.372-5.36 5.646-2.1 4.825-2.26 7.451c-0.17 2.626 0.28 5.254 1.31 7.674 1.03 2.421 2.61 4.569 4.62 6.271 2 1.702 4.38 2.913 6.94 3.536 2.55 0.623 5.22 0.64 7.78 0.051 2.57-0.589 4.96-1.768 6.98-3.444 4.31 2.566 9.24 3.904 14.25 3.871s9.92-1.437 14.19-4.059c2.02 1.732 4.43 2.961 7.02 3.585 2.59 0.625 5.29 0.628 7.89 9e-3 2.59-0.619 5-1.842 7.03-3.57s3.62-3.911 4.64-6.372c1.03-2.46 1.46-5.128 1.25-7.786-0.2-2.657-1.03-5.229-2.41-7.506-1.39-2.276-3.29-4.192-5.56-5.592-2.27-1.399-4.84-2.243-7.49-2.461z" fill="url(#ai)" style="mix-blend-mode:screen"/>
<path d="m1594.7 88.783c-1.41-6.036-4.83-11.416-9.69-15.265s-10.87-5.9402-17.07-5.9341-12.22 2.1092-17.07 5.9675-8.25 9.2448-9.66 15.284c-2.61 0.2993-5.12 1.2045-7.32 2.6436s-4.04 3.3724-5.36 5.6461c-1.33 2.2736-2.1 4.8253-2.27 7.4503-0.16 2.626 0.29 5.254 1.32 7.675s2.61 4.568 4.62 6.271c2 1.702 4.38 2.913 6.93 3.536 2.56 0.622 5.23 0.64 7.79 0.051s4.95-1.769 6.98-3.445c4.31 2.566 9.23 3.905 14.25 3.872 5.01-0.033 9.92-1.437 14.19-4.059 2.02 1.732 4.43 2.96 7.02 3.585 2.59 0.624 5.29 0.627 7.88 8e-3 2.6-0.619 5.01-1.842 7.04-3.57 2.02-1.727 3.62-3.91 4.64-6.371 1.03-2.46 1.45-5.128 1.25-7.786s-1.03-5.2295-2.42-7.5059c-1.38-2.2764-3.29-4.1926-5.56-5.5922-2.26-1.3996-4.83-2.243-7.49-2.4612z" fill="url(#x)" style="mix-blend-mode:screen"/>
<path d="m911.14 105.28c-1.415-6.0363-4.83-11.416-9.69-15.265-4.859-3.8488-10.878-5.9402-17.077-5.9341s-12.213 2.1092-17.065 5.9675-8.257 9.2448-9.66 15.284c-2.613 0.299-5.121 1.204-7.323 2.644-2.203 1.439-4.039 3.372-5.362 5.646-1.324 2.273-2.099 4.825-2.263 7.45-0.164 2.626 0.286 5.254 1.316 7.675s2.611 4.568 4.617 6.271c2.006 1.702 4.381 2.913 6.937 3.536 2.556 0.622 5.222 0.64 7.786 0.051s4.955-1.769 6.983-3.445c4.305 2.566 9.231 3.905 14.243 3.872s9.919-1.437 14.191-4.059c2.025 1.732 4.432 2.96 7.023 3.585 2.59 0.624 5.292 0.627 7.884 8e-3 2.593-0.619 5.002-1.842 7.031-3.57 2.03-1.727 3.622-3.91 4.646-6.371 1.025-2.46 1.454-5.128 1.251-7.786s-1.031-5.23-2.418-7.506c-1.386-2.276-3.291-4.192-5.559-5.592s-4.835-2.243-7.491-2.461z" fill="url(#m)" style="mix-blend-mode:screen"/>
<path d="m1195.4 159.93c-0.7-2.956-2.37-5.591-4.75-7.476-2.38-1.886-5.33-2.91-8.36-2.907-3.04 3e-3 -5.99 1.033-8.36 2.922-2.38 1.89-4.05 4.528-4.74 7.486-1.27 0.147-2.5 0.591-3.58 1.296s-1.98 1.652-2.62 2.766c-0.65 1.113-1.03 2.363-1.11 3.648-0.08 1.286 0.14 2.573 0.64 3.758 0.51 1.186 1.28 2.237 2.26 3.071 0.99 0.833 2.15 1.426 3.4 1.732 1.25 0.305 2.56 0.314 3.81 0.026 1.26-0.288 2.43-0.865 3.42-1.685 2.11 1.257 4.52 1.913 6.98 1.896 2.45-0.016 4.86-0.704 6.95-1.988 0.99 0.849 2.17 1.451 3.44 1.758 1.27 0.306 2.59 0.308 3.86 5e-3s2.46-0.903 3.45-1.749c0.99-0.847 1.77-1.916 2.28-3.122 0.5-1.206 0.71-2.513 0.61-3.815s-0.51-2.563-1.19-3.678-1.61-2.054-2.72-2.739c-1.11-0.686-2.37-1.098-3.67-1.205z" fill="url(#g)" style="mix-blend-mode:screen"/>
<path d="m1632.9 94.465c-0.69-2.9564-2.37-5.5914-4.75-7.4765-2.38-1.8852-5.32-2.9096-8.36-2.9068-3.04 0.0029-5.98 1.0329-8.36 2.9225s-4.04 4.5277-4.73 7.4855c-1.28 0.1473-2.51 0.5913-3.59 1.2964-1.08 0.7052-1.97 1.6522-2.62 2.7657s-1.03 2.3629-1.11 3.6489c-0.08 1.285 0.14 2.572 0.65 3.757 0.5 1.186 1.27 2.237 2.26 3.071 0.98 0.834 2.14 1.427 3.39 1.732s2.56 0.314 3.82 0.026c1.25-0.288 2.42-0.865 3.42-1.685 2.1 1.257 4.52 1.913 6.97 1.897 2.46-0.017 4.86-0.704 6.95-1.989 1 0.849 2.17 1.451 3.44 1.758 1.27 0.306 2.6 0.308 3.87 5e-3s2.45-0.903 3.44-1.749c1-0.847 1.78-1.916 2.28-3.122 0.5-1.205 0.71-2.513 0.61-3.815s-0.5-2.5624-1.18-3.6776c-0.68-1.1153-1.62-2.054-2.73-2.7394-1.11-0.6855-2.37-1.0983-3.67-1.2047z" fill="url(#f)" style="mix-blend-mode:screen"/>
<path d="m1043.8 91.313c-0.7-2.9564-2.37-5.5914-4.75-7.4766-2.38-1.8851-5.33-2.9096-8.37-2.9067-3.03 0.0028-5.98 1.0328-8.35 2.9224-2.38 1.8896-4.05 4.5278-4.74 7.4855-1.28 0.1474-2.5 0.5913-3.58 1.2965s-1.98 1.6522-2.63 2.7657c-0.64 1.1135-1.02 2.3628-1.1 3.6485s0.14 2.5727 0.64 3.7577c0.51 1.185 1.28 2.237 2.26 3.07 0.98 0.834 2.15 1.427 3.4 1.732 1.25 0.306 2.55 0.315 3.81 0.027s2.43-0.865 3.42-1.685c2.11 1.257 4.52 1.913 6.98 1.896 2.45-0.016 4.86-0.704 6.95-1.988 0.99 0.849 2.17 1.451 3.44 1.757 1.27 0.307 2.59 0.309 3.86 5e-3 1.27-0.303 2.45-0.902 3.45-1.748 0.99-0.847 1.77-1.917 2.27-3.122 0.51-1.206 0.72-2.513 0.62-3.8153-0.1-1.3022-0.51-2.5624-1.19-3.6777-0.68-1.1152-1.61-2.0539-2.72-2.7394-1.12-0.6854-2.37-1.0982-3.67-1.2046z" fill="url(#e)" style="mix-blend-mode:screen"/>
<path d="m1167.1 136.67c-0.36-1.534-1.23-2.901-2.46-3.88-1.24-0.979-2.77-1.512-4.34-1.512-1.58 0-3.11 0.533-4.34 1.512-1.24 0.979-2.11 2.346-2.47 3.88-0.67 0.072-1.31 0.3-1.87 0.665-0.57 0.366-1.04 0.858-1.38 1.439s-0.54 1.233-0.59 1.905c-0.04 0.671 0.08 1.344 0.34 1.963 0.26 0.62 0.67 1.169 1.18 1.604 0.52 0.434 1.12 0.742 1.78 0.9 0.65 0.157 1.34 0.158 1.99 4e-3 0.66-0.154 1.27-0.46 1.78-0.892 1.1 0.651 2.35 0.991 3.62 0.982 1.28-9e-3 2.53-0.365 3.61-1.031 0.52 0.451 1.13 0.773 1.79 0.94 0.67 0.166 1.36 0.173 2.03 0.018 0.66-0.154 1.28-0.465 1.8-0.906 0.53-0.442 0.94-1.001 1.2-1.632 0.26-0.632 0.37-1.316 0.32-1.998s-0.27-1.341-0.63-1.923c-0.36-0.583-0.85-1.071-1.43-1.425-0.59-0.355-1.25-0.565-1.93-0.613z" fill="url(#d)" opacity=".74" style="mix-blend-mode:screen"/>
<path d="m1484.9 137.69c-0.36-1.534-1.22-2.901-2.46-3.88-1.23-0.979-2.76-1.511-4.34-1.511-1.57 0-3.1 0.532-4.34 1.511-1.23 0.979-2.1 2.346-2.46 3.88-0.67 0.073-1.31 0.3-1.88 0.666-0.56 0.365-1.04 0.858-1.38 1.438-0.34 0.581-0.54 1.233-0.58 1.905s0.07 1.344 0.34 1.964c0.26 0.619 0.66 1.168 1.18 1.603 0.51 0.435 1.12 0.743 1.77 0.9 0.66 0.157 1.34 0.159 2 4e-3 0.65-0.154 1.26-0.459 1.78-0.892 1.09 0.651 2.35 0.991 3.62 0.982 1.27-8e-3 2.52-0.365 3.61-1.031 0.51 0.451 1.13 0.773 1.79 0.94s1.36 0.173 2.02 0.019c0.67-0.155 1.29-0.466 1.81-0.907s0.93-1.001 1.2-1.632c0.26-0.631 0.37-1.316 0.32-1.998-0.06-0.682-0.27-1.341-0.63-1.923s-0.85-1.071-1.44-1.425c-0.58-0.354-1.24-0.564-1.93-0.613z" fill="url(#c)" opacity=".74" style="mix-blend-mode:screen"/>
<path d="m1204.6 102.77c-1.15-4.9254-3.94-9.3156-7.9-12.456-3.97-3.1409-8.88-4.8477-13.93-4.8427-5.06 5e-3 -9.97 1.7214-13.93 4.8702-3.96 3.1487-6.73 7.5444-7.88 12.472-2.13 0.243-4.18 0.98-5.97 2.153-1.8 1.174-3.3 2.751-4.38 4.605-1.08 1.855-1.71 3.937-1.85 6.079-0.13 2.143 0.24 4.287 1.08 6.262 0.84 1.976 2.13 3.727 3.76 5.116 1.64 1.388 3.58 2.375 5.67 2.882 2.08 0.507 4.26 0.519 6.35 0.037s4.04-1.447 5.69-2.816c3.52 2.095 7.53 3.188 11.62 3.161 4.09-0.026 8.1-1.172 11.58-3.312 1.65 1.414 3.61 2.416 5.73 2.926 2.11 0.509 4.32 0.512 6.43 7e-3 2.12-0.505 4.08-1.503 5.74-2.912 1.65-1.41 2.95-3.191 3.79-5.198 0.83-2.007 1.18-4.183 1.02-6.351-0.17-2.168-0.85-4.266-1.98-6.123s-2.68-3.42-4.53-4.562c-1.85-1.141-3.95-1.829-6.11-2.006v9e-3z" fill="url(#b)" opacity=".74" style="mix-blend-mode:screen"/>
<path d="m1714.9 132.3c-1.15-4.925-3.94-9.315-7.9-12.456-3.97-3.141-8.88-4.848-13.93-4.843-5.06 5e-3 -9.97 1.722-13.93 4.87-3.96 3.149-6.73 7.545-7.88 12.472-2.13 0.243-4.18 0.98-5.97 2.154-1.8 1.173-3.3 2.75-4.38 4.605s-1.71 3.936-1.85 6.079c-0.13 2.142 0.24 4.287 1.08 6.262s2.13 3.727 3.76 5.115c1.64 1.388 3.58 2.375 5.67 2.882 2.08 0.507 4.26 0.52 6.35 0.037 2.09-0.482 4.04-1.446 5.69-2.815 3.52 2.094 7.53 3.187 11.62 3.16 4.09-0.026 8.09-1.171 11.58-3.311 1.65 1.413 3.61 2.415 5.73 2.925 2.11 0.509 4.32 0.512 6.43 7e-3s4.08-1.503 5.74-2.912c1.65-1.409 2.95-3.19 3.79-5.198 0.83-2.007 1.18-4.183 1.02-6.351-0.17-2.168-0.85-4.266-1.98-6.123s-2.68-3.42-4.53-4.561c-1.85-1.142-3.95-1.829-6.11-2.007v9e-3z" fill="url(#a)" opacity=".74" style="mix-blend-mode:screen"/>
<path d="m995.52 133.84c-1.153-4.925-3.938-9.315-7.903-12.456s-8.876-4.848-13.934-4.843c-5.057 5e-3 -9.965 1.721-13.923 4.87-3.959 3.149-6.736 7.545-7.879 12.472-2.133 0.243-4.179 0.98-5.977 2.154-1.797 1.173-3.296 2.75-4.377 4.605-1.08 1.855-1.713 3.936-1.847 6.079-0.134 2.142 0.234 4.286 1.075 6.262 0.841 1.975 2.131 3.726 3.768 5.115 1.637 1.388 3.576 2.375 5.662 2.882 2.085 0.507 4.261 0.52 6.352 0.037 2.092-0.482 4.042-1.446 5.695-2.816 3.512 2.095 7.53 3.188 11.619 3.161 4.089-0.026 8.092-1.172 11.576-3.311 1.653 1.413 3.616 2.415 5.729 2.925 2.114 0.509 4.318 0.512 6.432 7e-3 2.115-0.505 4.079-1.503 5.739-2.912 1.65-1.409 2.95-3.19 3.79-5.198 0.83-2.007 1.18-4.183 1.02-6.351-0.17-2.168-0.85-4.266-1.98-6.123s-2.68-3.42-4.53-4.561c-1.852-1.142-3.946-1.83-6.113-2.007l6e-3 9e-3z" fill="url(#ah)" opacity=".74" style="mix-blend-mode:screen"/>
<path d="m1332.1 103.74c-1.15-4.9249-3.93-9.3151-7.9-12.456-3.96-3.1409-8.87-4.8477-13.93-4.8427s-9.97 1.7215-13.93 4.8702c-3.95 3.1488-6.73 7.5445-7.87 12.472-2.14 0.242-4.18 0.98-5.98 2.153s-3.3 2.75-4.38 4.605-1.71 3.937-1.85 6.079c-0.13 2.143 0.24 4.287 1.08 6.262s2.13 3.727 3.77 5.115c1.63 1.389 3.57 2.376 5.66 2.882 2.08 0.507 4.26 0.52 6.35 0.038 2.09-0.483 4.04-1.447 5.7-2.816 3.51 2.094 7.53 3.187 11.62 3.161 4.08-0.027 8.09-1.172 11.57-3.312 1.65 1.413 3.62 2.415 5.73 2.925s4.32 0.512 6.43 7e-3c2.12-0.504 4.08-1.502 5.74-2.912 1.65-1.409 2.95-3.19 3.79-5.197 0.83-2.007 1.18-4.184 1.02-6.352-0.17-2.168-0.84-4.266-1.97-6.123-1.14-1.857-2.69-3.42-4.54-4.561-1.85-1.142-3.94-1.829-6.11-2.007v9e-3z" fill="url(#ag)" opacity=".74" style="mix-blend-mode:screen"/>
</g>
<g opacity=".5">
<path d="m472.43 142.9c1.414-6.036 4.829-11.416 9.689-15.265 4.859-3.848 10.878-5.94 17.077-5.934s12.213 2.109 17.066 5.968c4.852 3.858 8.256 9.245 9.659 15.283 2.614 0.3 5.121 1.205 7.324 2.644 2.202 1.439 4.038 3.372 5.361 5.646 1.324 2.274 2.099 4.825 2.263 7.451 0.165 2.625-0.286 5.253-1.316 7.674s-2.611 4.568-4.617 6.271c-2.005 1.702-4.381 2.913-6.937 3.536s-5.222 0.64-7.786 0.051c-2.563-0.589-4.954-1.768-6.982-3.444-4.306 2.566-9.232 3.904-14.244 3.871s-9.919-1.437-14.19-4.059c-2.026 1.732-4.432 2.96-7.023 3.585s-5.293 0.628-7.885 9e-3 -5.002-1.843-7.031-3.57c-2.029-1.728-3.621-3.911-4.646-6.372-1.025-2.46-1.453-5.128-1.251-7.786 0.203-2.657 1.032-5.229 2.418-7.506 1.386-2.276 3.291-4.192 5.559-5.592 2.269-1.399 4.835-2.243 7.492-2.461z" fill="url(#af)" style="mix-blend-mode:screen"/>
<path d="m133.93 95.914c1.414-6.036 4.829-11.416 9.689-15.265s10.878-5.9402 17.077-5.9341c6.199 6e-3 12.214 2.1092 17.066 5.9675s8.256 9.2448 9.659 15.284c2.614 0.2992 5.121 1.2044 7.324 2.6435 2.202 1.4396 4.038 3.3726 5.362 5.6466 1.323 2.273 2.098 4.824 2.262 7.45 0.165 2.626-0.286 5.254-1.316 7.675s-2.611 4.568-4.616 6.27c-2.006 1.703-4.382 2.914-6.937 3.536-2.556 0.623-5.222 0.641-7.786 0.052s-4.955-1.769-6.983-3.445c-4.306 2.566-9.231 3.905-14.243 3.872s-9.92-1.437-14.191-4.06c-2.026 1.733-4.432 2.961-7.023 3.586-2.591 0.624-5.293 0.627-7.885 8e-3s-5.001-1.842-7.031-3.57c-2.029-1.727-3.621-3.911-4.646-6.371s-1.453-5.128-1.25-7.786 1.031-5.23 2.417-7.506c1.387-2.276 3.292-4.1926 5.56-5.5922 2.268-1.3997 4.835-2.243 7.491-2.4612z" fill="url(#ae)" style="mix-blend-mode:screen"/>
<path d="m533.27 167.06c0.693-2.956 2.366-5.591 4.746-7.477 2.381-1.885 5.329-2.909 8.365-2.906s5.982 1.033 8.359 2.922c2.377 1.89 4.045 4.528 4.732 7.486 1.28 0.147 2.508 0.591 3.585 1.296 1.078 0.705 1.977 1.652 2.625 2.766 0.647 1.113 1.027 2.363 1.107 3.648 0.08 1.286-0.141 2.573-0.645 3.758-0.505 1.185-1.279 2.237-2.261 3.07-0.982 0.834-2.144 1.427-3.396 1.732-1.251 0.306-2.557 0.315-3.812 0.027-1.256-0.288-2.427-0.865-3.42-1.685-2.109 1.257-4.522 1.913-6.977 1.896-2.455-0.016-4.859-0.704-6.951-1.988-0.992 0.849-2.171 1.451-3.44 1.757-1.27 0.307-2.594 0.309-3.864 5e-3 -1.27-0.303-2.451-0.902-3.445-1.748-0.995-0.847-1.775-1.917-2.277-3.122-0.502-1.206-0.712-2.513-0.612-3.815 0.099-1.303 0.506-2.563 1.185-3.678 0.68-1.115 1.613-2.054 2.725-2.739 1.111-0.686 2.369-1.099 3.671-1.205z" fill="url(#ad)" style="mix-blend-mode:screen"/>
<path d="m95.719 101.6c0.6932-2.9563 2.3659-5.5913 4.746-7.4764 2.381-1.8852 5.329-2.9096 8.365-2.9068 3.036 0.0029 5.982 1.0329 8.359 2.9225s4.045 4.5277 4.732 7.4857c1.28 0.147 2.508 0.591 3.586 1.296s1.976 1.652 2.624 2.766c0.648 1.113 1.027 2.363 1.107 3.648 0.08 1.286-0.141 2.573-0.645 3.758-0.505 1.186-1.278 2.237-2.26 3.071-0.982 0.833-2.145 1.426-3.397 1.732-1.251 0.305-2.557 0.314-3.812 0.026-1.256-0.288-2.427-0.865-3.42-1.685-2.109 1.257-4.522 1.913-6.977 1.896-2.455-0.016-4.858-0.704-6.951-1.988-0.992 0.849-2.1709 1.451-3.4403 1.758-1.2694 0.306-2.5933 0.308-3.8635 5e-3s-2.4508-0.903-3.4452-1.749c-0.9944-0.847-1.7745-1.916-2.2766-3.122s-0.7119-2.513-0.6124-3.815c0.0996-1.302 0.5057-2.563 1.1852-3.678 0.6796-1.115 1.6133-2.054 2.7248-2.739 1.1115-0.686 2.3694-1.098 3.671-1.205z" fill="url(#ac)" style="mix-blend-mode:screen"/>
<path d="m684.84 98.442c0.693-2.9564 2.366-5.5914 4.746-7.4766 2.381-1.8851 5.329-2.9096 8.365-2.9067s5.982 1.0328 8.359 2.9224 4.045 4.5278 4.733 7.4855c1.279 0.1474 2.507 0.5913 3.585 1.2965 1.078 0.705 1.976 1.652 2.624 2.766 0.648 1.113 1.027 2.362 1.107 3.648s-0.141 2.573-0.645 3.758-1.278 2.237-2.26 3.07c-0.982 0.834-2.145 1.427-3.397 1.732-1.251 0.306-2.556 0.315-3.812 0.027-1.255-0.288-2.426-0.865-3.42-1.685-2.109 1.257-4.522 1.912-6.977 1.896s-4.858-0.704-6.951-1.988c-0.992 0.849-2.171 1.451-3.44 1.757-1.27 0.307-2.594 0.308-3.864 5e-3s-2.451-0.902-3.445-1.748c-0.994-0.847-1.774-1.917-2.277-3.122-0.502-1.206-0.711-2.513-0.612-3.815 0.1-1.303 0.506-2.563 1.185-3.678 0.68-1.115 1.614-2.054 2.725-2.7394 1.112-0.6855 2.37-1.0983 3.671-1.2047z" fill="url(#ab)" style="mix-blend-mode:screen"/>
<path d="m561.53 143.8c0.36-1.534 1.227-2.902 2.462-3.88 1.235-0.979 2.764-1.512 4.34-1.512s3.105 0.533 4.34 1.512c1.235 0.978 2.102 2.346 2.462 3.88 0.67 0.072 1.313 0.3 1.878 0.665s1.037 0.858 1.378 1.439c0.34 0.58 0.54 1.233 0.584 1.905 0.043 0.671-0.072 1.344-0.336 1.963-0.263 0.62-0.668 1.169-1.182 1.603-0.514 0.435-1.123 0.743-1.777 0.9-0.655 0.157-1.337 0.159-1.992 5e-3 -0.656-0.154-1.266-0.46-1.781-0.892-1.096 0.651-2.348 0.99-3.622 0.982-1.275-9e-3 -2.522-0.365-3.609-1.031-0.514 0.451-1.128 0.773-1.791 0.939-0.663 0.167-1.357 0.173-2.023 0.019s-1.286-0.465-1.808-0.906c-0.523-0.442-0.932-1.001-1.196-1.633-0.263-0.631-0.372-1.315-0.319-1.997 0.054-0.682 0.269-1.341 0.628-1.924 0.359-0.582 0.851-1.07 1.436-1.425 0.585-0.354 1.246-0.564 1.928-0.612z" fill="url(#aa)" opacity=".74" style="mix-blend-mode:screen"/>
<path d="m243.7 144.82c0.36-1.534 1.228-2.901 2.462-3.88 1.235-0.979 2.765-1.511 4.34-1.511 1.576 0 3.105 0.532 4.34 1.511s2.102 2.346 2.462 3.88c0.67 0.072 1.313 0.3 1.878 0.666 0.565 0.365 1.037 0.858 1.378 1.438 0.341 0.581 0.54 1.233 0.584 1.905 0.043 0.672-0.072 1.344-0.336 1.964-0.263 0.619-0.668 1.168-1.182 1.603s-1.123 0.743-1.777 0.9c-0.655 0.157-1.337 0.158-1.992 4e-3s-1.266-0.459-1.781-0.892c-1.096 0.651-2.348 0.991-3.622 0.982s-2.522-0.365-3.608-1.031c-0.515 0.451-1.129 0.773-1.792 0.94s-1.357 0.173-2.023 0.019c-0.666-0.155-1.286-0.466-1.808-0.907-0.523-0.441-0.932-1.001-1.196-1.632-0.263-0.631-0.372-1.316-0.319-1.998 0.054-0.682 0.269-1.341 0.628-1.923s0.851-1.071 1.436-1.425 1.246-0.564 1.928-0.613z" fill="url(#z)" opacity=".74" style="mix-blend-mode:screen"/>
<path d="m524.05 109.9c1.153-4.926 3.939-9.316 7.903-12.457 3.965-3.1409 8.876-4.8477 13.934-4.8427s9.965 1.7215 13.924 4.8702c3.958 3.1492 6.735 7.5442 7.878 12.472 2.133 0.242 4.18 0.98 5.977 2.153 1.798 1.173 3.296 2.75 4.377 4.605 1.08 1.855 1.713 3.937 1.847 6.079 0.134 2.143-0.234 4.287-1.074 6.262-0.841 1.976-2.132 3.727-3.769 5.116-1.637 1.388-3.575 2.375-5.661 2.882s-4.261 0.519-6.353 0.037c-2.092-0.483-4.042-1.447-5.695-2.816-3.512 2.094-7.53 3.188-11.619 3.161-4.088-0.027-8.092-1.172-11.576-3.312-1.652 1.413-3.615 2.416-5.729 2.925-2.114 0.51-4.318 0.512-6.432 8e-3 -2.115-0.505-4.08-1.503-5.736-2.912-1.655-1.41-2.954-3.191-3.79-5.198s-1.185-4.184-1.019-6.352c0.165-2.168 0.841-4.266 1.972-6.123 1.132-1.856 2.686-3.419 4.536-4.561 1.851-1.141 3.945-1.829 6.111-2.007l-6e-3 0.01z" fill="url(#y)" opacity=".74" style="mix-blend-mode:screen"/>
<path d="m13.688 139.43c1.153-4.925 3.9384-9.315 7.9031-12.456 3.9648-3.141 8.8756-4.848 13.934-4.843s9.9653 1.721 13.924 4.87c3.9586 3.149 6.7353 7.545 7.8785 12.472 2.1328 0.243 4.1794 0.98 5.9769 2.153 1.7975 1.174 3.2962 2.751 4.3768 4.606 1.0805 1.855 1.7131 3.936 1.8472 6.079 0.1342 2.142-0.2338 4.286-1.0745 6.262-0.8408 1.975-2.1311 3.726-3.7682 5.115-1.6371 1.388-3.5758 2.375-5.6616 2.882s-4.2611 0.52-6.3527 0.037c-2.0916-0.482-4.0417-1.446-5.6949-2.816-3.5119 2.095-7.53 3.188-11.619 3.161-4.0888-0.026-8.0923-1.172-11.577-3.311-1.6523 1.413-3.6153 2.415-5.7288 2.925-2.1135 0.509-4.3176 0.512-6.4323 7e-3 -2.1146-0.505-4.0799-1.503-5.7354-2.912-1.6555-1.41-2.9542-3.191-3.7901-5.198-0.83588-2.007-1.1853-4.183-1.0196-6.351 0.16565-2.168 0.84164-4.266 1.9728-6.123 1.1311-1.857 2.6853-3.42 4.5357-4.561 1.8504-1.142 3.9445-1.83 6.1113-2.007l-0.0062 9e-3z" fill="url(#w)" opacity=".74" style="mix-blend-mode:screen"/>
<path d="m733.09 140.97c1.153-4.925 3.939-9.316 7.903-12.456 3.965-3.141 8.876-4.848 13.934-4.843s9.965 1.721 13.924 4.87c3.958 3.149 6.735 7.544 7.878 12.472 2.133 0.243 4.18 0.98 5.977 2.153 1.798 1.174 3.296 2.751 4.377 4.606 1.08 1.854 1.713 3.936 1.847 6.079 0.134 2.142-0.234 4.286-1.074 6.262-0.841 1.975-2.131 3.726-3.769 5.115-1.637 1.388-3.575 2.375-5.661 2.882s-4.261 0.52-6.353 0.037c-2.092-0.482-4.042-1.447-5.695-2.816-3.512 2.095-7.53 3.188-11.619 3.161-4.088-0.026-8.092-1.172-11.576-3.312-1.652 1.414-3.615 2.416-5.729 2.926-2.113 0.509-4.317 0.512-6.432 7e-3s-4.08-1.503-5.736-2.912c-1.655-1.41-2.954-3.191-3.79-5.198s-1.185-4.183-1.019-6.351c0.165-2.168 0.841-4.266 1.973-6.123 1.131-1.857 2.685-3.42 4.535-4.562 1.851-1.141 3.945-1.829 6.111-2.006l-6e-3 9e-3z" fill="url(#v)" opacity=".74" style="mix-blend-mode:screen"/>
<path d="m396.49 110.88c1.153-4.925 3.938-9.315 7.903-12.456 3.965-3.1409 8.875-4.8477 13.933-4.8427s9.966 1.7215 13.924 4.8702c3.959 3.1486 6.735 7.5446 7.879 12.472 2.132 0.243 4.179 0.98 5.976 2.154 1.798 1.173 3.297 2.75 4.377 4.605 1.081 1.855 1.713 3.936 1.848 6.079 0.134 2.142-0.234 4.287-1.075 6.262s-2.131 3.727-3.768 5.115c-1.637 1.389-3.576 2.376-5.662 2.882-2.086 0.507-4.261 0.52-6.353 0.037-2.091-0.482-4.041-1.446-5.694-2.815-3.512 2.094-7.53 3.187-11.619 3.161-4.089-0.027-8.092-1.172-11.577-3.312-1.652 1.413-3.615 2.415-5.729 2.925-2.113 0.51-4.317 0.512-6.432 7e-3 -2.114-0.505-4.08-1.502-5.735-2.912-1.656-1.409-2.954-3.19-3.79-5.197-0.836-2.008-1.186-4.184-1.02-6.352s0.842-4.266 1.973-6.123 2.685-3.42 4.536-4.561c1.85-1.142 3.944-1.829 6.111-2.007l-6e-3 9e-3z" fill="url(#u)" opacity=".74" style="mix-blend-mode:screen"/>
</g>
<g opacity=".5">
<path d="m2117.2 119.13c-1.41-6.036-4.83-11.415-9.69-15.264-4.85-3.849-10.87-5.9404-17.07-5.9343s-12.22 2.1093-17.07 5.9673c-4.85 3.859-8.25 9.245-9.66 15.284-2.61 0.299-5.12 1.204-7.32 2.643s-4.04 3.373-5.36 5.646c-1.33 2.274-2.1 4.825-2.27 7.451-0.16 2.626 0.29 5.254 1.32 7.675s2.61 4.568 4.62 6.27c2 1.703 4.38 2.914 6.93 3.536 2.56 0.623 5.23 0.641 7.79 0.051 2.56-0.589 4.96-1.768 6.98-3.444 4.31 2.566 9.23 3.905 14.25 3.872 5.01-0.033 9.92-1.437 14.19-4.06 2.02 1.732 4.43 2.961 7.02 3.586 2.59 0.624 5.29 0.627 7.88 8e-3 2.6-0.619 5.01-1.842 7.04-3.57 2.02-1.728 3.62-3.911 4.64-6.371 1.03-2.461 1.45-5.129 1.25-7.786-0.2-2.658-1.03-5.23-2.42-7.506-1.38-2.277-3.29-4.193-5.55-5.592-2.27-1.4-4.84-2.243-7.5-2.462z" fill="url(#t)" style="mix-blend-mode:screen"/>
<path d="m2455.7 72.144c-1.41-6.0359-4.83-11.416-9.69-15.264s-10.88-5.9402-17.07-5.9342c-6.2 0.0061-12.22 2.1093-17.07 5.9676s-8.26 9.2447-9.66 15.284c-2.61 0.2992-5.12 1.2044-7.32 2.6435-2.21 1.4391-4.04 3.3724-5.37 5.6461-1.32 2.2736-2.09 4.8249-2.26 7.4507-0.16 2.6259 0.29 5.2538 1.32 7.6748 1.03 2.4209 2.61 4.5685 4.62 6.2705 2 1.702 4.38 2.913 6.93 3.536 2.56 0.623 5.22 0.64 7.79 0.051 2.56-0.589 4.95-1.768 6.98-3.444 4.31 2.566 9.23 3.905 14.24 3.871 5.02-0.033 9.92-1.437 14.19-4.059 2.03 1.732 4.44 2.961 7.03 3.585 2.59 0.625 5.29 0.628 7.88 9e-3 2.6-0.619 5-1.842 7.03-3.57s3.63-3.9111 4.65-6.3715c1.02-2.4605 1.45-5.1284 1.25-7.7861-0.2-2.6576-1.03-5.2296-2.42-7.506-1.38-2.2763-3.29-4.1925-5.56-5.5922-2.26-1.3996-4.83-2.2429-7.49-2.4612z" fill="url(#s)" style="mix-blend-mode:screen"/>
<path d="m1772.1 88.644c-1.42-6.0359-4.83-11.416-9.69-15.264s-10.88-5.9402-17.08-5.9342c-6.2 0.0061-12.21 2.1093-17.06 5.9676-4.86 3.8583-8.26 9.2447-9.66 15.284-2.62 0.2992-5.12 1.2044-7.33 2.6435-2.2 1.4391-4.03 3.3724-5.36 5.6461-1.32 2.2736-2.1 4.825-2.26 7.451-0.17 2.626 0.29 5.254 1.32 7.674 1.03 2.421 2.61 4.569 4.61 6.271 2.01 1.702 4.38 2.913 6.94 3.536s5.22 0.64 7.78 0.051c2.57-0.589 4.96-1.768 6.99-3.444 4.3 2.566 9.23 3.904 14.24 3.871s9.92-1.437 14.19-4.059c2.03 1.732 4.43 2.961 7.02 3.585 2.6 0.625 5.3 0.628 7.89 9e-3s5-1.842 7.03-3.57 3.62-3.911 4.65-6.372c1.02-2.46 1.45-5.128 1.25-7.786-0.21-2.657-1.03-5.2292-2.42-7.5056-1.39-2.2763-3.29-4.1925-5.56-5.5922-2.27-1.3996-4.83-2.2429-7.49-2.4612z" fill="url(#r)" style="mix-blend-mode:screen"/>
<path d="m2056.3 143.29c-0.69-2.956-2.36-5.591-4.74-7.476s-5.33-2.91-8.37-2.907-5.98 1.033-8.36 2.923c-2.38 1.889-4.04 4.527-4.73 7.485-1.28 0.147-2.51 0.591-3.59 1.297-1.07 0.705-1.97 1.652-2.62 2.765-0.65 1.114-1.03 2.363-1.11 3.649-0.08 1.285 0.14 2.572 0.65 3.758 0.5 1.185 1.28 2.236 2.26 3.07s2.14 1.427 3.39 1.732c1.26 0.305 2.56 0.314 3.82 0.026 1.25-0.288 2.42-0.864 3.42-1.684 2.11 1.256 4.52 1.912 6.97 1.896 2.46-0.017 4.86-0.704 6.95-1.989 1 0.849 2.18 1.452 3.45 1.758 1.26 0.306 2.59 0.308 3.86 5e-3s2.45-0.902 3.44-1.749c1-0.846 1.78-1.916 2.28-3.122 0.5-1.205 0.71-2.513 0.61-3.815s-0.5-2.562-1.18-3.677c-0.68-1.116-1.62-2.054-2.73-2.74-1.11-0.685-2.37-1.098-3.67-1.205z" fill="url(#q)" style="mix-blend-mode:screen"/>
<path d="m2493.9 77.829c-0.69-2.9564-2.36-5.5914-4.74-7.4766-2.38-1.8851-5.33-2.9095-8.37-2.9067-3.03 0.0029-5.98 1.0328-8.36 2.9225-2.37 1.8896-4.04 4.5277-4.73 7.4854-1.28 0.1474-2.51 0.5913-3.59 1.2965-1.07 0.7052-1.97 1.6522-2.62 2.7657s-1.03 2.3628-1.11 3.6485 0.14 2.5724 0.65 3.7578c0.5 1.1854 1.28 2.2367 2.26 3.0704s2.14 1.4267 3.4 1.732c1.25 0.3053 2.55 0.3143 3.81 0.0264 1.25-0.2879 2.42-0.8647 3.42-1.6847 2.11 1.2566 4.52 1.9123 6.97 1.8961 2.46-0.0163 4.86-0.704 6.96-1.9885 0.99 0.8491 2.17 1.4514 3.44 1.7577 1.27 0.3064 2.59 0.3081 3.86 5e-3s2.45-0.9023 3.44-1.7489c1-0.8465 1.78-1.9162 2.28-3.1218s0.71-2.5129 0.61-3.8151-0.5-2.5624-1.18-3.6776c-0.68-1.1153-1.61-2.054-2.73-2.7394-1.11-0.6855-2.37-1.0983-3.67-1.2047z" fill="url(#p)" style="mix-blend-mode:screen"/>
<path d="m1904.8 74.672c-0.69-2.9565-2.36-5.5915-4.74-7.4766-2.38-1.8852-5.33-2.9096-8.37-2.9067-3.03 0.0028-5.98 1.0328-8.36 2.9224-2.37 1.8896-4.04 4.5278-4.73 7.4855-1.28 0.1474-2.51 0.5913-3.58 1.2965-1.08 0.7052-1.98 1.6522-2.63 2.7656-0.65 1.1135-1.02 2.3628-1.11 3.6486-0.08 1.2857 0.15 2.5724 0.65 3.7578 0.5 1.1853 1.28 2.2367 2.26 3.0703 0.98 0.8337 2.15 1.4268 3.4 1.7321 1.25 0.3052 2.55 0.3143 3.81 0.0264 1.25-0.2879 2.43-0.8648 3.42-1.6848 2.11 1.2567 4.52 1.9124 6.98 1.8961 2.45-0.0163 4.85-0.7039 6.95-1.9884 0.99 0.849 2.17 1.4513 3.44 1.7577 1.27 0.3063 2.59 0.308 3.86 0.0049 1.27-0.303 2.45-0.9023 3.45-1.7488 0.99-0.8465 1.77-1.9162 2.27-3.1218 0.5-1.2057 0.71-2.5129 0.61-3.8151-0.1-1.3023-0.5-2.5624-1.18-3.6777-0.68-1.1152-1.61-2.0539-2.73-2.7394-1.11-0.6854-2.36-1.0982-3.67-1.2046z" fill="url(#o)" style="mix-blend-mode:screen"/>
<path d="m2028.1 120.03c-0.36-1.534-1.23-2.901-2.47-3.88-1.23-0.979-2.76-1.511-4.34-1.511-1.57 0-3.1 0.532-4.34 1.511-1.23 0.979-2.1 2.346-2.46 3.88-0.67 0.072-1.31 0.3-1.88 0.666-0.56 0.365-1.03 0.858-1.37 1.438-0.34 0.581-0.54 1.233-0.59 1.905-0.04 0.672 0.07 1.344 0.34 1.964 0.26 0.619 0.67 1.168 1.18 1.603s1.12 0.743 1.78 0.9c0.65 0.157 1.33 0.158 1.99 4e-3 0.65-0.154 1.26-0.459 1.78-0.892 1.1 0.651 2.35 0.991 3.62 0.982 1.28-8e-3 2.52-0.365 3.61-1.031 0.51 0.451 1.13 0.773 1.79 0.94s1.36 0.173 2.02 0.019c0.67-0.155 1.29-0.466 1.81-0.907 0.53-0.441 0.93-1.001 1.2-1.632 0.26-0.631 0.37-1.316 0.32-1.998-0.06-0.682-0.27-1.341-0.63-1.923s-0.85-1.071-1.44-1.425c-0.58-0.354-1.24-0.564-1.92-0.613z" fill="url(#n)" opacity=".74" style="mix-blend-mode:screen"/>
<path d="m2345.9 121.05c-0.36-1.534-1.23-2.902-2.46-3.88-1.24-0.979-2.76-1.512-4.34-1.512s-3.11 0.533-4.34 1.512c-1.24 0.978-2.1 2.346-2.46 3.88-0.67 0.072-1.31 0.3-1.88 0.665s-1.04 0.858-1.38 1.439c-0.34 0.58-0.54 1.233-0.58 1.904-0.05 0.672 0.07 1.345 0.33 1.964 0.27 0.62 0.67 1.169 1.19 1.603 0.51 0.435 1.12 0.743 1.77 0.9 0.66 0.157 1.34 0.159 1.99 5e-3 0.66-0.154 1.27-0.46 1.79-0.892 1.09 0.651 2.34 0.99 3.62 0.982 1.27-9e-3 2.52-0.366 3.61-1.031 0.51 0.451 1.12 0.773 1.79 0.939 0.66 0.167 1.35 0.173 2.02 0.019s1.29-0.465 1.81-0.907c0.52-0.441 0.93-1 1.19-1.632 0.27-0.631 0.38-1.316 0.32-1.997-0.05-0.682-0.27-1.342-0.62-1.924-0.36-0.582-0.86-1.07-1.44-1.425-0.59-0.354-1.25-0.564-1.93-0.612z" fill="url(#l)" opacity=".74" style="mix-blend-mode:screen"/>
<path d="m2065.6 86.131c-1.15-4.9252-3.94-9.3154-7.9-12.456-3.97-3.1409-8.88-4.8477-13.94-4.8427-5.05 5e-3 -9.96 1.7215-13.92 4.8703-3.96 3.1487-6.74 7.5444-7.88 12.472-2.13 0.2427-4.18 0.98-5.98 2.1534-1.79 1.1733-3.29 2.7503-4.37 4.6051-1.08 1.8549-1.72 3.9365-1.85 6.0791-0.13 2.1422 0.23 4.2872 1.08 6.2622 0.84 1.975 2.13 3.727 3.76 5.115 1.64 1.388 3.58 2.375 5.66 2.882 2.09 0.507 4.27 0.52 6.36 0.037 2.09-0.482 4.04-1.446 5.69-2.815 3.51 2.094 7.53 3.187 11.62 3.16 4.09-0.026 8.09-1.171 11.58-3.311 1.65 1.413 3.61 2.415 5.73 2.925 2.11 0.509 4.31 0.512 6.43 7e-3 2.11-0.505 4.08-1.503 5.73-2.912 1.66-1.409 2.96-3.19 3.79-5.198 0.84-2.007 1.19-4.183 1.02-6.3512-0.16-2.1679-0.84-4.266-1.97-6.1228-1.13-1.8569-2.68-3.4199-4.53-4.5613-1.85-1.1415-3.95-1.8292-6.12-2.0068l0.01 0.0092z" fill="url(#k)" opacity=".74" style="mix-blend-mode:screen"/>
<path d="m2575.9 115.66c-1.15-4.925-3.94-9.315-7.9-12.456-3.97-3.141-8.88-4.8476-13.94-4.8426-5.05 5e-3 -9.96 1.7216-13.92 4.8706-3.96 3.148-6.74 7.544-7.88 12.472-2.13 0.242-4.18 0.98-5.98 2.153-1.79 1.173-3.29 2.75-4.37 4.605s-1.72 3.937-1.85 6.079c-0.13 2.143 0.23 4.287 1.07 6.262 0.85 1.975 2.14 3.727 3.77 5.115 1.64 1.389 3.58 2.376 5.66 2.883 2.09 0.506 4.27 0.519 6.36 0.037 2.09-0.483 4.04-1.447 5.69-2.816 3.51 2.094 7.53 3.187 11.62 3.161 4.09-0.027 8.09-1.172 11.58-3.312 1.65 1.413 3.61 2.416 5.73 2.925 2.11 0.51 4.31 0.512 6.43 7e-3 2.11-0.504 4.08-1.502 5.73-2.912 1.66-1.409 2.96-3.19 3.79-5.197 0.84-2.007 1.19-4.184 1.02-6.352-0.16-2.168-0.84-4.266-1.97-6.123s-2.68-3.42-4.54-4.561c-1.85-1.141-3.94-1.829-6.11-2.007l0.01 9e-3z" fill="url(#j)" opacity=".74" style="mix-blend-mode:screen"/>
<path d="m1856.5 117.2c-1.15-4.925-3.94-9.315-7.9-12.456-3.97-3.141-8.88-4.8477-13.94-4.8427-5.05 5e-3 -9.96 1.7217-13.92 4.8707-3.96 3.148-6.73 7.544-7.88 12.472-2.13 0.242-4.18 0.98-5.97 2.153-1.8 1.173-3.3 2.75-4.38 4.605s-1.71 3.936-1.85 6.079c-0.13 2.143 0.24 4.287 1.08 6.262s2.13 3.727 3.76 5.115c1.64 1.389 3.58 2.376 5.67 2.882 2.08 0.507 4.26 0.52 6.35 0.038 2.09-0.483 4.04-1.447 5.69-2.816 3.52 2.094 7.53 3.187 11.62 3.161 4.09-0.027 8.09-1.172 11.58-3.312 1.65 1.413 3.61 2.415 5.73 2.925 2.11 0.51 4.32 0.512 6.43 7e-3 2.11-0.504 4.08-1.502 5.74-2.912 1.65-1.409 2.95-3.19 3.79-5.197 0.83-2.007 1.18-4.184 1.01-6.352-0.16-2.168-0.84-4.266-1.97-6.123s-2.68-3.42-4.53-4.561c-1.85-1.142-3.95-1.829-6.11-2.007v9e-3z" fill="url(#i)" opacity=".74" style="mix-blend-mode:screen"/>
<path d="m2193.1 87.106c-1.15-4.9253-3.94-9.3155-7.9-12.456-3.97-3.141-8.88-4.8477-13.94-4.8427-5.06 0.0049-9.96 1.7214-13.92 4.8702-3.96 3.1487-6.74 7.5444-7.88 12.472-2.13 0.2426-4.18 0.98-5.98 2.1533-1.79 1.1733-3.29 2.7503-4.37 4.6052-1.08 1.8548-1.72 3.9364-1.85 6.079-0.14 2.1426 0.23 4.2866 1.07 6.2616 0.84 1.976 2.13 3.727 3.77 5.116 1.64 1.388 3.58 2.375 5.66 2.882 2.09 0.507 4.26 0.519 6.36 0.037 2.09-0.482 4.04-1.447 5.69-2.816 3.51 2.095 7.53 3.188 11.62 3.161s8.09-1.172 11.58-3.312c1.65 1.413 3.61 2.416 5.73 2.925 2.11 0.51 4.31 0.513 6.43 8e-3 2.11-0.505 4.08-1.503 5.73-2.912 1.66-1.41 2.96-3.191 3.79-5.198 0.84-2.007 1.19-4.184 1.02-6.3515-0.16-2.168-0.84-4.2661-1.97-6.1229-1.13-1.8569-2.69-3.4198-4.54-4.5613s-3.94-1.8291-6.11-2.0068l0.01 0.0093z" fill="url(#h)" opacity=".74" style="mix-blend-mode:screen"/>
</g>
<defs>
<linearGradient id="ai" x1="1229.7" x2="1229.7" y1="51.178" y2="157.37" gradientUnits="userSpaceOnUse">
<stop stop-color="#B3D1D1" offset=".54"/>
<stop offset="1"/>
</linearGradient>
<linearGradient id="x" x1="1568.2" x2="1568.2" y1="4.1921" y2="110.38" gradientUnits="userSpaceOnUse">
<stop stop-color="#B3D1D1" offset=".54"/>
<stop offset="1"/>
</linearGradient>
<linearGradient id="m" x1="884.66" x2="884.66" y1="20.692" y2="126.88" gradientUnits="userSpaceOnUse">
<stop stop-color="#B3D1D1" offset=".54"/>
<stop offset="1"/>
</linearGradient>
<linearGradient id="g" x1="8143.3" x2="8143.3" y1="5144" y2="9692.4" gradientUnits="userSpaceOnUse">
<stop stop-color="#B3D1D1" offset=".54"/>
<stop offset="1"/>
</linearGradient>
<linearGradient id="f" x1="8580.8" x2="8580.8" y1="5078.5" y2="9626.9" gradientUnits="userSpaceOnUse">
<stop stop-color="#B3D1D1" offset=".54"/>
<stop offset="1"/>
</linearGradient>
<linearGradient id="e" x1="7991.7" x2="7991.7" y1="5075.4" y2="9623.8" gradientUnits="userSpaceOnUse">
<stop stop-color="#B3D1D1" offset=".54"/>
<stop offset="1"/>
</linearGradient>
<linearGradient id="d" x1="3255" x2="3255" y1="2577" y2="3805.2" gradientUnits="userSpaceOnUse">
<stop stop-color="#B3D1D1" offset=".54"/>
<stop offset="1"/>
</linearGradient>
<linearGradient id="c" x1="3572.9" x2="3572.9" y1="2578" y2="3806.2" gradientUnits="userSpaceOnUse">
<stop stop-color="#B3D1D1" offset=".54"/>
<stop offset="1"/>
</linearGradient>
<linearGradient id="b" x1="12908" x2="12908" y1="-3934.8" y2="8678.7" gradientUnits="userSpaceOnUse">
<stop stop-color="#B3D1D1" offset=".54"/>
<stop offset="1"/>
</linearGradient>
<linearGradient id="a" x1="13419" x2="13419" y1="-3905.3" y2="8708.2" gradientUnits="userSpaceOnUse">
<stop stop-color="#B3D1D1" offset=".54"/>
<stop offset="1"/>
</linearGradient>
<linearGradient id="ah" x1="12699" x2="12699" y1="-3903.7" y2="8709.8" gradientUnits="userSpaceOnUse">
<stop stop-color="#B3D1D1" offset=".54"/>
<stop offset="1"/>
</linearGradient>
<linearGradient id="ag" x1="13036" x2="13036" y1="-3933.8" y2="8679.7" gradientUnits="userSpaceOnUse">
<stop stop-color="#B3D1D1" offset=".54"/>
<stop offset="1"/>
</linearGradient>
<linearGradient id="af" x1="498.91" x2="498.91" y1="58.307" y2="164.5" gradientUnits="userSpaceOnUse">
<stop stop-color="#B3D1D1" offset=".54"/>
<stop offset="1"/>
</linearGradient>
<linearGradient id="ae" x1="160.4" x2="160.4" y1="11.323" y2="117.51" gradientUnits="userSpaceOnUse">
<stop stop-color="#B3D1D1" offset=".54"/>
<stop offset="1"/>
</linearGradient>
<linearGradient id="ad" x1="-6414.6" x2="-6414.6" y1="5151.1" y2="9699.5" gradientUnits="userSpaceOnUse">
<stop stop-color="#B3D1D1" offset=".54"/>
<stop offset="1"/>
</linearGradient>
<linearGradient id="ac" x1="-6852.2" x2="-6852.2" y1="5085.6" y2="9634" gradientUnits="userSpaceOnUse">
<stop stop-color="#B3D1D1" offset=".54"/>
<stop offset="1"/>
</linearGradient>
<linearGradient id="ab" x1="-6263.1" x2="-6263.1" y1="5082.5" y2="9630.9" gradientUnits="userSpaceOnUse">
<stop stop-color="#B3D1D1" offset=".54"/>
<stop offset="1"/>
</linearGradient>
<linearGradient id="aa" x1="-1526.4" x2="-1526.4" y1="2584.1" y2="3812.3" gradientUnits="userSpaceOnUse">
<stop stop-color="#B3D1D1" offset=".54"/>
<stop offset="1"/>
</linearGradient>
<linearGradient id="z" x1="-1844.3" x2="-1844.3" y1="2585.1" y2="3813.3" gradientUnits="userSpaceOnUse">
<stop stop-color="#B3D1D1" offset=".54"/>
<stop offset="1"/>
</linearGradient>
<linearGradient id="y" x1="-11180" x2="-11180" y1="-3927.7" y2="8685.9" gradientUnits="userSpaceOnUse">
<stop stop-color="#B3D1D1" offset=".54"/>
<stop offset="1"/>
</linearGradient>
<linearGradient id="w" x1="-11690" x2="-11690" y1="-3898.1" y2="8715.4" gradientUnits="userSpaceOnUse">
<stop stop-color="#B3D1D1" offset=".54"/>
<stop offset="1"/>
</linearGradient>
<linearGradient id="v" x1="-10970" x2="-10970" y1="-3896.6" y2="8716.9" gradientUnits="userSpaceOnUse">
<stop stop-color="#B3D1D1" offset=".54"/>
<stop offset="1"/>
</linearGradient>
<linearGradient id="u" x1="-11307" x2="-11307" y1="-3926.7" y2="8686.8" gradientUnits="userSpaceOnUse">
<stop stop-color="#B3D1D1" offset=".54"/>
<stop offset="1"/>
</linearGradient>
<linearGradient id="t" x1="2090.7" x2="2090.7" y1="34.538" y2="140.73" gradientUnits="userSpaceOnUse">
<stop stop-color="#B3D1D1" offset=".54"/>
<stop offset="1"/>
</linearGradient>
<linearGradient id="s" x1="2429.2" x2="2429.2" y1="-12.447" y2="93.744" gradientUnits="userSpaceOnUse">
<stop stop-color="#B3D1D1" offset=".54"/>
<stop offset="1"/>
</linearGradient>
<linearGradient id="r" x1="1745.6" x2="1745.6" y1="4.0534" y2="110.24" gradientUnits="userSpaceOnUse">
<stop stop-color="#B3D1D1" offset=".54"/>
<stop offset="1"/>
</linearGradient>
<linearGradient id="q" x1="9004.3" x2="9004.3" y1="5127.3" y2="9675.7" gradientUnits="userSpaceOnUse">
<stop stop-color="#B3D1D1" offset=".54"/>
<stop offset="1"/>
</linearGradient>
<linearGradient id="p" x1="9441.8" x2="9441.8" y1="5061.9" y2="9610.3" gradientUnits="userSpaceOnUse">
<stop stop-color="#B3D1D1" offset=".54"/>
<stop offset="1"/>
</linearGradient>
<linearGradient id="o" x1="8852.7" x2="8852.7" y1="5058.7" y2="9607.1" gradientUnits="userSpaceOnUse">
<stop stop-color="#B3D1D1" offset=".54"/>
<stop offset="1"/>
</linearGradient>
<linearGradient id="n" x1="4116" x2="4116" y1="2560.3" y2="3788.5" gradientUnits="userSpaceOnUse">
<stop stop-color="#B3D1D1" offset=".54"/>
<stop offset="1"/>
</linearGradient>
<linearGradient id="l" x1="4433.9" x2="4433.9" y1="2561.3" y2="3789.6" gradientUnits="userSpaceOnUse">
<stop stop-color="#B3D1D1" offset=".54"/>
<stop offset="1"/>
</linearGradient>
<linearGradient id="k" x1="13769" x2="13769" y1="-3951.4" y2="8662.1" gradientUnits="userSpaceOnUse">
<stop stop-color="#B3D1D1" offset=".54"/>
<stop offset="1"/>
</linearGradient>
<linearGradient id="j" x1="14280" x2="14280" y1="-3921.9" y2="8691.6" gradientUnits="userSpaceOnUse">
<stop stop-color="#B3D1D1" offset=".54"/>
<stop offset="1"/>
</linearGradient>
<linearGradient id="i" x1="13560" x2="13560" y1="-3920.4" y2="8693.2" gradientUnits="userSpaceOnUse">
<stop stop-color="#B3D1D1" offset=".54"/>
<stop offset="1"/>
</linearGradient>
<linearGradient id="h" x1="13897" x2="13897" y1="-3950.4" y2="8663.1" gradientUnits="userSpaceOnUse">
<stop stop-color="#B3D1D1" offset=".54"/>
<stop offset="1"/>
</linearGradient>
</defs>
</svg>
