<?xml version="1.0" encoding="UTF-8"?>
<svg viewBox="0 0 74 83" xmlns="http://www.w3.org/2000/svg">
<path d="m73.334 59.536v-36.072c0-1.9393-1.0346-3.7313-2.7141-4.7009l-13.121-7.7632-1.56 1.57-29.443 30.944v-16.952h8.1207v-4.8495h-21.291v4.8495h8.1208v24.729l36.386-37.62 10.401 6.0427c1.6795 0.9697 2.7141 2.7617 2.7141 4.701v33.629c0 1.9393-1.0346 3.7313-2.7141 4.7009l-29.124 16.815c-1.6795 0.9696-3.7487 0.9696-5.4282 0l-24.423-14.099-1.5784 1.627 26.272 15.186c1.6795 0.9697 3.7487 0.9697 5.4282 1e-4l31.239-18.036c1.6795-0.9696 2.7141-2.7616 2.7141-4.7009z" fill="#FFF9FB"/>
<path d="m0 59.536v-36.072c0-1.9393 1.0346-3.7313 2.7141-4.7009l31.239-18.036c1.6795-0.96965 3.7487-0.96965 5.4282 1e-6l18.118 10.273-1.5546 1.5754-16.834-9.6769c-1.6795-0.96965-3.7487-0.96965-5.4282 0l-29.124 16.815c-1.6795 0.9697-2.7141 2.7616-2.7141 4.7009v33.629c0 1.9393 1.0346 3.7313 2.7141 4.701l6.4362 3.7223-1.4958 1.6835-6.7849-3.9131c-1.6795-0.9696-2.7141-2.7616-2.7141-4.7009z" fill="#003448"/>
<path d="m54.417 43.142h-12.492v-12.124l-32.666 34.442 1.7397 1.01 25.996-26.812v21.137h5.0491v-12.804h12.373v12.804h5.0492v-29.778h-5.0492v12.124z" fill="#003448"/>
</svg>
